<svg width="203" height="388" viewBox="0 0 203 388" fill="none" xmlns="http://www.w3.org/2000/svg">
<path d="M90.2637 5.29712L98.7218 15.1393L103.978 15.5297L105.273 12.6731L90.2637 5.29712ZM98.9506 14.745L91.8824 6.51199L104.789 12.8872L103.767 15.1279L98.9506 14.745Z" fill="white"/>
<path d="M90.082 4.92175L102.169 19.7538L116.526 24.856L90.082 4.92175Z" fill="#3387C9"/>
<path d="M97.2216 18.9119L90.0821 4.92312L90.8852 24.2753L97.2216 18.9119Z" fill="#3387C9"/>
<path d="M97.2216 18.9105L98.6523 15.4171L90.082 4.92175L97.2216 18.9105Z" fill="white"/>
<path d="M202.014 95.1021C201.932 95.1059 193.785 94.4639 184.173 89.9673C175.317 85.8201 163.388 77.4256 156.825 61.0519C155.587 57.9821 154.789 54.9197 154.35 51.9232C157.005 51.1984 159.647 50.2 162.275 48.9005C168.657 45.729 174.501 40.9915 178.694 35.5342C184.595 27.8597 186.56 19.8442 184.05 13.5417C183.027 10.9558 181.255 9.39145 178.936 9.05874C174.574 8.43556 168.465 12.1705 163.412 18.5996C157.216 26.4521 152.233 38.6096 154.067 51.7167C149.704 52.8761 145.332 53.2133 141.14 52.692C128.731 51.2029 118.936 43.9174 112.908 38.0502C106.366 31.7128 102.743 25.6533 102.713 25.5998L102.499 25.7193C102.529 25.7728 106.18 31.8584 112.752 38.2219C118.807 44.0879 128.631 51.4269 141.122 52.9122C145.313 53.4061 149.713 53.0677 154.104 51.9344C154.544 54.9584 155.342 58.0208 156.58 61.0905C163.174 77.5451 175.16 85.9644 184.044 90.1378C193.685 94.6605 201.886 95.3 201.969 95.2962L202.014 95.1021ZM154.008 48.0446C153.478 36.441 158.067 25.8646 163.639 18.7811C168.641 12.4093 174.642 8.70672 178.948 9.33241C181.213 9.66762 182.87 11.1275 183.891 13.6587C186.368 19.8529 184.427 27.7851 178.551 35.4036C174.384 40.8323 168.566 45.5411 162.21 48.684C159.608 49.9549 156.993 50.952 154.366 51.6756C154.173 50.4503 154.063 49.2487 154.008 48.0446Z" fill="white"/>
<path d="M88.2722 370.649L38.3359 383.385C34.85 384.274 31.3702 382.14 30.5018 378.735L12.8655 309.587C11.9764 306.101 14.1107 302.621 17.5155 301.752L49.2121 293.668L80.2257 312.696L93.0032 362.794C93.8112 366.301 91.758 369.76 88.2722 370.649Z" fill="#E1F3FF"/>
<path d="M49.2188 293.664L54.1809 313.12C55.0079 316.363 58.2636 318.295 61.5062 317.468L80.2323 312.692L49.2188 293.664Z" fill="#E1F3FF"/>
<path d="M54.8474 314.761C54.8474 314.761 55.8034 319.525 61.5465 319.7C61.7293 319.74 61.9725 319.678 62.2364 319.697C64.7717 319.482 81.6481 318.286 81.5447 317.881C81.4413 317.475 80.2008 312.611 80.2008 312.611L61.4747 317.387C61.4953 317.469 56.7522 318.506 54.8474 314.761Z" fill="#B5E1FF"/>
<path d="M88.2565 370.652C88.2565 370.652 88.6618 370.549 89.269 370.221C89.9572 369.873 90.949 369.361 91.7755 368.201C92.6019 367.04 93.2836 365.312 92.9288 363.244C92.4119 361.218 91.8123 358.867 91.1507 356.273C88.4835 345.815 84.5775 330.839 79.9668 312.761L80.0892 312.903C70.6877 307.185 60.2481 300.782 49.0756 293.875L49.2584 293.915C43.4217 295.403 37.2607 296.975 30.9376 298.587C27.7761 299.394 24.6145 300.2 21.3719 301.027C20.5613 301.234 19.7506 301.441 18.94 301.647C18.1293 301.854 17.298 301.98 16.5287 302.349C15.0505 302.985 13.8187 304.249 13.2578 305.773C12.8367 306.83 12.7002 307.987 12.9086 309.143C13.117 310.299 13.4875 311.413 13.7769 312.548C14.3559 314.818 14.9348 317.087 15.493 319.276C16.6302 323.735 17.7467 328.112 18.8632 332.49C21.0755 341.164 23.1844 349.432 25.2106 357.377C26.2237 361.349 27.2161 365.24 28.1672 368.969C28.6427 370.834 29.1183 372.698 29.5938 374.563C29.8213 375.454 30.0487 376.346 30.2968 377.319C30.5242 378.211 30.6706 379.123 31.0395 379.892C31.798 381.512 33.224 382.702 34.9106 383.222C35.7435 383.441 36.6369 383.559 37.3872 383.454C38.2185 383.328 39.0291 383.121 39.8398 382.914C43.0824 382.087 46.2439 381.281 49.2433 380.516C61.241 377.456 70.9896 375.056 77.718 373.34C81.0417 372.492 83.6358 371.831 85.4192 371.376C86.3109 371.148 86.9594 370.983 87.4458 370.859C88.0133 370.714 88.2565 370.652 88.2565 370.652C88.2565 370.652 88.0133 370.714 87.6079 370.818C87.1215 370.942 86.473 371.107 85.5813 371.334C83.7979 371.789 81.2038 372.451 77.8801 373.299C71.1517 375.015 61.4238 377.496 49.4468 380.637C46.4474 381.402 43.2859 382.208 40.0433 383.035C39.2326 383.242 38.4426 383.53 37.5095 383.595C36.6782 383.721 35.7038 383.624 34.8502 383.324C33.0825 382.825 31.5547 381.574 30.7756 379.873C30.386 379.023 30.2397 378.111 29.9312 377.239C29.7038 376.348 29.4763 375.456 29.2282 374.483C28.7527 372.619 28.2978 370.835 27.8016 368.89C26.8505 365.161 25.8581 361.27 24.845 357.297C22.8188 349.353 20.6892 341.003 18.4976 332.41C17.4018 328.114 16.2646 323.655 15.1274 319.197C14.5485 316.927 13.9903 314.738 13.4114 312.468C13.1219 311.333 12.8324 310.198 12.543 309.064C12.3346 307.908 12.4298 306.589 12.9113 305.43C13.5326 303.804 14.8247 302.438 16.465 301.761C17.2343 301.392 18.1467 301.245 18.8763 301.059C19.6869 300.852 20.4976 300.646 21.3082 300.439C24.5509 299.612 27.7124 298.806 30.874 297.999C37.1971 296.386 43.277 294.836 49.1947 293.326L49.2758 293.306L49.3776 293.366C60.5294 300.192 70.9897 306.676 80.3101 312.415L80.4118 312.475L80.4325 312.556C85.0432 330.634 88.7871 345.651 91.4543 356.109C92.1159 358.703 92.7155 361.054 93.1513 363.101C93.5267 365.25 92.8658 367.059 91.9376 368.159C91.0301 369.34 90.0589 369.933 89.35 370.201C89.0464 370.364 88.7222 370.447 88.56 370.488C88.3375 370.632 88.2565 370.652 88.2565 370.652Z" fill="#0C1923"/>
<path d="M80.1485 312.716C80.1485 312.716 79.9864 312.758 79.6828 312.922C79.3586 313.004 78.8722 313.128 78.3047 313.273C77.0887 313.583 75.3053 314.038 73.2183 314.657C71.0295 315.215 68.5165 315.856 65.6999 316.661C64.3218 317.012 62.7815 317.405 61.2413 317.798C59.62 318.211 57.8126 317.895 56.3468 316.888C55.614 316.384 55.0226 315.758 54.5726 315.009C54.1227 314.26 53.8348 313.47 53.7298 312.72C53.337 311.18 52.9648 309.721 52.5927 308.261C51.869 305.424 51.2281 302.911 50.7509 300.702C50.2133 298.594 49.8602 296.871 49.5294 295.574C49.3847 295.006 49.2606 294.52 49.1779 294.196C49.0952 293.872 49.0538 293.709 49.1349 293.689C49.1349 293.689 49.1763 293.851 49.3401 294.154C49.4228 294.479 49.5468 294.965 49.6915 295.533C50.0017 296.749 50.4565 298.532 51.0752 300.619C51.6334 302.808 52.2743 305.321 53.079 308.137C53.4305 309.516 53.8234 311.056 54.2162 312.596C54.423 313.407 54.6091 314.136 55.0384 314.804C55.4676 315.471 56.059 316.098 56.6901 316.541C58.0541 317.488 59.6787 317.765 61.2189 317.372C62.7592 316.979 64.2184 316.607 65.6775 316.235C68.5148 315.511 71.0278 314.87 73.2373 314.393C75.345 313.855 77.0681 313.502 78.3651 313.171C78.9326 313.027 79.4189 312.903 79.7432 312.82C79.9864 312.758 80.1485 312.716 80.1485 312.716Z" fill="#0C1923"/>
<path d="M52.6671 311.261C52.6878 311.342 46.8114 313.014 39.5155 314.874C32.2196 316.735 26.2811 318.163 26.2398 318.001C26.2191 317.92 32.0955 316.249 39.3914 314.388C46.7891 312.587 52.6464 311.18 52.6671 311.261Z" fill="#0C1923"/>
<path d="M67.7078 317.787C67.7285 317.868 59.0958 320.243 48.3141 322.993C37.6135 325.722 28.8378 327.874 28.7964 327.712C28.7551 327.55 37.4084 325.256 48.1901 322.506C58.9114 319.858 67.6871 317.706 67.7078 317.787Z" fill="#0C1923"/>
<path d="M70.1883 327.515C70.2089 327.596 61.5763 329.97 50.7946 332.72C40.094 335.449 31.3182 337.601 31.2769 337.439C31.2562 337.358 39.8888 334.984 50.6705 332.234C61.3712 329.504 70.1676 327.434 70.1883 327.515Z" fill="#0C1923"/>
<path d="M72.6668 337.243C72.6874 337.324 64.0548 339.698 53.2731 342.448C42.5725 345.177 33.7967 347.329 33.7554 347.167C33.714 347.005 42.3674 344.712 53.149 341.962C63.8497 339.232 72.6254 337.081 72.6668 337.243Z" fill="#0C1923"/>
<path d="M75.1257 346.889C75.1464 346.97 66.5138 349.344 55.7321 352.094C45.0315 354.823 36.2557 356.975 36.2144 356.813C36.173 356.651 44.8263 354.358 55.608 351.608C66.3293 348.96 75.1051 346.808 75.1257 346.889Z" fill="#0C1923"/>
<path d="M78.1902 358.888C78.2109 358.969 69.5782 361.343 58.7965 364.093C48.0959 366.823 39.3202 368.974 39.2788 368.812C39.2581 368.731 47.8908 366.357 58.6725 363.607C69.3938 360.959 78.1695 358.807 78.1902 358.888Z" fill="#0C1923"/>
<path d="M56.4684 364.427L20.8807 373.504C19.0162 373.98 17.0831 372.832 16.6076 370.968L13.4856 358.727C13.01 356.862 14.1574 354.929 16.0219 354.454L51.6097 345.377C53.4742 344.901 55.4072 346.049 55.8827 347.913L59.0048 360.154C59.4803 362.019 58.3329 363.952 56.4684 364.427Z" fill="url(#paint0_linear_756_4666)"/>
<path d="M19.0742 360.322L22.3168 359.495C24.6677 358.895 26.6612 359.941 27.1988 362.049C27.757 364.238 26.4872 366.029 24.1363 366.629L20.8937 367.456L19.0742 360.322ZM23.8055 365.332C25.2647 364.96 25.929 363.84 25.5775 362.462C25.226 361.084 24.0258 360.441 22.6476 360.792L21.1074 361.185L22.2446 365.643L23.7848 365.251L23.8055 365.332Z" fill="white"/>
<path d="M28.0898 361.822C27.5522 359.715 28.8411 357.659 31.1109 357.08C33.3807 356.501 35.4759 357.607 36.0341 359.796C36.5924 361.985 35.2829 363.959 33.0131 364.538C30.6622 365.138 28.648 364.011 28.0898 361.822ZM34.2507 360.251C33.8993 358.873 32.699 358.229 31.402 358.56C30.1049 358.891 29.3802 360.112 29.7111 361.409C30.0625 362.787 31.2628 363.43 32.5598 363.1C33.8775 362.85 34.6022 361.629 34.2507 360.251Z" fill="white"/>
<path d="M36.7636 359.609C36.2053 357.42 37.5149 355.446 39.7036 354.888C40.9196 354.578 42.0975 354.795 43.0339 355.42L42.2281 356.661C41.597 356.218 40.9675 356.119 40.2379 356.306C38.8598 356.657 38.2162 357.857 38.547 359.154C38.8985 360.532 40.0987 361.176 41.3958 360.845C42.1254 360.659 42.6101 360.19 42.9518 359.499L44.2537 360.203C43.812 361.179 42.8822 361.934 41.5851 362.265C39.336 362.925 37.3218 361.798 36.7636 359.609Z" fill="white"/>
<path d="M50.1025 360.092L47.7592 358.014L46.6978 360.961L44.7522 361.457L46.497 357.127L43.0742 354.201L44.9387 353.725L47.1596 355.663L48.1814 352.898L49.9648 352.443L48.3408 356.57L51.967 359.617L50.1025 360.092Z" fill="white"/>
<g opacity="0.7">
<path d="M158.347 314.018L124.75 305.222C122.404 304.608 121.05 302.213 121.65 299.923L133.83 253.399C134.444 251.054 136.839 249.699 139.129 250.299L160.455 255.882L172.526 277.226L163.701 310.932C163.032 313.263 160.692 314.632 158.347 314.018Z" fill="#E1F3FF"/>
<path d="M160.457 255.883L157.03 268.973C156.459 271.154 157.747 273.357 159.929 273.928L172.528 277.226L160.457 255.883Z" fill="#E1F3FF"/>
<path d="M156.89 270.157C156.89 270.157 155.898 273.278 159.226 275.257C159.321 275.34 159.485 275.383 159.634 275.48C161.199 276.181 171.539 280.986 171.61 280.713C171.681 280.441 172.538 277.168 172.538 277.168L159.939 273.87C159.925 273.924 156.79 272.987 156.89 270.157Z" fill="#B5E1FF"/>
<path d="M158.327 314.017C158.327 314.017 158.6 314.088 159.065 314.093C159.584 314.113 160.336 314.135 161.202 313.721C162.068 313.306 163.034 312.51 163.5 311.175C163.857 309.812 164.271 308.23 164.728 306.485C166.57 299.449 169.158 289.344 172.342 277.182L172.368 277.305C168.692 270.865 164.629 263.681 160.297 255.962L160.392 256.045C156.465 255.017 152.32 253.931 148.066 252.818C145.939 252.261 143.812 251.704 141.63 251.133C141.085 250.99 140.539 250.847 139.994 250.704C139.448 250.561 138.917 250.364 138.343 250.33C137.264 250.223 136.125 250.566 135.297 251.281C134.703 251.767 134.245 252.404 133.991 253.154C133.736 253.903 133.591 254.681 133.391 255.444C132.991 256.972 132.591 258.499 132.206 259.971C131.42 262.971 130.649 265.916 129.878 268.862C128.35 274.697 126.894 280.261 125.494 285.606C124.795 288.278 124.109 290.896 123.452 293.405C123.124 294.659 122.795 295.914 122.467 297.168C122.31 297.768 122.153 298.368 121.981 299.023C121.824 299.623 121.613 300.208 121.579 300.782C121.497 301.985 121.949 303.152 122.774 304.009C123.193 304.41 123.682 304.771 124.158 304.954C124.689 305.152 125.235 305.295 125.78 305.437C127.962 306.009 130.089 306.565 132.107 307.094C140.179 309.207 146.71 310.975 151.237 312.161C153.473 312.746 155.218 313.203 156.418 313.517C157.018 313.674 157.454 313.788 157.782 313.874C158.163 313.974 158.327 314.017 158.327 314.017C158.327 314.017 158.163 313.974 157.891 313.903C157.563 313.817 157.127 313.703 156.527 313.546C155.327 313.232 153.582 312.775 151.346 312.189C146.819 311.004 140.274 309.29 132.188 307.231C130.17 306.703 128.042 306.146 125.861 305.575C125.315 305.432 124.756 305.344 124.184 305.078C123.653 304.88 123.11 304.505 122.705 304.049C121.826 303.178 121.334 301.942 121.43 300.685C121.478 300.056 121.689 299.471 121.792 298.857C121.949 298.257 122.106 297.657 122.277 297.002C122.606 295.748 122.92 294.548 123.263 293.239C123.92 290.73 124.605 288.112 125.305 285.439C126.704 280.094 128.175 274.477 129.689 268.695C130.445 265.805 131.231 262.805 132.016 259.805C132.416 258.278 132.801 256.805 133.201 255.278C133.401 254.515 133.601 253.751 133.801 252.988C134.056 252.238 134.542 251.492 135.205 250.966C136.102 250.21 137.31 249.827 138.498 249.963C139.072 249.996 139.657 250.208 140.148 250.337C140.694 250.479 141.239 250.622 141.784 250.765C143.966 251.336 146.093 251.893 148.22 252.45C152.475 253.564 156.565 254.635 160.547 255.677L160.601 255.692L160.641 255.76C164.987 263.425 169.037 270.663 172.658 277.09L172.698 277.158L172.683 277.213C169.499 289.376 166.803 299.451 164.961 306.487C164.504 308.233 164.09 309.814 163.678 311.163C163.198 312.553 162.217 313.404 161.311 313.749C160.39 314.149 159.624 314.182 159.119 314.108C158.887 314.105 158.669 314.048 158.559 314.019C158.382 314.031 158.327 314.017 158.327 314.017Z" fill="#0C1923"/>
<path d="M172.462 277.214C172.462 277.214 172.353 277.186 172.12 277.183C171.902 277.126 171.575 277.04 171.193 276.94C170.375 276.726 169.175 276.412 167.743 276.095C166.27 275.71 164.579 275.267 162.656 274.822C161.729 274.579 160.693 274.308 159.656 274.037C158.566 273.751 157.603 272.974 157.068 271.902C156.801 271.366 156.656 270.803 156.636 270.215C156.615 269.627 156.703 269.067 156.886 268.591C157.157 267.554 157.414 266.573 157.671 265.591C158.171 263.682 158.614 261.991 159.054 260.533C159.425 259.115 159.78 257.984 160.008 257.111C160.108 256.729 160.194 256.402 160.251 256.184C160.308 255.966 160.337 255.857 160.391 255.871C160.391 255.871 160.363 255.98 160.36 256.212C160.303 256.431 160.217 256.758 160.117 257.14C159.903 257.958 159.589 259.158 159.272 260.59C158.887 262.063 158.444 263.753 157.999 265.677C157.756 266.604 157.485 267.64 157.213 268.676C157.07 269.222 156.942 269.713 156.977 270.246C157.012 270.78 157.156 271.342 157.384 271.81C157.878 272.813 158.746 273.507 159.782 273.778C160.819 274.049 161.8 274.306 162.782 274.564C164.691 275.063 166.382 275.506 167.84 275.946C169.258 276.317 170.389 276.672 171.262 276.9C171.644 277 171.971 277.086 172.189 277.143C172.353 277.186 172.462 277.214 172.462 277.214Z" fill="#0C1923"/>
<path d="M156.74 267.384C156.725 267.438 152.715 266.505 147.806 265.22C142.898 263.934 138.931 262.838 138.959 262.728C138.973 262.674 142.983 263.607 147.892 264.892C152.841 266.246 156.754 267.329 156.74 267.384Z" fill="#0C1923"/>
<path d="M163.479 276.14C163.464 276.195 157.6 274.776 150.346 272.877C143.147 270.992 137.27 269.395 137.299 269.286C137.328 269.177 143.178 270.65 150.432 272.55C157.617 274.489 163.493 276.086 163.479 276.14Z" fill="#0C1923"/>
<path d="M161.762 282.685C161.748 282.74 155.883 281.321 148.629 279.422C141.43 277.537 135.554 275.94 135.582 275.831C135.596 275.776 141.461 277.195 148.715 279.094C155.914 280.979 161.776 282.631 161.762 282.685Z" fill="#0C1923"/>
<path d="M160.051 289.23C160.037 289.284 154.172 287.865 146.918 285.966C139.719 284.081 133.843 282.485 133.871 282.376C133.9 282.266 139.75 283.74 147.004 285.639C154.203 287.524 160.079 289.121 160.051 289.23Z" fill="#0C1923"/>
<path d="M158.35 295.719C158.335 295.774 152.471 294.355 145.217 292.456C138.018 290.571 132.141 288.974 132.17 288.865C132.199 288.756 138.049 290.229 145.303 292.129C152.488 294.068 158.364 295.665 158.35 295.719Z" fill="#0C1923"/>
<path d="M156.236 303.794C156.222 303.848 150.358 302.429 143.104 300.53C135.904 298.645 130.028 297.049 130.057 296.939C130.071 296.885 135.936 298.304 143.189 300.203C150.375 302.142 156.251 303.739 156.236 303.794Z" fill="#0C1923"/>
<path d="M141.625 299.967L117.681 293.698C116.427 293.37 115.662 292.062 115.99 290.808L118.146 282.572C118.475 281.318 119.782 280.553 121.037 280.881L144.98 287.15C146.235 287.478 147 288.786 146.671 290.04L144.515 298.276C144.187 299.53 142.879 300.295 141.625 299.967Z" fill="url(#paint1_linear_756_4666)"/>
<path d="M120.918 285.337L123.1 285.908C124.681 286.323 125.515 287.59 125.144 289.008C124.758 290.481 123.425 291.122 121.843 290.708L119.661 290.137L120.918 285.337ZM122.071 289.835C123.053 290.092 123.81 289.65 124.053 288.722C124.296 287.795 123.798 287.024 122.871 286.781L121.835 286.51L121.049 289.51L122.086 289.781L122.071 289.835Z" fill="white"/>
<path d="M125.744 289.165C126.115 287.747 127.546 286.956 129.073 287.356C130.6 287.756 131.474 289.092 131.089 290.565C130.703 292.037 129.286 292.774 127.759 292.374C126.177 291.96 125.358 290.638 125.744 289.165ZM129.889 290.25C130.131 289.323 129.634 288.552 128.761 288.323C127.889 288.095 127.063 288.578 126.834 289.451C126.592 290.378 127.089 291.149 127.962 291.378C128.82 291.661 129.646 291.178 129.889 290.25Z" fill="white"/>
<path d="M131.579 290.692C131.965 289.22 133.382 288.483 134.854 288.869C135.672 289.083 136.296 289.596 136.644 290.27L135.763 290.739C135.536 290.271 135.197 290.008 134.706 289.879C133.779 289.637 133.008 290.134 132.779 291.007C132.537 291.934 133.034 292.705 133.907 292.934C134.398 293.062 134.836 292.944 135.264 292.648L135.801 293.488C135.222 293.919 134.427 294.061 133.555 293.832C132.013 293.487 131.194 292.165 131.579 290.692Z" fill="white"/>
<path d="M139.286 295.333L138.583 293.342L136.995 294.733L135.686 294.39L138.129 292.407L137.066 289.565L138.321 289.893L138.997 291.761L140.502 290.464L141.702 290.779L139.397 292.681L140.54 295.661L139.286 295.333Z" fill="white"/>
</g>
<g opacity="0.3">
<path d="M124.559 220.828L105.502 224.999C104.172 225.29 102.883 224.437 102.599 223.138L96.824 196.749C96.5329 195.419 97.3855 194.13 98.6848 193.846L110.781 191.199L122.267 198.8L126.451 217.918C126.711 219.255 125.889 220.537 124.559 220.828Z" fill="#E1F3FF"/>
<path d="M110.775 191.199L112.4 198.623C112.671 199.861 113.878 200.634 115.115 200.363L122.261 198.799L110.775 191.199Z" fill="#E1F3FF"/>
<path d="M112.635 199.252C112.635 199.252 112.935 201.066 115.106 201.207C115.174 201.225 115.267 201.204 115.367 201.215C116.329 201.167 122.729 200.933 122.695 200.778C122.661 200.624 122.255 198.768 122.255 198.768L115.108 200.331C115.115 200.362 113.307 200.693 112.635 199.252Z" fill="#B5E1FF"/>
<path d="M124.54 220.832C124.54 220.832 124.695 220.799 124.929 220.683C125.194 220.56 125.576 220.379 125.903 219.951C126.231 219.522 126.511 218.877 126.404 218.091C126.235 217.317 126.038 216.42 125.822 215.43C124.948 211.439 123.665 205.723 122.155 198.824L122.2 198.879C118.717 196.594 114.851 194.036 110.714 191.279L110.782 191.296C108.555 191.783 106.204 192.298 103.791 192.826C102.584 193.09 101.378 193.354 100.14 193.625C99.831 193.693 99.5217 193.76 99.2123 193.828C98.9029 193.896 98.5868 193.932 98.291 194.062C97.7235 194.284 97.2411 194.746 97.0092 195.315C96.8361 195.71 96.7695 196.146 96.8333 196.585C96.8972 197.025 97.0229 197.452 97.1177 197.885C97.3072 198.751 97.4968 199.617 97.6796 200.452C98.0519 202.154 98.4175 203.824 98.7831 205.495C99.5075 208.805 100.198 211.961 100.862 214.992C101.193 216.508 101.518 217.993 101.83 219.416C101.985 220.128 102.141 220.839 102.297 221.551C102.371 221.891 102.446 222.231 102.527 222.603C102.601 222.943 102.645 223.29 102.775 223.586C103.041 224.208 103.565 224.677 104.196 224.896C104.508 224.989 104.845 225.045 105.13 225.015C105.446 224.979 105.755 224.911 106.065 224.843C107.302 224.572 108.509 224.308 109.653 224.058C114.232 223.056 117.951 222.274 120.519 221.713C121.787 221.435 122.777 221.218 123.457 221.069C123.798 220.995 124.045 220.941 124.231 220.9C124.447 220.853 124.54 220.832 124.54 220.832C124.54 220.832 124.447 220.853 124.293 220.887C124.107 220.927 123.86 220.981 123.519 221.056C122.839 221.205 121.849 221.421 120.58 221.699C118.013 222.261 114.3 223.073 109.729 224.106C108.584 224.357 107.377 224.621 106.14 224.892C105.831 224.959 105.528 225.058 105.174 225.071C104.858 225.107 104.491 225.058 104.172 224.933C103.509 224.722 102.948 224.229 102.675 223.575C102.539 223.248 102.495 222.901 102.39 222.568C102.315 222.228 102.241 221.887 102.16 221.516C102.004 220.804 101.855 220.124 101.692 219.381C101.381 217.958 101.056 216.473 100.724 214.958C100.061 211.926 99.3635 208.739 98.6458 205.46C98.287 203.821 97.9147 202.119 97.5423 200.418C97.3527 199.551 97.17 198.716 96.9804 197.85C96.8856 197.417 96.7908 196.984 96.696 196.551C96.6322 196.111 96.6853 195.613 96.8825 195.181C97.1386 194.574 97.6452 194.074 98.2745 193.839C98.5703 193.709 98.9174 193.666 99.1958 193.605C99.5052 193.537 99.8146 193.469 100.124 193.402C101.361 193.131 102.568 192.867 103.774 192.603C106.187 192.075 108.508 191.567 110.766 191.073L110.797 191.066L110.835 191.09C114.965 193.817 118.838 196.406 122.29 198.698L122.327 198.722L122.334 198.753C123.844 205.651 125.065 211.381 125.939 215.372C126.155 216.362 126.352 217.259 126.49 218.039C126.604 218.857 126.331 219.533 125.965 219.937C125.607 220.372 125.231 220.584 124.96 220.676C124.843 220.734 124.719 220.761 124.657 220.774C124.571 220.826 124.54 220.832 124.54 220.832Z" fill="#0C1923"/>
<path d="M122.223 198.81C122.223 198.81 122.161 198.824 122.044 198.882C121.921 198.909 121.735 198.95 121.518 198.997C121.054 199.098 120.374 199.247 119.576 199.454C118.741 199.637 117.782 199.847 116.706 200.115C116.18 200.23 115.592 200.359 115.004 200.487C114.386 200.623 113.706 200.48 113.165 200.079C112.894 199.879 112.678 199.635 112.518 199.346C112.357 199.057 112.259 198.754 112.229 198.469C112.1 197.881 111.978 197.324 111.856 196.767C111.619 195.685 111.409 194.726 111.258 193.884C111.082 193.079 110.97 192.423 110.862 191.928C110.815 191.711 110.774 191.526 110.747 191.402C110.72 191.278 110.706 191.216 110.737 191.21C110.737 191.21 110.751 191.271 110.809 191.388C110.836 191.512 110.876 191.698 110.924 191.914C111.025 192.378 111.174 193.059 111.381 193.857C111.564 194.692 111.774 195.651 112.042 196.727C112.157 197.253 112.286 197.841 112.414 198.428C112.482 198.738 112.543 199.016 112.697 199.274C112.85 199.532 113.066 199.777 113.299 199.953C113.803 200.329 114.414 200.454 115.001 200.326C115.589 200.197 116.146 200.075 116.703 199.953C117.786 199.717 118.745 199.507 119.587 199.355C120.391 199.179 121.048 199.068 121.543 198.959C121.759 198.912 121.945 198.871 122.068 198.844C122.161 198.824 122.223 198.81 122.223 198.81Z" fill="#0C1923"/>
<path d="M111.852 197.902C111.858 197.933 109.614 198.489 106.829 199.098C104.045 199.707 101.78 200.171 101.766 200.109C101.76 200.078 104.004 199.522 106.789 198.912C109.611 198.327 111.845 197.871 111.852 197.902Z" fill="#0C1923"/>
<path d="M117.459 200.564C117.466 200.595 114.17 201.382 110.055 202.282C105.972 203.176 102.624 203.876 102.61 203.814C102.597 203.752 105.9 202.997 110.014 202.096C114.105 201.234 117.453 200.533 117.459 200.564Z" fill="#0C1923"/>
<path d="M118.27 204.277C118.277 204.308 114.98 205.094 110.866 205.995C106.782 206.888 103.434 207.589 103.421 207.527C103.414 207.496 106.711 206.71 110.825 205.809C114.909 204.915 118.263 204.246 118.27 204.277Z" fill="#0C1923"/>
<path d="M119.084 207.989C119.091 208.02 115.795 208.806 111.68 209.707C107.597 210.6 104.249 211.3 104.235 211.239C104.222 211.177 107.525 210.421 111.639 209.521C115.723 208.627 119.071 207.927 119.084 207.989Z" fill="#0C1923"/>
<path d="M119.887 211.671C119.894 211.701 116.597 212.488 112.483 213.388C108.399 214.282 105.051 214.982 105.038 214.92C105.024 214.858 108.328 214.103 112.442 213.203C116.533 212.34 119.88 211.64 119.887 211.671Z" fill="#0C1923"/>
<path d="M120.891 216.25C120.898 216.281 117.601 217.067 113.487 217.968C109.403 218.861 106.055 219.562 106.042 219.5C106.035 219.469 109.332 218.683 113.446 217.782C117.536 216.919 120.884 216.219 120.891 216.25Z" fill="#0C1923"/>
<path d="M112.602 218.063L99.0212 221.035C98.3096 221.191 97.5932 220.732 97.4375 220.02L96.4152 215.349C96.2595 214.638 96.7186 213.921 97.4302 213.765L111.011 210.793C111.723 210.638 112.439 211.097 112.595 211.808L113.617 216.48C113.773 217.191 113.314 217.908 112.602 218.063Z" fill="url(#paint2_linear_756_4666)"/>
<path d="M98.5078 216.026L99.7453 215.755C100.642 215.558 101.383 215.98 101.559 216.784C101.742 217.62 101.238 218.281 100.341 218.477L99.1036 218.748L98.5078 216.026ZM100.233 217.982C100.79 217.86 101.055 217.446 100.94 216.92C100.825 216.394 100.379 216.135 99.8536 216.25L99.2658 216.378L99.6382 218.08L100.226 217.951L100.233 217.982Z" fill="white"/>
<path d="M101.899 216.71C101.723 215.906 102.238 215.145 103.104 214.955C103.97 214.766 104.748 215.211 104.931 216.047C105.114 216.882 104.593 217.612 103.727 217.801C102.829 217.998 102.082 217.545 101.899 216.71ZM104.25 216.196C104.135 215.67 103.69 215.411 103.195 215.519C102.7 215.627 102.41 216.08 102.518 216.575C102.633 217.101 103.079 217.36 103.574 217.251C104.076 217.174 104.366 216.722 104.25 216.196Z" fill="white"/>
<path d="M105.21 215.985C105.027 215.15 105.548 214.42 106.383 214.237C106.847 214.135 107.29 214.233 107.636 214.482L107.315 214.941C107.082 214.765 106.846 214.719 106.567 214.78C106.041 214.895 105.782 215.341 105.89 215.836C106.006 216.362 106.451 216.621 106.946 216.513C107.225 216.452 107.414 216.281 107.552 216.024L108.036 216.307C107.856 216.67 107.494 216.944 106.999 217.052C106.14 217.273 105.393 216.82 105.21 215.985Z" fill="white"/>
<path d="M110.25 216.341L109.39 215.524L108.95 216.626L108.208 216.788L108.924 215.173L107.667 214.021L108.379 213.866L109.194 214.627L109.616 213.595L110.297 213.446L109.629 214.986L110.961 216.186L110.25 216.341Z" fill="white"/>
</g>
<defs>
<linearGradient id="paint0_linear_756_4666" x1="15.7356" y1="354.527" x2="54.7326" y2="345.72" gradientUnits="userSpaceOnUse">
<stop stop-color="#15466F"/>
<stop offset="1" stop-color="#3387CA"/>
</linearGradient>
<linearGradient id="paint1_linear_756_4666" x1="120.844" y1="280.831" x2="146.71" y2="288.371" gradientUnits="userSpaceOnUse">
<stop stop-color="#15466F"/>
<stop offset="1" stop-color="#3387CA"/>
</linearGradient>
<linearGradient id="paint2_linear_756_4666" x1="97.3209" y1="213.789" x2="112.188" y2="210.963" gradientUnits="userSpaceOnUse">
<stop stop-color="#15466F"/>
<stop offset="1" stop-color="#3387CA"/>
</linearGradient>
</defs>
</svg>
