<svg width="387" height="387" viewBox="0 0 387 387" fill="none" xmlns="http://www.w3.org/2000/svg">
<path d="M349.306 73.2979H177.014V315.869H349.306V73.2979Z" fill="#F2F7FC"/>
<path d="M326.938 46.44C328.718 45.3564 330.576 44.5824 332.511 44.0406L333.672 38.4678L343.037 38.313L344.353 43.8084C346.288 44.2728 348.223 45.0468 350.003 46.053L354.724 42.957L361.458 49.4586L358.517 54.3348C359.601 56.115 360.375 57.9726 360.916 59.9076L366.489 61.0686L366.644 70.434L361.149 71.7498C360.684 73.6848 359.91 75.6198 358.904 77.4L362 82.1214L355.498 88.8552L350.622 85.914C348.842 86.9976 346.984 87.7716 345.049 88.3134L343.888 93.8862L334.523 94.041L333.207 88.5456C331.272 88.0812 329.337 87.3072 327.557 86.301L322.836 89.397L316.102 82.8954L319.043 78.0192C317.959 76.239 317.185 74.3814 316.644 72.4464L311.071 71.2854L310.916 61.92L316.411 60.6042C316.876 58.6692 317.65 56.7342 318.656 54.954L315.56 50.2326L322.062 43.4988L326.938 46.44ZM331.891 58.9014C328.021 62.9262 328.176 69.273 332.124 73.143C336.148 77.013 342.495 76.8582 346.365 72.9108C350.235 68.886 350.08 62.5392 346.133 58.6692C342.108 54.7992 335.761 54.954 331.891 58.9014Z" fill="#BCE1FF"/>
<path d="M331.89 58.9014C331.89 58.9014 332.432 58.1274 333.748 57.276C335.064 56.4246 337.386 55.4184 340.327 55.728C341.798 55.8828 343.345 56.3472 344.816 57.276C346.209 58.2048 347.603 59.598 348.454 61.3008C348.918 62.1522 349.228 63.1584 349.383 64.0872C349.537 65.0934 349.615 66.0996 349.46 67.1832C349.228 69.273 348.222 71.3628 346.674 72.9882C345.126 74.6136 343.036 75.6198 340.946 76.0068C339.94 76.1616 338.856 76.239 337.85 76.0842C336.844 75.9294 335.915 75.6972 334.986 75.2328C333.206 74.4588 331.813 73.143 330.807 71.7498C329.8 70.3566 329.259 68.8086 329.104 67.338C328.717 64.3968 329.568 62.0748 330.42 60.759C331.194 59.5206 331.89 58.9014 331.89 58.9014C331.968 58.9788 331.271 59.598 330.497 60.9138C329.723 62.307 328.949 64.5516 329.413 67.338C329.646 68.7312 330.187 70.2018 331.116 71.5176C332.122 72.8334 333.438 74.0718 335.141 74.7684C335.992 75.1554 336.921 75.3876 337.85 75.5424C338.779 75.6972 339.785 75.6972 340.791 75.465C342.804 75.1554 344.661 74.1492 346.132 72.6012C347.603 71.0532 348.531 69.1182 348.763 67.1058C348.918 66.0996 348.918 65.0934 348.686 64.1646C348.531 63.2358 348.222 62.307 347.835 61.4556C347.061 59.7528 345.822 58.5144 344.429 57.5856C343.036 56.6568 341.565 56.1924 340.172 56.0376C337.386 55.6506 335.141 56.5794 333.748 57.3534C332.51 58.2822 331.968 58.9788 331.89 58.9014Z" fill="#BCE1FF"/>
<path d="M326.938 46.44C326.938 46.44 326.86 46.3626 326.628 46.2852C326.396 46.1304 326.086 45.9756 325.699 45.7434C324.848 45.279 323.609 44.505 322.061 43.5762H322.139C320.513 45.279 318.269 47.601 315.637 50.3874V50.2326C316.566 51.6258 317.65 53.2512 318.733 54.954H318.888L318.811 55.0314C317.882 56.7342 317.108 58.5918 316.643 60.6816V60.759H316.566C314.863 61.146 313.006 61.6104 311.071 62.1522L311.225 61.92C311.303 64.8612 311.38 68.0346 311.38 71.2854L311.225 71.0532C312.928 71.4402 314.863 71.8272 316.798 72.2142H316.953L317.03 72.369C317.572 74.1492 318.346 76.0842 319.43 77.9418L319.507 78.0966L319.43 78.2514C318.501 79.722 317.495 81.4248 316.489 83.1276L316.411 82.818C318.501 84.8304 320.823 87.075 323.145 89.3196H322.835C324.306 88.3134 325.931 87.3072 327.557 86.2236L327.712 86.1462L327.866 86.2236C329.492 87.1524 331.427 87.9264 333.517 88.3908L333.671 88.4682L333.749 88.623C334.136 90.3258 334.6 92.2608 335.065 94.1184L334.755 93.8862C337.696 93.8088 340.87 93.8088 344.12 93.7314L343.811 93.9636C344.198 92.1834 344.585 90.3258 344.972 88.3908V88.236L345.127 88.1586C346.984 87.6168 348.919 86.8428 350.622 85.7592L350.777 85.6818L350.932 85.7592C352.557 86.7654 354.182 87.6942 355.808 88.7004L355.421 88.7778C357.588 86.5332 359.755 84.2886 361.922 82.044V82.431C360.916 80.8056 359.833 79.2576 358.826 77.7096L358.749 77.5548L358.826 77.4C359.833 75.6198 360.529 73.6848 361.071 71.8272L361.148 71.6724L361.303 71.595C363.161 71.1306 365.018 70.6662 366.799 70.2792L366.566 70.5888C366.489 67.4154 366.489 64.242 366.412 61.2234L366.644 61.4556C364.786 61.0686 362.929 60.6816 361.071 60.2946H360.916L360.839 60.1398C360.297 58.1274 359.446 56.2698 358.439 54.567L358.362 54.4122V54.18C359.368 52.5546 360.374 50.9292 361.303 49.3812V49.6908C358.904 47.3688 356.737 45.2016 354.569 43.1892H354.879C353.176 44.2728 351.628 45.279 350.158 46.2852L350.08 46.3626L350.003 46.2852C348.145 45.2016 346.21 44.505 344.353 44.0406H344.275V43.9632C343.811 41.9508 343.346 40.1706 342.959 38.4678L343.114 38.6226C339.476 38.7 336.38 38.7 333.749 38.7774L333.904 38.7C333.439 40.9446 333.052 42.7248 332.743 44.2728V44.3502H332.665C330.653 44.892 329.26 45.5886 328.408 45.9756C327.944 46.2078 327.634 46.3626 327.402 46.5174C327.015 46.44 326.938 46.44 326.938 46.44C326.938 46.44 327.015 46.3626 327.247 46.2078C327.479 46.053 327.789 45.8982 328.253 45.666C329.182 45.2016 330.575 44.505 332.51 43.9632L332.433 44.0406C332.743 42.4926 333.13 40.7124 333.517 38.4678V38.3904H333.594C336.226 38.313 339.322 38.2356 342.959 38.1582H343.114V38.313C343.501 40.0158 343.966 41.796 344.507 43.8084L344.353 43.6536C346.21 44.118 348.145 44.8146 350.08 45.8982H349.848C351.319 44.892 352.944 43.8858 354.569 42.8022L354.724 42.7248L354.879 42.8796C357.046 44.9694 359.291 47.0592 361.613 49.3812L361.768 49.536L361.69 49.6908C360.761 51.2388 359.755 52.8642 358.749 54.567V54.3348C359.833 56.0376 360.607 57.9726 361.226 59.985L360.994 59.8302C362.774 60.2172 364.631 60.6042 366.566 60.9912L366.799 61.0686V61.3008C366.876 64.3194 366.876 67.4928 366.953 70.6662V70.8984L366.721 70.9758C364.941 71.4402 363.083 71.9046 361.226 72.2916L361.458 72.0594C360.994 74.0718 360.22 76.0068 359.213 77.787V77.4774C360.22 79.0254 361.303 80.6508 362.309 82.1988L362.464 82.3536L362.309 82.5084C360.142 84.753 357.975 86.9976 355.808 89.2422L355.653 89.397L355.421 89.2422C353.795 88.236 352.17 87.3072 350.545 86.301H350.854C349.074 87.3846 347.062 88.236 345.204 88.7778L345.436 88.5456C345.049 90.4806 344.662 92.3382 344.275 94.1184L344.198 94.3506H343.966C340.715 94.428 337.541 94.428 334.6 94.5054H334.368L334.291 94.2732C333.826 92.3382 333.362 90.4806 332.975 88.7778L333.207 89.01C331.117 88.4682 329.182 87.6942 327.479 86.7654H327.789C326.164 87.849 324.538 88.9326 323.068 89.8614L322.913 90.0162L322.758 89.8614C320.436 87.6168 318.114 85.3722 316.024 83.3598L315.869 83.205L315.947 83.0502C316.953 81.3474 317.959 79.722 318.888 78.2514V78.4836C317.804 76.626 316.953 74.691 316.411 72.8334L316.566 72.756C314.631 72.369 312.773 71.982 310.993 71.595H310.838V71.4402C310.761 68.1894 310.761 65.016 310.684 62.0748V61.92H310.838C312.773 61.4556 314.631 60.9912 316.334 60.6042L316.179 60.759C316.721 58.6692 317.495 56.7342 318.424 55.0314V55.1862C317.34 53.4834 316.256 51.858 315.328 50.4648L315.25 50.3874L315.328 50.31C317.959 47.601 320.204 45.3564 321.907 43.5762L321.984 43.4988H322.061C323.609 44.4276 324.77 45.2016 325.622 45.7434C326.009 45.9756 326.318 46.2078 326.551 46.3626C326.783 46.3626 326.938 46.44 326.938 46.44Z" fill="#BCE1FF"/>
<path d="M286.071 27.477C287.155 26.8578 288.238 26.316 289.399 26.0064L290.096 22.6782L295.669 22.6008L296.443 25.929C297.604 26.2386 298.765 26.6256 299.848 27.2448L302.712 25.3872L306.737 29.2572L304.957 32.121C305.576 33.2046 306.118 34.2882 306.427 35.4492L309.755 36.1458L309.833 41.7186L306.505 42.4926C306.195 43.6536 305.808 44.8146 305.189 45.8982L307.046 48.762L303.176 52.7868L300.313 51.0066C299.229 51.6258 298.145 52.1676 296.984 52.4772L296.288 55.8054L290.715 55.8828L289.941 52.5546C288.78 52.245 287.619 51.7806 286.535 51.2388L283.672 53.0964L279.647 49.2264L281.427 46.3626C280.808 45.279 280.266 44.1954 279.956 43.0344L276.628 42.3378L276.551 36.765L279.879 35.991C280.189 34.83 280.653 33.669 281.195 32.5854L279.337 29.7216L283.207 25.6968L286.071 27.477ZM289.012 34.9848C286.69 37.3842 286.768 41.1768 289.167 43.4988C291.566 45.8208 295.359 45.7434 297.681 43.344C300.003 40.9446 299.926 37.152 297.526 34.83C295.127 32.508 291.334 32.5854 289.012 34.9848Z" fill="#F2F7FC"/>
<path d="M289.012 34.9848C289.012 34.9848 289.321 34.5204 290.095 33.9786C290.869 33.4368 292.262 32.895 294.043 33.0498C294.894 33.1272 295.823 33.4368 296.674 33.9786C297.526 34.5204 298.3 35.3718 298.841 36.378C299.074 36.9198 299.306 37.4616 299.383 38.0808C299.461 38.7 299.538 39.3192 299.383 39.9384C299.228 41.1768 298.609 42.4152 297.68 43.4214C296.752 44.3502 295.513 45.0468 294.275 45.2016C293.656 45.279 293.036 45.3564 292.417 45.2016C291.798 45.1242 291.256 44.9694 290.714 44.7372C289.631 44.2728 288.779 43.4988 288.238 42.6474C287.618 41.796 287.309 40.8672 287.231 40.0158C286.999 38.2356 287.541 36.8424 288.005 36.0684C288.625 35.2944 289.012 34.9848 289.012 34.9848C289.012 34.9848 288.625 35.3718 288.16 36.2232C287.696 36.9972 287.231 38.3904 287.464 40.0932C287.618 40.9446 287.928 41.796 288.47 42.57C289.089 43.344 289.863 44.118 290.869 44.505C291.334 44.7372 291.953 44.892 292.495 44.9694C293.036 45.0468 293.656 45.0468 294.275 44.9694C295.436 44.8146 296.597 44.1954 297.526 43.2666C298.377 42.3378 298.996 41.1768 299.074 40.0158C299.151 39.3966 299.151 38.8548 299.074 38.2356C298.996 37.6938 298.841 37.152 298.532 36.6102C298.067 35.604 297.293 34.83 296.519 34.2882C295.668 33.7464 294.817 33.4368 293.965 33.3594C292.262 33.1272 290.947 33.669 290.173 34.1334C289.399 34.5978 289.089 34.9848 289.012 34.9848Z" fill="#F2F7FC"/>
<path d="M286.07 27.477C286.07 27.477 285.993 27.477 285.915 27.3996C285.761 27.3222 285.606 27.2448 285.374 27.09C284.832 26.7804 284.135 26.3934 283.206 25.7742H283.284C282.278 26.7804 280.962 28.1736 279.414 29.799V29.7216C279.956 30.573 280.575 31.5018 281.271 32.5854V32.6628V32.7402C280.73 33.7464 280.265 34.9074 279.956 36.1458V36.2232H279.878C278.872 36.4554 277.711 36.765 276.627 37.0746L276.705 36.9198C276.705 38.7 276.782 40.5576 276.782 42.4926L276.705 42.3378C277.711 42.57 278.872 42.8022 280.033 43.0344H280.11V43.1118C280.42 44.1954 280.884 45.3564 281.581 46.44L281.658 46.5174L281.581 46.5948C281.039 47.5236 280.42 48.4524 279.801 49.4586V49.3038C281.039 50.5422 282.432 51.858 283.826 53.1738H283.593C284.445 52.632 285.451 51.9354 286.457 51.3162L286.535 51.2388L286.612 51.3162C287.618 51.858 288.779 52.3224 289.94 52.632H290.018V52.7094C290.25 53.7156 290.559 54.8766 290.792 56.0376L290.637 55.8828C292.417 55.8828 294.352 55.8054 296.21 55.8054L296.055 55.9602C296.287 54.8766 296.519 53.793 296.751 52.632V52.5546H296.829C297.912 52.245 299.073 51.7806 300.157 51.084L300.234 51.0066L300.312 51.084C301.318 51.7032 302.247 52.245 303.176 52.8642H302.943C304.259 51.471 305.575 50.1552 306.813 48.8394V49.0716C306.194 48.1428 305.575 47.1366 304.956 46.2078L304.878 46.1304L304.956 46.053C305.575 44.9694 305.962 43.8858 306.272 42.7248V42.6474H306.349C307.433 42.3378 308.594 42.1056 309.677 41.8734L309.522 42.0282C309.522 40.0932 309.445 38.2356 309.445 36.4554L309.6 36.6102C308.439 36.378 307.355 36.1458 306.272 35.9136H306.194V35.8362C305.885 34.6752 305.343 33.5142 304.724 32.508L304.646 32.4306L304.724 32.3532C305.343 31.347 305.885 30.4182 306.504 29.4894V29.6442C305.111 28.251 303.717 27.0126 302.479 25.7742H302.634C301.628 26.3934 300.699 27.0126 299.77 27.6318L299.693 27.7092H299.615C298.454 27.09 297.371 26.6256 296.21 26.3934H296.132V26.316C295.823 25.155 295.59 24.0714 295.358 22.9878L295.436 23.0652C293.268 23.0652 291.411 23.1426 289.863 23.1426L289.94 23.0652C289.631 24.381 289.398 25.4646 289.244 26.3934C288.083 26.703 287.231 27.09 286.689 27.3996C286.457 27.5544 286.225 27.6318 286.07 27.7092C286.07 27.477 286.07 27.477 286.07 27.477C286.07 27.477 286.148 27.3996 286.225 27.3222C286.38 27.2448 286.535 27.09 286.844 27.0126C287.386 26.703 288.237 26.316 289.398 26.0064L289.321 26.0838C289.476 25.155 289.708 24.0714 290.018 22.7556V22.6782H290.095C291.643 22.6782 293.501 22.6008 295.668 22.5234H295.745V22.6008C295.977 23.607 296.287 24.6906 296.597 25.8516L296.519 25.7742C297.68 26.0838 298.764 26.4708 299.925 27.09H299.77C300.699 26.4708 301.628 25.8516 302.634 25.2324L302.711 25.155L302.789 25.2324C304.104 26.4708 305.42 27.7866 306.813 29.1024L306.891 29.1798L306.813 29.2572C306.272 30.186 305.652 31.1922 305.033 32.121V31.9662C305.652 32.9724 306.194 34.1334 306.504 35.3718L306.349 35.2944C307.433 35.5266 308.516 35.7588 309.677 35.991H309.832V36.1458C309.832 38.0034 309.909 39.861 309.909 41.7186V41.8734H309.755C308.671 42.1056 307.587 42.4152 306.426 42.6474L306.581 42.4926C306.272 43.6536 305.807 44.8146 305.265 45.8982V45.7434C305.885 46.6722 306.504 47.601 307.123 48.6072L307.2 48.6846L307.123 48.762C305.807 50.0778 304.569 51.471 303.253 52.7868L303.176 52.8642L303.021 52.7868C302.092 52.245 301.086 51.6258 300.157 51.0066H300.312C299.228 51.7032 298.067 52.1676 296.906 52.4772L297.061 52.3224C296.829 53.4834 296.597 54.567 296.364 55.6506V55.8054H296.21C294.275 55.8054 292.417 55.8828 290.637 55.8828H290.482V55.728C290.172 54.567 289.94 53.4834 289.708 52.3998L289.863 52.5546C288.624 52.245 287.463 51.7806 286.457 51.1614H286.612C285.606 51.7806 284.677 52.3998 283.748 53.019L283.671 53.0964L283.593 53.019C282.2 51.7032 280.807 50.31 279.569 49.149L279.491 49.0716L279.569 48.9942C280.188 47.988 280.807 46.9818 281.349 46.1304V46.2852C280.652 45.2016 280.188 43.9632 279.878 42.8796L279.956 42.957C278.795 42.7248 277.634 42.4926 276.627 42.2604H276.55V42.183C276.55 40.248 276.473 38.313 276.473 36.6102V36.5328H276.55C277.711 36.2232 278.795 35.991 279.878 35.7588L279.801 35.8362C280.11 34.5978 280.575 33.4368 281.194 32.4306V32.508C280.497 31.5018 279.878 30.4956 279.336 29.6442V29.5668L279.414 29.4894C281.039 27.864 282.355 26.4708 283.361 25.4646C284.29 26.0064 284.987 26.4708 285.528 26.7804C285.761 26.9352 285.915 27.0126 286.07 27.1674C285.993 27.477 286.07 27.477 286.07 27.477Z" fill="#F2F7FC"/>
<path d="M135.914 39.8611H34.5977V207.587H135.914V39.8611Z" fill="#BCE1FF"/>
<path d="M132.508 39.8611H31.1914V207.587H132.508V39.8611Z" fill="#F2F7FC"/>
<path d="M128.251 43.2667H35.5254V204.181H128.251V43.2667Z" fill="#F2F7FC"/>
<path d="M110.14 64.1647H53.1738V183.283H110.14V64.1647Z" fill="#F2F7FC"/>
<path d="M53.1736 141.1C53.0188 129.955 63.0808 119.119 74.0716 117.571C79.3348 116.797 84.9076 117.88 89.7838 115.868C98.53 112.307 101.316 100.62 110.14 97.2145L110.527 183.283H53.1736V141.1Z" fill="#BCE1FF"/>
<path d="M275.466 324.77C276.627 324.074 277.865 323.532 279.181 323.145L279.955 319.507L286.147 319.43L286.998 323.068C288.314 323.377 289.553 323.842 290.714 324.538L293.81 322.526L298.221 326.783L296.286 329.956C296.983 331.117 297.525 332.356 297.912 333.671L301.55 334.445L301.627 340.637L297.989 341.489C297.68 342.805 297.215 344.043 296.519 345.204L298.531 348.3L294.274 352.712L291.101 350.777C289.94 351.473 288.701 352.015 287.385 352.402L286.611 356.04L280.419 356.117L279.568 352.48C278.252 352.17 277.014 351.706 275.853 351.009L272.757 353.021L268.345 348.764L270.28 345.591C269.583 344.43 269.042 343.192 268.655 341.876L265.017 341.102L264.939 334.91L268.577 334.058C268.887 332.743 269.351 331.504 270.048 330.343L268.035 327.247L272.292 322.835L275.466 324.77ZM278.717 332.975C276.162 335.606 276.24 339.786 278.871 342.34C281.503 344.894 285.683 344.817 288.237 342.185C290.791 339.554 290.714 335.374 288.082 332.82C285.45 330.266 281.271 330.343 278.717 332.975Z" fill="#F2F7FC"/>
<path d="M364.4 361.381C364.4 361.381 364.787 361.381 365.484 361.381C366.258 361.381 367.341 361.381 368.889 361.381V361.458C351.474 361.535 280.576 361.613 195.746 361.613C146.674 361.613 102.324 361.535 70.1254 361.535C54.0262 361.535 41.023 361.458 32.0446 361.458C27.5554 361.458 24.0724 361.458 21.673 361.458C20.512 361.458 19.5832 361.458 18.964 361.458C18.3448 361.458 18.0352 361.458 18.0352 361.458C18.0352 361.458 18.3448 361.458 18.964 361.458C19.5832 361.458 20.512 361.458 21.673 361.458C24.0724 361.458 27.5554 361.458 32.0446 361.458C41.023 361.458 54.0262 361.458 70.1254 361.381C102.246 361.381 146.674 361.381 195.746 361.303C280.499 361.303 351.474 361.381 368.889 361.458V361.535C367.419 361.535 366.258 361.535 365.484 361.535C364.787 361.381 364.4 361.381 364.4 361.381Z" fill="#263238"/>
<path d="M335.451 60.6815H161.998V305.498H335.451V60.6815Z" fill="white"/>
<path d="M335.452 305.42C335.452 303.795 335.375 205.265 335.297 60.6042L335.452 60.7589C282.975 60.7589 224.073 60.7589 161.999 60.7589L162.231 60.5267C162.231 152.246 162.231 237.076 162.231 305.343L162.076 305.188C267.34 305.343 334.136 305.42 335.452 305.42C334.136 305.42 267.34 305.498 161.999 305.575H161.844V305.42C161.844 237.154 161.844 152.401 161.844 60.6042V60.3719H162.076C224.151 60.3719 283.052 60.3719 335.529 60.3719H335.684V60.5267C335.529 205.265 335.452 303.795 335.452 305.42Z" fill="#263238"/>
<path d="M242.493 240.172H178.793C175.929 240.172 173.607 237.85 173.607 234.986V228.33C173.607 225.466 175.929 223.144 178.793 223.144H242.493C245.357 223.144 247.679 225.466 247.679 228.33V234.986C247.679 237.85 245.357 240.172 242.493 240.172Z" fill="#F2F7FC"/>
<path d="M319.817 240.172H257.742C254.879 240.172 252.557 237.85 252.557 234.986V228.33C252.557 225.466 254.879 223.144 257.742 223.144H319.817C322.681 223.144 325.003 225.466 325.003 228.33V234.986C325.003 237.85 322.681 240.172 319.817 240.172Z" fill="#F2F7FC"/>
<path d="M320.823 274.925H178.485C175.621 274.925 173.299 272.603 173.299 269.739V263.16C173.299 260.296 175.621 257.974 178.485 257.974H320.823C323.687 257.974 326.009 260.296 326.009 263.16V269.816C326.009 272.603 323.687 274.925 320.823 274.925Z" fill="#F2F7FC"/>
<path d="M207.665 216.333C207.665 216.41 200.544 216.565 191.643 216.565C182.819 216.565 175.621 216.488 175.621 216.333C175.621 216.178 182.742 216.101 191.643 216.101C200.467 216.101 207.665 216.255 207.665 216.333Z" fill="#263238"/>
<path d="M283.283 216.333C283.283 216.41 277.633 216.565 270.667 216.565C263.701 216.565 258.051 216.488 258.051 216.333C258.051 216.178 263.701 216.101 270.667 216.101C277.633 216.101 283.283 216.255 283.283 216.333Z" fill="#263238"/>
<path d="M227.942 250.931C227.942 251.008 216.332 251.163 202.013 251.163C187.694 251.163 176.084 251.086 176.084 250.931C176.084 250.853 187.694 250.698 202.013 250.698C216.332 250.776 227.942 250.853 227.942 250.931Z" fill="#263238"/>
<path d="M320.978 203.175H175.621C172.834 203.175 170.59 200.93 170.59 198.144V189.63C170.59 186.844 172.834 184.599 175.621 184.599H320.978C323.764 184.599 326.009 186.844 326.009 189.63V198.144C326.009 200.93 323.764 203.175 320.978 203.175Z" fill="#BCE1FF"/>
<path d="M281.427 193.887C281.427 193.964 267.65 194.119 250.622 194.119C233.594 194.119 219.816 194.042 219.816 193.887C219.816 193.81 233.594 193.655 250.622 193.655C267.572 193.732 281.427 193.81 281.427 193.887Z" fill="#263238"/>
<path d="M320.978 90.3258H175.621C172.834 90.3258 170.59 88.0812 170.59 85.2948V76.7808C170.59 73.9944 172.834 71.7498 175.621 71.7498H320.978C323.764 71.7498 326.009 73.9944 326.009 76.7808V85.2948C326.009 88.0812 323.764 90.3258 320.978 90.3258Z" fill="#BCE1FF"/>
<path d="M281.427 81.0377C281.427 81.1151 267.65 81.2699 250.622 81.2699C233.594 81.2699 219.816 81.1925 219.816 81.0377C219.816 80.9603 233.594 80.8055 250.622 80.8055C267.572 80.8829 281.427 80.9603 281.427 81.0377Z" fill="#263238"/>
<path d="M335.451 94.815C335.451 94.8924 296.596 95.0472 248.608 95.0472C200.62 95.0472 161.766 94.9698 161.766 94.815C161.766 94.7376 200.62 94.5828 248.608 94.5828C296.596 94.6602 335.451 94.7376 335.451 94.815Z" fill="#F2F7FC"/>
<path d="M335.451 176.936C335.451 177.014 296.596 177.168 248.608 177.168C200.62 177.168 161.766 177.091 161.766 176.936C161.766 176.859 200.62 176.704 248.608 176.704C296.596 176.704 335.451 176.859 335.451 176.936Z" fill="#F2F7FC"/>
<path d="M242.493 130.419H178.793C175.929 130.419 173.607 128.097 173.607 125.233V118.577C173.607 115.713 175.929 113.391 178.793 113.391H242.493C245.357 113.391 247.679 115.713 247.679 118.577V125.233C247.679 128.097 245.357 130.419 242.493 130.419Z" fill="#F2F7FC"/>
<path d="M319.817 130.419H257.742C254.879 130.419 252.557 128.097 252.557 125.233V118.577C252.557 115.713 254.879 113.391 257.742 113.391H319.817C322.681 113.391 325.003 115.713 325.003 118.577V125.233C325.003 128.097 322.681 130.419 319.817 130.419Z" fill="#F2F7FC"/>
<path d="M320.823 165.249H178.485C175.621 165.249 173.299 162.927 173.299 160.063V153.407C173.299 150.543 175.621 148.221 178.485 148.221H320.823C323.687 148.221 326.009 150.543 326.009 153.407V160.063C326.009 162.927 323.687 165.249 320.823 165.249Z" fill="#F2F7FC"/>
<path d="M207.665 106.58C207.665 106.657 200.544 106.812 191.643 106.812C182.819 106.812 175.621 106.735 175.621 106.58C175.621 106.502 182.742 106.348 191.643 106.348C200.467 106.425 207.665 106.502 207.665 106.58Z" fill="#263238"/>
<path d="M283.283 106.58C283.283 106.657 277.633 106.812 270.667 106.812C263.701 106.812 258.051 106.735 258.051 106.58C258.051 106.502 263.701 106.348 270.667 106.348C277.633 106.425 283.283 106.502 283.283 106.58Z" fill="#263238"/>
<path d="M227.942 141.255C227.942 141.332 216.332 141.487 202.013 141.487C187.694 141.487 176.084 141.41 176.084 141.255C176.084 141.178 187.694 141.023 202.013 141.023C216.332 141.023 227.942 141.1 227.942 141.255Z" fill="#263238"/>
<path d="M320.668 285.296C320.668 285.374 309.368 285.528 295.359 285.528C281.349 285.528 270.049 285.451 270.049 285.296C270.049 285.219 281.349 285.064 295.359 285.064C309.291 285.064 320.668 285.142 320.668 285.296Z" fill="#263238"/>
<path d="M236.301 123.685C236.301 123.685 235.914 123.84 235.14 123.995C234.366 124.15 233.128 124.304 231.58 124.227C230.032 124.15 228.174 123.763 226.162 122.756C225.697 122.524 225.155 122.137 224.768 121.75C224.381 121.286 224.072 120.744 223.917 120.125C223.84 119.506 223.917 118.809 224.304 118.19C224.768 117.648 225.542 117.338 226.239 117.571C226.626 117.648 226.936 117.958 227.09 118.267C227.245 118.577 227.323 119.041 227.245 119.428C227.09 120.202 226.703 120.821 226.162 121.441C225.155 122.602 223.84 123.53 222.292 124.072C220.744 124.614 219.041 124.846 217.261 124.537C216.409 124.382 215.558 124.072 214.784 123.453C214.087 122.911 213.468 121.982 213.623 120.976C213.7 120.512 213.855 120.047 214.165 119.66C214.474 119.273 214.861 118.886 215.403 118.809C215.945 118.654 216.487 118.886 216.874 119.273C217.261 119.66 217.415 120.202 217.415 120.667C217.415 121.208 217.338 121.673 217.028 122.137C216.796 122.602 216.409 122.989 215.945 123.221C215.093 123.763 214.087 124.072 213.158 124.304C211.301 124.846 209.211 125.388 207.121 124.924C206.115 124.691 205.109 124.227 204.335 123.453C203.561 122.679 203.096 121.595 203.096 120.512C203.096 119.815 203.406 119.119 203.948 118.654C204.49 118.19 205.341 118.112 205.96 118.422C206.27 118.577 206.579 118.809 206.734 119.196C206.889 119.506 206.889 119.893 206.812 120.28C206.657 120.976 206.115 121.518 205.573 121.905C203.483 123.376 201.007 124.227 198.607 124.537C197.369 124.691 196.13 124.691 194.969 124.227C193.808 123.763 192.957 122.756 192.725 121.518C192.493 120.28 193.344 118.964 194.582 118.732C195.202 118.577 195.821 118.886 196.208 119.351C196.595 119.815 196.75 120.434 196.75 120.976C196.75 121.518 196.672 122.137 196.363 122.602C196.053 123.066 195.666 123.453 195.279 123.84C194.428 124.459 193.421 124.769 192.415 125.001C190.48 125.543 188.545 125.852 186.765 125.233C185.914 124.924 185.14 124.382 184.598 123.685C184.056 122.989 183.746 122.137 183.824 121.286C183.901 120.434 184.288 119.738 184.83 119.196C185.372 118.654 186.146 118.422 186.92 118.577H186.997V118.654C187.075 120.357 186.301 121.828 185.449 122.756C184.598 123.763 183.592 124.304 182.74 124.614C181.889 124.924 181.192 124.924 180.728 124.846C180.263 124.769 180.031 124.691 180.031 124.691C180.031 124.614 181.037 125.001 182.74 124.459C183.592 124.15 184.52 123.608 185.372 122.602C186.223 121.673 186.842 120.202 186.765 118.577L186.842 118.654C186.223 118.499 185.527 118.732 184.985 119.196C184.443 119.66 184.133 120.357 184.056 121.131C183.901 122.679 185.217 124.227 186.842 124.769C188.468 125.388 190.403 125.001 192.338 124.537C193.267 124.304 194.273 123.995 195.047 123.376C195.434 123.066 195.821 122.679 196.053 122.292C196.285 121.828 196.363 121.363 196.363 120.821C196.363 120.357 196.208 119.815 195.898 119.428C195.589 119.041 195.047 118.886 194.582 118.964C193.576 119.196 192.88 120.28 193.034 121.363C193.189 122.447 194.041 123.376 195.047 123.763C196.13 124.227 197.291 124.227 198.452 124.072C200.852 123.763 203.174 122.911 205.264 121.518C205.728 121.131 206.192 120.667 206.347 120.125C206.502 119.583 206.27 118.964 205.728 118.732C205.186 118.499 204.567 118.499 204.103 118.886C203.638 119.273 203.406 119.893 203.406 120.512C203.329 121.518 203.793 122.447 204.49 123.143C205.186 123.84 206.115 124.304 207.044 124.537C208.979 125.001 210.991 124.459 212.849 123.917C213.778 123.608 214.706 123.376 215.48 122.834C215.867 122.602 216.177 122.215 216.409 121.828C216.641 121.441 216.719 120.976 216.719 120.512C216.719 120.047 216.564 119.66 216.332 119.351C216.022 119.041 215.635 118.886 215.248 118.964C214.474 119.119 213.855 120.047 213.778 120.821C213.7 121.673 214.165 122.447 214.861 122.989C215.48 123.53 216.332 123.84 217.183 123.995C218.809 124.304 220.511 124.15 221.982 123.608C223.453 123.066 224.768 122.137 225.775 121.054C226.239 120.512 226.626 119.893 226.781 119.196C226.936 118.577 226.626 117.803 226.007 117.648C225.388 117.493 224.691 117.725 224.381 118.19C223.994 118.654 223.917 119.351 223.994 119.893C224.149 121.131 225.155 121.905 226.084 122.447C228.019 123.453 229.877 123.84 231.425 123.995C232.973 124.15 234.134 123.995 234.908 123.84C235.295 123.763 235.604 123.685 235.837 123.685C236.224 123.685 236.301 123.685 236.301 123.685Z" fill="url(#paint0_linear_432_6888)"/>
<path d="M312.076 122.756C312.076 122.756 311.767 122.989 311.07 123.221C310.373 123.453 309.367 123.84 308.051 123.84C306.736 123.917 304.955 123.685 303.253 122.756C302.401 122.292 301.55 121.673 300.931 120.744C300.621 120.28 300.466 119.66 300.544 119.041C300.621 118.422 300.931 117.803 301.472 117.416C301.705 117.261 302.092 117.106 302.401 117.106C302.788 117.106 303.098 117.261 303.33 117.493C303.794 117.958 304.027 118.732 303.949 119.428C303.872 120.125 303.485 120.744 302.943 121.286C302.479 121.828 301.859 122.215 301.24 122.602C300.002 123.298 298.531 123.84 296.983 123.917C295.435 124.072 293.81 123.84 292.339 123.066C291.643 122.679 290.946 122.06 290.559 121.363C290.327 120.976 290.172 120.589 290.172 120.125C290.095 119.66 290.172 119.196 290.327 118.809C290.636 117.958 291.256 117.261 292.184 116.951C292.649 116.797 293.191 116.874 293.578 117.106C294.042 117.338 294.352 117.725 294.506 118.112C294.893 118.964 294.816 119.97 294.429 120.821C294.042 121.673 293.345 122.292 292.571 122.834C291.101 123.917 289.243 124.537 287.386 124.614C285.528 124.691 283.593 124.304 282.045 123.453C281.271 122.989 280.497 122.524 279.878 121.828C279.259 121.131 278.794 120.28 278.794 119.351C278.794 118.422 279.413 117.493 280.265 117.106C280.729 116.951 281.271 117.029 281.658 117.261C282.045 117.571 282.277 117.958 282.432 118.422C282.664 119.273 282.432 120.28 281.89 120.899C281.426 121.595 280.729 122.137 280.11 122.602C277.478 124.537 274.15 125.078 271.364 124.459C269.971 124.15 268.655 123.453 267.803 122.369C267.416 121.828 267.184 121.131 267.184 120.512C267.184 119.815 267.339 119.196 267.649 118.654C267.958 118.112 268.5 117.648 269.042 117.493C269.661 117.338 270.28 117.493 270.745 117.88C271.673 118.577 272.06 119.738 271.906 120.744C271.751 121.75 271.209 122.524 270.512 123.066C269.893 123.608 269.119 123.917 268.5 124.072C267.184 124.382 266.101 124.304 265.404 124.304C265.094 124.304 264.785 124.227 264.63 124.227C264.475 124.227 264.32 124.227 264.32 124.15C264.32 124.15 264.398 124.15 264.63 124.15C264.862 124.15 265.094 124.15 265.404 124.15C266.101 124.15 267.184 124.227 268.5 123.917C269.119 123.763 269.816 123.453 270.435 122.911C271.054 122.369 271.596 121.673 271.673 120.744C271.828 119.815 271.441 118.809 270.59 118.112C270.203 117.803 269.661 117.648 269.119 117.803C268.577 117.958 268.19 118.345 267.881 118.809C267.339 119.815 267.262 121.208 268.113 122.215C268.887 123.221 270.125 123.917 271.519 124.227C274.228 124.846 277.401 124.227 279.955 122.369C280.574 121.905 281.194 121.363 281.658 120.744C282.122 120.125 282.355 119.273 282.122 118.577C282.045 118.19 281.813 117.88 281.503 117.648C281.194 117.416 280.807 117.416 280.497 117.493C279.8 117.725 279.259 118.577 279.259 119.351C279.259 120.125 279.646 120.976 280.265 121.595C280.807 122.215 281.581 122.756 282.355 123.143C283.903 123.995 285.683 124.382 287.54 124.227C289.321 124.15 291.101 123.53 292.494 122.524C293.191 121.982 293.81 121.363 294.197 120.667C294.584 119.893 294.584 119.041 294.274 118.267C293.965 117.493 293.191 117.029 292.417 117.338C291.643 117.571 291.101 118.267 290.791 118.964C290.636 119.351 290.559 119.738 290.636 120.125C290.636 120.512 290.791 120.899 291.023 121.208C291.41 121.905 292.03 122.447 292.649 122.834C293.965 123.608 295.59 123.763 297.061 123.685C298.531 123.53 299.924 123.066 301.163 122.369C301.782 121.982 302.324 121.595 302.788 121.131C303.253 120.667 303.562 120.047 303.717 119.506C303.794 118.886 303.64 118.267 303.175 117.88C302.788 117.493 302.092 117.493 301.705 117.803C301.24 118.112 301.008 118.654 300.931 119.196C300.853 119.738 301.008 120.28 301.318 120.744C301.859 121.673 302.711 122.292 303.562 122.756C305.188 123.685 306.89 123.917 308.206 123.917C309.522 123.917 310.528 123.608 311.225 123.376C311.689 122.989 312.076 122.756 312.076 122.756Z" fill="url(#paint1_linear_432_6888)"/>
<path d="M240.095 156.967C240.095 156.967 240.017 157.044 239.785 157.122C239.553 157.199 239.243 157.354 238.934 157.509C238.16 157.818 236.999 158.36 235.451 158.902C233.903 159.444 232.045 160.063 229.723 160.45C228.562 160.605 227.324 160.682 226.008 160.682C224.692 160.605 223.299 160.605 221.906 160.063C220.513 159.599 219.197 158.438 218.732 156.812C218.5 156.038 218.578 155.109 219.042 154.335C219.506 153.561 220.203 152.942 221.209 152.865C222.138 152.787 223.067 153.484 223.454 154.335C223.841 155.187 223.918 156.193 223.686 157.122C223.376 158.051 222.757 158.825 222.061 159.444C221.364 160.063 220.513 160.605 219.661 160.992C217.881 161.843 215.791 162.308 213.779 161.688C211.766 161.069 210.141 159.366 209.677 157.199C209.599 156.657 209.599 156.116 209.677 155.574C209.754 155.032 209.986 154.49 210.373 154.026C210.76 153.561 211.225 153.174 211.844 153.174C212.463 153.174 213.082 153.561 213.237 154.181C213.624 155.342 213.237 156.503 212.695 157.509C212.153 158.438 211.379 159.366 210.528 160.063C208.825 161.534 206.581 162.385 204.336 162.23C202.091 162.153 200.002 161.301 198.376 159.831C197.602 159.057 196.983 158.128 196.828 157.044C196.751 156.503 196.751 155.961 196.906 155.419C197.06 154.877 197.447 154.49 197.834 154.103C198.221 153.716 198.763 153.484 199.305 153.407C199.847 153.329 200.389 153.561 200.853 153.871C201.627 154.645 201.782 155.806 201.55 156.735C201.24 157.741 200.621 158.515 199.924 159.134C199.228 159.753 198.454 160.373 197.68 160.837C196.054 161.766 194.351 162.308 192.649 162.54C190.946 162.772 189.243 162.617 187.695 162.075C186.921 161.843 186.224 161.379 185.683 160.837C185.141 160.295 184.754 159.599 184.599 158.825C184.444 158.051 184.522 157.277 184.831 156.657C185.141 155.961 185.76 155.496 186.457 155.419C187.153 155.342 187.85 155.496 188.314 155.961C188.856 156.348 189.011 157.122 188.933 157.664C188.856 158.283 188.469 158.747 188.005 159.134C187.618 159.521 187.153 159.753 186.689 159.986C185.76 160.45 184.909 160.76 184.135 160.992C182.587 161.456 181.271 161.534 180.419 161.534C179.568 161.534 179.104 161.456 179.104 161.456C179.104 161.456 179.181 161.456 179.413 161.456C179.645 161.456 179.955 161.456 180.419 161.456C181.271 161.379 182.509 161.301 184.057 160.837C184.831 160.605 185.683 160.295 186.534 159.831C186.998 159.599 187.385 159.366 187.772 158.979C188.159 158.592 188.469 158.205 188.624 157.664C188.701 157.122 188.546 156.503 188.082 156.193C187.618 155.806 186.998 155.651 186.379 155.729C185.76 155.806 185.218 156.27 184.986 156.89C184.676 157.509 184.676 158.205 184.831 158.902C185.063 160.295 186.379 161.379 187.772 161.921C189.243 162.385 190.946 162.54 192.571 162.308C194.274 162.075 195.977 161.534 197.447 160.605C198.221 160.14 198.918 159.599 199.615 158.979C200.311 158.36 200.853 157.586 201.085 156.735C201.317 155.883 201.163 154.8 200.466 154.181C199.769 153.561 198.686 153.716 197.989 154.413C197.602 154.722 197.37 155.109 197.215 155.574C197.06 156.038 197.06 156.503 197.138 156.967C197.293 157.896 197.912 158.825 198.608 159.521C200.079 160.914 202.169 161.766 204.259 161.766C206.348 161.843 208.516 161.069 210.218 159.676C211.07 158.979 211.766 158.128 212.308 157.199C212.618 156.735 212.773 156.27 212.927 155.729C213.005 155.187 213.082 154.722 212.85 154.258C212.695 153.794 212.231 153.484 211.844 153.484C211.379 153.484 210.992 153.794 210.683 154.181C210.064 154.955 209.986 156.038 210.141 157.044C210.528 159.057 212.076 160.682 213.934 161.224C215.791 161.766 217.881 161.379 219.506 160.605C221.209 159.831 222.835 158.592 223.376 156.967C223.686 156.116 223.609 155.264 223.222 154.49C222.912 153.716 222.138 153.174 221.364 153.252C220.59 153.329 219.893 153.871 219.506 154.49C219.119 155.187 219.042 155.961 219.197 156.735C219.584 158.205 220.822 159.366 222.138 159.831C223.454 160.373 224.847 160.45 226.163 160.45C227.479 160.527 228.717 160.45 229.801 160.295C232.045 159.986 233.98 159.366 235.528 158.825C237.076 158.283 238.237 157.818 239.011 157.431C239.398 157.277 239.708 157.122 239.94 157.044C240.017 156.967 240.095 156.967 240.095 156.967Z" fill="url(#paint2_linear_432_6888)"/>
<path d="M313.47 327.247C313.47 327.247 295.668 306.736 288.934 286.225C282.201 265.714 285.374 268.114 285.374 268.114C285.374 268.114 294.43 288.005 301.318 297.68C308.207 307.278 320.436 321.442 320.436 321.442L313.47 327.247Z" fill="#455A64"/>
<path d="M317.03 271.287C316.488 270.281 314.94 270.823 315.095 271.984C316.178 279.182 318.5 296.055 318.423 307.046C318.268 321.287 318.423 326.783 318.423 326.783H325.853C325.853 326.783 324.538 297.371 322.835 288.392C321.674 282.046 319.197 275.08 317.03 271.287Z" fill="#455A64"/>
<path d="M321.055 324.383C321.055 324.383 325.699 314.554 327.169 302.247C327.789 296.984 326.705 289.94 325.079 280.498C324.305 275.931 324.151 272.448 324.151 270.049C324.151 268.191 326.55 267.649 327.479 269.197C328.408 270.823 330.962 276.241 331.658 279.646C333.439 289.012 335.451 293.656 333.903 302.479C332.355 311.303 326.627 325.003 326.627 325.003L321.055 324.383Z" fill="#455A64"/>
<path d="M327.789 325.003C327.789 325.003 347.371 282.974 348.687 276.705C350.08 270.436 354.647 256.117 355.189 256.891C355.73 257.742 356.582 265.327 353.021 273.996C349.461 282.665 334.445 326.241 334.445 326.241H327.789" fill="#455A64"/>
<path d="M318.966 323.068C318.966 323.068 318.734 322.913 318.424 322.681C318.115 322.448 317.573 322.061 316.876 321.52C315.561 320.513 313.78 318.965 311.613 316.876C307.356 312.773 302.016 306.427 297.449 298.687C292.805 290.869 289.709 283.284 287.774 277.711C286.768 274.925 286.071 272.603 285.607 271.055C285.375 270.281 285.22 269.662 285.065 269.197C284.988 268.81 284.91 268.578 284.91 268.578C284.91 268.578 284.988 268.81 285.142 269.197C285.297 269.662 285.452 270.281 285.762 270.977C286.303 272.525 287 274.847 288.084 277.556C290.096 283.129 293.269 290.637 297.836 298.454C302.403 306.194 307.666 312.541 311.845 316.643C313.935 318.733 315.715 320.281 317.031 321.365C317.65 321.907 318.192 322.294 318.502 322.603C318.811 322.913 318.966 323.068 318.966 323.068Z" fill="#263238"/>
<path d="M321.056 302.944C321.056 302.944 320.979 302.479 320.902 301.705C320.824 300.854 320.669 299.693 320.515 298.3C320.205 295.436 319.741 291.566 319.044 287.231C318.347 282.897 317.573 279.027 316.954 276.241C316.645 274.925 316.412 273.764 316.258 272.912C316.103 272.138 316.025 271.674 316.025 271.674C316.025 271.674 316.18 272.061 316.412 272.835C316.645 273.609 316.954 274.693 317.264 276.086C317.96 278.872 318.734 282.742 319.431 287.077C320.128 291.411 320.592 295.358 320.824 298.222C320.979 299.615 321.056 300.776 321.056 301.628C321.134 302.479 321.134 302.944 321.056 302.944Z" fill="#263238"/>
<path d="M325.699 268.81C325.699 268.81 325.777 268.965 325.932 269.352C326.086 269.739 326.241 270.281 326.551 270.9C326.783 271.597 327.093 272.448 327.402 273.377C327.712 274.383 328.099 275.467 328.331 276.705C328.486 277.324 328.641 278.021 328.795 278.717C328.95 279.414 329.105 280.111 329.26 280.885C329.569 282.355 329.802 283.981 330.034 285.683C330.421 289.089 330.653 292.882 330.498 296.829C330.343 300.776 329.879 304.569 329.26 307.897C328.873 309.6 328.563 311.148 328.176 312.619C327.944 313.315 327.789 314.089 327.557 314.708C327.325 315.405 327.17 316.024 326.938 316.643C326.551 317.882 326.086 318.965 325.777 319.894C325.39 320.823 325.08 321.674 324.771 322.294C324.461 322.913 324.229 323.455 324.074 323.842C323.919 324.151 323.842 324.383 323.842 324.383C323.842 324.383 323.919 324.151 323.997 323.842C324.151 323.455 324.384 322.913 324.616 322.294C324.925 321.597 325.235 320.823 325.545 319.817C325.854 318.811 326.319 317.727 326.706 316.489C326.86 315.869 327.093 315.25 327.325 314.554C327.557 313.857 327.712 313.16 327.867 312.464C328.254 310.993 328.563 309.445 328.95 307.742C329.569 304.414 330.034 300.622 330.189 296.752C330.343 292.804 330.111 289.089 329.724 285.683C329.492 283.981 329.337 282.355 329.028 280.885C328.873 280.111 328.795 279.414 328.641 278.717C328.486 278.021 328.331 277.402 328.176 276.782C327.944 275.544 327.557 274.383 327.325 273.377C327.093 272.371 326.783 271.519 326.551 270.823C326.319 270.203 326.164 269.662 326.009 269.275C325.699 269.042 325.622 268.81 325.699 268.81Z" fill="#263238"/>
<path d="M354.956 257.742C354.956 257.742 354.956 257.819 354.956 257.897C354.956 258.052 354.879 258.206 354.879 258.439C354.801 258.903 354.647 259.6 354.492 260.528C354.105 262.309 353.486 264.94 352.479 268.114C351.473 271.287 350.157 275.002 348.609 279.027C347.061 283.129 345.204 287.541 343.424 292.262C341.643 296.984 340.328 301.55 339.012 305.73C337.773 309.91 336.535 313.625 335.374 316.721C334.213 319.817 333.129 322.294 332.278 323.919C331.891 324.77 331.504 325.39 331.272 325.777C331.194 325.931 331.04 326.164 330.962 326.241C330.885 326.318 330.885 326.396 330.885 326.396C330.885 326.396 330.885 326.318 330.962 326.241C331.04 326.086 331.117 325.931 331.194 325.777C331.427 325.312 331.736 324.693 332.123 323.842C332.897 322.139 333.981 319.739 335.064 316.643C336.148 313.547 337.386 309.832 338.625 305.653C339.863 301.473 341.256 296.829 343.037 292.108C344.739 287.386 346.597 282.974 348.222 278.872C349.848 274.847 351.164 271.132 352.17 268.036C353.176 264.863 353.873 262.309 354.26 260.528C354.492 259.6 354.647 258.903 354.724 258.439C354.801 258.206 354.801 258.052 354.879 257.897C354.956 257.819 354.956 257.742 354.956 257.742Z" fill="#263238"/>
<path d="M294.661 248.531C293.423 247.293 291.411 248.609 291.875 250.234C292.417 251.937 293.191 254.104 294.352 256.581C297.061 262.309 304.955 282.82 308.671 294.043C312.386 305.266 317.572 326.318 317.572 326.318L325.467 325.003C325.467 325.003 318.268 290.482 311.225 278.098C305.497 268.036 299.77 253.64 294.661 248.531Z" fill="#455A64"/>
<path d="M310.76 301.009C310.76 301.009 310.915 301.318 311.147 301.937C311.379 302.557 311.689 303.485 312.076 304.569C312.772 306.814 313.701 309.987 314.552 313.47C315.481 316.953 316.178 320.126 316.72 322.448C316.952 323.532 317.184 324.461 317.339 325.157C317.494 325.777 317.494 326.164 317.494 326.164C317.494 326.164 317.339 325.854 317.184 325.157C317.029 324.461 316.72 323.532 316.487 322.448C315.868 320.049 315.094 316.953 314.243 313.47C313.314 309.987 312.54 306.814 311.843 304.569C311.534 303.485 311.302 302.634 311.069 301.86C310.837 301.396 310.76 301.086 310.76 301.009Z" fill="#263238"/>
<path d="M321.518 325.622C321.518 325.622 321.518 325.544 321.441 325.39C321.441 325.235 321.363 325.003 321.363 324.77C321.286 324.229 321.209 323.377 321.054 322.371C320.744 320.281 320.28 317.34 319.428 313.702C318.577 310.064 317.339 305.73 315.713 301.086C314.088 296.442 312.075 291.334 309.753 286.148C305.109 275.699 300.465 266.411 297.447 259.6C295.899 256.194 294.738 253.408 293.964 251.473C293.577 250.466 293.267 249.77 293.112 249.228C293.035 248.996 292.958 248.764 292.88 248.609C292.803 248.454 292.803 248.377 292.803 248.377C292.803 248.377 292.88 248.454 292.88 248.531C292.958 248.686 293.035 248.841 293.112 249.073C293.345 249.615 293.654 250.312 294.041 251.318C294.893 253.253 296.131 256.039 297.679 259.445C300.775 266.256 305.496 275.467 310.14 285.993C312.462 291.256 314.475 296.287 316.1 301.009C317.726 305.73 318.887 309.987 319.738 313.702C320.589 317.34 321.054 320.359 321.286 322.448C321.441 323.455 321.441 324.306 321.518 324.848C321.518 325.08 321.518 325.312 321.596 325.467C321.518 325.544 321.518 325.622 321.518 325.622Z" fill="#263238"/>
<path d="M325.388 325.003C325.388 325.003 325.234 324.538 325.156 323.687C325.001 322.758 324.769 321.52 324.537 320.049C323.995 316.953 323.144 312.773 321.983 308.207C320.822 303.64 319.506 299.538 318.422 296.597C317.958 295.204 317.494 294.043 317.184 293.114C316.874 292.262 316.72 291.875 316.797 291.798C316.797 291.798 317.029 292.262 317.339 293.036C317.648 293.81 318.19 294.971 318.732 296.442C319.816 299.383 321.209 303.408 322.37 308.052C323.531 312.619 324.382 316.876 324.847 319.972C325.079 321.52 325.234 322.758 325.311 323.609C325.388 324.461 325.466 325.003 325.388 325.003Z" fill="#263238"/>
<path d="M341.645 323.842H310.84V361.381H341.645V323.842Z" fill="url(#paint3_linear_432_6888)"/>
<g opacity="0.3">
<path d="M341.645 323.842H310.84V361.381H341.645V323.842Z" fill="black"/>
</g>
<path d="M331.814 323.842H304.492V361.381H331.814V323.842Z" fill="url(#paint4_linear_432_6888)"/>
<path d="M81.4229 124.846L80.5715 195.358C80.4167 207.355 82.6613 225.002 101.624 224.383C118.033 222.602 122.368 207.045 122.522 195.822C122.6 190.481 122.677 186.07 122.677 185.528C122.677 185.528 140.634 184.057 142.182 166.333C142.879 157.741 142.956 139.939 142.879 123.84C142.724 106.58 129.334 92.2607 112.073 91.0223L110.371 90.8675C91.7945 90.6353 81.1907 106.27 81.4229 124.846Z" fill="#F7C5A8"/>
<path d="M122.677 185.528C122.677 185.528 111.454 185.373 100.076 177.014C100.076 177.014 104.798 190.404 122.6 190.094L122.677 185.528Z" fill="#F4A695"/>
<path d="M112.461 131.115C112.074 131.502 110.062 129.8 107.12 129.722C104.179 129.568 101.935 131.115 101.625 130.728C101.47 130.574 101.857 129.877 102.786 129.258C103.715 128.561 105.34 127.942 107.198 128.019C109.055 128.097 110.603 128.793 111.455 129.567C112.384 130.264 112.616 130.961 112.461 131.115Z" fill="#263238"/>
<path d="M112.383 137.307C112.305 138.546 111.222 139.552 109.906 139.552C108.59 139.552 107.507 138.468 107.584 137.23C107.661 135.992 108.745 134.985 110.061 134.985C111.377 134.985 112.46 135.992 112.383 137.307Z" fill="#263238"/>
<path d="M119.891 151.859C119.891 151.704 121.593 151.549 124.38 151.394C125.076 151.394 125.773 151.317 125.928 150.853C126.16 150.388 125.928 149.614 125.618 148.763C125.076 147.06 124.535 145.202 123.915 143.267C121.593 135.527 119.968 129.103 120.278 129.026C120.587 128.948 122.754 135.14 124.999 142.958C125.541 144.893 126.083 146.673 126.547 148.453C126.779 149.227 127.166 150.233 126.702 151.24C126.47 151.781 125.928 152.091 125.463 152.168C124.999 152.246 124.612 152.246 124.302 152.246C121.671 152.091 119.891 152.014 119.891 151.859Z" fill="#263238"/>
<path d="M111.223 119.97C110.914 120.667 108.592 120.125 105.728 120.28C102.864 120.357 100.542 121.054 100.232 120.434C100.078 120.125 100.542 119.506 101.471 118.964C102.4 118.345 103.948 117.88 105.65 117.803C107.353 117.725 108.901 118.112 109.907 118.654C110.836 119.041 111.301 119.66 111.223 119.97Z" fill="#263238"/>
<path d="M139.475 125.465C139.165 126.007 136.843 125.388 134.057 125.311C131.27 125.156 128.871 125.62 128.639 125.001C128.484 124.769 128.948 124.227 129.954 123.84C130.961 123.376 132.431 123.066 134.134 123.143C135.837 123.221 137.307 123.685 138.236 124.15C139.165 124.691 139.629 125.233 139.475 125.465Z" fill="#263238"/>
<path d="M81.8883 138.082C81.5787 137.927 69.9687 133.592 69.4269 145.744C68.9625 157.896 81.2691 155.884 81.3465 155.574C81.3465 155.187 81.8883 138.082 81.8883 138.082Z" fill="#F7C5A8"/>
<path d="M77.7852 150.775C77.7078 150.698 77.553 150.93 77.166 151.085C76.779 151.239 76.2372 151.317 75.5406 151.085C74.3022 150.543 73.296 148.453 73.296 146.286C73.296 145.202 73.6056 144.119 73.9926 143.267C74.3796 142.416 74.9988 141.797 75.618 141.719C76.2372 141.565 76.7016 142.029 76.8564 142.338C77.0112 142.648 76.9338 142.958 77.0112 142.958C77.0112 142.958 77.2434 142.803 77.166 142.261C77.0886 142.029 77.0112 141.719 76.7016 141.487C76.392 141.255 76.005 141.1 75.5406 141.1C74.6118 141.1 73.683 141.951 73.2186 142.88C72.6768 143.809 72.3672 144.97 72.3672 146.208C72.3672 148.685 73.5282 151.007 75.231 151.626C76.0824 151.859 76.779 151.627 77.166 151.394C77.7852 151.085 77.8626 150.852 77.7852 150.775Z" fill="#F4A695"/>
<path d="M117.028 160.218C117.183 159.908 114.784 159.212 113.081 156.967C112.229 155.884 111.765 154.645 111.378 153.794C110.991 152.942 110.759 152.323 110.604 152.401C110.449 152.401 110.527 153.02 110.681 154.026C110.914 154.955 111.301 156.348 112.229 157.586C113.158 158.825 114.397 159.599 115.325 159.986C116.409 160.373 117.028 160.373 117.028 160.218Z" fill="#263238"/>
<path d="M139.629 132.277C139.242 132.664 137.23 130.961 134.288 130.883C131.347 130.729 129.103 132.277 128.793 131.89C128.638 131.735 129.025 131.038 129.954 130.419C130.883 129.722 132.508 129.103 134.366 129.181C136.223 129.258 137.771 129.955 138.623 130.729C139.474 131.425 139.784 132.122 139.629 132.277Z" fill="#263238"/>
<path d="M139.088 138.159C139.01 139.397 137.927 140.404 136.611 140.404C135.295 140.404 134.212 139.32 134.289 138.082C134.366 136.843 135.45 135.837 136.766 135.837C138.082 135.837 139.165 136.843 139.088 138.159Z" fill="#263238"/>
<path d="M155.186 100.31C152.864 96.2856 147.369 94.5828 143.189 96.5178C144.273 90.945 141.254 84.753 136.146 82.1988C131.037 79.6446 124.303 80.883 120.511 85.14C120.279 83.592 119.195 82.3536 117.879 81.5022C116.563 80.7282 115.015 80.3412 113.545 80.1864C108.823 79.6446 103.87 80.8056 99.9223 83.4372C97.8325 84.753 95.9749 86.5332 94.5043 88.5456C87.4609 87.6942 80.0305 90.3258 75.2317 95.589C69.5041 101.936 68.4205 116.642 74.6899 129.258L76.1605 137.23C78.0955 137.23 79.9531 137.385 81.1141 138.469C82.7395 139.939 83.5135 142.726 86.2225 141.642C87.6157 141.1 88.8541 138.159 89.3185 136.766C92.4145 127.323 93.4207 117.261 92.3371 107.431C94.2721 105.341 96.5941 103.639 99.2257 102.478L98.9935 102.632C103.947 100.93 109.597 99.2268 114.241 101.549C117.879 103.329 120.046 107.122 122.755 110.14C127.941 115.868 134.907 118.964 142.647 119.351C142.879 124.382 142.492 131.425 142.725 136.379L147.059 128.484V128.561C147.369 127.942 147.678 127.4 147.988 126.781L148.065 126.626C148.839 126.007 149.381 124.846 150.697 123.376C153.174 120.512 153.87 116.177 152.4 112.617C156.192 109.908 157.508 104.258 155.186 100.31Z" fill="#263238"/>
<path d="M147.911 100.465C147.911 100.465 147.988 100.543 147.988 100.697C148.066 100.852 148.066 101.162 148.066 101.471C148.066 102.168 147.988 103.252 147.369 104.335C147.06 104.877 146.595 105.419 145.976 105.883C145.357 106.348 144.583 106.735 143.731 106.812C142.029 107.122 139.939 106.502 138.623 104.877L138.933 104.645C139.474 105.264 139.861 106.115 139.784 107.044C139.784 108.205 139.242 109.366 138.391 110.14C137.539 110.914 136.533 111.301 135.527 111.379C133.515 111.611 131.734 110.837 130.496 109.985C129.258 109.134 128.406 108.283 127.787 107.741C127.245 107.122 126.936 106.812 126.936 106.812C126.936 106.812 127.323 107.122 127.864 107.663C128.484 108.205 129.335 109.057 130.573 109.831C131.812 110.605 133.515 111.301 135.372 111.069C136.301 110.992 137.307 110.605 138.004 109.908C138.7 109.211 139.242 108.205 139.242 107.122C139.242 106.348 139.01 105.574 138.468 105.032L138.778 104.8C139.939 106.27 141.951 106.812 143.499 106.58C145.125 106.348 146.286 105.264 146.905 104.258C147.524 103.252 147.679 102.245 147.679 101.549C147.988 100.852 147.911 100.465 147.911 100.465Z" fill="#455A64"/>
<path d="M132.663 87.1523C132.663 87.1523 132.74 87.1523 132.895 87.3071C133.05 87.3845 133.282 87.5393 133.592 87.7715C134.134 88.2359 134.908 88.9325 135.449 90.1709C135.991 91.3319 135.991 93.1121 135.062 94.5827C134.598 95.2793 133.824 95.8985 132.818 96.1307C131.889 96.3629 130.805 96.2081 129.954 95.5889C129.722 95.4341 129.49 95.1245 129.257 94.8923L129.567 94.6601C129.954 95.5889 129.877 96.5951 129.49 97.3691C129.103 98.2205 128.483 98.8398 127.709 99.1494C126.239 99.846 124.613 99.6138 123.53 99.1494C122.446 98.685 121.75 97.9883 121.285 97.4465C120.821 96.9821 120.666 96.5951 120.666 96.5951C120.666 96.5951 120.898 96.8273 121.363 97.2917C121.827 97.7561 122.524 98.3753 123.607 98.8397C124.613 99.3041 126.161 99.4589 127.477 98.7623C128.174 98.4527 128.716 97.8335 129.025 97.1369C129.335 96.4403 129.412 95.5115 129.103 94.7375L128.483 93.2669L129.49 94.5827C129.644 94.8149 129.877 94.9697 130.109 95.1245C130.805 95.6663 131.812 95.8211 132.663 95.5889C133.514 95.4341 134.211 94.8923 134.675 94.2731C135.604 92.9573 135.604 91.3319 135.14 90.1709C134.675 89.0099 133.979 88.2359 133.437 87.7715C133.05 87.3845 132.663 87.1523 132.663 87.1523Z" fill="#455A64"/>
<path d="M235.992 175.93L207.973 197.37C206.271 198.608 206.038 201.085 207.432 202.633C208.67 204.104 210.915 204.336 212.385 203.098L240.249 181.426L244.042 173.995L235.992 175.93Z" fill="url(#paint5_linear_432_6888)"/>
<path opacity="0.5" d="M240.404 174.847L242.417 177.169L240.25 181.426C240.25 181.426 238.16 181.503 238.392 179.491C238.392 179.491 236.302 179.723 236.689 177.556C236.689 177.556 235.219 177.401 236.07 175.853L240.404 174.847Z" fill="white"/>
<path d="M207.973 197.37L212.539 203.02L214.087 201.782L209.675 196.054L207.973 197.37Z" fill="#263238"/>
<path d="M205.883 251.163L204.877 251.008L225.543 214.862L222.292 204.413C222.292 204.413 218.499 189.553 221.673 185.76C221.673 185.76 228.561 177.633 230.806 177.71C233.051 177.788 234.831 178.252 235.295 179.955C235.295 179.955 239.088 179.491 240.094 180.729C241.1 181.967 241.874 183.438 241.874 183.438C241.874 183.438 246.054 183.128 247.137 186.689C247.137 186.689 251.085 188.701 251.394 191.642C251.704 194.584 250.62 208.129 249.382 211.612C248.144 215.095 243.577 222.37 242.184 233.129C240.868 243.887 236.069 250.853 231.89 266.643L220.434 271.132L205.883 251.163Z" fill="#F7C5A8"/>
<path d="M235.062 179.645C235.14 179.8 233.747 180.729 232.663 182.432C231.579 184.135 231.347 185.837 231.192 185.837C231.038 185.837 231.115 184.057 232.276 182.2C233.437 180.342 235.062 179.568 235.062 179.645Z" fill="#F4A695"/>
<path d="M241.72 183.361C241.798 183.515 240.404 184.289 239.321 185.837C238.237 187.385 237.928 188.933 237.773 188.933C237.618 188.933 237.773 187.231 238.934 185.605C240.095 183.98 241.643 183.283 241.72 183.361Z" fill="#F4A695"/>
<path d="M246.982 186.534C247.06 186.611 246.054 187.54 245.125 188.933C244.196 190.327 243.654 191.565 243.577 191.488C243.422 191.488 243.732 190.017 244.738 188.624C245.667 187.231 246.905 186.457 246.982 186.534Z" fill="#F4A695"/>
<path d="M227.555 187.695C227.477 187.772 226.548 187.231 225.233 187.308C223.917 187.385 223.065 188.082 222.988 188.005C222.911 187.927 223.066 187.695 223.453 187.463C223.84 187.153 224.459 186.921 225.155 186.844C225.852 186.766 226.549 186.998 226.936 187.231C227.4 187.463 227.555 187.695 227.555 187.695Z" fill="#F4A695"/>
<path d="M235.76 192.881C235.606 192.958 235.219 191.72 234.058 190.868C232.897 189.94 231.658 189.94 231.658 189.785C231.658 189.707 231.968 189.63 232.51 189.707C233.051 189.785 233.748 190.017 234.367 190.481C234.986 190.946 235.451 191.565 235.606 192.107C235.838 192.494 235.838 192.881 235.76 192.881Z" fill="#F4A695"/>
<path d="M243.965 194.661C243.887 194.738 242.959 193.732 241.411 193.345C239.863 192.881 238.547 193.345 238.547 193.19C238.547 193.113 238.856 192.958 239.398 192.803C239.94 192.649 240.714 192.649 241.565 192.881C242.417 193.113 243.036 193.5 243.5 193.887C243.887 194.274 244.042 194.584 243.965 194.661Z" fill="#F4A695"/>
<path d="M35.1393 234.058C35.1393 234.058 22.4457 306.117 23.0649 312.851C23.6841 319.585 27.0123 330.343 34.6749 332.123C42.3375 333.981 49.3809 332.123 49.3809 332.123L40.2477 243.655L35.1393 234.058Z" fill="url(#paint6_linear_432_6888)"/>
<path d="M72.2913 196.906C72.2913 196.906 57.1209 207.664 53.7927 210.838C39.7833 224.15 36.8421 229.568 35.2167 234.058C33.5139 238.547 44.8917 342.882 44.8917 342.882L47.2137 361.071L153.793 361.381V268.268L137.772 202.711L127.942 199.924L125.929 192.107C125.929 192.107 113.7 183.051 93.4989 182.819C87.3069 182.741 78.4833 185.141 73.6071 189.011L72.2913 196.906Z" fill="url(#paint7_linear_432_6888)"/>
<path d="M125.853 203.02C125.853 203.02 136.766 202.556 137.772 202.788C141.178 203.562 150.389 212.076 160.992 222.525C171.054 232.51 190.869 253.33 190.869 253.33C190.869 253.33 194.429 249.77 198.454 254.569L214.089 231.813C214.089 231.813 237.541 234.677 241.256 252.401C241.256 252.401 234.058 266.179 228.176 275.931C228.176 275.931 206.349 312.154 189.089 305.575C173.376 299.615 153.639 283.594 150.853 280.111L127.71 263.547C127.71 263.547 111.843 233.284 118.887 218.113C125.853 203.02 125.853 203.02 125.853 203.02Z" fill="url(#paint8_linear_432_6888)"/>
<path d="M127.864 199.924C127.864 199.924 127.632 199.924 127.322 199.847C126.935 199.769 126.394 199.615 125.774 199.46C124.381 199.073 122.369 198.608 119.892 198.144C114.938 197.138 107.972 196.209 100.232 195.745C92.4924 195.28 85.449 195.28 80.418 195.822C77.8638 196.054 75.8514 196.364 74.4582 196.596C73.839 196.751 73.2972 196.828 72.8328 196.906C72.4458 196.983 72.291 196.983 72.291 196.983C72.291 196.983 72.4458 196.906 72.8328 196.828C73.2198 196.751 73.7616 196.596 74.4582 196.441C75.8514 196.132 77.8638 195.745 80.418 195.512C85.449 194.971 92.5698 194.816 100.31 195.28C108.05 195.822 115.016 196.751 120.047 197.834C122.524 198.376 124.536 198.841 125.929 199.305C126.548 199.537 127.09 199.692 127.477 199.769C127.709 199.847 127.864 199.924 127.864 199.924Z" fill="#263238"/>
<path d="M86.3787 194.506C86.2239 194.506 85.9143 192.726 85.6047 190.559C85.2951 188.314 85.1403 186.534 85.2951 186.534C85.4499 186.534 85.7595 188.314 86.0691 190.481C86.3787 192.726 86.5335 194.506 86.3787 194.506Z" fill="#263238"/>
<path d="M90.4022 194.197C90.3248 194.274 89.6282 192.494 89.4734 190.249C89.3186 188.005 89.7056 186.147 89.8604 186.147C90.0152 186.147 89.783 188.005 89.9378 190.172C90.0152 192.416 90.4796 194.119 90.4022 194.197Z" fill="#263238"/>
<g opacity="0.3">
<path d="M72.6016 196.828C89.2426 199.769 106.193 196.828 123.84 198.918C106.812 195.435 89.0878 193.732 72.6016 196.828Z" fill="black"/>
</g>
<g opacity="0.3">
<path d="M43.3437 332.278C33.9783 310.297 35.0619 285.451 36.3777 261.612L43.3437 332.278Z" fill="black"/>
</g>
<path d="M35.1399 249.77C35.1399 249.77 35.1399 249.847 35.2173 250.079C35.2173 250.312 35.2947 250.544 35.2947 250.931C35.3721 251.705 35.4495 252.711 35.6043 254.104C35.9139 256.891 36.3009 260.838 36.7653 265.714C37.6941 275.467 39.0099 289.012 40.5579 303.872C42.1059 318.811 43.6539 332.278 44.8923 341.953C45.5115 346.829 46.0533 350.777 46.3629 353.486C46.5177 354.802 46.6725 355.885 46.7499 356.582C46.8273 356.891 46.8273 357.201 46.8273 357.433C46.8273 357.588 46.8273 357.743 46.8273 357.743C46.8273 357.743 46.8273 357.665 46.7499 357.433C46.7499 357.201 46.6725 356.969 46.5951 356.659C46.4403 355.885 46.2855 354.879 46.1307 353.563C45.7437 350.854 45.1245 346.907 44.5053 342.031C43.1895 332.278 41.5641 318.811 40.0161 303.95C38.4681 289.012 37.2297 275.544 36.3783 265.792C35.9913 260.915 35.6043 256.968 35.3721 254.182C35.2947 252.866 35.2173 251.782 35.1399 251.008C35.1399 250.699 35.1399 250.389 35.0625 250.157C35.1399 249.925 35.1399 249.77 35.1399 249.77Z" fill="#263238"/>
<path d="M107.277 238.005C107.277 238.005 107.044 238.005 106.58 238.005C106.116 238.005 105.419 238.005 104.645 238.005C102.942 238.005 100.465 238.005 97.4469 238.082C91.3323 238.237 82.8957 238.702 73.6851 239.785C64.3971 240.869 56.1153 242.417 50.1555 243.733C47.1369 244.352 44.7375 244.971 43.1121 245.358C42.3381 245.513 41.6415 245.668 41.1771 245.822C40.7127 245.9 40.4805 245.977 40.4805 245.977C40.4805 245.977 40.7127 245.9 41.0997 245.745C41.5641 245.59 42.1833 245.435 42.9573 245.203C44.5827 244.739 46.9821 244.12 50.0007 243.423C55.9605 242.03 64.2423 240.404 73.5303 239.321C82.8183 238.237 91.2549 237.85 97.3695 237.773C100.388 237.773 102.865 237.773 104.645 237.85C105.496 237.85 106.116 237.928 106.58 237.928C107.044 238.005 107.277 238.005 107.277 238.005Z" fill="#263238"/>
<path d="M66.331 261.303C66.1762 261.303 66.4084 251.318 66.8728 239.011C67.3372 226.705 67.7242 216.72 67.879 216.72C68.0338 216.72 67.8016 226.705 67.3372 239.011C66.9502 251.395 66.4858 261.303 66.331 261.303Z" fill="#263238"/>
<path d="M120.821 260.064C120.821 260.064 120.666 259.832 120.434 259.445C120.202 258.98 119.815 258.361 119.35 257.587C118.422 255.962 117.028 253.64 115.403 250.853C113.778 247.99 111.843 244.507 110.449 240.327C109.753 238.237 109.211 235.993 108.979 233.593C108.747 231.194 108.747 228.717 108.979 226.24C109.443 221.209 110.527 216.41 112.462 212.463C113.468 210.451 114.629 208.748 115.945 207.277C117.261 205.807 118.731 204.646 120.124 203.794C122.988 202.014 125.697 201.395 127.477 201.317C129.335 201.24 130.341 201.472 130.341 201.472C130.341 201.55 129.335 201.317 127.477 201.472C125.697 201.627 122.988 202.246 120.279 204.026C118.886 204.878 117.493 206.039 116.254 207.509C115.016 208.98 113.855 210.683 112.849 212.618C110.914 216.488 109.908 221.209 109.443 226.24C109.211 228.717 109.211 231.194 109.443 233.516C109.675 235.838 110.217 238.082 110.836 240.172C112.152 244.274 114.087 247.757 115.635 250.621C117.261 253.485 118.499 255.807 119.428 257.432C119.815 258.206 120.202 258.826 120.434 259.29C120.744 259.832 120.821 260.064 120.821 260.064Z" fill="#263238"/>
<g opacity="0.3">
<path d="M42.1826 245.9C48.9164 245.59 55.6502 244.661 62.2292 243.268C61.3778 246.209 61.0682 249.228 61.1456 252.247C63.2354 249.925 64.7834 247.061 65.6348 244.042C66.0993 247.37 67.9569 250.389 70.6658 252.324C71.3624 249.305 71.5172 246.209 71.1302 243.191C81.1148 241.952 91.022 240.327 100.852 238.315C80.96 237.85 61.0682 240.327 41.873 245.668" fill="black"/>
</g>
<path d="M170.28 295.591C170.28 295.591 170.125 295.513 169.816 295.281C169.506 295.049 169.042 294.817 168.577 294.43C167.494 293.656 165.868 292.572 163.933 291.256C160.063 288.547 154.723 284.677 148.918 280.343C143.113 276.008 137.927 271.984 134.212 269.042C132.354 267.572 130.884 266.333 129.8 265.559C129.336 265.172 128.949 264.863 128.639 264.553C128.407 264.321 128.252 264.166 128.252 264.166C128.252 264.166 128.407 264.244 128.716 264.476C129.026 264.708 129.413 265.018 129.955 265.405C131.038 266.256 132.586 267.417 134.444 268.81C138.237 271.674 143.422 275.699 149.227 280.033C155.032 284.368 160.373 288.238 164.166 291.024C166.023 292.417 167.571 293.501 168.732 294.352C169.274 294.739 169.661 295.049 169.971 295.281C170.125 295.436 170.28 295.591 170.28 295.591Z" fill="#263238"/>
<path d="M196.286 271.829C196.209 271.829 196.286 270.668 196.132 268.81C195.977 266.953 195.59 264.398 194.738 261.612C193.887 258.903 192.726 256.581 191.797 254.956C190.868 253.33 190.172 252.401 190.172 252.324C190.172 252.324 190.404 252.556 190.714 252.943C191.023 253.33 191.488 253.949 192.029 254.801C193.036 256.426 194.274 258.748 195.125 261.535C195.977 264.321 196.286 266.953 196.364 268.81C196.364 269.739 196.364 270.513 196.364 271.055C196.364 271.519 196.286 271.829 196.286 271.829Z" fill="#263238"/>
<path d="M201.085 270.049C201.008 270.049 201.162 269.12 201.317 267.649C201.395 266.179 201.472 264.166 201.24 261.922C201.008 259.677 200.466 257.742 200.001 256.349C199.537 254.956 199.227 254.104 199.305 254.104C199.305 254.104 199.46 254.259 199.614 254.646C199.769 255.033 200.001 255.575 200.311 256.271C200.853 257.665 201.395 259.677 201.627 261.922C201.859 264.166 201.782 266.256 201.627 267.727C201.549 268.501 201.395 269.042 201.317 269.429C201.162 269.816 201.085 270.049 201.085 270.049Z" fill="#263238"/>
<path d="M237.463 260.064C237.463 260.064 237.464 259.909 237.309 259.754C237.231 259.677 237.077 259.6 236.999 259.445C236.922 259.29 236.844 259.058 236.767 258.903C236.535 258.516 236.07 258.206 235.683 257.665C235.296 257.123 234.987 256.426 234.754 255.652C234.29 254.104 233.516 252.247 232.123 250.621C231.426 249.77 230.575 248.996 229.723 248.222C228.872 247.448 227.866 246.674 226.86 246.055C225.776 245.358 224.847 244.661 223.764 244.12C222.68 243.578 221.674 243.113 220.668 242.649C219.662 242.185 218.81 241.72 217.881 241.333C217.03 240.946 216.178 240.637 215.404 240.25C215.017 240.095 214.63 239.94 214.321 239.785C214.011 239.553 213.702 239.398 213.469 239.243C213.16 239.089 212.928 238.934 212.695 238.779C212.463 238.624 212.231 238.469 212.076 238.392C211.689 238.16 211.38 238.005 211.147 237.928C210.915 237.85 210.838 237.773 210.838 237.695C210.838 237.695 210.993 237.695 211.225 237.85C211.457 237.928 211.767 238.082 212.231 238.237C212.618 238.547 213.083 238.702 213.702 239.011C214.011 239.166 214.321 239.398 214.63 239.553C214.94 239.708 215.327 239.863 215.714 240.017C216.488 240.327 217.339 240.637 218.191 241.024C219.12 241.411 220.048 241.875 220.977 242.339C221.983 242.804 222.99 243.268 224.073 243.81C225.157 244.274 226.163 245.048 227.247 245.745C228.33 246.442 229.259 247.216 230.188 247.99C231.039 248.764 231.891 249.615 232.587 250.466C233.98 252.169 234.832 254.027 235.219 255.652C235.451 256.426 235.683 257.123 236.07 257.665C236.38 258.206 236.922 258.516 237.076 258.98C237.154 259.213 237.231 259.367 237.309 259.522C237.386 259.677 237.463 259.754 237.541 259.832C237.463 259.909 237.463 260.141 237.463 260.064Z" fill="#263238"/>
<path d="M138.158 359.6C138.081 359.6 137.926 340.018 137.926 315.869C137.926 291.721 138.003 272.138 138.158 272.138C138.235 272.138 138.39 291.721 138.39 315.869C138.313 340.018 138.235 359.6 138.158 359.6Z" fill="#263238"/>
<defs>
<linearGradient id="paint0_linear_432_6888" x1="184.17" y1="117.493" x2="235.223" y2="121.904" gradientUnits="userSpaceOnUse">
<stop stop-color="#15466F"/>
<stop offset="1" stop-color="#3387CA"/>
</linearGradient>
<linearGradient id="paint1_linear_432_6888" x1="267.833" y1="116.871" x2="311.236" y2="120.156" gradientUnits="userSpaceOnUse">
<stop stop-color="#15466F"/>
<stop offset="1" stop-color="#3387CA"/>
</linearGradient>
<linearGradient id="paint2_linear_432_6888" x1="183.59" y1="152.859" x2="239.008" y2="157.146" gradientUnits="userSpaceOnUse">
<stop stop-color="#15466F"/>
<stop offset="1" stop-color="#3387CA"/>
</linearGradient>
<linearGradient id="paint3_linear_432_6888" x1="313.106" y1="323.841" x2="341.261" y2="324.128" gradientUnits="userSpaceOnUse">
<stop stop-color="#15466F"/>
<stop offset="1" stop-color="#3387CA"/>
</linearGradient>
<linearGradient id="paint4_linear_432_6888" x1="306.502" y1="323.841" x2="331.474" y2="324.067" gradientUnits="userSpaceOnUse">
<stop stop-color="#15466F"/>
<stop offset="1" stop-color="#3387CA"/>
</linearGradient>
<linearGradient id="paint5_linear_432_6888" x1="209.283" y1="173.995" x2="243.569" y2="174.529" gradientUnits="userSpaceOnUse">
<stop stop-color="#15466F"/>
<stop offset="1" stop-color="#3387CA"/>
</linearGradient>
<linearGradient id="paint6_linear_432_6888" x1="24.9802" y1="234.057" x2="49.0545" y2="234.137" gradientUnits="userSpaceOnUse">
<stop stop-color="#15466F"/>
<stop offset="1" stop-color="#3387CA"/>
</linearGradient>
<linearGradient id="paint7_linear_432_6888" x1="43.7775" y1="182.817" x2="152.316" y2="183.712" gradientUnits="userSpaceOnUse">
<stop stop-color="#15466F"/>
<stop offset="1" stop-color="#3387CA"/>
</linearGradient>
<linearGradient id="paint8_linear_432_6888" x1="126.217" y1="202.723" x2="239.694" y2="204.41" gradientUnits="userSpaceOnUse">
<stop stop-color="#15466F"/>
<stop offset="1" stop-color="#3387CA"/>
</linearGradient>
</defs>
</svg>
