<svg width="563" height="414" viewBox="0 0 563 414" fill="none" xmlns="http://www.w3.org/2000/svg">
<path d="M523.289 153.023C523.289 153.023 523.214 153.472 522.689 154.22C522.239 154.968 521.263 155.94 519.761 156.389C519.011 156.613 518.11 156.688 517.209 156.538C516.308 156.389 515.332 155.94 514.582 155.267C514.206 154.968 513.831 154.519 513.531 154.07C513.231 153.621 513.005 153.098 512.855 152.574C512.555 151.452 512.63 150.255 513.005 149.133C513.456 148.011 514.206 147.039 515.182 146.44C515.633 146.141 516.158 145.917 516.684 145.767C517.209 145.618 517.735 145.543 518.26 145.543C519.311 145.543 520.287 145.917 521.113 146.366C521.938 146.889 522.539 147.488 522.914 148.161C523.74 149.507 523.815 150.854 523.665 151.751C523.59 152.649 523.289 153.023 523.289 153.023C523.289 153.023 523.44 152.574 523.515 151.751C523.59 150.928 523.515 149.582 522.689 148.31C522.314 147.637 521.713 147.039 520.962 146.59C520.212 146.141 519.236 145.842 518.26 145.842C517.735 145.842 517.284 145.917 516.759 146.066C516.233 146.216 515.783 146.44 515.332 146.74C514.432 147.338 513.681 148.236 513.231 149.283C512.855 150.33 512.78 151.527 513.08 152.574C513.231 153.098 513.456 153.621 513.756 153.995C514.056 154.444 514.357 154.818 514.732 155.117C515.483 155.79 516.383 156.164 517.284 156.314C518.185 156.464 519.011 156.389 519.761 156.239C521.263 155.79 522.163 154.893 522.689 154.22C523.139 153.472 523.289 153.023 523.289 153.023Z" fill="#E1F3FF"/>
<path d="M528.469 158.184C528.469 158.184 528.544 158.184 528.694 158.184C528.844 158.184 528.994 158.259 529.295 158.259C529.82 158.334 530.571 158.408 531.547 158.558H531.471C531.922 157.361 532.522 155.716 533.273 153.846V153.92C532.522 153.397 531.622 152.873 530.721 152.2H530.646V152.125C530.721 151.078 530.721 150.031 530.571 148.834V148.759H530.646C531.396 148.161 532.222 147.562 533.123 146.889V147.039C532.447 145.618 531.772 144.047 531.021 142.401L531.171 142.476C530.27 142.626 529.219 142.85 528.169 143.074H528.093L528.018 143C527.343 142.177 526.592 141.429 525.616 140.756L525.541 140.681V140.606C525.691 139.634 525.841 138.661 525.992 137.614L526.067 137.764C524.565 137.165 522.989 136.567 521.337 135.968L521.488 135.894C520.962 136.716 520.362 137.539 519.761 138.437L519.686 138.512H519.611C518.56 138.437 517.434 138.437 516.308 138.586H516.233L516.158 138.512C515.557 137.764 514.957 136.941 514.356 136.043L514.506 136.118C513.005 136.791 511.429 137.464 509.852 138.138L509.927 137.988C510.153 138.96 510.303 139.933 510.528 140.98V141.055L510.453 141.13C509.627 141.803 508.876 142.551 508.201 143.523C508.126 143.523 508.351 143.448 508.051 143.598H507.976H507.901H507.675L507.3 143.523L506.549 143.448C506.024 143.374 505.573 143.299 505.048 143.224L505.198 143.149C504.598 144.72 503.997 146.291 503.397 147.862L503.321 147.712C504.147 148.31 505.048 148.834 505.874 149.432L505.949 149.507V149.582C505.799 150.704 505.874 151.751 506.024 152.873V152.948L505.949 153.023C505.123 153.621 504.297 154.22 503.472 154.818L503.547 154.668C504.222 156.239 504.898 157.81 505.573 159.306L505.423 159.231C506.474 159.007 507.45 158.857 508.426 158.633H508.501L508.576 158.708C509.252 159.605 510.077 160.353 510.978 160.952L511.053 161.026V161.101C510.903 162.148 510.753 163.121 510.603 164.093L510.528 163.944C512.179 164.617 513.756 165.215 515.257 165.739L515.107 165.814C515.707 164.916 516.308 164.093 516.833 163.27L516.909 163.196H516.984C518.185 163.345 519.236 163.27 520.287 163.121H520.362V163.196C521.037 164.093 521.638 164.916 522.163 165.664H522.088C523.89 164.841 525.466 164.168 526.742 163.644L526.667 163.719C526.442 162.522 526.217 161.55 526.067 160.727C526.967 160.054 527.493 159.456 527.868 159.007C528.018 158.782 528.169 158.633 528.244 158.558C528.394 158.259 528.469 158.184 528.469 158.184C528.469 158.184 528.469 158.259 528.394 158.334C528.319 158.408 528.169 158.633 528.018 158.857C527.643 159.306 527.118 159.904 526.217 160.652V160.578C526.367 161.4 526.592 162.373 526.817 163.57V163.644H526.742C525.466 164.243 523.89 164.916 522.088 165.739H522.013L521.938 165.664C521.337 164.916 520.737 164.093 520.061 163.196L520.136 163.27C519.085 163.42 517.959 163.495 516.758 163.345L516.833 163.27C516.308 164.093 515.707 164.916 515.107 165.814L515.032 165.888H514.957C513.455 165.29 511.879 164.692 510.228 164.093H510.153V164.018C510.303 163.046 510.453 161.999 510.603 161.026L510.678 161.176C509.777 160.503 508.951 159.755 508.276 158.857L508.426 158.932C507.45 159.156 506.399 159.306 505.423 159.53H505.273L505.198 159.456C504.523 157.96 503.847 156.389 503.096 154.818L503.021 154.743L503.096 154.668C503.922 154.07 504.748 153.472 505.573 152.873L505.498 153.023C505.348 151.901 505.273 150.779 505.423 149.657L505.498 149.806C504.673 149.208 503.772 148.684 502.946 148.086L502.871 148.011L502.946 147.862C503.547 146.291 504.147 144.72 504.748 143.149L504.823 143H504.973C505.498 143.074 505.949 143.149 506.474 143.224L507.225 143.299L507.6 143.374H507.825H507.901H507.976C507.675 143.523 507.901 143.374 507.825 143.448C508.501 142.551 509.327 141.728 510.153 141.055L510.077 141.204C509.852 140.157 509.702 139.185 509.477 138.212V138.063L509.627 137.988C511.203 137.315 512.78 136.567 514.281 135.968L514.356 135.894L514.431 135.968C515.032 136.791 515.707 137.689 516.233 138.437L516.083 138.362C517.209 138.212 518.41 138.138 519.461 138.287L519.311 138.362C519.911 137.464 520.512 136.642 521.037 135.819L521.112 135.744L521.187 135.819C522.839 136.417 524.415 137.09 525.917 137.614L525.992 137.689V137.764C525.841 138.811 525.691 139.858 525.541 140.756L525.466 140.606C526.442 141.279 527.268 142.102 527.868 142.925L527.718 142.85C528.769 142.626 529.82 142.476 530.721 142.252H530.796L530.871 142.326C531.622 143.972 532.297 145.468 532.898 146.964V147.039L532.823 147.114C531.922 147.787 531.096 148.385 530.345 148.909L530.421 148.834C530.571 150.031 530.646 151.153 530.496 152.125L530.421 152.05C531.321 152.649 532.222 153.247 532.973 153.771H533.048V153.846C532.297 155.79 531.697 157.361 531.171 158.558V158.633H531.096C530.12 158.483 529.37 158.334 528.844 158.259C528.619 158.184 528.394 158.184 528.244 158.184C528.544 158.259 528.469 158.184 528.469 158.184Z" fill="#E1F3FF"/>
<path fill-rule="evenodd" clip-rule="evenodd" d="M498.217 128.114C497.166 129.536 495.965 130.807 494.614 131.854L495.515 136.567L488.158 139.783L485.23 135.894C483.504 136.193 481.777 136.193 479.976 136.043L477.273 140.082L469.767 137.24L470.442 132.453C469.016 131.406 467.74 130.209 466.689 128.862L461.96 129.76L458.732 122.43L462.635 119.512C462.335 117.792 462.335 116.072 462.485 114.276L458.432 111.584L461.284 104.104L466.088 104.777C467.139 103.356 468.34 102.084 469.692 101.037L468.791 96.3244L476.147 93.108L479.075 96.9976C480.802 96.6984 482.528 96.6984 484.33 96.848L487.032 92.8088L494.539 95.6512L493.863 100.438C495.289 101.486 496.566 102.682 497.616 104.029L502.346 103.131L505.574 110.462L501.67 113.379C501.97 115.099 501.97 116.82 501.82 118.615L505.874 121.308L503.021 128.788L498.217 128.114ZM490.11 120.036C491.836 115.623 489.584 110.686 485.155 108.966C480.726 107.245 475.772 109.489 474.045 113.902C472.319 118.316 474.571 123.252 479 124.973C483.429 126.618 488.458 124.449 490.11 120.036Z" fill="#E1F3FF"/>
<path fill-rule="evenodd" clip-rule="evenodd" d="M489.209 201.269C487.558 203.588 485.606 205.607 483.429 207.328L484.93 214.957L473.145 220.193L468.491 213.985C465.713 214.434 462.936 214.508 460.083 214.209L455.729 220.642L443.719 216.004L444.845 208.3C442.518 206.654 440.491 204.71 438.764 202.54L431.107 204.036L425.853 192.293L432.083 187.655C431.633 184.888 431.558 182.12 431.858 179.278L425.402 174.939L430.056 162.971L437.788 164.093C439.44 161.774 441.392 159.755 443.568 158.034L442.067 150.405L453.853 145.169L458.507 151.377C461.284 150.928 464.062 150.854 466.914 151.153L471.268 144.72L483.279 149.358L482.153 157.062C484.48 158.708 486.507 160.652 488.233 162.822L495.89 161.326L501.145 173.069L494.914 177.707C495.364 180.474 495.44 183.242 495.139 186.084L501.595 190.423L496.941 202.391L489.209 201.269ZM476.222 188.179C479 181.073 475.397 173.144 468.34 170.376C461.209 167.609 453.252 171.199 450.475 178.23C447.697 185.336 451.3 193.265 458.357 196.033C465.488 198.8 473.445 195.285 476.222 188.179Z" fill="#E1F3FF"/>
<path d="M56.0357 126.658L52.1709 123.552L54.9136 120.074L58.7784 123.055C61.7705 119.825 65.5106 117.341 68.5027 116.595L71.2454 121.937C68.5027 122.682 65.6353 124.422 63.3912 126.782L69.2507 131.378C73.2402 128.273 77.9776 124.919 83.0891 128.894C86.8292 131.875 87.8266 137.093 84.0865 143.056L87.9513 146.161L85.2085 149.64L81.3437 146.658C79.0997 149.143 76.3569 151.131 73.6142 152L70.7468 146.907C73.2402 145.913 75.2349 144.546 76.8556 143.056L70.8714 138.335C66.882 141.441 62.1445 144.671 57.2824 140.82C53.4176 137.714 52.2956 132.621 56.0357 126.658ZM74.2375 135.354L79.2243 139.329C80.2217 137.093 79.8477 135.602 78.7257 134.733C77.479 133.614 75.9829 134.236 74.2375 135.354ZM61.0225 134.733C62.2692 135.726 63.7652 135.229 65.3859 134.111L60.5238 130.26C59.6511 132.248 59.9005 133.739 61.0225 134.733Z" fill="#E1F3FF"/>
<path d="M515.333 379.068C515.333 379.143 408.964 379.293 277.747 379.293C146.531 379.293 40.1611 379.218 40.1611 379.068C40.1611 378.919 146.531 378.844 277.747 378.844C408.964 378.919 515.333 378.994 515.333 379.068Z" fill="#263238"/>
<path d="M480.427 303.221C490.111 293.348 505.274 289.234 518.636 292.749C507.001 300.528 493.939 304.642 479.977 304.792" fill="url(#paint0_linear_404_4683)"/>
<path d="M493.415 257.518C491.838 246.298 496.192 233.657 504.599 225.504C504.9 236.649 500.171 249.141 493.415 257.518Z" fill="url(#paint1_linear_404_4683)"/>
<path d="M486.657 278.687C492.662 267.242 502.496 257.818 514.282 252.357C510.753 265.298 499.644 275.844 486.582 278.762" fill="url(#paint2_linear_404_4683)"/>
<path d="M485.307 282.801C492.138 283.025 498.969 282.726 505.575 281.006C512.181 279.285 518.486 275.919 522.84 270.758C509.628 270.758 496.417 274.797 485.457 282.128" fill="url(#paint3_linear_404_4683)"/>
<path d="M488.76 269.337C485.307 256.471 479.602 247.495 469.468 240.314C468.717 246.598 470.219 253.105 473.747 258.416C477.2 263.652 482.605 267.616 488.76 269.337Z" fill="url(#paint4_linear_404_4683)"/>
<path d="M463.087 291.552C462.937 284.072 467.742 276.667 474.723 273.9C474.122 280.557 468.868 288.261 463.087 291.552Z" fill="url(#paint5_linear_404_4683)"/>
<path d="M459.783 280.706C459.033 269.935 451.301 259.987 441.092 256.471C443.494 267.242 449.724 276.144 459.783 280.706Z" fill="url(#paint6_linear_404_4683)"/>
<path d="M464.738 300.005C462.336 296.564 458.433 294.47 454.379 293.422C450.325 292.375 446.122 292.3 441.918 292.151C447.548 298.359 456.031 301.875 464.438 301.501" fill="url(#paint7_linear_404_4683)"/>
<path d="M469.542 327.456C462.036 325.138 453.628 325.736 446.422 329.102C439.291 332.468 433.51 338.602 430.508 345.857C444.77 343.164 458.733 336.881 469.542 327.456Z" fill="url(#paint8_linear_404_4683)"/>
<path d="M485.082 317.882C482.755 324.838 483.205 333.216 488.385 339.125C490.562 332.094 489.286 324.016 485.082 317.882Z" fill="url(#paint9_linear_404_4683)"/>
<path d="M494.314 314.067C494.99 322.968 500.695 331.346 508.802 335.236C509.178 335.46 509.703 335.61 510.078 335.46C510.679 335.236 510.754 334.338 510.679 333.665C509.628 324.764 503.022 316.162 494.314 314.067Z" fill="url(#paint10_linear_404_4683)"/>
<path d="M500.32 313.17C504.299 317.433 510.079 319.976 515.934 320.051C521.789 320.051 527.645 317.583 531.623 313.319C521.714 312.197 510.154 311.524 500.32 313.17Z" fill="url(#paint11_linear_404_4683)"/>
<path d="M501.821 233.807C501.821 233.807 501.821 233.882 501.746 234.106C501.671 234.33 501.596 234.555 501.445 234.929C501.145 235.677 500.77 236.799 500.244 238.145C499.719 239.566 499.118 241.287 498.368 243.232C497.992 244.204 497.617 245.326 497.242 246.448C496.866 247.57 496.416 248.767 495.966 250.038C494.164 255.05 492.212 261.109 490.11 267.841C488.009 274.573 485.832 281.978 483.73 289.832C481.628 297.686 479.751 305.166 478.1 312.048C476.523 318.929 475.247 325.138 474.271 330.374C474.046 331.645 473.821 332.917 473.596 334.114C473.371 335.31 473.22 336.432 472.995 337.48C472.62 339.574 472.32 341.369 472.094 342.865C471.869 344.286 471.719 345.483 471.569 346.231C471.494 346.605 471.494 346.904 471.419 347.129C471.419 347.353 471.344 347.428 471.344 347.428C471.344 347.428 471.344 347.353 471.344 347.129C471.344 346.904 471.419 346.605 471.419 346.231C471.494 345.408 471.644 344.286 471.869 342.865C472.019 341.369 472.32 339.574 472.695 337.48C472.845 336.432 473.07 335.31 473.22 334.114C473.446 332.917 473.671 331.72 473.896 330.374C474.797 325.138 476.148 318.929 477.649 312.048C479.226 305.166 481.102 297.686 483.204 289.832C485.381 281.978 487.558 274.573 489.66 267.841C491.762 261.109 493.789 255.125 495.59 250.113C496.041 248.842 496.491 247.645 496.866 246.523C497.317 245.401 497.692 244.354 498.067 243.306C498.818 241.287 499.419 239.641 500.019 238.22C500.545 236.874 500.995 235.752 501.295 235.004C501.445 234.63 501.521 234.405 501.671 234.181C501.746 233.882 501.821 233.807 501.821 233.807Z" fill="#263238"/>
<path d="M447.098 262.156C447.098 262.156 447.173 262.231 447.248 262.306C447.398 262.455 447.548 262.605 447.698 262.829C448.149 263.278 448.749 263.951 449.5 264.774C451.001 266.495 453.103 269.113 455.355 272.553C457.607 275.994 459.859 280.407 461.51 285.643C463.162 290.879 464.138 296.789 465.189 302.922C467.216 315.264 469.693 326.409 471.494 334.413C472.395 338.377 473.146 341.669 473.671 343.913C473.896 345.035 474.122 345.857 474.272 346.531C474.347 346.83 474.347 347.054 474.422 347.204C474.422 347.353 474.497 347.428 474.422 347.428C474.422 347.428 474.422 347.353 474.347 347.204C474.272 347.054 474.272 346.83 474.197 346.531C474.047 345.932 473.821 345.035 473.521 343.987C472.996 341.743 472.17 338.527 471.269 334.488C469.392 326.484 466.84 315.414 464.813 302.997C463.762 296.789 462.787 290.879 461.21 285.718C459.634 280.557 457.382 276.144 455.205 272.703C453.028 269.262 450.926 266.644 449.425 264.849C448.674 263.951 448.074 263.278 447.698 262.829C447.548 262.605 447.398 262.455 447.248 262.306C447.098 262.231 447.098 262.156 447.098 262.156Z" fill="#263238"/>
<path d="M503.248 312.721C503.248 312.721 503.098 312.721 502.873 312.796C502.573 312.796 502.273 312.871 501.822 312.945C501.597 312.945 501.372 313.02 501.071 313.02C500.771 313.095 500.471 313.095 500.171 313.17C499.57 313.245 498.819 313.319 498.069 313.544C497.693 313.619 497.243 313.693 496.868 313.768C496.417 313.843 495.967 313.993 495.517 314.067C494.616 314.292 493.64 314.591 492.589 314.89C490.562 315.563 488.46 316.461 486.283 317.658C484.106 318.855 482.23 320.201 480.653 321.547C479.903 322.221 479.077 322.894 478.476 323.642C477.801 324.315 477.275 324.988 476.75 325.587C476.224 326.185 475.849 326.783 475.474 327.307C475.098 327.831 474.798 328.279 474.573 328.653C474.348 329.027 474.198 329.327 474.047 329.551C473.897 329.775 473.822 329.85 473.822 329.85C473.822 329.85 473.822 329.701 473.972 329.551C474.123 329.327 474.273 329.027 474.423 328.653C474.648 328.279 474.873 327.756 475.249 327.232C475.624 326.709 475.999 326.035 476.45 325.437C476.975 324.764 477.501 324.091 478.176 323.417C478.777 322.669 479.527 321.996 480.353 321.323C482.005 319.902 483.881 318.555 486.058 317.359C488.235 316.162 490.412 315.264 492.439 314.591C493.49 314.292 494.466 313.993 495.366 313.768C495.817 313.693 496.267 313.544 496.718 313.469C497.168 313.394 497.543 313.319 497.994 313.245C498.819 313.095 499.495 313.02 500.171 312.945C500.471 312.945 500.771 312.871 501.071 312.871C501.372 312.871 501.597 312.871 501.822 312.796C502.273 312.796 502.573 312.796 502.873 312.721C503.173 312.721 503.248 312.721 503.248 312.721Z" fill="#263238"/>
<path d="M506.1 262.455C506.1 262.455 505.875 262.754 505.35 263.128C504.824 263.577 504.149 264.176 503.323 264.924C501.596 266.42 499.119 268.439 496.492 270.683C493.79 272.927 491.312 274.872 489.586 276.368C488.76 277.041 488.009 277.64 487.484 278.014C486.958 278.388 486.658 278.612 486.658 278.612C486.658 278.612 486.883 278.313 487.409 277.939C487.934 277.49 488.61 276.892 489.436 276.144C491.162 274.648 493.564 272.628 496.267 270.384C498.969 268.14 501.371 266.195 503.173 264.699C503.999 264.026 504.749 263.428 505.275 263.054C505.8 262.605 506.1 262.38 506.1 262.455Z" fill="#263238"/>
<path d="M508.578 275.545C508.578 275.62 503.398 277.266 496.868 279.21C490.412 281.155 485.082 282.576 485.082 282.502C485.082 282.427 490.262 280.781 496.792 278.836C503.248 276.892 508.503 275.47 508.578 275.545Z" fill="#263238"/>
<path d="M489.285 270.309C489.285 270.309 489.06 270.085 488.76 269.561C488.384 269.038 487.934 268.29 487.409 267.467C486.207 265.672 484.556 263.278 482.604 260.735C480.653 258.192 478.776 255.948 477.35 254.377C476.674 253.629 476.149 253.03 475.698 252.507C475.323 252.058 475.098 251.834 475.098 251.759C475.098 251.759 475.323 251.983 475.773 252.357C476.224 252.806 476.824 253.404 477.5 254.152C478.926 255.723 480.878 257.892 482.83 260.51C484.781 263.054 486.433 265.522 487.559 267.317C488.084 268.215 488.535 268.963 488.835 269.486C489.135 270.01 489.285 270.309 489.285 270.309Z" fill="#263238"/>
<path d="M471.045 277.64C471.12 277.64 470.594 278.462 469.844 279.659C469.093 280.856 467.967 282.576 466.916 284.521C465.79 286.466 464.889 288.186 464.214 289.533C463.538 290.804 463.163 291.627 463.088 291.627C463.013 291.627 463.388 290.73 463.988 289.458C464.589 288.112 465.49 286.316 466.616 284.372C467.742 282.427 468.793 280.781 469.694 279.584C470.444 278.313 471.045 277.565 471.045 277.64Z" fill="#263238"/>
<path d="M464.889 300.304C464.889 300.379 463.838 299.855 462.261 299.107C460.61 298.359 458.358 297.387 455.806 296.489C453.253 295.592 450.851 294.918 449.125 294.47C447.398 294.021 446.272 293.796 446.347 293.722C446.347 293.722 446.648 293.722 447.098 293.796C447.623 293.871 448.299 294.021 449.2 294.17C450.926 294.544 453.404 295.143 455.956 296.115C458.583 297.013 460.835 298.06 462.412 298.808C463.237 299.182 463.838 299.556 464.288 299.78C464.664 300.154 464.889 300.304 464.889 300.304Z" fill="#263238"/>
<path d="M469.768 327.456C469.768 327.456 469.693 327.531 469.468 327.531C469.242 327.606 468.867 327.681 468.492 327.756C467.591 327.98 466.465 328.204 465.039 328.578C462.111 329.252 457.982 330.074 453.704 331.57C449.35 333.066 445.596 334.936 443.119 336.507C441.843 337.33 440.867 338.003 440.192 338.527C439.516 339.05 439.141 339.35 439.141 339.275C439.141 339.275 439.216 339.2 439.366 339.05C439.516 338.901 439.741 338.676 440.116 338.377C440.792 337.854 441.693 337.106 442.969 336.208C445.446 334.488 449.2 332.618 453.628 331.122C457.982 329.626 462.111 328.878 465.039 328.204C466.465 327.905 467.666 327.681 468.567 327.531C469.317 327.531 469.768 327.456 469.768 327.456Z" fill="#263238"/>
<path d="M487.483 334.188C487.408 334.188 486.733 330.523 486.057 326.035C485.382 321.472 484.931 317.807 485.006 317.807C485.081 317.807 485.757 321.472 486.432 325.96C487.108 330.523 487.559 334.188 487.483 334.188Z" fill="#263238"/>
<path d="M505.875 327.531C505.8 327.531 505.199 326.783 504.224 325.586C503.248 324.315 501.821 322.669 500.32 320.799C498.744 318.929 497.317 317.284 496.266 316.087C495.216 314.89 494.54 314.142 494.615 314.142C494.615 314.142 494.84 314.292 495.14 314.591C495.441 314.89 495.891 315.339 496.492 315.937C497.618 317.059 499.044 318.705 500.62 320.575C502.197 322.445 503.548 324.165 504.449 325.437C504.899 326.11 505.275 326.634 505.575 326.933C505.8 327.307 505.875 327.531 505.875 327.531Z" fill="#263238"/>
<path d="M457.156 344.511V353.636H459.408L467.515 379.068H485.456L493.263 353.861L496.341 353.636V344.511H457.156Z" fill="#263238"/>
<path d="M494.765 353.861C494.765 353.936 486.808 354.085 477.05 354.085C467.291 354.085 459.334 354.01 459.334 353.861C459.334 353.786 467.291 353.636 477.05 353.636C486.883 353.711 494.765 353.786 494.765 353.861Z" fill="#455A64"/>
<path d="M507.675 295.517C507.675 295.517 507.3 295.666 506.549 295.816C505.724 296.04 504.673 296.265 503.397 296.564C500.769 297.237 497.091 298.21 493.113 299.556C489.134 300.902 485.681 302.249 483.129 303.371C481.928 303.894 480.952 304.343 480.126 304.642C479.45 304.942 479 305.091 479 305.091C479 305.091 479.375 304.867 480.051 304.493C480.727 304.119 481.702 303.67 482.979 303.072C485.456 301.95 488.984 300.454 492.962 299.182C496.941 297.836 500.619 296.863 503.247 296.34C504.598 296.04 505.649 295.816 506.399 295.666C507.3 295.592 507.675 295.517 507.675 295.517Z" fill="#263238"/>
<path d="M488.834 367.998C488.834 368.073 483.28 368.222 476.448 368.222C469.617 368.222 464.062 368.148 464.062 367.998C464.062 367.848 469.617 367.774 476.448 367.774C483.28 367.848 488.834 367.923 488.834 367.998Z" fill="#FAFAFA"/>
<path d="M489.51 365.904C489.51 365.978 483.654 366.128 476.373 366.128C469.092 366.128 463.236 366.053 463.236 365.904C463.236 365.829 469.092 365.679 476.373 365.679C483.654 365.679 489.51 365.829 489.51 365.904Z" fill="#FAFAFA"/>
<path d="M440.641 109.788H134.895C129.64 109.788 125.361 114.052 125.361 119.288V334.488C125.361 339.724 129.64 343.987 134.895 343.987H252.224C252.224 343.987 259.656 366.951 236.535 378.919H346.283C346.283 378.919 320.159 370.018 326.84 343.987H440.641C445.896 343.987 450.175 339.724 450.175 334.488V119.288C450.175 114.052 445.896 109.788 440.641 109.788Z" fill="#455A64"/>
<path d="M291.86 321.323C295.988 327.232 289.532 333.74 283.527 329.626C283.302 329.476 283.152 329.326 283.002 329.102C278.873 323.193 285.329 316.685 291.259 320.874C291.559 320.949 291.709 321.173 291.86 321.323Z" fill="#263238"/>
<path d="M444.695 304.642H130.391V121.008C130.391 116.969 133.618 113.753 137.672 113.753H437.413C441.467 113.753 444.695 116.969 444.695 121.008V304.642V304.642Z" fill="white"/>
<path d="M444.695 129.536H130.616V120.485C130.616 116.67 133.694 113.603 137.522 113.603H439.065C442.218 113.603 444.695 116.146 444.695 119.213V129.536Z" fill="#E1F3FF"/>
<path d="M142.852 121.981C142.852 123.178 141.876 124.15 140.675 124.15C139.474 124.15 138.498 123.178 138.498 121.981C138.498 120.784 139.474 119.812 140.675 119.812C141.876 119.737 142.852 120.784 142.852 121.981Z" fill="#263238"/>
<path d="M149.457 121.981C149.457 123.178 148.482 124.15 147.28 124.15C146.079 124.15 145.104 123.178 145.104 121.981C145.104 120.784 146.079 119.812 147.28 119.812C148.482 119.812 149.457 120.784 149.457 121.981Z" fill="#263238"/>
<path d="M155.688 121.981C155.688 123.178 154.712 124.15 153.511 124.15C152.31 124.15 151.334 123.178 151.334 121.981C151.334 120.784 152.31 119.812 153.511 119.812C154.712 119.737 155.688 120.784 155.688 121.981Z" fill="#263238"/>
<path d="M385.993 343.987C385.993 344.062 342.455 344.137 288.857 344.137C235.184 344.137 191.721 344.062 191.721 343.987C191.721 343.912 235.184 343.838 288.857 343.838C342.53 343.838 385.993 343.912 385.993 343.987Z" fill="#263238"/>
<path d="M407.688 236.724C411.291 234.854 415.57 234.63 419.623 235.303C421.8 235.677 424.052 236.275 425.554 237.921C427.055 239.566 427.28 242.409 425.629 243.755C424.653 244.578 423.226 244.728 421.875 244.728C418.722 244.728 415.194 244.129 412.717 245.999C411.291 247.046 410.315 248.842 408.588 249.44C406.937 249.964 404.985 248.991 404.084 247.42C403.184 245.924 403.184 243.98 403.559 242.334C403.634 242.259 404.084 238.594 407.688 236.724Z" fill="#E1F3FF"/>
<path d="M399.431 220.717C401.683 223.858 405.962 222.811 407.989 220.866C410.015 218.922 410.841 216.154 411.592 213.461C413.318 207.402 415.12 200.97 413.844 194.761C413.469 192.891 412.793 191.021 411.442 189.675C410.166 188.328 408.139 187.506 406.262 187.954C404.085 188.553 402.734 190.647 401.758 192.667C398.906 198.576 397.329 205.158 397.329 211.816C397.254 214.882 397.629 218.174 399.431 220.717Z" fill="#E1F3FF"/>
<path d="M393.275 225.205C395.677 222.362 396.128 218.174 395.077 214.658C394.026 211.068 391.549 208.076 388.771 205.532C385.468 202.615 381.64 200.371 377.511 198.875C375.86 198.277 374.133 197.828 372.482 198.052C370.83 198.277 369.029 199.1 368.203 200.596C367.002 202.84 368.128 205.607 369.404 207.776C371.581 211.741 374.058 215.481 376.836 218.996C379.088 221.839 381.565 224.681 384.943 225.953C388.321 227.224 391.849 227.075 393.65 224.756" fill="#E1F3FF"/>
<path d="M399.281 268.364C399.356 268.364 399.356 267.841 399.506 266.943C399.581 265.896 399.731 264.55 399.881 263.054C400.032 261.408 400.332 259.463 400.782 257.294C401.233 255.2 401.983 252.881 402.884 250.487C403.86 248.168 404.986 246.074 406.337 244.354C407.688 242.633 409.265 241.436 410.766 240.688C412.267 239.94 413.544 239.641 414.444 239.566C415.345 239.492 415.871 239.417 415.871 239.342C415.871 239.267 415.345 239.267 414.444 239.342C413.544 239.417 412.117 239.641 410.616 240.314C409.04 240.988 407.388 242.259 405.962 243.98C404.536 245.7 403.334 247.869 402.359 250.263C401.458 252.656 400.707 254.975 400.257 257.144C399.806 259.314 399.656 261.333 399.506 262.979C399.356 264.624 399.356 265.971 399.281 266.943C399.206 267.841 399.206 268.364 399.281 268.364Z" fill="#E1F3FF"/>
<path d="M399.506 265.372C399.506 265.372 399.506 265.148 399.581 264.699C399.581 264.176 399.581 263.577 399.581 262.829C399.581 261.184 399.581 258.79 399.656 255.798C399.806 249.889 400.331 243.531 401.307 234.555C402.208 226.103 403.484 216.304 404.835 209.946C405.136 208.525 405.436 207.178 405.661 206.056C405.886 204.934 406.111 203.887 406.337 203.139C406.487 202.391 406.637 201.793 406.787 201.269C406.862 200.82 406.937 200.596 406.937 200.596C406.937 200.596 406.862 200.82 406.712 201.194C406.562 201.643 406.412 202.241 406.187 202.989C405.961 203.812 405.661 204.785 405.436 205.907C405.136 207.029 404.835 208.375 404.535 209.796C403.259 215.556 401.833 223.634 400.857 232.61C399.881 241.586 399.431 249.814 399.355 255.723C399.355 258.715 399.355 261.109 399.431 262.754C399.506 263.502 399.506 264.176 399.581 264.624C399.431 265.148 399.506 265.372 399.506 265.372Z" fill="#E1F3FF"/>
<path d="M399.58 249.59C399.655 249.59 399.58 248.916 399.58 247.57C399.505 246.298 399.355 244.428 398.979 242.184C398.604 239.94 398.078 237.248 397.253 234.33C396.877 232.984 396.052 229.768 393.95 225.055C391.247 218.622 387.494 213.312 384.266 210.02C383.515 209.123 382.69 208.524 382.014 207.926C381.639 207.627 381.339 207.328 381.038 207.103C380.738 206.879 380.438 206.654 380.137 206.505C379.087 205.757 378.486 205.383 378.486 205.458C378.411 205.607 380.888 207.028 383.966 210.394C387.119 213.686 390.722 218.922 393.424 225.354C394.926 228.795 395.977 231.937 396.727 234.555C397.628 237.472 398.153 240.09 398.604 242.334C398.979 244.578 399.279 246.373 399.43 247.645C399.43 248.842 399.505 249.59 399.58 249.59Z" fill="#E1F3FF"/>
<path d="M384.268 277.415L385.844 299.032H413.769L415.345 277.415H384.268Z" fill="#E1F3FF"/>
<path d="M418.722 268.888H381.564V277.415H418.722V268.888Z" fill="#E1F3FF"/>
<path d="M381.564 298.21V300.603H383.291H418.047V298.21H381.564Z" fill="#E1F3FF"/>
<path d="M385.018 304.792L383.291 300.603H416.771L414.744 304.792H385.018Z" fill="#E1F3FF"/>
<path d="M414.819 284.446C414.819 284.446 414.744 284.521 414.669 284.671C414.594 284.821 414.444 284.97 414.219 285.194C413.843 285.718 413.243 286.391 412.567 287.289L412.492 287.364L412.417 287.289C411.366 285.868 410.015 283.998 408.439 281.754H408.664C407.463 283.399 406.187 285.269 404.76 287.289L404.61 287.438L404.46 287.289C403.034 285.569 401.457 283.699 399.806 281.754H400.106C400.031 281.829 399.956 281.978 399.881 282.053C398.455 283.848 397.029 285.643 395.677 287.289L395.527 287.438L395.377 287.289C393.951 285.269 392.6 283.399 391.474 281.754H391.699C389.747 283.923 388.096 285.793 386.819 287.289L386.744 287.364L386.669 287.289C385.994 286.242 385.543 285.344 385.168 284.746C385.018 284.447 384.868 284.222 384.793 284.072C384.718 283.923 384.643 283.848 384.643 283.848C384.643 283.848 384.718 283.923 384.793 284.072C384.943 284.222 385.018 284.447 385.243 284.746C385.618 285.344 386.144 286.167 386.819 287.214H386.669C387.945 285.793 389.522 283.848 391.474 281.679L391.624 281.529L391.699 281.679C392.9 283.325 394.251 285.195 395.677 287.214H395.377C396.728 285.569 398.08 283.773 399.506 281.978C399.581 281.903 399.656 281.754 399.731 281.679L399.881 281.529L400.031 281.679C401.683 283.624 403.259 285.494 404.685 287.214H404.46C405.886 285.195 407.238 283.325 408.439 281.679L408.589 281.529L408.739 281.679C410.315 283.923 411.667 285.793 412.642 287.214H412.492C413.168 286.391 413.768 285.718 414.219 285.194C414.369 284.97 414.519 284.821 414.669 284.671C414.744 284.521 414.819 284.446 414.819 284.446Z" fill="#F5F5F5"/>
<path d="M415.72 277.266C415.72 277.34 408.739 277.415 400.106 277.415C391.473 277.415 384.492 277.34 384.492 277.266C384.492 277.191 391.473 277.116 400.106 277.116C408.739 277.116 415.72 277.191 415.72 277.266Z" fill="#F5F5F5"/>
<path d="M417.147 300.828C417.147 300.903 409.565 300.977 400.182 300.977C390.799 300.977 383.217 300.903 383.217 300.828C383.217 300.753 390.799 300.678 400.182 300.678C409.565 300.678 417.147 300.753 417.147 300.828Z" fill="#F5F5F5"/>
<path d="M328.493 179.352C327.667 166.113 326.391 152.798 324.589 139.634C323.463 131.705 322.187 123.701 319.485 116.221C316.707 108.666 312.428 101.56 306.123 96.6236C299.892 91.6868 291.485 89.0688 283.678 90.7892L315.356 188.254C317.683 188.553 320.16 188.852 322.487 188.403C324.814 187.954 327.141 186.533 328.042 184.364C328.718 182.793 328.643 181.073 328.493 179.352Z" fill="#263238"/>
<path d="M273.392 94.0804C267.312 93.6316 259.956 95.9504 256.502 100.962C253.8 104.852 254.476 111.733 253.5 116.371C251.998 123.851 250.572 131.331 250.347 138.96C250.122 147.338 251.473 155.641 252.824 163.869C254.326 172.994 255.827 182.12 257.328 191.246C258.004 195.285 258.679 199.474 260.631 203.064C262.583 206.729 265.961 209.796 270.014 210.245C273.768 210.694 277.446 208.824 279.998 205.981C282.476 203.214 283.902 199.548 284.803 195.883L273.392 94.0804Z" fill="#263238"/>
<path d="M278.798 179.278C276.997 179.203 264.836 182.12 264.836 182.12L278.948 237.098L301.468 238.893L321.511 176.286L278.798 179.278Z" fill="#F7C5A8"/>
<path d="M304.096 225.803C300.868 229.768 296.364 232.61 291.41 233.807C288.632 234.48 285.705 234.63 283.002 233.582C280.375 232.535 278.123 230.216 277.823 227.374L273.994 238.968L280.825 272.927L291.935 304.642L313.629 304.493L304.096 225.803Z" fill="#263238"/>
<path d="M217.318 232.535L227.002 220.866C227.002 220.866 236.385 190.348 239.162 188.104C242.015 185.86 267.688 179.427 267.688 179.427L276.846 218.847L281.5 267.317L290.058 286.541L298.465 304.642L269.039 304.717C269.039 304.717 257.028 277.714 250.648 262.006C248.546 256.92 247.27 251.534 246.819 245.999L246.519 242.259C246.519 242.259 227.377 286.466 222.873 289.308C218.369 292.151 212.739 296.414 206.508 296.19C200.278 295.891 187.516 277.49 187.516 277.49L187.441 252.881L205.532 245.326L208.685 252.133L217.318 232.535Z" fill="url(#paint12_linear_404_4683)"/>
<path d="M295.088 285.12L297.04 280.258L338.777 260.735L337.501 202.84L348.61 179.278C348.61 179.278 354.916 182.045 358.594 190.124C361.147 195.808 368.578 276.518 364.374 279.061C358.895 282.352 321.962 296.938 309.651 301.8C307.324 302.698 304.696 301.8 303.495 299.631L295.088 285.12Z" fill="url(#paint13_linear_404_4683)"/>
<path d="M343.73 278.836L348.459 179.128L324.963 174.79L318.207 169.928H312.878C312.878 169.928 314.829 175.014 314.604 179.203C314.304 183.392 295.012 258.042 295.012 258.042L306.047 304.493L355.741 304.343L343.73 278.836Z" fill="url(#paint14_linear_404_4683)"/>
<path d="M324.889 174.79C324.889 174.79 324.889 174.864 324.889 174.939C324.889 175.014 324.889 175.164 324.889 175.388C324.889 175.762 324.964 176.36 325.039 177.034C325.114 178.455 325.264 180.549 325.264 183.242C325.414 188.628 325.189 196.257 324.739 205.383V205.532H324.588C321.811 205.682 318.808 205.832 315.731 206.056L315.881 205.757C317.832 208.824 320.61 211.591 323.988 213.611L324.138 213.686L324.063 213.835C322.937 216.304 321.736 218.996 320.535 221.614C317.157 229.094 314.004 236.275 311.452 242.858C308.899 249.515 306.948 255.574 305.521 260.735C304.095 265.896 303.344 270.234 302.819 273.152C302.594 274.648 302.444 275.77 302.294 276.592C302.219 276.966 302.218 277.266 302.143 277.49C302.143 277.714 302.068 277.789 302.068 277.789C302.068 277.789 302.068 277.714 302.068 277.49C302.068 277.266 302.143 276.966 302.143 276.592C302.218 275.844 302.369 274.648 302.594 273.152C303.044 270.16 303.87 265.896 305.221 260.66C306.572 255.424 308.524 249.365 311.076 242.708C313.629 236.051 316.706 228.87 320.084 221.39C321.285 218.697 322.487 216.079 323.613 213.611L323.688 213.835C320.235 211.816 317.382 208.973 315.43 205.832L315.28 205.532H315.58C318.658 205.383 321.661 205.233 324.438 205.084L324.288 205.233C324.738 196.108 325.039 188.478 324.964 183.167C324.964 180.474 324.889 178.38 324.814 176.959C324.814 176.286 324.739 175.687 324.739 175.313C324.739 175.164 324.739 175.014 324.739 174.864C324.889 174.864 324.889 174.79 324.889 174.79Z" fill="#263238"/>
<path d="M297.19 298.733C297.19 298.733 297.115 298.658 296.89 298.584C296.664 298.509 296.364 298.284 295.989 298.135C295.163 297.761 293.962 297.088 292.461 296.19C291.71 295.741 290.884 295.218 290.058 294.619C289.233 293.946 288.257 293.348 287.281 292.525C285.329 290.954 283.302 289.084 281.201 286.765C276.997 282.202 272.718 276.069 269.265 268.514C265.812 261.034 263.335 252.282 261.833 242.932C260.858 237.023 260.257 231.189 259.882 225.654C259.656 222.886 259.581 220.118 260.257 217.575C261.008 215.032 262.584 212.713 264.911 211.741L264.836 212.04C262.959 210.469 260.407 210.02 258.305 210.694L258.08 210.768V210.544C258.38 201.942 258.606 194.911 258.756 189.899C258.831 187.431 258.906 185.561 258.981 184.214C258.981 183.541 259.056 183.092 259.056 182.718C259.056 182.344 259.131 182.195 259.131 182.195C259.131 182.195 259.131 182.344 259.131 182.718C259.131 183.092 259.131 183.541 259.131 184.214C259.131 185.561 259.056 187.431 258.981 189.899C258.831 194.836 258.681 201.942 258.455 210.544L258.23 210.394C260.407 209.646 263.11 210.095 265.061 211.741L265.286 211.89L265.061 211.965C262.884 212.938 261.308 215.107 260.557 217.575C259.882 220.044 259.957 222.811 260.182 225.579C260.557 231.114 261.158 236.874 262.134 242.858C263.635 252.208 266.112 260.884 269.565 268.364C272.943 275.844 277.147 281.978 281.351 286.541C283.453 288.86 285.479 290.73 287.356 292.3C288.257 293.123 289.233 293.796 290.058 294.395C290.884 294.993 291.71 295.517 292.461 296.04C293.962 296.938 295.088 297.611 295.914 298.06C296.289 298.284 296.589 298.434 296.814 298.584C297.115 298.658 297.19 298.733 297.19 298.733Z" fill="#263238"/>
<path d="M337.125 211.89C337.125 211.89 337.125 211.965 337.125 212.115C337.125 212.264 337.125 212.489 337.2 212.788C337.2 213.386 337.275 214.284 337.35 215.481C337.5 217.8 337.65 221.24 337.875 225.579C338.251 234.256 338.851 246.672 339.527 261.408V261.558L339.452 261.632C328.042 266.719 314.755 272.553 300.717 278.762C299.441 279.285 298.24 279.884 297.039 280.407L297.114 280.332C296.814 281.006 296.589 281.679 296.289 282.277V282.128C298.991 288.785 301.693 295.143 304.171 301.127L304.095 301.052C305.071 301.576 306.197 302.024 307.323 302.099C307.624 302.099 307.849 302.099 308.149 302.024C308.374 301.95 308.675 301.875 308.975 301.8C309.5 301.576 310.026 301.426 310.551 301.202C312.653 300.379 314.755 299.631 316.782 298.808C320.835 297.237 324.739 295.741 328.417 294.32C335.774 291.478 342.229 288.86 347.559 286.69C352.889 284.521 357.168 282.726 360.02 281.38C361.446 280.706 362.572 280.183 363.248 279.734C363.623 279.51 363.849 279.36 363.999 279.21C364.149 279.061 364.149 278.986 364.149 278.986C364.149 278.986 364.149 279.136 363.999 279.285C363.849 279.435 363.623 279.659 363.248 279.809C362.572 280.258 361.446 280.781 360.02 281.529C357.168 282.876 352.964 284.746 347.634 286.915C342.304 289.159 335.849 291.702 328.492 294.619C324.814 296.04 320.91 297.536 316.857 299.107C314.83 299.855 312.728 300.678 310.626 301.501C310.101 301.725 309.575 301.875 309.05 302.099C308.825 302.174 308.524 302.324 308.224 302.398C307.924 302.473 307.624 302.473 307.323 302.473C306.122 302.398 304.996 301.95 303.945 301.351H303.87V301.276C301.393 295.292 298.766 288.934 295.988 282.277V282.202V282.128C296.289 281.454 296.514 280.781 296.814 280.183V280.108H296.889C298.09 279.584 299.366 278.986 300.567 278.462C314.605 272.254 327.817 266.42 339.302 261.408L339.227 261.558C338.626 246.822 338.101 234.48 337.725 225.728C337.575 221.39 337.425 217.949 337.35 215.63C337.275 214.508 337.275 213.611 337.275 212.938C337.275 212.638 337.275 212.414 337.275 212.264C337.125 211.965 337.125 211.89 337.125 211.89Z" fill="#263238"/>
<path d="M347.634 182.195C347.709 182.27 346.808 183.242 345.532 184.962C344.256 186.683 342.755 189.226 341.478 192.293C340.202 195.285 339.452 198.202 339.076 200.296C338.701 202.391 338.626 203.737 338.551 203.737C338.551 203.737 338.551 203.438 338.551 202.765C338.551 202.166 338.626 201.269 338.851 200.222C339.151 198.052 339.902 195.135 341.178 192.068C342.454 189.002 344.106 186.458 345.382 184.738C346.057 183.84 346.583 183.167 347.033 182.793C347.409 182.344 347.634 182.12 347.634 182.195Z" fill="#263238"/>
<path d="M247.57 213.162C247.57 213.162 247.495 212.788 247.42 212.115C247.345 211.442 247.195 210.469 246.97 209.347C246.519 207.028 245.769 203.812 244.493 200.371C243.216 196.93 241.715 194.013 240.439 191.994C239.838 190.946 239.313 190.124 238.938 189.6C238.562 189.076 238.412 188.702 238.412 188.702C238.412 188.702 238.637 189.002 239.088 189.525C239.463 190.049 240.064 190.872 240.664 191.844C241.94 193.864 243.517 196.781 244.793 200.222C246.069 203.662 246.82 206.879 247.195 209.272C247.345 210.469 247.495 211.442 247.495 212.115C247.57 212.788 247.57 213.162 247.57 213.162Z" fill="#263238"/>
<path d="M288.03 234.256C287.955 234.256 287.805 232.909 287.805 231.338C287.805 229.693 287.88 228.421 287.955 228.421C288.03 228.421 288.18 229.768 288.18 231.338C288.18 232.984 288.105 234.256 288.03 234.256Z" fill="#F4A695"/>
<g opacity="0.3">
<path d="M320.986 207.178C323.163 207.477 325.415 207.776 327.592 208.076C326.165 204.485 326.39 184.888 325.264 181.073L324.664 205.383L315.806 205.832C315.806 205.832 319.634 210.918 321.361 211.965C323.163 213.012 323.988 213.686 323.988 213.686C323.988 213.686 311.452 242.858 309.5 247.869C305.372 258.566 302.369 276.592 302.369 276.592C312.728 258.64 318.809 237.846 324.214 217.8C324.664 216.229 325.039 214.658 324.814 213.012C324.364 210.694 322.637 208.824 320.986 207.178Z" fill="black"/>
</g>
<g opacity="0.3">
<path d="M258.455 210.469C258.305 210.843 258.53 202.241 258.606 202.092C258.681 201.942 257.48 212.414 257.254 213.012C258.455 212.713 259.656 212.489 260.858 212.19C258.981 213.012 257.78 214.808 257.179 216.678C256.579 218.622 256.504 220.642 256.579 222.662C256.804 237.696 260.107 253.105 268.214 265.746C262.884 253.18 261.308 239.417 260.032 225.803C259.807 223.11 259.581 220.492 260.332 217.874C261.083 215.331 262.809 212.564 265.136 211.666C263.26 210.17 260.707 209.422 258.455 210.469Z" fill="black"/>
</g>
<g opacity="0.3">
<path d="M305.07 301.65C306.046 303.67 309.499 303.52 311.901 303.221C314.304 302.922 316.631 302.099 318.883 301.202C328.942 297.312 338.7 293.871 348.834 289.982L347.408 286.915L308.523 302.024C307.172 302.398 306.046 302.249 305.07 301.65Z" fill="black"/>
</g>
<path d="M202.004 204.411C200.053 204.261 194.348 205.907 192.921 208.525L189.769 218.997C189.769 218.997 196.825 211.741 200.053 210.619C205.157 208.824 207.484 208.749 205.307 206.056C204.482 205.084 203.506 204.56 202.004 204.411Z" fill="#F7C5A8"/>
<path d="M172.278 212.339L175.731 220.193L175.882 234.48L192.922 231.937L190.444 218.248L192.096 212.264L185.115 206.355L172.278 212.339Z" fill="#F7C5A8"/>
<path d="M246.507 224.778L157.103 225.035L157.279 286.221L246.684 285.965L246.507 224.778Z" fill="#FAFAFA"/>
<path d="M246.669 286.017C246.669 286.017 246.669 285.643 246.669 284.895C246.669 284.147 246.669 283.1 246.669 281.679C246.669 278.836 246.594 274.648 246.594 269.337C246.519 258.715 246.444 243.456 246.369 224.831L246.519 224.98C221.747 225.055 190.745 225.13 157.115 225.28L157.34 225.055C157.415 246.897 157.415 267.616 157.49 286.242L157.34 286.092C183.688 286.017 206.058 286.017 221.747 286.017C229.629 286.017 235.86 286.017 240.138 286.017C242.24 286.017 243.892 286.017 245.018 286.017C245.543 286.017 245.994 286.017 246.294 286.017C246.519 286.017 246.669 286.017 246.669 286.017C246.669 286.017 246.519 286.017 246.219 286.017C245.919 286.017 245.543 286.017 244.943 286.017C243.817 286.017 242.24 286.017 240.063 286.017C235.785 286.017 229.554 286.092 221.747 286.092C205.983 286.167 183.613 286.242 157.19 286.391H157.04V286.242C156.965 267.691 156.89 246.897 156.814 225.055V224.831H157.04C190.67 224.756 221.672 224.681 246.444 224.606H246.594V224.756C246.594 243.381 246.594 258.715 246.669 269.337C246.669 274.648 246.669 278.762 246.669 281.604C246.669 283.025 246.669 284.072 246.669 284.82C246.669 285.643 246.669 286.017 246.669 286.017Z" fill="#263238"/>
<path d="M163.946 279.659C163.871 279.659 163.721 269.262 163.721 256.471C163.721 243.68 163.721 233.283 163.871 233.283C163.946 233.283 164.096 243.68 164.096 256.471C164.096 269.337 164.096 279.659 163.946 279.659Z" fill="#263238"/>
<path d="M241.565 273.077C241.565 273.152 224.149 273.301 202.605 273.376C181.061 273.451 163.646 273.376 163.646 273.301C163.646 273.226 181.061 273.077 202.605 273.002C224.074 272.927 241.565 273.002 241.565 273.077Z" fill="#E1F3FF"/>
<path d="M241.49 266.27C241.49 266.345 224.074 266.494 202.53 266.569C180.986 266.644 163.57 266.569 163.57 266.494C163.57 266.42 180.986 266.27 202.53 266.195C224.074 266.12 241.49 266.195 241.49 266.27Z" fill="#E1F3FF"/>
<path d="M241.49 259.463C241.49 259.538 224.074 259.688 202.53 259.762C180.986 259.837 163.57 259.762 163.57 259.688C163.57 259.613 180.986 259.463 202.53 259.388C224.074 259.314 241.49 259.388 241.49 259.463Z" fill="#E1F3FF"/>
<path d="M241.49 252.656C241.49 252.731 224.074 252.881 202.53 252.956C180.986 253.03 163.57 252.956 163.57 252.881C163.57 252.806 180.986 252.656 202.53 252.582C224.074 252.507 241.49 252.582 241.49 252.656Z" fill="#E1F3FF"/>
<path d="M241.49 245.85C241.49 245.924 224.074 246.074 202.53 246.149C180.986 246.224 163.57 246.149 163.57 246.074C163.57 245.999 180.986 245.85 202.53 245.775C223.999 245.7 241.49 245.775 241.49 245.85Z" fill="#E1F3FF"/>
<path d="M241.414 239.043C241.414 239.118 223.999 239.267 202.455 239.342C180.911 239.417 163.495 239.342 163.495 239.267C163.495 239.192 180.911 239.043 202.455 238.968C223.999 238.893 241.414 238.968 241.414 239.043Z" fill="#E1F3FF"/>
<path d="M241.414 232.236C241.414 232.311 223.999 232.46 202.455 232.535C180.911 232.61 163.495 232.535 163.495 232.46C163.495 232.386 180.911 232.236 202.455 232.161C223.999 232.161 241.414 232.161 241.414 232.236Z" fill="#E1F3FF"/>
<path d="M174.441 269.031L168.886 269.047L168.917 279.668L174.471 279.652L174.441 269.031Z" fill="url(#paint15_linear_404_4683)"/>
<path d="M215.052 268.956L209.497 268.972L209.528 279.593L215.083 279.577L215.052 268.956Z" fill="url(#paint16_linear_404_4683)"/>
<path d="M185.389 261.251L179.834 261.267L179.887 279.668L185.442 279.652L185.389 261.251Z" fill="url(#paint17_linear_404_4683)"/>
<path d="M205.875 256.389L200.32 256.405L200.387 279.593L205.942 279.577L205.875 256.389Z" fill="url(#paint18_linear_404_4683)"/>
<path d="M195.721 242.327L190.166 242.343L190.274 279.593L195.828 279.577L195.721 242.327Z" fill="url(#paint19_linear_404_4683)"/>
<path d="M225.758 249.134L220.203 249.15L220.291 279.519L225.846 279.503L225.758 249.134Z" fill="url(#paint20_linear_404_4683)"/>
<path d="M232.556 279.51C232.556 279.584 217.243 279.734 198.326 279.809C179.409 279.884 164.096 279.809 164.096 279.734C164.096 279.659 179.409 279.51 198.326 279.435C217.243 279.36 232.556 279.36 232.556 279.51Z" fill="#263238"/>
<path d="M196.75 229.693L195.023 233.358L192.922 229.693L192.771 193.415H196.6L196.75 229.693Z" fill="#263238"/>
<path d="M195.174 193.49C195.174 193.49 193.522 190.198 191.72 190.198C189.919 190.198 187.216 193.49 187.216 193.49C187.216 193.49 183.013 191.32 181.586 191.844C180.16 192.368 177.983 196.033 177.983 196.033C177.983 196.033 175.731 196.781 174.755 197.678C173.78 198.576 173.629 201.493 173.629 201.493C173.629 201.493 171.077 201.867 171.077 203.288C171.077 204.71 171.077 210.768 172.353 212.264C173.629 213.686 180.761 219.146 183.163 218.996C185.64 218.772 185.64 215.331 185.04 214.583C185.04 214.583 187.967 216.752 189.393 214.733C190.82 212.713 190.144 209.796 190.144 209.796C190.144 209.796 191.27 213.237 193.522 211.741C196.149 209.946 193.897 206.206 193.897 206.206C193.897 206.206 195.774 209.198 196.9 207.776C197.951 206.28 197.651 203.962 196.9 202.316C196.074 200.745 195.174 193.49 195.174 193.49Z" fill="#F7C5A8"/>
<path d="M182.862 213.012C182.787 213.012 182.412 212.638 181.736 211.89C181.061 211.142 180.235 210.095 179.409 208.898C178.584 207.702 177.908 206.505 177.458 205.607C177.007 204.71 176.782 204.186 176.857 204.186C176.932 204.111 178.058 206.28 179.785 208.674C181.361 211.068 182.937 212.938 182.862 213.012Z" fill="#F4A695"/>
<path d="M190.144 209.647C190.069 209.721 188.267 207.403 186.165 204.56C184.063 201.718 182.412 199.324 182.487 199.249C182.562 199.175 184.363 201.493 186.465 204.336C188.567 207.178 190.219 209.572 190.144 209.647Z" fill="#F4A695"/>
<path d="M194.123 206.505C194.048 206.505 193.748 205.906 193.147 204.934C192.547 203.812 191.796 202.54 190.97 201.044C190.145 199.623 189.394 198.277 188.793 197.155C188.268 196.182 187.893 195.509 187.968 195.509C188.043 195.509 188.418 196.033 189.019 197.005C189.619 197.978 190.445 199.324 191.346 200.82C192.171 202.316 192.922 203.737 193.447 204.784C193.898 205.832 194.198 206.505 194.123 206.505Z" fill="#F4A695"/>
<path d="M189.769 209.572C189.769 209.572 189.844 209.646 189.919 209.721C189.994 209.871 190.144 210.02 190.219 210.32C190.445 210.843 190.67 211.741 190.37 212.863C190.219 213.386 189.919 213.985 189.469 214.434C189.018 214.957 188.418 215.331 187.592 215.406C186.841 215.481 186.016 215.331 185.265 214.957C184.514 214.583 183.839 214.06 183.238 213.386L183.539 213.087C184.289 213.76 185.04 214.658 185.265 215.78C185.34 216.304 185.34 216.902 185.115 217.426C184.965 217.949 184.514 218.398 184.064 218.622C183.088 219.146 182.037 218.922 181.136 218.697C179.335 218.248 177.909 217.5 176.707 216.678C175.581 215.93 174.756 215.107 174.23 214.508C174.005 214.209 173.78 213.985 173.705 213.835C173.555 213.686 173.555 213.611 173.555 213.611C173.63 213.536 174.606 214.957 176.858 216.453C177.984 217.201 179.485 217.874 181.211 218.323C182.037 218.548 183.013 218.622 183.839 218.248C184.665 217.874 184.965 216.752 184.815 215.855C184.589 214.882 183.914 214.06 183.238 213.386L183.539 213.087C184.589 214.284 186.166 215.182 187.517 215.032C188.193 214.957 188.793 214.583 189.169 214.134C189.619 213.686 189.844 213.162 189.994 212.713C190.295 211.741 190.144 210.843 189.994 210.32C189.919 209.796 189.694 209.572 189.769 209.572Z" fill="#F4A695"/>
<path d="M193.372 205.009C193.372 205.009 193.823 205.533 194.273 206.505C194.498 207.029 194.723 207.627 194.799 208.375C194.874 209.123 194.799 209.946 194.423 210.694C194.123 211.442 193.522 212.19 192.697 212.339C191.871 212.414 191.27 211.965 190.895 211.517C190.52 211.068 190.37 210.694 190.219 210.395C190.069 210.095 190.069 209.946 190.069 209.946C190.069 209.946 190.219 210.095 190.37 210.32C190.52 210.544 190.745 210.993 191.12 211.292C191.496 211.666 192.021 212.04 192.697 211.891C193.297 211.816 193.823 211.143 194.123 210.469C194.423 209.721 194.498 208.973 194.498 208.3C194.423 207.627 194.198 207.029 194.048 206.505C193.673 205.682 193.297 205.084 193.372 205.009Z" fill="#F4A695"/>
<path d="M188.493 218.323C188.568 218.398 187.141 219.37 185.34 220.418C183.538 221.465 182.037 222.213 181.962 222.138C181.887 222.063 183.313 221.091 185.115 220.044C186.916 218.996 188.418 218.248 188.493 218.323Z" fill="#F4A695"/>
<path d="M297.19 281.754L271.292 289.308L261.833 282.876C261.833 282.876 253.201 280.258 250.423 279.884C247.646 279.51 242.991 279.734 239.914 279.734C236.836 279.734 235.335 278.537 235.335 278.537C235.335 278.537 232.632 278.462 233.383 281.828C234.284 286.017 244.343 286.017 244.343 286.017L230.981 286.092H223.174L229.93 290.804C231.656 292.001 233.683 292.674 235.785 292.674H238.487C237.812 296.414 239.163 298.434 241.64 299.556C239.688 301.426 240.664 304.867 244.493 304.717C246.369 304.642 278.873 304.717 278.873 304.717L306.873 300.753L297.19 281.754Z" fill="#F7C5A8"/>
<path d="M244.493 292.375C244.493 292.525 242.541 292.674 240.139 292.674C237.737 292.674 235.785 292.674 235.785 292.6C235.785 292.45 237.737 292.3 240.139 292.3C242.541 292.3 244.493 292.3 244.493 292.375Z" fill="#F4A695"/>
<path d="M252.3 284.372C252.3 284.446 249.973 284.895 247.046 285.344C244.118 285.793 241.791 286.017 241.791 285.942C241.791 285.868 244.118 285.419 247.046 284.97C249.898 284.521 252.3 284.297 252.3 284.372Z" fill="#F4A695"/>
<path d="M257.028 181.073C257.253 180.998 256.953 179.876 256.277 178.081C255.601 176.211 254.55 173.593 253.349 170.302C252.148 167.01 250.872 163.121 250.046 158.633C249.221 154.145 248.996 149.208 249.971 144.122C250.947 138.96 252.599 134.173 253.95 129.685C255.301 125.197 256.352 121.008 256.802 117.418C257.253 113.828 257.103 110.836 256.727 108.891C256.352 106.871 255.902 105.899 255.676 105.899C255.151 105.974 255.977 110.312 254.55 117.044C253.875 120.41 252.674 124.374 251.172 128.713C249.671 133.126 247.87 137.988 246.894 143.448C246.668 144.795 246.443 146.216 246.368 147.562C246.293 148.236 246.293 148.909 246.293 149.582C246.293 150.255 246.218 150.928 246.293 151.602C246.368 154.22 246.744 156.763 247.269 159.082C248.32 163.794 249.896 167.758 251.323 171.05C252.824 174.266 254.175 176.809 255.226 178.53C256.127 180.325 256.802 181.148 257.028 181.073Z" fill="#263238"/>
<path d="M308.374 118.914C307.548 104.627 294.862 93.7813 280.224 95.1277C266.412 96.3993 256.203 108.666 256.653 122.355C257.028 134.323 257.779 146.366 258.605 150.629C261.232 163.495 269.79 167.01 273.168 167.983C273.918 168.207 275.945 168.207 276.771 168.207C276.846 168.207 276.846 168.207 276.846 168.282L276.696 183.616C277.221 193.564 284.353 201.119 294.412 200.67C304.546 200.222 310.851 191.32 310.476 181.372L308.374 118.914Z" fill="#F7C5A8"/>
<path d="M263.184 129.087C263.184 130.209 264.159 131.106 265.285 131.106C266.487 131.106 267.387 130.209 267.387 129.162C267.387 128.04 266.411 127.142 265.285 127.142C264.084 127.067 263.184 127.965 263.184 129.087Z" fill="#263238"/>
<path d="M260.256 125.272C260.556 125.496 262.057 124.3 264.384 124.225C266.636 124.075 268.363 125.197 268.588 124.898C268.738 124.748 268.438 124.3 267.687 123.776C266.937 123.252 265.735 122.804 264.309 122.878C262.883 122.953 261.757 123.552 261.081 124.075C260.331 124.674 260.181 125.197 260.256 125.272Z" fill="#263238"/>
<path d="M284.879 128.862C284.879 129.984 285.855 130.882 286.981 130.882C288.182 130.882 289.083 129.984 289.083 128.937C289.083 127.815 288.107 126.918 286.981 126.918C285.855 126.843 284.879 127.74 284.879 128.862Z" fill="#263238"/>
<path d="M282.626 124.748C282.926 124.973 284.428 123.776 286.755 123.701C289.007 123.552 290.733 124.674 290.958 124.374C291.108 124.225 290.808 123.776 290.058 123.252C289.307 122.729 288.106 122.28 286.68 122.355C285.253 122.43 284.127 123.028 283.452 123.552C282.701 124.075 282.476 124.599 282.626 124.748Z" fill="#263238"/>
<path d="M275.044 141.728C275.044 141.578 273.618 141.429 271.291 141.204C270.69 141.204 270.165 141.055 270.015 140.681C269.864 140.307 270.09 139.634 270.315 138.96C270.84 137.539 271.291 136.043 271.891 134.547C274.068 128.264 275.57 123.028 275.269 122.953C275.044 122.878 273.092 127.89 270.915 134.248C270.39 135.819 269.939 137.315 269.414 138.736C269.189 139.409 268.889 140.157 269.189 140.98C269.339 141.429 269.789 141.728 270.165 141.803C270.54 141.878 270.84 141.878 271.141 141.878C273.618 141.878 275.044 141.803 275.044 141.728Z" fill="#263238"/>
<path d="M276.847 168.207C276.847 168.207 285.629 168.506 296.364 161.55C296.364 161.55 293.361 173.144 276.771 172.396L276.847 168.207Z" fill="#F4A695"/>
<path d="M276.245 147.039C276.995 145.917 278.421 145.318 279.848 145.393C280.824 145.468 281.875 145.842 282.475 146.665C283.076 147.413 283.301 148.535 282.775 149.358C282.175 150.255 280.899 150.48 279.848 150.255C278.722 150.031 277.821 149.358 276.845 148.684C276.62 148.535 276.32 148.31 276.169 148.086C276.019 147.862 275.944 147.488 276.169 147.263" fill="#F4A695"/>
<path d="M281.8 142.925C281.424 142.925 281.499 145.319 279.472 147.189C277.446 148.984 274.818 148.834 274.818 149.208C274.818 149.358 275.419 149.657 276.545 149.657C277.671 149.657 279.247 149.208 280.448 148.086C281.724 146.964 282.175 145.543 282.25 144.496C282.25 143.523 281.95 142.925 281.8 142.925Z" fill="#263238"/>
<path d="M281.424 120.859C281.649 121.457 283.901 121.083 286.604 121.233C289.306 121.382 291.483 122.056 291.783 121.457C291.933 121.158 291.558 120.634 290.657 120.111C289.756 119.587 288.405 119.064 286.754 118.989C285.177 118.914 283.676 119.213 282.7 119.662C281.799 120.036 281.349 120.56 281.424 120.859Z" fill="#263238"/>
<path d="M260.932 120.709C261.383 121.233 262.884 120.635 264.761 120.485C266.637 120.335 268.214 120.635 268.589 120.111C268.739 119.812 268.439 119.363 267.763 118.914C267.088 118.465 265.887 118.091 264.61 118.241C263.334 118.316 262.208 118.839 261.608 119.438C260.932 119.886 260.782 120.41 260.932 120.709Z" fill="#263238"/>
<path d="M254.326 153.92C252.149 163.719 256.128 173.817 261.157 182.494C263.034 185.785 265.136 189.002 266.262 192.592C267.388 196.182 267.463 200.371 265.436 203.588C266.787 204.111 268.514 203.363 269.189 202.092C269.339 204.111 269.565 206.056 269.715 208.076C272.192 209.123 275.045 207.402 276.246 205.009C277.447 202.615 277.296 199.848 277.221 197.155C276.846 189.301 277.146 180.1 276.771 172.246L262.809 169.404L254.326 153.92Z" fill="#263238"/>
<path d="M292.01 111.434C297.339 121.607 297.94 133.575 297.564 145.019C297.189 156.464 295.913 168.058 297.79 179.427C298.54 183.915 299.816 188.403 299.066 192.816C298.69 195.434 297.64 197.903 297.039 200.521C296.514 203.139 296.589 206.056 298.24 208.15C299.891 210.245 302.819 211.068 305.446 210.544C308.074 210.02 310.401 208.45 312.202 206.505C316.256 202.316 318.358 196.482 319.109 190.722C319.859 184.962 319.484 179.053 319.034 173.219C317.908 158.034 316.782 142.925 315.656 127.74C315.13 121.158 314.605 114.501 311.977 108.442C309.2 102.159 304.17 96.9976 298.315 93.5568C291.259 89.368 282.176 87.5728 274.894 91.3876C272.492 92.6592 270.165 95.1276 270.766 97.8204C271.216 99.9148 273.318 101.261 275.195 102.308C281.425 105.824 287.581 109.34 293.811 112.855" fill="#263238"/>
<path d="M301.617 193.265C301.842 193.19 301.392 191.994 300.641 189.899C299.815 187.805 298.614 184.888 297.413 181.222C296.212 177.557 295.011 173.069 294.561 167.983C294.11 162.971 294.711 157.361 295.762 151.452C296.813 145.543 298.014 139.858 298.314 134.472C298.689 129.087 298.164 124.225 296.963 120.26C295.837 116.296 294.035 113.379 292.534 111.658C292.159 111.21 291.783 110.836 291.483 110.536C291.183 110.237 290.883 110.013 290.657 109.788C290.207 109.414 289.907 109.265 289.832 109.34C289.757 109.414 289.907 109.714 290.207 110.237C290.357 110.462 290.582 110.761 290.807 111.135C291.033 111.509 291.258 111.883 291.558 112.332C292.684 114.202 293.96 116.969 294.786 120.709C295.612 124.449 295.837 129.012 295.387 134.098C294.936 139.185 293.66 144.72 292.609 150.704C291.558 156.688 290.958 162.672 291.633 168.058C292.234 173.443 293.81 178.081 295.311 181.746C296.888 185.486 298.389 188.328 299.515 190.198C300.641 192.442 301.392 193.415 301.617 193.265Z" fill="#263238"/>
<path d="M320.085 117.418C320.085 117.418 319.935 117.343 319.635 117.268C319.259 117.119 318.809 116.969 318.209 116.82C317.608 116.595 316.857 116.371 315.957 116.072C315.056 115.772 314.08 115.473 313.029 115.024C310.852 114.276 308.3 113.229 305.522 112.032C302.745 110.836 299.667 109.414 296.589 107.769C293.512 106.123 290.584 104.403 287.957 102.832C285.404 101.186 283.077 99.6905 281.201 98.2693C280.225 97.5961 279.399 96.9977 278.723 96.3993C277.973 95.8757 277.372 95.352 276.847 94.978C276.321 94.604 275.946 94.3049 275.646 94.0805C275.345 93.8561 275.195 93.7812 275.195 93.7812C275.195 93.7812 275.345 93.9308 275.571 94.1553C275.871 94.3797 276.246 94.6788 276.697 95.1276C277.222 95.5764 277.823 96.0252 278.573 96.6236C279.324 97.1472 280.15 97.8204 281.051 98.4936C282.927 99.84 285.179 101.411 287.731 103.056C290.284 104.702 293.211 106.422 296.364 108.068C299.517 109.714 302.52 111.135 305.372 112.332C308.225 113.528 310.777 114.501 312.954 115.249C314.005 115.623 315.056 115.922 315.881 116.221C316.782 116.52 317.533 116.745 318.133 116.894C318.734 117.044 319.184 117.194 319.56 117.268C319.86 117.343 320.085 117.418 320.085 117.418Z" fill="#455A64"/>
<path d="M320.234 119.662C320.234 119.662 320.084 119.587 319.709 119.587C319.333 119.512 318.808 119.438 318.207 119.363C317.907 119.288 317.532 119.288 317.156 119.213C316.781 119.138 316.331 119.064 315.88 118.989C314.979 118.839 313.928 118.69 312.802 118.39C312.202 118.241 311.601 118.091 311.001 118.016C310.4 117.867 309.725 117.717 309.049 117.493C307.698 117.194 306.272 116.67 304.845 116.221C301.918 115.249 298.69 113.977 295.462 112.406C292.234 110.836 289.307 109.04 286.679 107.395C285.403 106.497 284.202 105.674 283.076 104.852C282.551 104.403 281.95 104.029 281.5 103.655C280.974 103.281 280.524 102.832 280.073 102.458C279.173 101.71 278.347 100.962 277.671 100.364C277.296 100.064 276.996 99.7653 276.695 99.4661C276.395 99.1669 276.17 98.9425 275.945 98.7181C275.494 98.2693 275.119 97.8953 274.819 97.6709C274.593 97.4465 274.443 97.2969 274.443 97.2969C274.443 97.2969 274.593 97.4465 274.819 97.6709C275.044 97.9701 275.419 98.2693 275.87 98.7929C276.095 99.0173 276.395 99.3165 276.62 99.6157C276.921 99.9149 277.221 100.214 277.596 100.513C278.272 101.112 279.022 101.86 279.998 102.608C280.449 102.982 280.899 103.356 281.425 103.804C281.95 104.253 282.475 104.627 283.001 105.001C284.052 105.899 285.328 106.722 286.604 107.619C289.231 109.34 292.159 111.135 295.387 112.706C298.615 114.276 301.843 115.548 304.77 116.52C306.272 116.969 307.698 117.418 309.049 117.792C309.725 117.942 310.4 118.166 311.001 118.316C311.601 118.465 312.202 118.615 312.802 118.69C313.928 118.989 314.979 119.064 315.955 119.288C316.406 119.363 316.856 119.438 317.231 119.512C317.607 119.587 317.982 119.587 318.357 119.662C318.958 119.737 319.483 119.812 319.859 119.812C320.009 119.662 320.159 119.662 320.234 119.662Z" fill="white"/>
<path d="M311.453 199.698C311.453 199.698 311.453 199.623 311.528 199.474C311.528 199.324 311.603 199.1 311.603 198.875C311.678 198.352 311.828 197.529 311.903 196.482C312.128 194.387 312.353 191.395 312.353 187.73C312.353 183.99 312.128 179.577 311.678 174.715C311.227 169.853 310.552 164.467 309.876 158.857C308.525 147.637 307.324 137.464 306.423 130.059C305.973 126.394 305.597 123.402 305.372 121.308C305.222 120.26 305.147 119.512 305.072 118.914C305.072 118.69 304.997 118.465 304.997 118.316C304.997 118.166 304.997 118.091 304.922 118.091C304.922 118.091 304.922 118.166 304.922 118.316C304.922 118.465 304.922 118.69 304.997 118.914C305.072 119.512 305.147 120.26 305.222 121.308C305.447 123.402 305.823 126.394 306.198 130.059C307.024 137.464 308.225 147.637 309.576 158.857C310.252 164.467 310.927 169.853 311.378 174.715C311.828 179.577 312.128 183.99 312.128 187.73C312.128 191.47 311.978 194.462 311.828 196.482C311.753 197.529 311.678 198.277 311.603 198.875C311.603 199.1 311.528 199.324 311.528 199.474C311.453 199.623 311.453 199.698 311.453 199.698Z" fill="#455A64"/>
<path d="M303.419 165.814C303.419 165.814 303.419 165.664 303.495 165.29C303.495 164.916 303.57 164.467 303.57 163.794C303.645 162.522 303.72 160.652 303.795 158.408C303.945 153.846 304.02 147.488 303.945 140.531C303.795 133.575 303.495 127.217 303.194 122.654C303.044 120.335 302.894 118.54 302.819 117.268C302.744 116.67 302.744 116.146 302.669 115.772C302.669 115.473 302.594 115.249 302.594 115.249C302.594 115.249 302.594 115.398 302.594 115.772C302.594 116.146 302.669 116.595 302.669 117.268C302.744 118.54 302.819 120.41 302.969 122.654C303.194 127.217 303.495 133.5 303.645 140.531C303.795 147.488 303.72 153.846 303.57 158.408C303.495 160.652 303.495 162.522 303.419 163.794C303.419 164.392 303.419 164.916 303.419 165.29C303.419 165.664 303.419 165.814 303.419 165.814Z" fill="#455A64"/>
<path d="M339.527 152.724L345.833 141.578C343.055 137.016 341.404 131.705 341.404 125.945C341.329 109.489 354.616 96.0252 371.055 96.0252C387.495 95.9504 400.857 109.265 400.857 125.796C400.932 142.252 387.645 155.716 371.205 155.716C364.374 155.716 357.994 153.397 352.964 149.507L339.527 152.724Z" fill="#FAFAFA"/>
<path d="M339.527 152.724C340.203 152.574 344.407 151.527 352.964 149.432L352.889 149.582C352.889 149.507 352.889 149.507 352.889 149.432C352.889 149.432 352.964 149.432 353.039 149.432C354.766 150.704 356.793 151.976 359.12 153.023C361.522 154.07 364.224 154.893 367.227 155.267C368.728 155.416 370.305 155.566 371.881 155.491C372.707 155.416 373.533 155.416 374.358 155.342C375.184 155.192 376.01 155.117 376.835 154.968C380.213 154.294 383.591 152.948 386.744 150.928C389.897 148.909 392.825 146.216 395.152 142.925C397.479 139.634 399.205 135.744 400.031 131.48C400.857 127.292 400.707 122.729 399.581 118.39C398.455 114.052 396.353 109.788 393.2 106.273L391.999 104.926C391.624 104.478 391.098 104.104 390.723 103.73C390.272 103.356 389.897 102.907 389.372 102.533L387.945 101.486C387.495 101.112 386.969 100.812 386.444 100.513L384.943 99.6156C384.417 99.3912 383.892 99.092 383.366 98.8676C382.841 98.6432 382.315 98.344 381.79 98.1944C377.511 96.474 372.932 95.8756 368.578 96.1748C364.224 96.474 360.021 97.8204 356.492 99.84C352.889 101.86 349.887 104.552 347.559 107.544C345.232 110.536 343.581 113.828 342.605 117.119C341.554 120.41 341.329 123.701 341.329 126.693C341.479 132.752 343.506 137.838 345.683 141.354V141.429C341.854 148.759 339.828 152.2 339.527 152.724C339.828 152.125 341.779 148.684 345.758 141.504V141.578C343.506 137.988 341.479 132.976 341.254 126.843C341.254 123.776 341.479 120.485 342.53 117.194C343.506 113.902 345.157 110.536 347.559 107.47C349.887 104.403 352.964 101.71 356.567 99.6904C360.171 97.596 364.374 96.3244 368.803 95.9504C373.232 95.5764 377.886 96.2496 382.165 97.97C382.691 98.1196 383.216 98.4188 383.742 98.6432C384.267 98.8676 384.793 99.1668 385.318 99.3912C385.843 99.6904 386.294 99.9896 386.819 100.289C387.345 100.588 387.87 100.887 388.321 101.261L389.747 102.308C390.272 102.682 390.648 103.131 391.098 103.505C391.549 103.954 391.999 104.328 392.449 104.702L393.65 106.048C396.803 109.564 398.905 113.902 400.106 118.316C401.232 122.729 401.307 127.292 400.557 131.555C399.731 135.819 397.929 139.783 395.602 143.074C393.275 146.44 390.272 149.133 387.045 151.153C383.817 153.172 380.364 154.519 376.986 155.192C376.16 155.342 375.259 155.416 374.433 155.566C373.608 155.641 372.782 155.641 371.956 155.716C370.305 155.79 368.728 155.716 367.227 155.491C364.224 155.117 361.447 154.22 359.045 153.172C356.643 152.125 354.616 150.779 352.889 149.507L353.039 149.358C353.039 149.432 353.039 149.432 353.039 149.507C344.407 151.602 340.203 152.574 339.527 152.724Z" fill="#263238"/>
<path d="M383.591 117.792C383.591 117.792 383.291 118.166 382.69 118.764C382.015 119.438 381.114 120.26 380.063 121.308C377.811 123.402 374.733 126.319 371.355 129.461L370.83 129.91L370.679 130.059L370.529 129.91C369.028 128.638 367.677 127.441 366.326 126.319H366.551C364.299 128.414 362.272 130.134 360.846 131.48C360.17 132.079 359.645 132.528 359.194 132.902C358.819 133.201 358.594 133.425 358.594 133.425C358.594 133.425 358.744 133.201 359.119 132.827C359.57 132.453 360.095 131.929 360.696 131.331C362.122 129.984 364.074 128.189 366.326 126.095L366.476 125.945L366.626 126.02C367.902 127.142 369.328 128.339 370.83 129.61H370.529L371.055 129.162C374.508 126.02 377.586 123.103 379.838 121.083C380.964 120.111 381.864 119.288 382.54 118.69C383.216 118.091 383.591 117.792 383.591 117.792Z" fill="#263238"/>
<path d="M384.042 124.674C383.967 124.674 383.892 123.926 383.817 122.654C383.742 121.382 383.592 119.662 383.517 117.717L383.742 117.942C383.667 117.942 383.517 117.942 383.367 117.942C381.34 118.016 379.538 118.091 378.262 118.091C376.986 118.091 376.16 118.091 376.16 118.016C376.16 117.942 376.986 117.867 378.262 117.792C379.538 117.717 381.415 117.568 383.367 117.493C383.517 117.493 383.592 117.493 383.742 117.493H383.967V117.717C384.042 119.662 384.117 121.382 384.117 122.654C384.117 123.926 384.042 124.674 384.042 124.674Z" fill="#263238"/>
<path d="M160.61 46.6384L161.951 42.6194L165.784 43.332L164.548 47.3041C168.254 48.2941 171.579 50.1162 173.193 52.0417L169.6 56.0753C168.068 54.3337 165.658 52.8743 162.931 52.1085L160.993 58.1595C164.924 59.9316 169.31 62.1616 167.648 67.4272C166.372 71.3074 162.308 74.0074 156.054 73.495L154.714 77.5139L150.881 76.8013L152.117 72.8292C149.285 72.1101 146.707 70.8363 145.07 69.1414L148.413 65.1094C150.072 66.5737 151.88 67.5299 153.67 68.1635L155.671 61.9739C151.741 60.2018 147.459 57.9249 149.098 52.89C150.438 48.871 154.357 46.1259 160.61 46.6384ZM159.291 63.3331L157.588 68.5068C159.8 68.4002 160.932 67.5631 161.294 66.4084C161.824 65.0682 160.808 64.199 159.291 63.3331ZM155.456 53.3556C155.031 54.649 155.942 55.565 157.418 56.339L159.057 51.304C157.096 51.409 155.923 52.1541 155.456 53.3556Z" fill="#E1F3FF"/>
<path d="M66.0561 6.61482L63.5581 2.98886L67.2401 0.560568L69.7798 4.07719C73.6068 1.92517 77.8688 0.601926 80.861 0.636757L81.5795 5.97181C78.8158 5.99455 75.6039 6.86325 72.7545 8.4226L76.5795 13.8213C81.2787 12.0089 86.7467 10.1505 90.0949 14.8298C92.5204 18.3176 91.6813 23.1403 86.2506 27.5251L88.7486 31.1511L85.0666 33.5794L82.5269 30.0628C79.6358 31.7315 76.4547 32.8476 73.6492 32.9797L72.733 27.8346C75.3517 27.5356 77.6387 26.7934 79.6247 25.8555L75.7272 20.3187C71.0281 22.1311 65.6017 23.8801 62.4403 19.3678C59.9423 15.7418 60.6254 10.9997 66.0561 6.61482ZM79.8135 18.4717L83.0474 23.1222C84.7126 21.3843 84.8708 19.9858 84.1348 18.9613C83.3681 17.6894 81.7885 17.8906 79.8135 18.4717ZM67.9127 14.8736C68.7212 16.0362 70.259 15.9443 72.1198 15.3344L68.9583 10.8221C67.4908 12.3701 67.2184 13.7398 67.9127 14.8736Z" fill="#E1F3FF"/>
<defs>
<linearGradient id="paint0_linear_404_4683" x1="482.82" y1="291.51" x2="518.111" y2="292.785" gradientUnits="userSpaceOnUse">
<stop stop-color="#15466F"/>
<stop offset="1" stop-color="#3387CA"/>
</linearGradient>
<linearGradient id="paint1_linear_404_4683" x1="493.943" y1="225.504" x2="504.47" y2="225.551" gradientUnits="userSpaceOnUse">
<stop stop-color="#15466F"/>
<stop offset="1" stop-color="#3387CA"/>
</linearGradient>
<linearGradient id="paint2_linear_404_4683" x1="488.619" y1="252.357" x2="513.934" y2="252.687" gradientUnits="userSpaceOnUse">
<stop stop-color="#15466F"/>
<stop offset="1" stop-color="#3387CA"/>
</linearGradient>
<linearGradient id="paint3_linear_404_4683" x1="488.067" y1="270.758" x2="522.325" y2="272.076" gradientUnits="userSpaceOnUse">
<stop stop-color="#15466F"/>
<stop offset="1" stop-color="#3387CA"/>
</linearGradient>
<linearGradient id="paint4_linear_404_4683" x1="470.712" y1="240.314" x2="488.518" y2="240.463" gradientUnits="userSpaceOnUse">
<stop stop-color="#15466F"/>
<stop offset="1" stop-color="#3387CA"/>
</linearGradient>
<linearGradient id="paint5_linear_404_4683" x1="463.94" y1="273.9" x2="474.578" y2="273.987" gradientUnits="userSpaceOnUse">
<stop stop-color="#15466F"/>
<stop offset="1" stop-color="#3387CA"/>
</linearGradient>
<linearGradient id="paint6_linear_404_4683" x1="442.467" y1="256.471" x2="459.55" y2="256.635" gradientUnits="userSpaceOnUse">
<stop stop-color="#15466F"/>
<stop offset="1" stop-color="#3387CA"/>
</linearGradient>
<linearGradient id="paint7_linear_404_4683" x1="443.596" y1="292.151" x2="464.437" y2="292.78" gradientUnits="userSpaceOnUse">
<stop stop-color="#15466F"/>
<stop offset="1" stop-color="#3387CA"/>
</linearGradient>
<linearGradient id="paint8_linear_404_4683" x1="433.379" y1="326.065" x2="469.038" y2="326.937" gradientUnits="userSpaceOnUse">
<stop stop-color="#15466F"/>
<stop offset="1" stop-color="#3387CA"/>
</linearGradient>
<linearGradient id="paint9_linear_404_4683" x1="484.157" y1="317.882" x2="489.361" y2="317.899" gradientUnits="userSpaceOnUse">
<stop stop-color="#15466F"/>
<stop offset="1" stop-color="#3387CA"/>
</linearGradient>
<linearGradient id="paint10_linear_404_4683" x1="495.52" y1="314.067" x2="510.499" y2="314.209" gradientUnits="userSpaceOnUse">
<stop stop-color="#15466F"/>
<stop offset="1" stop-color="#3387CA"/>
</linearGradient>
<linearGradient id="paint11_linear_404_4683" x1="502.623" y1="312.184" x2="531.166" y2="313.594" gradientUnits="userSpaceOnUse">
<stop stop-color="#15466F"/>
<stop offset="1" stop-color="#3387CA"/>
</linearGradient>
<linearGradient id="paint12_linear_404_4683" x1="195.608" y1="179.427" x2="297.078" y2="180.543" gradientUnits="userSpaceOnUse">
<stop stop-color="#15466F"/>
<stop offset="1" stop-color="#3387CA"/>
</linearGradient>
<linearGradient id="paint13_linear_404_4683" x1="300.277" y1="179.277" x2="364.76" y2="179.737" gradientUnits="userSpaceOnUse">
<stop stop-color="#15466F"/>
<stop offset="1" stop-color="#3387CA"/>
</linearGradient>
<linearGradient id="paint14_linear_404_4683" x1="299.479" y1="169.927" x2="354.987" y2="170.238" gradientUnits="userSpaceOnUse">
<stop stop-color="#15466F"/>
<stop offset="1" stop-color="#3387CA"/>
</linearGradient>
<linearGradient id="paint15_linear_404_4683" x1="169.294" y1="269.046" x2="174.372" y2="269.064" gradientUnits="userSpaceOnUse">
<stop stop-color="#15466F"/>
<stop offset="1" stop-color="#3387CA"/>
</linearGradient>
<linearGradient id="paint16_linear_404_4683" x1="209.906" y1="268.97" x2="214.983" y2="268.989" gradientUnits="userSpaceOnUse">
<stop stop-color="#15466F"/>
<stop offset="1" stop-color="#3387CA"/>
</linearGradient>
<linearGradient id="paint17_linear_404_4683" x1="180.243" y1="261.266" x2="185.32" y2="261.271" gradientUnits="userSpaceOnUse">
<stop stop-color="#15466F"/>
<stop offset="1" stop-color="#3387CA"/>
</linearGradient>
<linearGradient id="paint18_linear_404_4683" x1="200.729" y1="256.404" x2="205.806" y2="256.404" gradientUnits="userSpaceOnUse">
<stop stop-color="#15466F"/>
<stop offset="1" stop-color="#3387CA"/>
</linearGradient>
<linearGradient id="paint19_linear_404_4683" x1="190.575" y1="242.342" x2="195.652" y2="242.336" gradientUnits="userSpaceOnUse">
<stop stop-color="#15466F"/>
<stop offset="1" stop-color="#3387CA"/>
</linearGradient>
<linearGradient id="paint20_linear_404_4683" x1="220.612" y1="249.149" x2="225.689" y2="249.146" gradientUnits="userSpaceOnUse">
<stop stop-color="#15466F"/>
<stop offset="1" stop-color="#3387CA"/>
</linearGradient>
</defs>
</svg>
