<svg width="337" height="380" viewBox="0 0 337 380" fill="none" xmlns="http://www.w3.org/2000/svg">
<g clip-path="url(#clip0_461_5694)">
<path d="M265.255 95.5609L306.443 108.41C313.905 110.702 318.063 118.76 315.603 126.161L294.582 189.364C292.303 196.259 285.071 200.237 277.965 198.548C275.596 197.985 273.214 199.322 272.452 201.714L230.066 335.994C227.17 345.142 217.447 350.228 208.268 347.416L50.712 298.787C48.235 297.995 46.8749 295.414 47.6669 292.937L123.217 60.4871C123.978 58.0944 126.445 56.7885 128.868 57.466L265.255 95.5609Z" fill="url(#paint0_linear_461_5694)"/>
<g opacity="0.3">
<path d="M49.1004 288.404L47.6977 292.852L220.173 337.305L299.32 106.239C299.32 106.239 256.615 97.8921 255.855 97.6201C255.096 97.3481 49.1004 288.404 49.1004 288.404Z" fill="black"/>
</g>
<path d="M248.578 75.6875L298.066 90.0816L217.669 330.219L40.9549 286.438L100.734 40.3431L248.578 75.6875Z" fill="#EBEBEB"/>
<path d="M248.575 75.6868C248.575 75.6868 247.701 75.4689 245.923 75.1176C244.175 74.682 241.607 74.143 238.28 73.3321C231.511 71.7644 221.615 69.3618 208.813 66.2995C183.293 60.205 146.267 51.417 100.755 40.5414L100.984 40.433C84.9769 106.384 64.195 192.044 41.2046 286.528L41.0119 286.268C53.615 289.355 67.0618 292.743 80.6232 296.078C128.721 307.975 174.956 319.49 217.726 330.05L217.466 330.242C252.68 225.286 281.523 139.181 297.948 90.135L298.003 90.2496C281.892 85.5263 269.555 81.964 261.22 79.4544C257.079 78.2568 253.897 77.3074 251.757 76.6362C249.587 76.0494 248.575 75.6868 248.575 75.6868C248.575 75.6868 249.702 75.9953 251.787 76.5519C253.957 77.1387 257.055 78.0579 261.28 79.2856C269.646 81.7109 281.983 85.2732 298.123 89.9121L298.208 89.9423L298.178 90.0267C281.752 139.073 252.994 225.208 217.949 330.225L217.888 330.393L217.719 330.333C174.95 319.773 128.715 308.258 80.6169 296.361C67.0555 293.027 53.6087 289.638 41.0056 286.552L40.7525 286.461L40.8432 286.208C63.8336 191.724 84.6998 106.094 100.707 40.1434L100.767 39.9747L100.936 40.0351C146.533 50.941 183.444 59.7831 208.933 65.962C221.736 69.0244 231.632 71.4269 238.371 73.079C241.698 73.8899 244.32 74.5434 245.983 74.9489C247.617 75.4387 248.575 75.6868 248.575 75.6868Z" fill="#263238"/>
<path d="M95.1362 29.3892L32.3347 277.543L216.883 324.702L277.008 75.7795L95.1362 29.3892Z" fill="white"/>
<path d="M95.1344 29.3889C96.6291 29.7339 166.792 47.5353 277.067 75.6105L277.235 75.6709L277.175 75.8397C260.345 145.684 239.58 231.827 217.134 324.792L217.043 325.045L216.79 324.954C216.368 324.803 215.916 324.737 215.494 324.585C149.647 307.759 87.295 291.803 32.1578 277.766L31.9891 277.705L32.0495 277.537C69.4428 130.617 94.6685 31.2212 95.1344 29.3889C94.6685 31.2212 69.6116 130.677 32.5016 277.603L32.309 277.344C87.4461 291.381 149.798 307.337 215.645 324.164C216.067 324.315 216.519 324.381 216.941 324.532L216.682 324.725C239.128 231.76 259.947 145.732 276.807 75.8032L276.916 76.0323C166.732 47.704 96.5989 29.8183 95.1344 29.3889Z" fill="#263238"/>
<path d="M166.917 260.348C172.115 245.836 188.243 238.285 202.725 243.568C217.237 248.766 224.788 264.893 219.506 279.375C214.308 293.887 198.18 301.439 183.698 296.156C169.186 290.958 161.719 274.861 166.917 260.348ZM219 279.194C224.107 264.935 216.718 249.151 202.459 244.044C188.2 238.936 172.416 246.325 167.309 260.584C162.202 274.843 169.59 290.627 183.849 295.734C198.108 300.842 213.892 293.453 219 279.194Z" fill="#E0E0E0"/>
<path d="M169.959 261.437C174.492 248.781 188.557 242.205 201.183 246.822C213.839 251.356 220.415 265.42 215.797 278.046C211.264 290.702 197.199 297.279 184.573 292.661C171.917 288.128 165.341 274.063 169.959 261.437ZM212.422 276.837C216.291 266.038 210.659 254.12 199.974 250.197C189.174 246.329 177.256 251.961 173.334 262.646C169.465 273.446 175.097 285.364 185.782 289.286C196.582 293.154 208.584 287.553 212.422 276.837Z" fill="#E0E0E0"/>
<path d="M175.484 263.798C176.451 261.098 177.948 258.778 180.06 256.869L182.553 259.476C180.93 261.084 179.699 262.927 178.943 265.037C176.253 272.546 180.152 280.797 187.631 283.571C190.163 284.478 192.851 284.679 195.444 284.085L196.188 287.588C192.914 288.224 189.544 288.064 186.453 286.861C176.973 283.561 172.045 273.133 175.484 263.798Z" fill="#E0E0E0"/>
<path d="M189.981 252.046C192.881 251.657 195.823 251.949 198.522 252.916C207.888 256.27 212.731 266.668 209.377 276.034C208.228 279.24 206.182 282.029 203.528 284.125L201.293 281.325C203.429 279.615 205.065 277.44 205.972 274.909C208.661 267.4 204.762 259.149 197.283 256.375C195.09 255.589 192.715 255.31 190.411 255.627L189.981 252.046Z" fill="#E0E0E0"/>
<path d="M250.692 135.945C250.661 136.029 215.818 127.261 172.801 116.327C129.785 105.394 95.032 96.3728 94.9779 96.2582C95.0081 96.1739 129.852 104.942 172.868 115.875C215.885 126.809 250.722 135.86 250.692 135.945Z" fill="#263238"/>
<path d="M169.601 104.804C169.571 104.888 153.472 100.931 133.6 95.8119C113.728 90.6932 97.6897 86.5668 97.7501 86.3981C97.7804 86.3137 113.879 90.2714 133.751 95.39C153.623 100.509 169.661 104.635 169.601 104.804Z" fill="#263238"/>
<path d="M247.867 145.976C247.837 146.06 212.994 137.292 169.977 126.359C126.961 115.425 92.2078 106.404 92.1537 106.289C92.1839 106.205 127.027 114.973 170.044 125.907C213.06 136.84 247.813 145.861 247.867 145.976Z" fill="#263238"/>
<path d="M244.952 155.974C244.921 156.058 210.078 147.29 167.061 136.357C124.045 125.423 89.292 116.402 89.2379 116.287C89.2681 116.203 124.112 124.971 167.128 135.904C210.229 146.868 245.012 155.805 244.952 155.974Z" fill="#263238"/>
<path d="M242.12 166.002C242.089 166.086 207.246 157.319 164.229 146.385C121.213 135.451 86.46 126.43 86.4058 126.316C86.4361 126.231 121.28 134.999 164.296 145.933C207.312 156.867 242.18 165.833 242.12 166.002Z" fill="#263238"/>
<path d="M239.288 176.031C239.257 176.116 204.414 167.348 161.397 156.414C118.381 145.48 83.628 136.459 83.5738 136.345C83.604 136.26 118.448 145.028 161.464 155.962C204.48 166.896 239.348 175.862 239.288 176.031Z" fill="#263238"/>
<path d="M236.488 185.976C236.458 186.06 201.615 177.292 158.598 166.359C115.582 155.425 80.8289 146.404 80.7748 146.289C80.805 146.205 115.649 154.973 158.665 165.906C201.651 176.924 236.519 185.891 236.488 185.976Z" fill="#263238"/>
<path d="M233.573 195.975C233.543 196.059 199.121 187.443 156.725 176.636C114.33 165.83 79.9144 156.93 79.9446 156.845C79.9748 156.761 114.397 165.378 156.792 176.184C199.272 187.021 233.603 195.891 233.573 195.975Z" fill="#263238"/>
<path d="M168.871 194.028C168.841 194.113 148.065 188.861 122.558 182.199C96.9665 175.508 76.251 170.087 76.3115 169.918C76.3417 169.834 97.1176 175.086 122.709 181.777C148.132 188.408 168.902 193.944 168.871 194.028Z" fill="#263238"/>
<path d="M115.564 266.039C115.534 266.124 102.877 262.923 87.405 258.809C71.8488 254.665 59.2823 251.211 59.3125 251.127C59.3427 251.042 71.9999 254.243 87.4717 258.357C103.028 262.501 115.594 265.955 115.564 266.039Z" fill="black"/>
<path d="M88.7487 267.001C88.7185 267.086 81.6122 265.397 72.9331 263.05C64.2238 260.787 57.1541 258.731 57.1843 258.647C57.2145 258.562 64.3208 260.251 72.9999 262.598C81.7092 264.861 88.7789 266.917 88.7487 267.001Z" fill="black"/>
<path d="M111.447 197.545C111.417 197.629 103.069 195.686 92.6659 193.102C82.3471 190.549 74.0055 188.322 74.066 188.153C74.0962 188.069 82.4441 190.012 92.8472 192.596C103.136 195.234 111.507 197.376 111.447 197.545Z" fill="url(#paint1_linear_461_5694)"/>
<g opacity="0.3">
<path d="M43.1567 235.63L60.6735 238.287L74.7963 227.828L45.5883 226.981L43.1567 235.63Z" fill="black"/>
</g>
<path d="M20.6988 207.69L65.9694 219.24L74.7934 227.827L62.9713 234.255L16.784 223.138L20.6988 207.69Z" fill="url(#paint2_linear_461_5694)"/>
<path d="M167.352 216.332C167.352 216.332 167.437 216.363 167.491 216.477C167.575 216.507 167.714 216.652 167.852 216.797C168.129 217.087 168.485 217.69 168.864 218.492C169.537 220.066 170.162 222.575 170.231 225.836C170.301 229.098 169.983 233.173 168.129 237.554C167.651 238.621 167.09 239.657 166.329 240.717C165.599 241.693 164.754 242.724 163.77 243.609C161.888 245.41 159.499 247.029 156.863 248.275C154.143 249.49 151.176 250.331 147.915 250.4C144.737 250.5 141.289 250.027 138.204 248.541C131.919 245.623 126.879 238.963 126.145 231.179C125.99 229.22 126.118 227.266 126.645 225.265C127.056 223.319 128.005 221.469 129.26 219.824C130.516 218.179 132.247 216.8 134.327 216.308C135.383 216.019 136.432 216.014 137.474 216.293C138.517 216.571 139.499 217.018 140.391 217.718C142.09 219.088 143.179 221.097 143.672 223.177C144.134 225.342 143.915 227.548 143.442 229.664C142.383 233.949 140.282 237.956 137.258 241.348C134.265 244.655 130.465 247.292 126.267 248.644C122.07 249.997 117.645 250.125 113.528 249.127C109.412 248.128 105.573 246.087 102.718 243.16C99.8636 240.234 98.0765 236.452 97.2542 232.635C96.4318 228.818 96.8032 224.858 98.1266 221.429C98.8457 219.687 99.7032 218.09 100.952 216.729C102.202 215.368 103.643 214.266 105.272 213.707C106.9 213.148 108.799 213.161 110.311 213.989C111.824 214.816 112.956 216.174 113.545 217.717C114.135 219.261 114.411 220.883 114.15 222.408C113.889 223.933 113.376 225.368 112.639 226.627C111.135 229.23 109.108 231.169 107.002 232.795C104.981 234.451 102.882 235.794 100.789 236.853C98.6961 237.912 96.6939 238.718 94.8364 239.385C92.9248 239.938 91.1278 240.437 89.5059 240.713C86.2619 241.264 83.6816 241.292 81.9816 241.254C80.2815 241.216 79.3774 241.083 79.3774 241.083C79.3774 241.083 79.5763 241.059 80.0284 241.126C80.5107 241.108 81.1316 241.235 82.0118 241.17C83.7119 241.208 86.2922 241.18 89.4819 240.514C91.1039 240.238 92.8707 239.823 94.7281 239.156C96.5856 238.489 98.5878 237.683 100.681 236.623C102.689 235.534 104.789 234.192 106.81 232.536C108.831 230.88 110.858 228.94 112.332 226.422C113.068 225.162 113.582 223.728 113.812 222.287C114.043 220.847 113.767 219.225 113.232 217.795C112.612 216.336 111.564 215.009 110.191 214.326C108.762 213.529 106.978 213.461 105.434 214.05C103.806 214.61 102.479 215.657 101.26 216.934C100.041 218.211 99.1832 219.808 98.5787 221.496C97.2855 224.84 96.9443 228.716 97.6823 232.503C98.4505 236.205 100.183 239.872 103.038 242.799C105.809 245.695 109.563 247.706 113.595 248.675C117.627 249.643 122.052 249.514 126.135 248.216C130.218 246.918 133.988 244.365 136.897 241.028C139.89 237.721 141.962 233.798 142.99 229.597C143.463 227.481 143.651 225.36 143.243 223.309C142.835 221.259 141.716 219.335 140.156 218.11C139.348 217.44 138.45 217.023 137.492 216.775C136.534 216.527 135.485 216.532 134.514 216.851C132.548 217.289 130.901 218.698 129.706 220.174C128.481 221.734 127.563 223.5 127.151 225.447C126.655 227.363 126.526 229.317 126.712 231.192C127.392 238.861 132.377 245.406 138.494 248.264C141.579 249.75 144.943 250.193 148.12 250.093C151.297 249.994 154.264 249.152 156.954 248.022C159.644 246.891 161.948 245.241 163.831 243.44C164.814 242.555 165.629 241.609 166.359 240.633C167.09 239.657 167.651 238.621 168.129 237.554C170.038 233.288 170.355 229.212 170.286 225.951C170.216 222.689 169.676 220.211 169.032 218.553C168.738 217.781 168.383 217.177 168.106 216.888C167.575 216.507 167.352 216.332 167.352 216.332Z" fill="black"/>
<path d="M223.134 103.13C223.134 103.13 223.194 102.961 223.2 102.677C223.291 102.424 223.358 101.972 223.455 101.436C223.763 100.309 224.138 98.7296 224.611 96.614C225.639 92.4129 227.08 86.265 228.98 78.5682L229.119 78.713C207.661 73.5024 173.264 65.0847 134.55 55.6923L134.81 55.4997C132.752 63.9017 130.755 72.135 128.764 80.085L128.572 79.8256C155.526 86.4338 179.122 92.3156 196.011 96.4609C204.413 98.5184 211.236 100.201 215.859 101.381C218.227 101.943 219.975 102.379 221.187 102.718C221.808 102.845 222.229 102.996 222.567 103.117C222.965 103.069 223.134 103.13 223.134 103.13C223.134 103.13 222.965 103.069 222.682 103.063C222.344 102.942 221.892 102.875 221.271 102.748C220.029 102.494 218.282 102.058 215.913 101.495C211.26 100.4 204.521 98.7476 196.119 96.69C179.231 92.5448 155.573 86.8318 128.505 80.2776L128.252 80.187L128.342 79.9339C130.303 72.0683 132.3 63.835 134.388 55.3486L134.478 55.0954L134.732 55.1861C173.415 64.6628 207.782 73.165 229.24 78.3755L229.408 78.436L229.348 78.6047C227.417 86.3859 225.893 92.5036 224.864 96.7046C224.307 98.79 223.932 100.369 223.623 101.496C223.527 102.033 223.375 102.455 223.285 102.708C223.164 103.045 223.134 103.13 223.134 103.13Z" fill="#455A64"/>
</g>
<defs>
<linearGradient id="paint0_linear_461_5694" x1="143.021" y1="49.8576" x2="318.632" y2="114.663" gradientUnits="userSpaceOnUse">
<stop stop-color="#15466F"/>
<stop offset="1" stop-color="#3387CA"/>
</linearGradient>
<linearGradient id="paint1_linear_461_5694" x1="77.9999" y1="185.538" x2="109.05" y2="201.234" gradientUnits="userSpaceOnUse">
<stop stop-color="#15466F"/>
<stop offset="1" stop-color="#3387CA"/>
</linearGradient>
<linearGradient id="paint2_linear_461_5694" x1="26.1763" y1="204.987" x2="75.1528" y2="224.509" gradientUnits="userSpaceOnUse">
<stop stop-color="#15466F"/>
<stop offset="1" stop-color="#3387CA"/>
</linearGradient>
<clipPath id="clip0_461_5694">
<rect width="337" height="379.736" fill="white"/>
</clipPath>
</defs>
</svg>
