<svg width="15" height="16" viewBox="0 0 15 16" fill="none" xmlns="http://www.w3.org/2000/svg">
<path d="M7.49991 0.500182C3.35781 0.500182 0 3.85799 0 8.00009C0 12.1422 3.35781 15.5 7.49991 15.5C11.642 15.5 14.9998 12.1422 14.9998 8.00009V8.00021C14.9953 3.8599 11.6402 0.504784 7.49991 0.5V0.500182ZM7.49991 14.4538C3.93579 14.4538 1.04651 11.5644 1.04651 8.00039C1.04651 4.43627 3.93587 1.54699 7.49991 1.54699C11.064 1.54699 13.9533 4.43636 13.9533 8.00039V8.00051C13.9495 11.5631 11.0623 14.45 7.49961 14.4539L7.49991 14.4538ZM9.96271 9.72355C10.1741 9.92059 10.1858 10.2517 9.98888 10.4631C9.79184 10.6745 9.46072 10.6862 9.24932 10.4893C9.24033 10.4809 9.23157 10.4722 9.22316 10.4631L7.13013 8.37008C7.03179 8.2722 6.97654 8.13905 6.97666 8.0003V4.51182C6.97666 4.22286 7.21095 3.98857 7.49992 3.98857C7.78888 3.98857 8.02317 4.22286 8.02317 4.51182V7.78322L9.96271 9.72355Z" fill="#64717B"/>
</svg>
