<svg width="27" height="26" viewBox="0 0 27 26" fill="none" xmlns="http://www.w3.org/2000/svg">
<path d="M8.21501 0C4.03442 0 0.633789 3.40378 0.633789 7.58545V18.4188C0.633789 22.5994 4.03757 26 8.21924 26H19.0526C23.2332 26 26.6338 22.5962 26.6338 18.4146V7.58122C26.6338 3.40063 23.23 0 19.0483 0H8.21501ZM21.2171 4.33333C21.8151 4.33333 22.3005 4.81867 22.3005 5.41667C22.3005 6.01467 21.8151 6.5 21.2171 6.5C20.6191 6.5 20.1338 6.01467 20.1338 5.41667C20.1338 4.81867 20.6191 4.33333 21.2171 4.33333ZM13.6338 6.5C17.2185 6.5 20.1338 9.41525 20.1338 13C20.1338 16.5848 17.2185 19.5 13.6338 19.5C10.049 19.5 7.13379 16.5848 7.13379 13C7.13379 9.41525 10.049 6.5 13.6338 6.5ZM13.6338 8.66667C12.4845 8.66667 11.3823 9.12321 10.5697 9.93587C9.757 10.7485 9.30046 11.8507 9.30046 13C9.30046 14.1493 9.757 15.2515 10.5697 16.0641C11.3823 16.8768 12.4845 17.3333 13.6338 17.3333C14.7831 17.3333 15.8853 16.8768 16.6979 16.0641C17.5106 15.2515 17.9671 14.1493 17.9671 13C17.9671 11.8507 17.5106 10.7485 16.6979 9.93587C15.8853 9.12321 14.7831 8.66667 13.6338 8.66667Z" fill="#0C1923"/>
</svg>
