<svg xmlns="http://www.w3.org/2000/svg" viewBox="0 0 490.35 71.43"><defs><style>.cls-1{fill:#27aae1;}.cls-2{fill:#033145;}</style></defs><title>suAsset 1</title><g id="Layer_2" data-name="Layer 2"><g id="Слой_1" data-name="Слой 1"><polygon class="cls-1" points="49.85 39.05 44.22 45.29 48.51 36.16 49.36 38 31.7 0 0 0 33.41 69.26 63.89 69.26 49.85 39.05"/><polygon class="cls-2" points="65.3 0 48.51 36.16 63.59 69.26 97 0 65.3 0"/><polygon class="cls-2" points="63.59 69.26 80.12 46.76 97 46.76 97 69.26 63.59 69.26"/><rect class="cls-2" x="43.17" y="24.52" width="5.11" height="23.09" rx="2.56" transform="translate(19.67 -16.02) rotate(25.16)"/><rect class="cls-2" x="31.22" y="49.22" width="5.11" height="23.09" rx="2.56" transform="translate(-23 20.65) rotate(-25.69)"/><rect class="cls-2" x="38.47" y="49.22" width="5.11" height="23.09" rx="2.56" transform="translate(-22.29 23.79) rotate(-25.69)"/><rect class="cls-2" x="45.72" y="49.22" width="5.11" height="23.09" rx="2.56" transform="translate(-21.57 26.93) rotate(-25.69)"/><rect class="cls-2" x="52.97" y="49.22" width="5.11" height="23.09" rx="2.56" transform="translate(-20.85 30.07) rotate(-25.69)"/><rect class="cls-2" x="297.08" y="19.67" width="12.38" height="40.06"/><polygon class="cls-2" points="209.51 19.67 179.96 19.67 179.96 29.87 188.57 29.87 188.57 59.73 200.95 59.73 200.95 29.87 209.51 29.87 209.51 19.67"/><polygon class="cls-2" points="280.39 19.67 268.02 19.67 268.02 59.73 292.95 59.73 292.95 49.75 280.39 49.75 280.39 19.67"/><polygon class="cls-2" points="219.94 19.67 206.47 59.73 219.6 59.73 221.78 52.24 221.79 52.24 224.34 43.47 224.3 43.47 228.06 30.73 231.87 43.47 231.82 43.47 234.41 52.24 234.44 52.24 236.62 59.73 249.75 59.73 236.28 19.67 219.94 19.67"/><polygon class="cls-2" points="139.3 43.8 131.13 19.67 117.89 19.67 133.51 59.73 145.01 59.73 160.83 19.67 147.55 19.67 139.3 43.8"/><rect class="cls-2" x="163.48" y="19.67" width="12.38" height="40.06"/><polygon class="cls-2" points="476.88 19.67 460.54 19.67 447.07 59.73 460.17 59.73 464.92 43.47 464.89 43.47 466.61 37.65 468.63 30.73 468.64 30.77 468.66 30.73 472.47 43.47 472.39 43.47 474.98 52.24 475.04 52.24 477.22 59.73 490.35 59.73 476.88 19.67"/><polygon class="cls-2" points="450.11 19.67 420.55 19.67 420.55 29.87 429.17 29.87 429.17 59.73 441.54 59.73 441.54 29.87 450.11 29.87 450.11 19.67"/><polygon class="cls-2" points="355.01 59.73 380.31 59.73 380.31 49.75 367.39 49.75 367.39 44.32 379.35 44.32 379.35 34.88 367.39 34.88 367.39 29.66 380.31 29.66 380.31 19.67 355.01 19.67 355.01 59.73"/><path class="cls-2" d="M416.22,39.52a11.13,11.13,0,0,0,2-6.56q0-6.57-4.15-10-3.92-3.27-11-3.27H386.25V59.73h12.33V45.23l.33.1,7.48,14.4h14.84L410.38,43.52A10.16,10.16,0,0,0,416.22,39.52Zm-16-1.89h-1.66V28.86h1.71q5.32,0,5.32,4.31T400.24,37.63Z"/><path class="cls-2" d="M341.37,37.58q5.34-2.49,5.34-7.87a9,9,0,0,0-2.9-6.87q-3.37-3.16-9.79-3.17H316.59V59.73h18.24q7.68,0,11.62-3.42A10.53,10.53,0,0,0,350,47.93a10.1,10.1,0,0,0-2.31-6.8A11.43,11.43,0,0,0,341.37,37.58Zm-12.56-9.24H331q4.45,0,4.46,3.66t-5.32,3.66h-1.37Zm6.95,21.74A7.14,7.14,0,0,1,332,51h-3.19V43.31h3.68c3.26,0,4.88,1.33,4.88,4A3.05,3.05,0,0,1,335.76,50.08Z"/><polygon class="cls-1" points="219.6 59.73 228.06 30.73 236.62 59.73 219.6 59.73"/><polygon class="cls-1" points="460.17 59.73 468.64 30.77 477.22 59.73 460.17 59.73"/></g></g></svg>