<svg width="457" height="278" viewBox="0 0 457 278" fill="none" xmlns="http://www.w3.org/2000/svg">
<path d="M352.659 176.797H137.546C133.505 176.797 130.199 173.483 130.199 169.432V12.7837C130.199 8.73309 133.505 5.41895 137.546 5.41895H352.659C356.699 5.41895 360.005 8.73309 360.005 12.7837V169.432C360.005 173.483 356.699 176.797 352.659 176.797Z" fill="#B5E1FF"/>
<path d="M360.006 172.378H144.894C140.853 172.378 137.547 169.064 137.547 165.013V8.36476C137.547 4.31414 140.853 1 144.894 1H360.006C364.047 1 367.353 4.31414 367.353 8.36476V165.013C367.353 169.064 364.047 172.378 360.006 172.378Z" fill="#FCFBFF"/>
<path d="M360.006 172.378H144.894C140.853 172.378 137.547 169.064 137.547 165.013V8.36476C137.547 4.31414 140.853 1 144.894 1H360.006C364.047 1 367.353 4.31414 367.353 8.36476V165.013C367.353 169.064 364.047 172.378 360.006 172.378Z" stroke="#B5E1FF" stroke-width="1.5" stroke-miterlimit="10" stroke-linecap="round" stroke-linejoin="round"/>
<path d="M240.842 73.6162H216.965V113.533H240.842V73.6162Z" fill="url(#paint0_linear_297_2943)"/>
<path d="M330.324 54.3203H306.447V113.459H330.324V54.3203Z" fill="url(#paint1_linear_297_2943)"/>
<path d="M284.041 62.127H260.164V113.533H284.041V62.127Z" fill="#3387C9"/>
<path d="M208.957 113.533H338.774" stroke="url(#paint2_linear_297_2943)" stroke-width="1.5" stroke-miterlimit="10"/>
<path d="M203.814 39.6642C199.774 31.0475 191.031 25.082 180.893 25.082V50.4904L203.814 39.6642Z" fill="#3387C9"/>
<path d="M203.814 39.6642C199.774 31.0475 191.031 25.082 180.893 25.082V50.4904L203.814 39.6642Z" stroke="#B5E1FF" stroke-width="1.5" stroke-miterlimit="10" stroke-linecap="round" stroke-linejoin="round"/>
<path d="M180.893 75.8988C194.891 75.8988 206.239 64.5231 206.239 50.4904C206.239 36.4578 194.891 25.082 180.893 25.082C166.895 25.082 155.547 36.4578 155.547 50.4904C155.547 64.5231 166.895 75.8988 180.893 75.8988Z" stroke="#B5E1FF" stroke-width="1.5" stroke-miterlimit="10" stroke-linecap="round" stroke-linejoin="round"/>
<path d="M240.843 18.8223H215.791V22.6519H240.843V18.8223Z" fill="#3387C9"/>
<path d="M255.537 26.5557H215.791V30.3853H255.537V26.5557Z" fill="#B5E1FF"/>
<path d="M255.537 32.9629H215.791V36.7926H255.537V32.9629Z" fill="#B5E1FF"/>
<path d="M242.017 122.003H216.965V125.833H242.017V122.003Z" fill="#3387C9"/>
<path d="M256.711 129.735H216.965V133.565H256.711V129.735Z" fill="#B5E1FF"/>
<path d="M242.017 136.217H216.965V140.046H242.017V136.217Z" fill="#B5E1FF"/>
<path d="M303.658 122.003H278.605V125.833H303.658V122.003Z" fill="#3387C9"/>
<path d="M318.351 129.735H278.605V133.565H318.351V129.735Z" fill="#B5E1FF"/>
<path d="M303.658 136.217H278.605V140.046H303.658V136.217Z" fill="#B5E1FF"/>
<path d="M169.873 82.6016H155.547V86.4312H169.873V82.6016Z" fill="url(#paint3_linear_297_2943)"/>
<path d="M178.322 90.334H155.547V94.1637H178.322V90.334Z" fill="#B5E1FF"/>
<path d="M169.873 101.896H155.547V105.726H169.873V101.896Z" fill="url(#paint4_linear_297_2943)"/>
<path d="M178.322 109.63H155.547V113.46H178.322V109.63Z" fill="#B5E1FF"/>
<path d="M169.873 121.192H155.547V125.022H169.873V121.192Z" fill="url(#paint5_linear_297_2943)"/>
<path d="M178.322 128.926H155.547V132.755H178.322V128.926Z" fill="#B5E1FF"/>
<path d="M301.145 27.9259H296.285V30.4909C296.495 30.2309 296.795 30.0209 297.185 29.8609C297.575 29.6909 297.99 29.6059 298.43 29.6059C299.23 29.6059 299.885 29.7809 300.395 30.1309C300.905 30.4809 301.275 30.9309 301.505 31.4809C301.735 32.0209 301.85 32.6009 301.85 33.2209C301.85 34.3709 301.52 35.2959 300.86 35.9959C300.21 36.6959 299.28 37.0459 298.07 37.0459C296.93 37.0459 296.02 36.7609 295.34 36.1909C294.66 35.6209 294.275 34.8759 294.185 33.9559H296.225C296.315 34.3559 296.515 34.6759 296.825 34.9159C297.145 35.1559 297.55 35.2759 298.04 35.2759C298.63 35.2759 299.075 35.0909 299.375 34.7209C299.675 34.3509 299.825 33.8609 299.825 33.2509C299.825 32.6309 299.67 32.1609 299.36 31.8409C299.06 31.5109 298.615 31.3459 298.025 31.3459C297.605 31.3459 297.255 31.4509 296.975 31.6609C296.695 31.8709 296.495 32.1509 296.375 32.5009H294.365V26.0809H301.145V27.9259ZM303.448 31.4359C303.448 29.7059 303.758 28.3509 304.378 27.3709C305.008 26.3909 306.048 25.9009 307.498 25.9009C308.948 25.9009 309.983 26.3909 310.603 27.3709C311.233 28.3509 311.548 29.7059 311.548 31.4359C311.548 33.1759 311.233 34.5409 310.603 35.5309C309.983 36.5209 308.948 37.0159 307.498 37.0159C306.048 37.0159 305.008 36.5209 304.378 35.5309C303.758 34.5409 303.448 33.1759 303.448 31.4359ZM309.478 31.4359C309.478 30.6959 309.428 30.0759 309.328 29.5759C309.238 29.0659 309.048 28.6509 308.758 28.3309C308.478 28.0109 308.058 27.8509 307.498 27.8509C306.938 27.8509 306.513 28.0109 306.223 28.3309C305.943 28.6509 305.753 29.0659 305.653 29.5759C305.563 30.0759 305.518 30.6959 305.518 31.4359C305.518 32.1959 305.563 32.8359 305.653 33.3559C305.743 33.8659 305.933 34.2809 306.223 34.6009C306.513 34.9109 306.938 35.0659 307.498 35.0659C308.058 35.0659 308.483 34.9109 308.773 34.6009C309.063 34.2809 309.253 33.8659 309.343 33.3559C309.433 32.8359 309.478 32.1959 309.478 31.4359ZM322.585 22.8409L318.535 39.7609H316.48L320.53 22.8409H322.585ZM327.334 28.0459V26.1109H330.949V37.0459H328.789V28.0459H327.334ZM333.024 31.4359C333.024 29.7059 333.334 28.3509 333.954 27.3709C334.584 26.3909 335.624 25.9009 337.074 25.9009C338.524 25.9009 339.559 26.3909 340.179 27.3709C340.809 28.3509 341.124 29.7059 341.124 31.4359C341.124 33.1759 340.809 34.5409 340.179 35.5309C339.559 36.5209 338.524 37.0159 337.074 37.0159C335.624 37.0159 334.584 36.5209 333.954 35.5309C333.334 34.5409 333.024 33.1759 333.024 31.4359ZM339.054 31.4359C339.054 30.6959 339.004 30.0759 338.904 29.5759C338.814 29.0659 338.624 28.6509 338.334 28.3309C338.054 28.0109 337.634 27.8509 337.074 27.8509C336.514 27.8509 336.089 28.0109 335.799 28.3309C335.519 28.6509 335.329 29.0659 335.229 29.5759C335.139 30.0759 335.094 30.6959 335.094 31.4359C335.094 32.1959 335.139 32.8359 335.229 33.3559C335.319 33.8659 335.509 34.2809 335.799 34.6009C336.089 34.9109 336.514 35.0659 337.074 35.0659C337.634 35.0659 338.059 34.9109 338.349 34.6009C338.639 34.2809 338.829 33.8659 338.919 33.3559C339.009 32.8359 339.054 32.1959 339.054 31.4359ZM342.721 31.4359C342.721 29.7059 343.031 28.3509 343.651 27.3709C344.281 26.3909 345.321 25.9009 346.771 25.9009C348.221 25.9009 349.256 26.3909 349.876 27.3709C350.506 28.3509 350.821 29.7059 350.821 31.4359C350.821 33.1759 350.506 34.5409 349.876 35.5309C349.256 36.5209 348.221 37.0159 346.771 37.0159C345.321 37.0159 344.281 36.5209 343.651 35.5309C343.031 34.5409 342.721 33.1759 342.721 31.4359ZM348.751 31.4359C348.751 30.6959 348.701 30.0759 348.601 29.5759C348.511 29.0659 348.321 28.6509 348.031 28.3309C347.751 28.0109 347.331 27.8509 346.771 27.8509C346.211 27.8509 345.786 28.0109 345.496 28.3309C345.216 28.6509 345.026 29.0659 344.926 29.5759C344.836 30.0759 344.791 30.6959 344.791 31.4359C344.791 32.1959 344.836 32.8359 344.926 33.3559C345.016 33.8659 345.206 34.2809 345.496 34.6009C345.786 34.9109 346.211 35.0659 346.771 35.0659C347.331 35.0659 347.756 34.9109 348.046 34.6009C348.336 34.2809 348.526 33.8659 348.616 33.3559C348.706 32.8359 348.751 32.1959 348.751 31.4359Z" fill="#3387C9"/>
<path d="M121.017 227.686C121.017 227.686 82.9608 264.731 25.6562 234.167L27.1991 224.888L119.841 219.217L121.017 227.686Z" fill="#96BFDF"/>
<path d="M38.2186 199.186L18.5293 275.926H110.217C110.217 275.926 118.665 225.846 114.184 199.186H38.2186Z" fill="#0C1923"/>
<path d="M114.625 202.794C114.478 201.542 114.331 200.29 114.111 199.186H38.219L34.6191 213.179L114.625 202.794Z" fill="#164770"/>
<path d="M70.9121 275.926L82.0792 225.109L89.132 222.899" stroke="#164770" stroke-width="1.5" stroke-miterlimit="10" stroke-linecap="round" stroke-linejoin="round"/>
<path d="M45.125 115.006C45.125 115.006 36.4559 107.788 38.513 95.2681C40.57 82.7481 50.1208 80.6859 50.1208 80.6859C50.1208 80.6859 38.9538 69.0496 51.9575 54.0255C51.9575 54.0255 55.9982 50.1958 60.9205 49.6067C60.9205 49.6067 64.9612 30.8265 86.2668 32.8887C107.572 34.9508 101.034 55.7194 95.0094 58.4444C95.0094 58.4444 98.6093 68.1658 93.1727 73.0266V79.5076C93.1727 79.5076 107.719 83.1899 109.556 98.6559C111.393 114.122 95.0094 119.645 95.0094 119.645C95.0094 119.645 53.0595 123.033 45.125 115.006Z" fill="#0C1923"/>
<path d="M62.5367 100.129L31.5335 108.525C29.6233 109.04 28.0805 110.366 27.2724 112.133C23.0113 121.413 9.49328 151.314 6.92192 166.559C6.92192 166.559 1.5588 185.192 13.534 192.188C16.7666 194.03 20.5134 194.619 24.1868 194.103L32.4151 192.925L25.6561 234.167C25.6561 234.167 55.19 237.997 61.0674 217.229L64.7408 199.185H101.474C101.474 199.185 98.9031 219.953 120.943 227.76L114.699 181.951L117.931 164.202L129.686 174.513C133.212 177.606 137.4 179.963 141.882 181.068C149.155 182.982 158.999 182.393 164.803 169.358C174.942 146.674 180.599 116.847 180.599 116.847L167.301 103.075L141.073 141.519L118.225 109.998C117.27 108.746 115.948 107.788 114.405 107.42L84.2831 100.129H62.5367Z" fill="#3387C9"/>
<path d="M105.074 145.128C103.898 131.871 90.1597 108.525 84.2823 100.129H62.6094C62.6094 100.129 73.7764 161.698 64.8134 199.185H101.547C101.547 199.185 105.882 154.702 105.074 145.128Z" fill="#FCFBFF"/>
<path d="M104.634 161.772C93.0994 165.455 78.9202 167.37 68.194 168.253C67.9736 179.153 67.0185 189.906 64.8145 199.185H101.548C101.548 199.185 103.605 178.049 104.634 161.772Z" fill="#B5E1FF"/>
<path d="M84.2823 100.129L83.6945 91.8803C85.0904 91.8803 86.4128 91.6594 87.7352 91.2175C97.6533 87.9034 95.082 75.7515 93.6126 69.1232C92.9514 66.1037 92.0698 62.7159 90.6739 59.6964C82.8864 62.6423 74.8784 58.4443 74.8784 58.4443C71.9397 64.7044 66.4297 65.6618 66.4297 65.6618C66.6501 70.3752 65.1073 73.2475 64.0787 74.6468C64.4461 75.8988 62.6094 100.129 62.6094 100.129C62.6094 100.129 64.8869 114.49 65.9154 123.991C68.9276 124.212 72.0132 124.359 75.2458 124.359C83.0333 124.359 90.4535 123.549 97.1391 122.149C92.6575 113.091 87.3679 104.548 84.2823 100.129Z" fill="#F7C5A8"/>
<path d="M77.524 62.7159C77.524 62.7159 86.5605 65.5882 91.189 60.8011C91.042 60.4328 90.8951 60.0646 90.7481 59.6964C82.9606 62.6423 74.9527 58.4443 74.9527 58.4443C72.014 64.7044 66.5039 65.6618 66.5039 65.6618C66.5774 66.3983 66.5039 67.1348 66.5039 67.7976C69.5895 67.9449 75.0261 67.3557 77.524 62.7159Z" fill="#F4A695"/>
<path d="M65.6223 72.0696C67.8263 74.5 67.8998 78.1087 65.7692 80.0972C63.6387 82.0857 60.0388 81.7174 57.8347 79.2871C55.6307 76.8567 55.5573 73.248 57.6878 71.2595C59.8184 69.3447 63.4183 69.6392 65.6223 72.0696Z" fill="#F7C5A8"/>
<path d="M17.0605 171.568C17.0605 171.568 19.6319 160.373 34.6927 158.459C49.7535 156.544 66.2837 157.869 72.7488 155.881L74.0713 174.661C74.0713 174.661 46.9618 191.747 32.5622 192.926L17.0605 171.568Z" fill="#3387C9"/>
<path d="M35.1328 158.31C35.1328 158.31 36.896 153.892 40.2755 139.53L39.6878 158.016L35.1328 158.31Z" fill="#96BFDF"/>
<path d="M83.6962 91.8804C83.6962 91.8804 75.5413 91.5121 70.9863 83.6318C70.9863 83.6318 71.721 93.7952 84.0635 97.2566L83.6962 91.8804Z" fill="#F4A695"/>
<path d="M59.4512 73.3213L64.8143 77.0037" stroke="#F4A695" stroke-width="1.5" stroke-miterlimit="10" stroke-linecap="round" stroke-linejoin="round"/>
<path d="M118.005 164.129C118.005 164.129 120.944 153.303 121.017 145.055C121.017 139.605 115.728 132.903 114.111 126.422" stroke="#96BFDF" stroke-width="1.5" stroke-miterlimit="10" stroke-linecap="round" stroke-linejoin="round"/>
<path d="M123 179.816H84.6504L91.6298 129.588H129.98L123 179.816Z" fill="#B5E1FF"/>
<path d="M72.8223 157.427C72.8223 157.427 78.8466 154.702 80.8302 152.198C82.8138 149.694 89.3524 146.232 89.3524 146.232L88.6912 151.682C88.6912 151.682 108.968 145.349 111.54 146.38C114.111 147.411 109.189 150.43 109.189 150.43C109.189 150.43 113.964 148.736 114.184 149.694C114.331 150.725 112.715 153.376 111.687 154.113C111.687 154.113 113.009 153.744 113.082 154.996C113.156 156.248 106.47 161.698 100.96 163.834C100.96 163.834 107.132 162.509 108.895 163.834C108.895 163.834 99.9317 168.327 96.5522 169.358C93.1727 170.389 73.9243 172.598 73.9243 172.598L72.8223 157.427Z" fill="#F7C5A8"/>
<path d="M109.115 150.356L92.5117 155.88" stroke="#F4A695" stroke-width="1.5" stroke-miterlimit="10" stroke-linecap="round" stroke-linejoin="round"/>
<path d="M111.612 154.039C111.612 154.039 100.445 158.458 94.2734 160.078" stroke="#F4A695" stroke-width="1.5" stroke-miterlimit="10" stroke-linecap="round" stroke-linejoin="round"/>
<path d="M100.887 163.834L95.377 165.381" stroke="#F4A695" stroke-width="1.5" stroke-miterlimit="10" stroke-linecap="round" stroke-linejoin="round"/>
<path d="M72.4541 175.618C72.4541 175.618 62.0952 182.173 49.8262 187.623" stroke="#96BFDF" stroke-width="1.5" stroke-miterlimit="10" stroke-linecap="round" stroke-linejoin="round"/>
<path d="M17.0605 171.568C17.0605 171.568 19.6319 160.373 34.6927 158.459C49.7535 156.544 66.2837 157.869 72.7488 155.881" stroke="#96BFDF" stroke-width="1.5" stroke-miterlimit="10" stroke-linecap="round" stroke-linejoin="round"/>
<path d="M140.999 141.52C140.999 141.52 136.003 146.159 134.02 154.04" stroke="#96BFDF" stroke-width="1.5" stroke-miterlimit="10" stroke-linecap="round" stroke-linejoin="round"/>
<path d="M72.8223 157.427L73.8508 172.525L77.3038 172.156L72.8223 157.427Z" fill="#F4A695"/>
<path d="M168.182 103.959L178.467 90.1873C178.467 90.1873 182.508 85.6948 188.091 82.9699C194.997 79.7294 203.96 73.543 203.96 73.543C203.96 73.543 206.972 75.4578 203.96 78.3301L195.805 86.284L200.875 90.04C202.858 91.4393 203.005 94.4589 201.022 95.7845C200.948 95.8582 200.801 95.9318 200.654 96.0055C200.654 96.0055 201.756 99.3196 198.45 100.866C198.45 100.866 198.524 103.223 196.173 104.254C193.822 105.285 189.708 103.665 189.708 103.665C189.708 103.665 188.826 108.599 181.626 109.999L178.467 114.491L168.182 103.959Z" fill="#F7C5A8"/>
<path d="M185.962 88.6405L200.656 87.2412C200.656 87.2412 202.052 91.2918 198.305 92.2492C194.558 93.2067 190.664 94.606 190.664 94.606C190.664 94.606 191.252 100.424 185.521 101.971L185.962 88.6405Z" fill="#F7C5A8"/>
<path d="M188.534 88.4192L200.656 87.3145C200.656 87.3145 202.052 91.3651 198.305 92.3225C194.558 93.2799 190.664 94.6792 190.664 94.6792C190.664 94.6792 191.252 100.497 185.521 102.044" stroke="#F4A695" stroke-width="1.5" stroke-miterlimit="10" stroke-linecap="round" stroke-linejoin="round"/>
<path d="M190.59 94.6797C190.59 94.6797 198.01 97.0364 200.728 96.1526" stroke="#F4A695" stroke-width="1.5" stroke-miterlimit="10" stroke-linecap="round" stroke-linejoin="round"/>
<path d="M189.781 98.8037C189.781 98.8037 194.116 101.529 198.524 101.013" stroke="#F4A695" stroke-width="1.5" stroke-miterlimit="10" stroke-linecap="round" stroke-linejoin="round"/>
<path d="M189.782 103.886C189.782 103.886 187.431 102.118 187.651 101.087" stroke="#F4A695" stroke-width="1.5" stroke-miterlimit="10" stroke-linecap="round" stroke-linejoin="round"/>
<path d="M168.182 103.959L180.965 111.397L178.541 114.638L168.182 103.959Z" fill="#F4A695"/>
<path d="M82.3725 71.1125C82.446 71.9226 82.0052 72.5855 81.4909 72.5855C80.9032 72.6591 80.4624 71.9963 80.3889 71.2598C80.3154 70.4497 80.7562 69.7869 81.2705 69.7869C81.7848 69.7132 82.299 70.376 82.3725 71.1125Z" fill="#0C1923"/>
<path d="M92.5854 70.0815C92.6589 70.8916 92.2181 71.5545 91.7038 71.5545C91.1161 71.6281 90.6753 70.9653 90.6018 70.2288C90.5283 69.4187 90.9691 68.7559 91.4834 68.7559C92.0711 68.7559 92.5854 69.345 92.5854 70.0815Z" fill="#0C1923"/>
<path d="M77.0098 67.0613C77.0098 67.0613 78.9934 64.4836 82.226 65.7356" stroke="#0C1923" stroke-width="3" stroke-miterlimit="10" stroke-linecap="round" stroke-linejoin="round"/>
<path d="M88.5449 65.0728C88.5449 65.0728 89.8673 63.3789 92.0714 63.3789" stroke="#0C1923" stroke-width="3" stroke-miterlimit="10" stroke-linecap="round" stroke-linejoin="round"/>
<path d="M85.6792 71.2591C85.6792 74.205 83.5487 76.6354 80.9773 76.6354C78.3325 76.6354 76.2754 74.205 76.2754 71.2591C76.2754 68.3132 78.4059 65.8828 80.9773 65.8828C83.6221 65.8828 85.6792 68.2395 85.6792 71.2591Z" stroke="#FCFBFF" stroke-width="1.5" stroke-miterlimit="10" stroke-linecap="round" stroke-linejoin="round"/>
<path d="M97.0668 69.8597C97.0668 72.8056 95.3036 75.2359 93.1731 75.2359C91.0425 75.2359 89.2793 72.8056 89.2793 69.8597C89.2793 66.9138 91.0425 64.4834 93.1731 64.4834C95.3771 64.4834 97.0668 66.9138 97.0668 69.8597Z" stroke="#FCFBFF" stroke-width="1.5" stroke-miterlimit="10" stroke-linecap="round" stroke-linejoin="round"/>
<path d="M85.6797 70.5222L89.2796 69.8594" stroke="#FCFBFF" stroke-width="1.5" stroke-miterlimit="10" stroke-linecap="round" stroke-linejoin="round"/>
<path d="M87.8828 71.1855C87.8828 71.1855 91.6296 75.4571 92.0705 77.5192C92.5113 79.5814 88.6909 79.2868 88.6909 79.2868" stroke="#F4A695" stroke-width="1.5" stroke-miterlimit="10" stroke-linecap="round" stroke-linejoin="round"/>
<path d="M83.6219 81.0547L89.0585 81.7912C89.0585 81.7912 88.9116 84.2215 85.8994 83.8533C82.8873 83.485 83.6219 81.0547 83.6219 81.0547Z" fill="#FCFBFF"/>
<path d="M60.1864 96.2262C64.5685 96.2262 68.1209 92.6651 68.1209 88.2723C68.1209 83.8794 64.5685 80.3184 60.1864 80.3184C55.8043 80.3184 52.252 83.8794 52.252 88.2723C52.252 92.6651 55.8043 96.2262 60.1864 96.2262Z" stroke="#FCFBFF" stroke-width="1.5" stroke-miterlimit="10" stroke-linecap="round" stroke-linejoin="round"/>
<path d="M106.25 129.588L105.662 133.565H119.254L119.768 129.588" stroke="#0C1923" stroke-width="1.5" stroke-miterlimit="10" stroke-linecap="round" stroke-linejoin="round"/>
<path d="M53.6523 25.4869L53.5031 25.3189H53.2783H29.0341C27.0339 25.3189 25.4199 23.7027 25.4199 21.6946V7.84887C25.4199 5.84078 27.0339 4.22461 29.0341 4.22461H66.5025C68.4972 4.22461 70.1211 5.83704 70.1901 7.85713V21.6946C70.1901 23.7027 68.5761 25.3189 66.5759 25.3189H60.9924H60.4924V25.8189V33.1928L53.6523 25.4869Z" fill="#FCFBFF" stroke="#BFC7CE"/>
<path d="M37.997 16.4657C39.2142 16.4657 40.201 15.4765 40.201 14.2563C40.201 13.0361 39.2142 12.0469 37.997 12.0469C36.7797 12.0469 35.793 13.0361 35.793 14.2563C35.793 15.4765 36.7797 16.4657 37.997 16.4657Z" fill="#B5E1FF"/>
<path d="M50.7069 14.2563C50.7069 15.4347 49.7518 16.4657 48.5029 16.4657C47.3274 16.4657 46.2988 15.5083 46.2988 14.2563C46.2988 13.0779 47.2539 12.0469 48.5029 12.0469C49.6783 12.0469 50.7069 13.0043 50.7069 14.2563Z" fill="#B5E1FF"/>
<path d="M60.1834 14.2563C60.1834 15.4347 59.2284 16.4657 57.9794 16.4657C56.7305 16.4657 55.7754 15.5083 55.7754 14.2563C55.7754 13.0779 56.7305 12.0469 57.9794 12.0469C59.2284 12.0469 60.1834 13.0043 60.1834 14.2563Z" fill="#B5E1FF"/>
<path d="M195.44 181.952L169.873 191.895C169.873 191.895 151.36 198.67 148.788 214.578C146.217 230.56 141.662 255.673 141.662 255.673L107.646 262.154V275.926H261.34L260.091 241.901L278.826 240.649C274.711 214.504 270.156 193.736 242.459 187.108L217.407 180.7L195.44 181.952Z" fill="#0C1923"/>
<path d="M189.93 184.235C189.93 184.235 188.755 202.5 206.387 201.616C224.019 200.732 222.991 182.1 222.991 182.1" stroke="#164770" stroke-width="1.5" stroke-miterlimit="10" stroke-linecap="round" stroke-linejoin="round"/>
<path d="M170.68 244.479L143.938 243.227C142.689 250.444 141.734 255.747 141.734 255.747L107.719 262.228V276H170.607L170.68 244.479Z" fill="#F7C5A8"/>
<path d="M143.863 243.227L170.679 244.479V250.96L143.863 243.227Z" fill="#F4A695"/>
<path d="M227.398 138.574C226.223 132.314 220.125 131.946 220.125 131.946C220.86 127.159 216.158 123.55 208.958 124.286C201.758 125.023 199.848 121.046 191.62 120.015C183.391 118.984 179.718 127.011 181.628 133.934C183.538 140.857 191.62 141.446 191.62 141.446L192.281 164.351L212.411 164.94C217.627 164.94 221.888 160.963 221.888 156.028C221.888 155.292 221.741 154.555 221.594 153.819C225.562 149.842 228.28 142.919 227.398 138.574Z" fill="#0C1923"/>
<path d="M218.214 147.412C215.79 147.412 213.733 148.885 212.851 151.02C211.088 149.4 209.472 146.602 209.398 141.814C209.398 141.814 202.566 144.76 199.994 142.256C197.349 139.605 197.496 136.144 197.496 136.144C197.496 136.144 195.072 141.225 189.268 139.605L186.917 160.889C186.917 160.889 185.007 170.39 196.174 172.452L195.072 184.383C195.072 184.383 194.337 195.209 203.741 195.577C217.48 196.166 217.48 184.383 217.48 184.383L215.496 158.311C216.304 158.68 217.186 158.974 218.141 158.974C221.3 158.974 223.945 156.397 223.945 153.156C224.018 149.989 221.447 147.412 218.214 147.412Z" fill="#F7C5A8"/>
<path d="M209.4 141.814C209.4 141.814 202.567 144.76 199.996 142.256C197.351 139.605 197.498 136.144 197.498 136.144C197.498 136.144 195.073 141.225 189.27 139.605C189.27 139.605 192.869 142.33 197.057 141.225C197.057 141.225 199.849 146.97 205.359 146.233C205.359 146.233 208.518 151.683 212.779 150.947C211.163 149.4 209.547 146.602 209.4 141.814Z" fill="#F4A695"/>
<path d="M196.321 172.526C196.321 172.526 206.239 174.072 209.986 165.014C209.986 165.014 209.178 176.797 195.807 177.828L196.321 172.526Z" fill="#F4A695"/>
<path d="M215.055 154.261L221.006 151.094" stroke="#F4A695" stroke-width="1.5" stroke-miterlimit="10" stroke-linecap="round" stroke-linejoin="round"/>
<path d="M194.705 148.442L190.811 154.776C190.297 155.586 190.664 156.617 191.546 156.912L194.705 158.09" stroke="#F4A695" stroke-width="1.5" stroke-miterlimit="10" stroke-linecap="round" stroke-linejoin="round"/>
<path d="M192.648 160.962C192.648 160.962 197.13 162.362 199.628 159.637" stroke="#F4A695" stroke-width="1.5" stroke-miterlimit="10" stroke-linecap="round" stroke-linejoin="round"/>
<path d="M190.886 148.811C191.454 148.811 191.915 148.185 191.915 147.412C191.915 146.639 191.454 146.013 190.886 146.013C190.318 146.013 189.857 146.639 189.857 147.412C189.857 148.185 190.318 148.811 190.886 148.811Z" fill="#0C1923"/>
<path d="M200.876 150.357C201.444 150.357 201.905 149.731 201.905 148.958C201.905 148.185 201.444 147.559 200.876 147.559C200.308 147.559 199.848 148.185 199.848 148.958C199.848 149.731 200.308 150.357 200.876 150.357Z" fill="#0C1923"/>
<path d="M199.334 144.465C199.334 144.465 202.42 143.582 204.33 146.38" stroke="#0C1923" stroke-width="3" stroke-miterlimit="10" stroke-linecap="round" stroke-linejoin="round"/>
<path d="M188.607 143.655C188.607 143.655 190.444 142.92 192.648 143.655" stroke="#0C1923" stroke-width="3" stroke-miterlimit="10" stroke-linecap="round" stroke-linejoin="round"/>
<path d="M170.389 275.19L170.976 226.067" stroke="#164770" stroke-width="1.5" stroke-miterlimit="10" stroke-linecap="round" stroke-linejoin="round"/>
<path d="M144.895 237.63L170.829 238.956" stroke="#164770" stroke-width="1.5" stroke-miterlimit="10" stroke-linecap="round" stroke-linejoin="round"/>
<path d="M206.609 261.124L189.197 252.433C189.197 252.433 186.479 250.592 182.805 253.391C179.132 256.189 168.332 266.426 163.483 266.868C163.483 266.868 161.647 270.919 167.377 270.919C167.377 270.919 169.728 273.644 174.21 271.655C174.21 271.655 177.148 273.865 181.336 271.287C181.336 271.287 184.054 273.128 188.462 272.024L194.34 270.182C194.34 270.182 198.601 275.338 206.609 275.927H263.252C263.252 275.927 284.337 274.454 281.619 256.779C279.341 241.975 278.754 240.576 278.754 240.576L246.942 242.786L247.971 252.36L206.609 261.124Z" fill="#F7C5A8"/>
<path d="M246.943 242.785L278.828 240.649L279.857 245.584L246.943 242.785Z" fill="#F4A695"/>
<path d="M248.045 252.36C248.045 252.36 254.877 251.255 260.094 255.232" stroke="#F4A695" stroke-width="1.5" stroke-miterlimit="10" stroke-linecap="round" stroke-linejoin="round"/>
<path d="M206.609 261.124L211.164 263.26" stroke="#F4A695" stroke-width="1.5" stroke-miterlimit="10" stroke-linecap="round" stroke-linejoin="round"/>
<path d="M194.34 270.182L198.968 268.341C198.968 268.341 203.009 273.643 208.225 272.686" stroke="#F4A695" stroke-width="1.5" stroke-miterlimit="10" stroke-linecap="round" stroke-linejoin="round"/>
<path d="M181.336 271.287L192.503 264.438" stroke="#F4A695" stroke-width="1.5" stroke-miterlimit="10" stroke-linecap="round" stroke-linejoin="round"/>
<path d="M174.283 271.656L186.92 261.492" stroke="#F4A695" stroke-width="1.5" stroke-miterlimit="10" stroke-linecap="round" stroke-linejoin="round"/>
<path d="M167.377 270.918L181.997 259.65" stroke="#F4A695" stroke-width="1.5" stroke-miterlimit="10" stroke-linecap="round" stroke-linejoin="round"/>
<path d="M246.941 242.785L244.076 223.121" stroke="#164770" stroke-width="1.5" stroke-miterlimit="10" stroke-linecap="round" stroke-linejoin="round"/>
<path d="M246.207 237.63L277.798 234.463" stroke="#164770" stroke-width="1.5" stroke-miterlimit="10" stroke-linecap="round" stroke-linejoin="round"/>
<path d="M193.897 270.108H125.426V275.927H193.897V270.108Z" fill="url(#paint6_linear_297_2943)"/>
<path d="M158.34 275.927H85.2404L70.5469 218.261H143.647L158.34 275.927Z" fill="#B5E1FF"/>
<path d="M143.647 218.261H138.504L153.197 275.927H158.34L143.647 218.261Z" fill="url(#paint7_linear_297_2943)"/>
<path d="M109.686 251.669C112.048 251.078 113.349 248.135 112.592 245.097C111.835 242.058 109.307 240.074 106.945 240.666C104.583 241.257 103.282 244.2 104.039 247.238C104.796 250.277 107.324 252.261 109.686 251.669Z" fill="#FCFBFF"/>
<path d="M344.727 167.665C344.727 167.665 324.744 171.789 311.813 157.796C298.883 143.803 318.572 123.403 318.572 123.403C318.572 123.403 308.14 113.608 313.062 104.254C313.062 104.254 317.985 97.4787 327.021 101.898C327.021 101.898 337.6 87.5363 355.159 95.6375C372.791 103.739 372.571 126.569 372.057 130.767C372.057 130.694 393.803 164.203 344.727 167.665Z" fill="#0C1923"/>
<path d="M326.14 194.104L322.834 203.826L295.284 175.25C295.284 175.25 296.606 170.316 294.109 165.161C291.684 160.005 293.227 154.114 293.227 154.114C293.227 154.114 290.656 152.862 288.966 155.218L286.321 163.467L263.62 157.501C263.179 157.354 262.738 157.28 262.297 157.28C260.754 157.207 257.522 157.354 256.934 159.784C256.934 159.784 252.746 158.385 250.395 162.067L252.746 163.099C252.746 163.099 249.073 163.467 248.191 165.897L251.057 168.107C251.057 168.107 253.04 171.715 254.803 172.894C260.607 176.797 279.929 180.774 282.648 183.867L307.627 226.435C311.226 232.548 316.002 237.998 322.981 239.029C327.683 239.692 334.736 238.44 338.262 233.579C348.034 220.175 353.103 208.539 353.103 208.539L326.14 194.104Z" fill="#F7C5A8"/>
<path d="M322.834 203.826L331.209 212.738" stroke="#F4A695" stroke-width="1.5" stroke-miterlimit="10" stroke-linecap="round" stroke-linejoin="round"/>
<path d="M346.123 204.709L342.156 228.35C342.156 228.35 350.752 213.989 353.323 208.612L346.123 204.709Z" fill="#F4A695"/>
<path d="M257.008 159.858L272.216 164.719" stroke="#F4A695" stroke-width="1.5" stroke-miterlimit="10" stroke-linecap="round" stroke-linejoin="round"/>
<path d="M252.895 163.172L269.792 168.327" stroke="#F4A695" stroke-width="1.5" stroke-miterlimit="10" stroke-linecap="round" stroke-linejoin="round"/>
<path d="M250.541 167.665L267.439 172.378" stroke="#F4A695" stroke-width="1.5" stroke-miterlimit="10" stroke-linecap="round" stroke-linejoin="round"/>
<path d="M276.256 172.378C276.256 172.378 284.705 167.812 288.084 176.06" stroke="#F4A695" stroke-width="1.5" stroke-miterlimit="10" stroke-linecap="round" stroke-linejoin="round"/>
<path d="M428.92 187.476C428.92 187.476 445.67 189.464 451.842 208.686C457.939 227.908 437.883 276 437.883 276H357.289L387.19 221.869L428.92 187.476Z" fill="#0C1923"/>
<path d="M400.634 228.35L405.189 231.664L395.639 275.926" stroke="#013F81" stroke-width="1.5" stroke-miterlimit="10" stroke-linecap="round" stroke-linejoin="round"/>
<path d="M420.324 194.546L425.393 199.554C430.83 204.93 438.471 207.508 446.038 206.55H446.185" stroke="#013F81" stroke-width="1.5" stroke-miterlimit="10" stroke-linecap="round" stroke-linejoin="round"/>
<path d="M430.535 275.926C430.535 275.926 448.682 219.88 442.07 206.697" stroke="#013F81" stroke-width="1.5" stroke-miterlimit="10" stroke-linecap="round" stroke-linejoin="round"/>
<path d="M405.19 143.288C401.737 138.943 396.888 136.586 392.7 135.334C388.733 134.156 384.619 133.787 380.505 134.082L367.868 135.113L351.118 145.35L344.946 148.664C340.244 151.168 336.571 155.366 334.881 160.448C334.367 161.921 333.926 163.615 333.485 165.529C331.281 175.987 326.139 194.105 326.139 194.105L353.322 208.687L359.713 195.578C362.358 196.093 364.562 195.872 364.562 195.872C371.395 199.923 387.19 221.87 387.19 221.87L428.92 187.476C428.92 187.476 412.536 152.568 405.19 143.288Z" fill="url(#paint8_linear_297_2943)"/>
<path d="M359.713 195.504C359.713 195.504 352.439 195.43 351.19 189.17C349.721 182.174 347.297 176.503 347.297 176.503C347.297 176.503 349.06 199.407 346.121 204.71L353.394 208.613L359.713 195.504Z" fill="#013F81"/>
<path d="M367.868 135.187L354.423 128.485C356.48 127.675 357.949 125.613 357.949 123.182C357.949 120.089 355.599 117.511 352.66 117.511C349.721 117.511 347.37 120.015 347.37 123.182C347.37 123.33 347.37 123.477 347.37 123.624C347.297 123.55 347.223 123.477 347.15 123.403C340.905 122.593 328.709 107.643 328.709 107.643C327.534 109.042 326.579 110.809 326.285 113.24L326.505 119.5L321.877 127.601H326.138C326.138 127.601 326.065 139.9 331.942 142.846C337.085 145.424 342.007 143.656 345.093 141.373L351.044 145.497C351.044 145.497 352.88 160.448 362.431 159.196C374.186 157.576 367.868 135.187 367.868 135.187Z" fill="#F7C5A8"/>
<path d="M345.313 122.814C338.774 119.942 328.709 107.643 328.709 107.643C327.681 108.895 326.799 110.441 326.432 112.503C331.427 115.744 339.142 120.605 345.313 122.814Z" fill="#F4A695"/>
<path d="M345.166 141.226C345.166 141.226 348.913 137.175 350.382 133.935C350.382 133.935 351.484 141.005 350.015 144.613L345.166 141.226Z" fill="#F4A695"/>
<path d="M350.75 125.466L354.276 120.163" stroke="#F4A695" stroke-width="1.5" stroke-miterlimit="10" stroke-linecap="round" stroke-linejoin="round"/>
<path d="M331.133 131.21L337.157 128.779C337.157 128.779 338.112 132.02 334.953 133.051C332.308 133.861 331.133 131.21 331.133 131.21Z" fill="#FCFBFF"/>
<path d="M330.398 121.488C330.966 121.488 331.426 120.862 331.426 120.089C331.426 119.316 330.966 118.689 330.398 118.689C329.83 118.689 329.369 119.316 329.369 120.089C329.369 120.862 329.83 121.488 330.398 121.488Z" fill="#0C1923"/>
<path d="M328.711 114.787C328.711 114.787 331.797 113.903 333.707 116.702" stroke="#0C1923" stroke-width="3" stroke-miterlimit="10" stroke-linecap="round" stroke-linejoin="round"/>
<path d="M381.459 190.422L381.826 200.733L350.382 240.355L328.856 249.045C327.24 249.708 325.844 250.887 324.962 252.359L314.604 269.814C314.604 269.814 317.983 271.655 321.216 268.93L319.893 271.581C319.893 271.581 324.742 272.76 327.166 270.182L326.064 272.318C326.064 272.318 328.415 273.423 332.162 272.613C332.162 272.613 336.644 272.613 338.407 270.845C341.272 267.973 345.607 261.639 345.607 261.639C345.607 261.639 352.66 262.302 355.745 257.883L358.757 253.464L398.356 227.393C404.381 223.416 408.274 216.788 408.715 209.57L409.964 190.496H381.459V190.422Z" fill="#F7C5A8"/>
<path d="M321.215 268.856L328.929 255.452" stroke="#F4A695" stroke-width="1.5" stroke-miterlimit="10" stroke-linecap="round" stroke-linejoin="round"/>
<path d="M327.166 270.108L334.072 257.146" stroke="#F4A695" stroke-width="1.5" stroke-miterlimit="10" stroke-linecap="round" stroke-linejoin="round"/>
<path d="M332.09 272.539L338.849 259.65" stroke="#F4A695" stroke-width="1.5" stroke-miterlimit="10" stroke-linecap="round" stroke-linejoin="round"/>
<path d="M381.459 190.422H409.891L409.523 195.651L381.459 190.422Z" fill="#F4A695"/>
<path d="M350.382 270.108H281.91V275.927H350.382V270.108Z" fill="url(#paint9_linear_297_2943)"/>
<path d="M314.825 275.927H241.725L227.031 218.261H300.131L314.825 275.927Z" fill="#B5E1FF"/>
<path d="M300.131 218.261H294.988L309.682 275.927H314.824L300.131 218.261Z" fill="url(#paint10_linear_297_2943)"/>
<path d="M266.17 251.664C268.532 251.073 269.833 248.131 269.076 245.092C268.319 242.053 265.791 240.069 263.429 240.661C261.067 241.252 259.766 244.195 260.523 247.233C261.28 250.272 263.808 252.256 266.17 251.664Z" fill="#FCFBFF"/>
<path d="M381.459 190.422L379.77 156.176" stroke="#013F81" stroke-width="1.5" stroke-miterlimit="10" stroke-linecap="round" stroke-linejoin="round"/>
<path d="M409.893 190.422V170.021" stroke="#013F81" stroke-width="1.5" stroke-miterlimit="10" stroke-linecap="round" stroke-linejoin="round"/>
<path d="M2 275.927H455" stroke="#B5E1FF" stroke-width="3" stroke-miterlimit="10" stroke-linecap="round" stroke-linejoin="round"/>
<defs>
<linearGradient id="paint0_linear_297_2943" x1="218.721" y1="73.6161" x2="240.545" y2="73.7781" gradientUnits="userSpaceOnUse">
<stop stop-color="#15466F"/>
<stop offset="1" stop-color="#3387CA"/>
</linearGradient>
<linearGradient id="paint1_linear_297_2943" x1="308.204" y1="54.3202" x2="330.028" y2="54.4295" gradientUnits="userSpaceOnUse">
<stop stop-color="#15466F"/>
<stop offset="1" stop-color="#3387CA"/>
</linearGradient>
<linearGradient id="paint2_linear_297_2943" x1="218.506" y1="113.533" x2="251.505" y2="166.701" gradientUnits="userSpaceOnUse">
<stop stop-color="#15466F"/>
<stop offset="1" stop-color="#3387CA"/>
</linearGradient>
<linearGradient id="paint3_linear_297_2943" x1="156.601" y1="82.6016" x2="169.667" y2="83.2082" gradientUnits="userSpaceOnUse">
<stop stop-color="#15466F"/>
<stop offset="1" stop-color="#3387CA"/>
</linearGradient>
<linearGradient id="paint4_linear_297_2943" x1="156.601" y1="101.896" x2="169.667" y2="102.503" gradientUnits="userSpaceOnUse">
<stop stop-color="#15466F"/>
<stop offset="1" stop-color="#3387CA"/>
</linearGradient>
<linearGradient id="paint5_linear_297_2943" x1="156.601" y1="121.192" x2="169.667" y2="121.799" gradientUnits="userSpaceOnUse">
<stop stop-color="#15466F"/>
<stop offset="1" stop-color="#3387CA"/>
</linearGradient>
<linearGradient id="paint6_linear_297_2943" x1="130.462" y1="270.108" x2="191.742" y2="279.059" gradientUnits="userSpaceOnUse">
<stop stop-color="#15466F"/>
<stop offset="1" stop-color="#3387CA"/>
</linearGradient>
<linearGradient id="paint7_linear_297_2943" x1="139.963" y1="218.261" x2="158.094" y2="218.338" gradientUnits="userSpaceOnUse">
<stop stop-color="#15466F"/>
<stop offset="1" stop-color="#3387CA"/>
</linearGradient>
<linearGradient id="paint8_linear_297_2943" x1="333.699" y1="133.985" x2="427.627" y2="135.349" gradientUnits="userSpaceOnUse">
<stop stop-color="#15466F"/>
<stop offset="1" stop-color="#3387CA"/>
</linearGradient>
<linearGradient id="paint9_linear_297_2943" x1="286.946" y1="270.108" x2="348.227" y2="279.059" gradientUnits="userSpaceOnUse">
<stop stop-color="#15466F"/>
<stop offset="1" stop-color="#3387CA"/>
</linearGradient>
<linearGradient id="paint10_linear_297_2943" x1="296.447" y1="218.261" x2="314.579" y2="218.338" gradientUnits="userSpaceOnUse">
<stop stop-color="#15466F"/>
<stop offset="1" stop-color="#3387CA"/>
</linearGradient>
</defs>
</svg>
