<svg width="358" height="199" viewBox="0 0 358 199" fill="none" xmlns="http://www.w3.org/2000/svg">
<rect width="358" height="199" fill="#F2F7FC"/>
<g clip-path="url(#clip0_352_65170)">
<rect width="358" height="199" fill="#F2F7FC"/>
<path d="M133.174 84.6388L125.295 76.895L117.578 69.2865C117.199 68.8398 117.132 68.393 117.253 67.9327C117.646 66.5112 120.056 65.1033 121.464 63.9254L121.599 63.8036C123.454 62.2467 126.243 62.4769 127.8 64.3316L137.249 75.5276L140.052 78.8445C141.609 80.6992 141.378 83.4881 139.524 85.045L139.388 85.1668C137.52 86.7237 134.731 86.4936 133.174 84.6388Z" fill="#F4A695"/>
<path d="M135.464 34.7641C135.37 35.7524 134.259 37.3364 132.256 37.5801C122.129 38.785 115.82 35.5899 115.536 35.5899C107.833 35.6306 102.391 32.8282 100.739 34.2768C100.685 34.3309 100.698 34.4392 100.78 34.6017C102.296 37.5259 125.649 57.0073 125.988 59.1599C126.353 61.4478 82.5436 72.1701 82.5436 72.1701C82.5436 72.1701 76.0724 68.1357 68.8294 62.8423C65.1606 60.1617 61.2887 57.1562 57.9583 54.1914C54.6008 51.1995 51.7984 48.2481 50.2957 45.703C50.2957 45.703 50.2957 45.6894 50.2821 45.6894C50.052 45.3104 49.8625 44.9313 49.7 44.5658C49.6729 44.5116 49.6458 44.4575 49.6323 44.4033C48.4545 41.6551 46.4644 39.2317 44.19 37.1604C38.3144 31.8128 30.5977 28.875 30.5977 28.875L62.7508 11.7222C62.7508 11.7222 92.2911 15.1879 97.0159 18.058C103.907 22.2413 118.325 25.3009 121.1 26.9255C123.158 28.1304 134.016 32.0294 134.801 32.3679C135.139 32.5303 135.586 33.5322 135.464 34.7641Z" fill="#F7C5A8"/>
<path d="M52.569 6.80816C52.569 6.80816 52.5554 6.87585 52.5419 6.99769C52.4065 7.9589 51.7431 12.5077 50.2539 17.6928C50.1998 17.8824 50.1457 18.0719 50.078 18.275C50.0509 18.3562 50.0238 18.451 49.9967 18.5322C48.142 24.6785 45.123 31.4882 40.4523 34.2365C40.1816 34.3989 39.9108 34.5343 39.64 34.6697C38.9902 34.9675 38.3133 35.1977 37.6093 35.3331C37.0949 35.4414 36.5533 35.482 35.9983 35.482C35.9983 35.482 31.9097 34.9946 25.7905 34.25C25.452 34.2094 25.1136 34.1688 24.7616 34.1282C13.7009 32.7744 -3.20826 30.6895 -15 29.1055C-15 28.8212 -15 28.5369 -14.9865 28.2661C-13.8899 7.32261 -0.229863 -6.21556 17.803 -14C27.3745 -8.27336 36.3503 -2.89871 42.7809 0.959669C42.7809 0.959669 42.7944 0.95967 42.7944 0.973208C43.2006 1.21689 43.6067 1.46058 43.9993 1.69073L44.0264 1.70427C49.3198 4.84512 52.569 6.80816 52.569 6.80816Z" fill="url(#paint0_linear_352_65170)"/>
<path d="M55.0877 31.109C55.1012 31.1361 55.1147 31.1632 55.1283 31.1903C58.1473 50.2926 69.2486 47.1518 69.2486 47.1518L68.8289 62.856C65.1601 60.1755 61.2881 57.17 57.9578 54.2052C54.6003 51.2132 51.7979 48.2619 50.2952 45.7167C50.2952 45.7167 50.2952 45.7032 50.2816 45.7032C50.0244 45.2293 49.8213 44.8503 49.6995 44.5795C49.6724 44.5254 49.6453 44.4712 49.6318 44.4171C48.454 41.6688 46.4639 39.2455 44.1895 37.1741C45.3673 35.157 46.7482 32.869 48.1155 30.6217C49.7672 27.887 53.8422 28.1577 55.0877 31.109Z" fill="#F4A695"/>
<path d="M42.8196 0.932617C42.8196 0.932617 32.4358 9.90842 28.1713 16.2172L31.2715 21.5919L26.0052 21.0909C26.0052 21.0909 23.3246 30.8249 24.7732 34.1147L39.1372 35.4685L55.7079 8.96075L42.8196 0.932617Z" fill="url(#paint1_linear_352_65170)"/>
<path d="M25.721 36.3211C25.3013 32.4221 29.0785 24.4346 29.0785 24.4346L41.8179 26.9798L32.0027 16.6366C34.223 12.0472 39.53 5.06148 42.8197 0.918806C44.4579 -1.13899 45.5951 -2.50635 45.5951 -2.50635C55.0312 4.66888 63.8174 11.817 63.8174 11.817C59.9726 13.3062 56.3579 17.3541 53.366 21.8353C48.3839 29.2813 45.0671 37.8915 45.0671 37.8915C37.418 37.174 25.721 36.3211 25.721 36.3211Z" fill="#DCEAFF"/>
<path d="M25.721 36.3212C25.3013 32.4223 29.0785 24.4347 29.0785 24.4347L41.8179 26.9799L32.0027 16.6368C34.223 12.0473 39.53 5.06162 42.8197 0.918945C42.9822 12.3452 53.3524 21.8354 53.3524 21.8354C48.3704 29.2814 45.0535 37.8917 45.0535 37.8917C37.418 37.1741 25.721 36.3212 25.721 36.3212Z" fill="#CBE1FD"/>
<path d="M39.8838 11.1268C40.7367 11.2215 41.3595 11.9797 41.2783 12.8326C41.1835 13.6855 40.4254 14.3082 39.5725 14.227C38.7196 14.1322 38.0968 13.3741 38.178 12.5212C38.2593 11.6683 39.0309 11.0455 39.8838 11.1268Z" fill="url(#paint2_linear_352_65170)"/>
<path d="M149.996 21.2013L58.334 47.3481L70.3435 89.4493L162.005 63.3024L149.996 21.2013Z" fill="#B5E1FF"/>
<path d="M157.058 27.4312L63.3184 44.7227L71.2605 87.7783L165 70.4868L157.058 27.4312Z" fill="#E1F3FF"/>
<path d="M159.992 63.8852L155.998 42.1971V42.1836L154.035 31.502L153.006 31.6915L135.447 34.9271L135.244 34.9677L122.099 37.3911L120.42 37.7024L106.299 40.3153L69.2455 47.1385H69.232H69.2049L68.5822 47.2604H68.5686H68.5551L67.6074 47.4364L69.0289 55.1667L70.6941 64.1966L74.2953 83.7051L94.5484 79.9686L95.4554 79.8061L98.8129 79.1834L99.5575 79.048L100.546 78.872L101.439 78.7095L103.159 78.3981L107.355 77.6265L108.547 77.4099L110.198 77.112L111.634 76.8413L120.041 75.2844L121.747 74.973L123.087 74.7293L134.73 72.5767L145.195 70.6543L149.012 69.9503L160.682 67.7978L159.992 63.8852ZM154.78 67.2833L135.84 70.7762L133.579 71.1958L121.733 73.3755L120.636 73.5786L112.283 75.1219L109.643 75.6093L107.951 75.9207L106.733 76.1508L102.78 76.8819L101.141 77.1797L100.153 77.3693L99.2055 77.5452L98.4473 77.6806L95.1034 78.3034L94.1558 78.4794L79.6564 81.1464C77.3955 81.5661 75.2159 80.0633 74.7962 77.8025L72.5353 65.5098L70.1932 52.811C69.7735 50.5501 71.2763 48.3705 73.5371 47.9508L107.748 41.642L123.764 38.6907L128.326 37.8513L134.066 36.7954L134.256 36.7548L148.674 34.1013C150.935 33.6816 153.114 35.1843 153.534 37.4452L158.137 62.4231C158.273 63.1271 158.218 63.8175 158.002 64.4538C157.541 65.8618 156.337 66.9855 154.78 67.2833Z" fill="#B5E1FF"/>
<path d="M115.913 68.2848C109.929 69.2731 104.283 65.2252 103.295 59.2549C102.307 53.271 106.355 47.6256 112.339 46.6373C118.322 45.649 123.968 49.6969 124.956 55.6673C125.944 61.6376 121.896 67.2965 115.913 68.2848Z" fill="#B5E1FF"/>
<path d="M93.0443 65.7526C90.8376 66.1182 88.7527 64.629 88.3872 62.4223C88.0217 60.2155 89.5109 58.1307 91.7176 57.7651C93.9243 57.3996 96.0092 58.8888 96.3747 61.0955C96.7402 63.3022 95.2511 65.3871 93.0443 65.7526Z" fill="#B5E1FF"/>
<path d="M136.623 57.7111C134.417 58.0767 132.332 56.5875 131.966 54.3808C131.601 52.174 133.09 50.0892 135.297 49.7236C137.503 49.3581 139.588 50.8473 139.954 53.054C140.333 55.2607 138.83 57.3456 136.623 57.7111Z" fill="#B5E1FF"/>
<path d="M104.071 85.776L103.719 84.8419L101.39 78.5872C101.336 78.4383 101.295 78.2894 101.255 78.1405C100.727 76.0691 101.85 73.8759 103.895 73.1178L104.138 73.023C106.332 72.2107 108.795 73.3344 109.608 75.5276L111.774 81.3625L111.936 81.7822L112.288 82.7164C113.101 84.9095 111.977 87.3735 109.784 88.1858L109.54 88.2805C107.347 89.0928 104.883 87.9692 104.071 85.776Z" fill="#F4A695"/>
<path d="M103.964 80.7128C103.571 79.6704 102.894 77.775 102.759 76.7597C102.718 76.4754 102.881 75.9474 103.422 75.46C103.747 75.1622 104.207 74.8914 104.844 74.6883C105.142 74.5936 105.439 74.5123 105.751 74.4852C106.116 74.4446 106.468 74.4582 106.82 74.5259C107.145 74.58 107.43 74.8102 107.578 75.1215C108.079 76.2046 108.689 77.6532 109.027 78.9258C109.257 79.8057 108.865 80.6857 108.093 80.9565L107.727 81.0783L105.886 81.7282C105.155 82.026 104.275 81.5657 103.964 80.7128Z" fill="#FFD3B6"/>
<path d="M103.964 80.7126C103.571 79.6702 102.894 77.7748 102.759 76.7595C102.718 76.4752 102.881 75.9472 103.422 75.4598C103.544 75.4056 103.679 75.365 103.815 75.3109C104.113 75.2161 104.411 75.1349 104.722 75.1078C105.087 75.0672 105.439 75.0807 105.791 75.1484C106.116 75.2026 106.401 75.4327 106.55 75.7441C107.05 76.8272 107.66 78.2757 107.998 79.5483C108.147 80.1169 108.039 80.672 107.741 81.0781L105.9 81.728C105.155 82.0258 104.275 81.5655 103.964 80.7126Z" fill="#F4A695"/>
<path d="M95.3115 82.8789L94.0389 78.0593C93.6463 76.5972 94.5398 75.0809 96.0019 74.6883L96.5435 74.5394C98.0056 74.1468 99.5219 75.0403 99.9145 76.5024L101.187 81.322C101.58 82.7841 100.686 84.3004 99.224 84.693L98.6825 84.8419C97.2204 85.221 95.7041 84.341 95.3115 82.8789Z" fill="#F4A695"/>
<path d="M95.569 80.2799C95.3389 79.3999 94.9327 77.7889 94.8921 76.9495C94.8786 76.6381 95.1358 76.0424 95.9481 75.6498C96.1376 75.5551 96.3678 75.4738 96.625 75.4062C96.8551 75.352 97.0988 75.3114 97.329 75.2979C97.6133 75.2979 97.884 75.3385 98.1548 75.4062C98.3985 75.4738 98.6016 75.6769 98.6963 75.9612C99.0077 76.8818 99.3868 78.1138 99.5628 79.1833C99.6846 79.9144 99.3326 80.6183 98.7234 80.7808L98.2902 80.9026L96.9905 81.2682C96.3948 81.4442 95.7585 80.9974 95.569 80.2799Z" fill="#FFD3B6"/>
<path d="M95.569 80.2795C95.3389 79.3995 94.9327 77.7885 94.8921 76.9491C94.8786 76.6377 95.1358 76.0421 95.9481 75.6495C96.1647 75.5953 96.3948 75.5547 96.6114 75.5547C96.8957 75.5547 97.1665 75.5953 97.4373 75.663C97.681 75.7307 97.884 75.9338 97.9788 76.2181C98.2902 77.1387 98.6692 78.3706 98.8452 79.4401C98.9535 80.0494 98.7234 80.6315 98.2902 80.9158L96.9905 81.2813C96.3948 81.4438 95.7585 80.997 95.569 80.2795Z" fill="#F4A695"/>
<path d="M113.29 85.6951C113.276 85.6545 113.262 85.6274 113.249 85.5868L111.678 79.2645C110.988 76.4891 112.504 73.619 115.063 72.915L116.376 72.5495C118.827 71.8591 121.372 73.4024 122.184 75.9882L122.699 78.0731L123.755 82.3105C124.445 85.0859 122.929 87.9559 120.37 88.6599L119.057 89.0255C116.647 89.7024 114.142 88.2267 113.29 85.6951Z" fill="#F4A695"/>
<path d="M115.075 82.825L113.721 79.7519V79.7383C113.694 79.6165 113.667 79.4947 113.653 79.3728C113.64 79.3187 113.64 79.2645 113.64 79.2239C113.64 79.1968 113.64 79.1833 113.64 79.1562C113.653 78.8178 114.019 78.5876 114.33 78.7365C114.953 79.0344 115.684 79.1156 116.401 78.9261L116.672 78.8584C116.672 78.8584 116.672 78.8584 116.686 78.8584L117.552 78.6282C118.243 78.4387 118.825 78.0461 119.258 77.5316C119.312 77.4639 119.353 77.4098 119.407 77.3421C119.827 76.7329 120.774 76.8953 120.977 77.6129C120.977 77.6264 120.977 77.6264 120.977 77.6264L121.465 80.9974C121.681 81.8368 121.031 82.622 120.206 82.8521L119.217 83.1093L117.092 83.6644C116.239 83.8539 115.291 83.6509 115.075 82.825Z" fill="#FFD3B6"/>
<path d="M115.076 82.825L113.722 79.7519V79.7383C113.708 79.6706 113.668 79.4405 113.627 79.1426C113.64 78.8042 114.006 78.574 114.317 78.723C114.94 79.0208 115.671 79.102 116.389 78.9125L116.659 78.8448C116.659 78.8448 116.66 78.8448 116.673 78.8448L117.539 78.6147C118.23 78.4251 118.812 78.0325 119.245 77.5181C119.408 77.6264 119.53 77.7888 119.584 78.0054V78.019L120.071 81.39C120.261 82.094 119.827 82.7709 119.191 83.0958L117.066 83.6509C116.24 83.8539 115.292 83.6509 115.076 82.825Z" fill="#F4A695"/>
<path d="M93.8338 27.2909C93.8338 27.2909 92.2904 15.1878 97.0152 18.0579C103.906 22.2412 118.324 25.3008 121.1 26.9254C123.157 28.1303 134.015 32.0293 134.8 32.3677C135.139 32.5167 135.802 33.8569 135.166 35.1566C134.733 36.0501 133.65 37.6882 131.768 38.4193C125.026 41.0457 115.833 35.5763 115.549 35.5763C107.846 35.6169 100.373 34.7505 98.1931 35.0618C97.4214 35.1837 93.8338 27.2909 93.8338 27.2909Z" fill="#F4A695"/>
<path d="M135.6 32.5707L127.978 29.7954C127.978 29.7954 127.233 31.3117 127.599 32.2594C127.965 33.2206 135.031 34.8993 135.6 32.5707Z" fill="#F4A695"/>
<g opacity="0.5">
<path opacity="0.5" d="M198.961 127.921C198.961 127.921 196.082 103.804 183.722 89.4092C182.079 87.495 178.944 88.7159 178.989 91.2331C178.989 91.2783 178.989 91.3235 178.989 91.3537C179.155 95.6646 192.977 113.813 198.961 127.921Z" fill="#3387CA" fill-opacity="0.5"/>
<path opacity="0.5" d="M200.455 134.825C200.455 134.825 188.14 104.678 167.113 91.3538C165.832 90.5398 164.098 90.8413 163.239 92.0924C162.681 92.9063 162.425 94.1875 163.058 96.1621C164.731 101.453 188.185 119.299 200.455 134.825Z" fill="#3387CA" fill-opacity="0.5"/>
</g>
<path opacity="0.5" d="M135.155 144.109C136.361 131.553 157.267 131.855 157.267 131.855C157.267 131.855 174.602 150.53 178.686 150.35C182.771 150.169 166.99 131.493 166.99 131.493C174.617 129.428 196.005 135.563 196.005 135.563C196.005 135.563 198.929 160.298 202.848 159.122C206.767 157.946 199.14 137.357 199.14 137.357C207.024 138.336 215.525 145.903 215.525 145.903C226.709 158.67 209.722 172.371 209.722 172.371C209.722 172.371 210.913 180.918 217.831 189.781C217.831 189.781 219.323 191.379 221.057 194.242L219.007 194.589C218.751 194.062 218.479 193.564 218.178 193.097C218.178 193.097 218.178 193.097 218.178 193.082L218.163 193.067C217.967 192.78 217.695 192.358 217.349 191.846C216.52 190.73 215.932 189.901 215.555 189.283C213.023 185.756 209.481 181.219 207.506 180.466C207.506 180.466 207.672 180.104 207.777 179.456C207.687 179.772 207.596 180.119 207.506 180.466C205.275 188.575 187.971 192.795 177.872 192.449C167.773 192.102 171.557 188.635 176.049 183.269C180.54 177.903 191.755 177.21 194.709 174.904C197.663 172.597 192.614 171.663 186.193 173.261C179.772 174.873 177.631 181.928 167.291 184.716C156.951 187.505 145.586 169.101 145.586 169.101C153.228 170.125 165.558 163.9 165.633 161.308C165.708 158.715 146.49 162.242 143.355 162.001C140.22 161.79 133.934 156.68 135.155 144.109Z" fill="#3387CA" fill-opacity="0.5"/>
<path opacity="0.5" d="M337.482 141.547C337.678 132.262 322.379 130.679 322.379 130.679C322.379 130.679 308.09 142.828 305.12 142.345C302.151 141.863 315.31 129.579 315.31 129.579C309.914 127.408 293.755 130.046 293.755 130.046C293.755 130.046 289.49 147.862 286.731 146.671C283.973 145.466 291.313 131.086 291.313 131.086C285.465 131.116 278.607 135.909 278.607 135.909C269.337 144.275 280.551 155.76 280.551 155.76C280.551 155.76 278.938 161.91 273.12 167.789C273.12 167.789 271.884 168.829 270.377 170.773L271.839 171.21C272.08 170.849 272.321 170.517 272.578 170.185C272.578 170.185 272.578 170.17 272.593 170.17C272.759 169.974 273 169.688 273.301 169.356C274.01 168.618 274.507 168.06 274.824 167.638C276.979 165.287 279.963 162.272 281.471 161.895C281.471 161.895 281.38 161.624 281.35 161.126C281.38 161.368 281.426 161.624 281.471 161.895C282.39 168.015 294.675 172.597 302.091 173.215C309.507 173.833 307.035 170.969 304.216 166.658C301.397 162.347 293.258 160.87 291.298 158.941C289.339 156.996 293.107 156.755 297.659 158.474C302.211 160.207 303.176 165.543 310.486 168.482C317.797 171.406 327.7 158.941 327.7 158.941C322.032 159.031 313.561 153.424 313.727 151.525C313.893 149.626 327.64 153.861 329.946 153.967C332.252 154.027 337.286 150.832 337.482 141.547Z" fill="#3387CA" fill-opacity="0.5"/>
<path d="M186.705 140.099V151.856C186.705 154.102 184.776 155.941 182.424 155.941H173.622C171.27 155.941 169.341 154.102 169.341 151.856V140.099C169.341 137.853 171.27 136.014 173.622 136.014H182.424C184.776 135.999 186.705 137.838 186.705 140.099Z" fill="#F4A695"/>
<path d="M186.705 140.099V146.641C186.705 148.887 184.776 150.726 182.424 150.726H173.622C171.27 150.726 169.341 148.887 169.341 146.641V140.099C169.341 137.853 171.27 136.014 173.622 136.014H182.424C184.776 135.999 186.705 137.838 186.705 140.099Z" fill="#F7C5A8"/>
<path d="M284.228 145.963C284.228 151.977 282.947 157.72 280.626 162.935C273.662 178.611 257.383 189.69 238.512 189.69H225.443C224.659 189.69 223.876 189.675 223.107 189.63C213.535 189.162 204.703 185.846 197.558 180.541C192.976 177.149 189.072 172.944 186.102 168.166C182.063 161.654 179.727 154.057 179.727 145.963C179.727 139.949 181.008 134.221 183.329 128.991C190.293 113.315 206.572 102.251 225.428 102.251H238.497C255.65 102.251 270.662 111.4 278.485 124.861C282.148 131.116 284.228 138.321 284.228 145.963Z" fill="#F4A695"/>
<path d="M246.259 171.135L241.994 197.618C241.421 199.668 243.049 201.673 245.264 201.673H256.464C258.86 201.673 261.061 200.392 262.161 198.342L279.571 165.121L246.259 171.135Z" fill="#F4A695"/>
<path d="M220.893 201.672H209.679C207.282 201.672 205.082 200.391 203.981 198.341L193.204 180.148L186.104 168.165L220.727 171.572L221.978 181.098L223.094 189.629L224.149 197.603C224.722 199.668 223.109 201.672 220.893 201.672Z" fill="#F4A695"/>
<path d="M277.355 140.913C268.13 166.297 259.403 179.862 224.026 181.038C223.333 181.068 222.67 181.083 221.991 181.098C211.893 181.37 203.693 181.023 197.558 180.541C195.96 180.42 194.513 180.284 193.202 180.149L186.102 168.166C182.063 161.654 179.727 154.057 179.727 145.963C179.727 139.949 181.008 134.221 183.329 128.991C190.293 113.315 206.572 102.251 225.428 102.251H238.497C255.65 102.251 270.662 111.4 278.485 124.861C279.586 129.895 278.742 137.1 277.355 140.913Z" fill="#F7C5A8"/>
<path d="M220.063 113.194H202.081C200.272 113.194 198.795 112.139 198.795 110.843V87.3587C198.795 86.9517 198.931 86.59 199.157 86.2734C200.031 85.0525 202.352 84.5551 204.071 85.4746C210.899 89.1825 222.083 97.2165 223.334 110.677C223.47 112.048 221.962 113.194 220.063 113.194Z" fill="#F7C5A8"/>
<path d="M202.804 113.194H202.065C200.256 113.194 198.779 112.139 198.779 110.843V87.3587C198.779 86.9517 198.915 86.59 199.141 86.2734C199.216 86.3337 199.292 86.4091 199.367 86.4845C203.271 90.6446 208.908 98.8142 207.311 110.255C207.1 111.928 205.14 113.194 202.804 113.194Z" fill="#F4A695"/>
<path d="M193.339 128.9C193.339 127.483 194.545 126.338 196.022 126.338C197.499 126.338 198.705 127.483 198.705 128.9C198.705 130.317 197.499 131.463 196.022 131.463C194.545 131.463 193.339 130.317 193.339 128.9Z" fill="white"/>
<path d="M252.877 192.63V195.373C252.877 195.584 252.952 195.795 253.088 195.961C253.224 196.142 253.435 196.278 253.676 196.353C253.751 196.383 253.827 196.398 253.902 196.413C253.977 196.428 254.053 196.428 254.128 196.428H306.07C306.733 196.428 307.291 195.976 307.321 195.433C307.321 195.418 307.321 195.403 307.321 195.373V192.63C307.321 192.615 307.321 192.6 307.321 192.57C307.291 192.012 306.733 191.575 306.07 191.575H254.128C254.098 191.575 254.068 191.575 254.023 191.575C254.007 191.575 253.992 191.575 253.977 191.575C253.962 191.575 253.947 191.575 253.932 191.575C253.917 191.575 253.917 191.575 253.902 191.575C253.827 191.59 253.751 191.605 253.676 191.635C253.661 191.635 253.661 191.635 253.646 191.65C253.631 191.65 253.631 191.665 253.616 191.665C253.6 191.68 253.57 191.68 253.555 191.695C253.54 191.695 253.525 191.71 253.525 191.71C253.51 191.71 253.51 191.725 253.495 191.725C253.48 191.741 253.45 191.741 253.435 191.756C253.42 191.771 253.389 191.786 253.374 191.801C253.359 191.816 253.344 191.816 253.329 191.831C253.314 191.846 253.314 191.846 253.299 191.861C253.269 191.891 253.239 191.906 253.209 191.936C253.193 191.952 253.193 191.952 253.178 191.967C253.163 191.982 253.163 191.982 253.148 191.997C253.133 192.012 253.118 192.027 253.103 192.057C252.952 192.208 252.877 192.419 252.877 192.63Z" fill="#B5E1FF"/>
<path d="M252 197.055V199.798C252 200.009 252.075 200.22 252.211 200.386C252.347 200.567 252.558 200.703 252.799 200.778C252.874 200.808 252.95 200.823 253.025 200.838C253.1 200.854 253.176 200.854 253.251 200.854H305.193C305.856 200.854 306.414 200.401 306.444 199.859C306.444 199.844 306.444 199.829 306.444 199.798V197.055C306.444 197.04 306.444 197.025 306.444 196.995C306.414 196.437 305.856 196 305.193 196H253.251C253.221 196 253.191 196 253.146 196C253.13 196 253.115 196 253.1 196C253.085 196 253.07 196 253.055 196C253.04 196 253.04 196 253.025 196C252.95 196.015 252.874 196.03 252.799 196.06C252.784 196.06 252.784 196.06 252.769 196.075C252.754 196.075 252.754 196.09 252.739 196.09C252.724 196.106 252.693 196.106 252.678 196.121C252.663 196.121 252.648 196.136 252.648 196.136C252.633 196.136 252.633 196.151 252.618 196.151C252.603 196.166 252.573 196.166 252.558 196.181C252.543 196.196 252.512 196.211 252.497 196.226C252.482 196.241 252.467 196.241 252.452 196.256C252.437 196.271 252.437 196.271 252.422 196.286C252.392 196.317 252.362 196.332 252.332 196.362C252.317 196.377 252.317 196.377 252.301 196.392C252.286 196.407 252.286 196.407 252.271 196.422C252.256 196.437 252.241 196.452 252.226 196.482C252.075 196.633 252 196.844 252 197.055Z" fill="#B5E1FF"/>
<path d="M278.38 196.428H306.205C306.808 196.428 307.29 195.976 307.32 195.433C307.32 195.418 307.32 195.403 307.32 195.373V192.63C307.32 192.615 307.32 192.6 307.32 192.57C307.29 192.012 306.793 191.575 306.205 191.575H281.801C281.786 191.62 281.786 191.65 281.771 191.695C281.349 193.112 280.445 195.026 278.38 196.428Z" fill="#7DC8FC"/>
<path d="M259.198 196.431H259.786V191.577H259.198V196.431Z" fill="url(#paint3_linear_352_65170)"/>
<path d="M261.19 196.431H261.777V191.577H261.19V196.431Z" fill="url(#paint4_linear_352_65170)"/>
<path d="M263.586 196.431H264.174V191.577H263.586V196.431Z" fill="url(#paint5_linear_352_65170)"/>
<path d="M267.269 196.431H267.856V191.577H267.269V196.431Z" fill="url(#paint6_linear_352_65170)"/>
<path d="M271.151 196.431H271.739V191.577H271.151V196.431Z" fill="url(#paint7_linear_352_65170)"/>
<path d="M277.104 196.431H277.691V191.577H277.104V196.431Z" fill="url(#paint8_linear_352_65170)"/>
<path d="M282.681 196.431H283.269V191.577H282.681V196.431Z" fill="url(#paint9_linear_352_65170)"/>
<path d="M287.66 196.431H288.248V191.577H287.66V196.431Z" fill="url(#paint10_linear_352_65170)"/>
<path d="M257.29 196.431H257.878V191.577H257.29V196.431Z" fill="url(#paint11_linear_352_65170)"/>
<path d="M256.03 196.431H256.618V191.577H256.03V196.431Z" fill="url(#paint12_linear_352_65170)"/>
<path d="M254.823 196.431H255.411V191.577H254.823V196.431Z" fill="url(#paint13_linear_352_65170)"/>
<path d="M253.898 191.59V196.398C253.974 196.413 254.049 196.413 254.125 196.413H254.486V191.56H254.125C254.049 191.575 253.974 191.59 253.898 191.59Z" fill="url(#paint14_linear_352_65170)"/>
<path d="M253.086 192.042V195.961C253.237 196.142 253.433 196.278 253.674 196.353V191.65C253.433 191.726 253.237 191.861 253.086 192.042Z" fill="url(#paint15_linear_352_65170)"/>
<path d="M250.192 187.896V190.64C250.192 190.851 250.268 191.062 250.403 191.228C250.539 191.408 250.75 191.544 250.991 191.619C251.067 191.65 251.142 191.665 251.217 191.68C251.293 191.695 251.368 191.695 251.443 191.695H303.385C303.596 191.695 303.792 191.65 303.958 191.574C304.32 191.408 304.591 191.107 304.636 190.745C304.636 190.73 304.636 190.715 304.636 190.7C304.636 190.685 304.636 190.67 304.636 190.64V187.896C304.636 187.881 304.636 187.866 304.636 187.836C304.606 187.278 304.049 186.841 303.385 186.841H251.443C251.368 186.841 251.293 186.841 251.217 186.856C251.142 186.871 251.067 186.887 250.991 186.917C250.75 186.992 250.539 187.128 250.403 187.309C250.268 187.489 250.192 187.685 250.192 187.896Z" fill="#B5E1FF"/>
<path d="M275.697 191.695H303.522C303.703 191.695 303.884 191.65 304.035 191.574C304.366 191.408 304.592 191.107 304.638 190.745C304.638 190.73 304.638 190.715 304.638 190.7C304.638 190.685 304.638 190.67 304.638 190.64V187.896C304.638 187.881 304.638 187.866 304.638 187.836C304.607 187.278 304.11 186.841 303.522 186.841H279.119C278.742 188.228 277.868 190.142 275.878 191.574C275.818 191.619 275.758 191.665 275.697 191.695Z" fill="#7DC8FC"/>
<path d="M256.511 191.705H257.099V186.851H256.511V191.705Z" fill="url(#paint16_linear_352_65170)"/>
<path d="M258.502 191.705H259.09V186.851H258.502V191.705Z" fill="url(#paint17_linear_352_65170)"/>
<path d="M260.897 191.705H261.485V186.851H260.897V191.705Z" fill="url(#paint18_linear_352_65170)"/>
<path d="M264.583 191.705H265.171V186.851H264.583V191.705Z" fill="url(#paint19_linear_352_65170)"/>
<path d="M268.464 191.705H269.052V186.851H268.464V191.705Z" fill="url(#paint20_linear_352_65170)"/>
<path d="M274.418 191.705H275.006V186.851H274.418V191.705Z" fill="url(#paint21_linear_352_65170)"/>
<path d="M279.993 191.705H280.581V186.851H279.993V191.705Z" fill="url(#paint22_linear_352_65170)"/>
<path d="M284.973 191.705H285.561V186.851H284.973V191.705Z" fill="url(#paint23_linear_352_65170)"/>
<path d="M254.606 191.705H255.194V186.851H254.606V191.705Z" fill="url(#paint24_linear_352_65170)"/>
<path d="M253.34 191.705H253.928V186.851H253.34V191.705Z" fill="url(#paint25_linear_352_65170)"/>
<path d="M252.134 191.705H252.722V186.851H252.134V191.705Z" fill="url(#paint26_linear_352_65170)"/>
<path d="M251.213 186.871V191.68C251.288 191.695 251.364 191.695 251.439 191.695H251.801V186.841H251.439C251.364 186.841 251.288 186.856 251.213 186.871Z" fill="url(#paint27_linear_352_65170)"/>
<path d="M250.4 187.308V191.227C250.536 191.408 250.747 191.544 250.988 191.619V186.917C250.747 186.992 250.551 187.143 250.4 187.308Z" fill="url(#paint28_linear_352_65170)"/>
<path d="M248.944 183.058V185.801C248.944 186.012 249.02 186.223 249.155 186.389C249.291 186.57 249.502 186.706 249.743 186.781C249.819 186.811 249.894 186.826 249.969 186.841C250.045 186.856 250.12 186.856 250.195 186.856H302.137C302.8 186.856 303.358 186.404 303.388 185.862C303.388 185.847 303.388 185.832 303.388 185.801V183.058C303.388 183.043 303.388 183.028 303.388 182.998C303.358 182.485 302.876 182.063 302.288 182.003C302.243 182.003 302.198 182.003 302.137 182.003H250.195C250.12 182.003 250.045 182.003 249.969 182.018C249.894 182.033 249.819 182.048 249.743 182.078C249.502 182.154 249.291 182.289 249.155 182.47C249.02 182.636 248.944 182.832 248.944 183.058Z" fill="#B5E1FF"/>
<path d="M274.447 186.841H302.272C302.875 186.841 303.357 186.389 303.388 185.846C303.388 185.831 303.388 185.816 303.388 185.786V183.043C303.388 183.028 303.388 183.013 303.388 182.983C303.357 182.47 302.935 182.048 302.393 181.988C302.348 181.988 302.302 181.988 302.257 181.988H277.854C277.477 183.435 276.573 185.409 274.447 186.841Z" fill="#7DC8FC"/>
<path d="M255.263 186.844H255.851V181.99H255.263V186.844Z" fill="url(#paint29_linear_352_65170)"/>
<path d="M257.268 186.844H257.855V181.99H257.268V186.844Z" fill="url(#paint30_linear_352_65170)"/>
<path d="M259.663 186.844H260.251V181.99H259.663V186.844Z" fill="url(#paint31_linear_352_65170)"/>
<path d="M263.33 186.844H263.918V181.99H263.33V186.844Z" fill="url(#paint32_linear_352_65170)"/>
<path d="M267.213 186.844H267.801V181.99H267.213V186.844Z" fill="url(#paint33_linear_352_65170)"/>
<path d="M273.167 186.844H273.755V181.99H273.167V186.844Z" fill="url(#paint34_linear_352_65170)"/>
<path d="M278.759 186.844H279.347V181.99H278.759V186.844Z" fill="url(#paint35_linear_352_65170)"/>
<path d="M283.725 186.844H284.312V181.99H283.725V186.844Z" fill="url(#paint36_linear_352_65170)"/>
<path d="M253.366 186.844H253.954V181.99H253.366V186.844Z" fill="url(#paint37_linear_352_65170)"/>
<path d="M252.106 186.844H252.693V181.99H252.106V186.844Z" fill="url(#paint38_linear_352_65170)"/>
<path d="M250.899 186.844H251.487V181.99H250.899V186.844Z" fill="url(#paint39_linear_352_65170)"/>
<path d="M249.979 182.018V186.826C250.054 186.841 250.129 186.841 250.205 186.841H250.566V181.988H250.205C250.129 182.003 250.054 182.003 249.979 182.018Z" fill="url(#paint40_linear_352_65170)"/>
<path d="M249.166 182.47V186.389C249.302 186.57 249.513 186.706 249.754 186.781V182.063C249.513 182.153 249.302 182.289 249.166 182.47Z" fill="url(#paint41_linear_352_65170)"/>
<path d="M252.772 178.22V180.963C252.772 181.174 252.848 181.385 252.983 181.551C253.119 181.732 253.33 181.867 253.571 181.943C253.647 181.973 253.722 181.988 253.797 182.003C253.828 182.003 253.843 182.003 253.873 182.018C253.888 182.018 253.903 182.018 253.918 182.018C253.933 182.018 253.948 182.018 253.963 182.018C253.978 182.018 254.008 182.018 254.024 182.018H305.965C306.629 182.018 307.186 181.566 307.216 181.023C307.216 181.008 307.216 180.993 307.216 180.963V178.22C307.216 178.205 307.216 178.189 307.216 178.159C307.216 178.144 307.216 178.129 307.216 178.114C307.171 177.662 306.779 177.3 306.282 177.195C306.267 177.195 306.252 177.195 306.237 177.18C306.146 177.164 306.056 177.149 305.965 177.149H254.024C253.978 177.149 253.948 177.149 253.918 177.149C253.903 177.149 253.888 177.149 253.873 177.149C253.858 177.149 253.828 177.149 253.813 177.164C253.737 177.18 253.662 177.195 253.586 177.225C253.345 177.3 253.134 177.436 252.999 177.617C252.848 177.798 252.772 177.994 252.772 178.22Z" fill="#B5E1FF"/>
<path d="M278.273 182.003H306.098C306.701 182.003 307.184 181.551 307.214 181.008C307.214 180.993 307.214 180.978 307.214 180.948V178.204C307.214 178.189 307.214 178.174 307.214 178.144C307.214 178.129 307.214 178.114 307.214 178.099C307.169 177.647 306.807 177.27 306.34 177.164C306.324 177.164 306.309 177.164 306.294 177.149C306.234 177.134 306.159 177.134 306.098 177.134H281.695C281.695 177.149 281.695 177.164 281.68 177.164C281.288 178.611 280.369 180.571 278.273 182.003Z" fill="#7DC8FC"/>
<path d="M259.08 182H259.668V177.146H259.08V182Z" fill="url(#paint42_linear_352_65170)"/>
<path d="M261.091 182H261.679V177.146H261.091V182Z" fill="url(#paint43_linear_352_65170)"/>
<path d="M263.487 182H264.075V177.146H263.487V182Z" fill="url(#paint44_linear_352_65170)"/>
<path d="M267.154 182H267.742V177.146H267.154V182Z" fill="url(#paint45_linear_352_65170)"/>
<path d="M271.033 182H271.621V177.146H271.033V182Z" fill="url(#paint46_linear_352_65170)"/>
<path d="M276.991 182H277.579V177.146H276.991V182Z" fill="url(#paint47_linear_352_65170)"/>
<path d="M282.562 182H283.149V177.146H282.562V182Z" fill="url(#paint48_linear_352_65170)"/>
<path d="M287.546 182H288.134V177.146H287.546V182Z" fill="url(#paint49_linear_352_65170)"/>
<path d="M257.176 182H257.764V177.146H257.176V182Z" fill="url(#paint50_linear_352_65170)"/>
<path d="M255.93 182H256.518V177.146H255.93V182Z" fill="url(#paint51_linear_352_65170)"/>
<path d="M254.707 182H255.295V177.146H254.707V182Z" fill="url(#paint52_linear_352_65170)"/>
<path d="M253.79 177.18V181.988C253.865 182.003 253.941 182.003 254.016 182.003H254.378V177.15H254.016C253.941 177.165 253.865 177.165 253.79 177.18Z" fill="url(#paint53_linear_352_65170)"/>
<path d="M252.978 177.617V181.536C253.113 181.717 253.324 181.853 253.565 181.928V177.225C253.324 177.3 253.113 177.451 252.978 177.617Z" fill="url(#paint54_linear_352_65170)"/>
<path d="M252.877 173.396V176.14C252.877 176.351 252.952 176.562 253.088 176.728C253.224 176.908 253.435 177.044 253.676 177.119C253.736 177.134 253.796 177.15 253.857 177.165C253.872 177.165 253.887 177.165 253.902 177.18C253.977 177.195 254.053 177.195 254.128 177.195H306.07C306.13 177.195 306.175 177.195 306.236 177.18C306.251 177.18 306.281 177.18 306.296 177.165C306.854 177.074 307.291 176.667 307.321 176.185C307.321 176.17 307.321 176.155 307.321 176.125V173.381C307.321 173.366 307.321 173.351 307.321 173.321C307.291 172.763 306.733 172.326 306.07 172.326H254.128C254.098 172.326 254.068 172.326 254.023 172.326C254.007 172.326 253.992 172.326 253.977 172.326C253.962 172.326 253.947 172.326 253.932 172.326C253.917 172.326 253.917 172.326 253.902 172.326C253.827 172.341 253.751 172.356 253.676 172.386C253.661 172.386 253.661 172.386 253.646 172.402C253.631 172.402 253.631 172.402 253.616 172.417C253.6 172.432 253.57 172.432 253.555 172.447C253.525 172.462 253.51 172.462 253.48 172.477C253.465 172.492 253.435 172.492 253.42 172.507C253.405 172.522 253.374 172.537 253.359 172.552C253.344 172.567 253.329 172.567 253.314 172.582C253.299 172.582 253.299 172.597 253.284 172.613C253.254 172.643 253.224 172.658 253.193 172.688C253.178 172.703 253.178 172.703 253.163 172.718C253.148 172.733 253.148 172.733 253.133 172.748C253.118 172.763 253.103 172.778 253.088 172.809C252.952 172.974 252.877 173.185 252.877 173.396Z" fill="#B5E1FF"/>
<path d="M278.38 177.195H306.205C306.22 177.195 306.25 177.195 306.265 177.195C306.295 177.195 306.31 177.195 306.34 177.195C306.868 177.135 307.29 176.712 307.32 176.2C307.32 176.185 307.32 176.17 307.32 176.14V173.396C307.32 173.381 307.32 173.366 307.32 173.336C307.29 172.778 306.793 172.341 306.205 172.341H281.801C281.786 172.387 281.786 172.417 281.771 172.462C281.364 173.864 280.46 175.748 278.44 177.15C278.41 177.165 278.395 177.18 278.38 177.195Z" fill="#7DC8FC"/>
<path d="M259.198 177.194H259.786V172.341H259.198V177.194Z" fill="url(#paint55_linear_352_65170)"/>
<path d="M261.19 177.194H261.777V172.341H261.19V177.194Z" fill="url(#paint56_linear_352_65170)"/>
<path d="M263.586 177.194H264.174V172.341H263.586V177.194Z" fill="url(#paint57_linear_352_65170)"/>
<path d="M267.269 177.194H267.856V172.341H267.269V177.194Z" fill="url(#paint58_linear_352_65170)"/>
<path d="M271.151 177.194H271.739V172.341H271.151V177.194Z" fill="url(#paint59_linear_352_65170)"/>
<path d="M277.104 177.194H277.691V172.341H277.104V177.194Z" fill="url(#paint60_linear_352_65170)"/>
<path d="M282.681 177.194H283.269V172.341H282.681V177.194Z" fill="url(#paint61_linear_352_65170)"/>
<path d="M287.66 177.194H288.248V172.341H287.66V177.194Z" fill="url(#paint62_linear_352_65170)"/>
<path d="M257.29 177.194H257.878V172.341H257.29V177.194Z" fill="url(#paint63_linear_352_65170)"/>
<path d="M256.03 177.194H256.618V172.341H256.03V177.194Z" fill="url(#paint64_linear_352_65170)"/>
<path d="M254.823 177.194H255.411V172.341H254.823V177.194Z" fill="url(#paint65_linear_352_65170)"/>
<path d="M253.898 172.356V177.165C253.974 177.18 254.049 177.18 254.125 177.18H254.486V172.326H254.125C254.049 172.341 253.974 172.341 253.898 172.356Z" fill="url(#paint66_linear_352_65170)"/>
<path d="M253.086 172.809V176.728C253.237 176.909 253.433 177.044 253.674 177.12V172.417C253.433 172.492 253.237 172.628 253.086 172.809Z" fill="url(#paint67_linear_352_65170)"/>
<path d="M250.192 168.663V171.406C250.192 171.617 250.268 171.828 250.403 171.994C250.539 172.175 250.75 172.311 250.991 172.386C251.067 172.416 251.142 172.431 251.217 172.446C251.293 172.461 251.368 172.461 251.443 172.461H303.385C303.596 172.461 303.792 172.416 303.958 172.341C304.32 172.175 304.591 171.874 304.636 171.512C304.636 171.497 304.636 171.482 304.636 171.467C304.636 171.452 304.636 171.436 304.636 171.406V168.663C304.636 168.648 304.636 168.633 304.636 168.603C304.606 168.045 304.049 167.608 303.385 167.608H251.443C251.368 167.608 251.293 167.608 251.217 167.623C251.142 167.638 251.067 167.653 250.991 167.683C250.75 167.759 250.539 167.894 250.403 168.075C250.268 168.241 250.192 168.452 250.192 168.663Z" fill="#B5E1FF"/>
<path d="M275.697 172.461H303.522C303.703 172.461 303.884 172.416 304.035 172.341C304.366 172.175 304.592 171.874 304.638 171.512C304.638 171.497 304.638 171.482 304.638 171.467C304.638 171.452 304.638 171.436 304.638 171.406V168.663C304.638 168.648 304.638 168.633 304.638 168.603C304.607 168.045 304.11 167.608 303.522 167.608H279.119C278.742 168.995 277.868 170.909 275.878 172.341C275.818 172.386 275.758 172.416 275.697 172.461Z" fill="#7DC8FC"/>
<path d="M256.511 172.468H257.099V167.614H256.511V172.468Z" fill="url(#paint68_linear_352_65170)"/>
<path d="M258.502 172.468H259.09V167.614H258.502V172.468Z" fill="url(#paint69_linear_352_65170)"/>
<path d="M260.897 172.468H261.485V167.614H260.897V172.468Z" fill="url(#paint70_linear_352_65170)"/>
<path d="M264.583 172.468H265.171V167.614H264.583V172.468Z" fill="url(#paint71_linear_352_65170)"/>
<path d="M268.464 172.468H269.052V167.614H268.464V172.468Z" fill="url(#paint72_linear_352_65170)"/>
<path d="M274.418 172.468H275.006V167.614H274.418V172.468Z" fill="url(#paint73_linear_352_65170)"/>
<path d="M279.993 172.468H280.581V167.614H279.993V172.468Z" fill="url(#paint74_linear_352_65170)"/>
<path d="M284.973 172.468H285.561V167.614H284.973V172.468Z" fill="url(#paint75_linear_352_65170)"/>
<path d="M254.606 172.468H255.194V167.614H254.606V172.468Z" fill="url(#paint76_linear_352_65170)"/>
<path d="M253.34 172.468H253.928V167.614H253.34V172.468Z" fill="url(#paint77_linear_352_65170)"/>
<path d="M252.134 172.468H252.722V167.614H252.134V172.468Z" fill="url(#paint78_linear_352_65170)"/>
<path d="M251.213 167.623V172.432C251.288 172.447 251.364 172.447 251.439 172.447H251.801V167.593H251.439C251.364 167.608 251.288 167.623 251.213 167.623Z" fill="url(#paint79_linear_352_65170)"/>
<path d="M250.4 168.076V171.995C250.536 172.176 250.747 172.312 250.988 172.387V167.684C250.747 167.759 250.551 167.895 250.4 168.076Z" fill="url(#paint80_linear_352_65170)"/>
<path d="M245.94 163.825V166.568C245.94 166.779 246.016 166.99 246.151 167.156C246.287 167.337 246.498 167.473 246.739 167.548C246.815 167.578 246.89 167.593 246.965 167.608C247.041 167.624 247.116 167.624 247.192 167.624H299.133C299.797 167.624 300.354 167.171 300.384 166.629C300.384 166.614 300.384 166.599 300.384 166.568V163.825C300.384 163.81 300.384 163.795 300.384 163.765C300.354 163.252 299.872 162.83 299.284 162.77C299.239 162.77 299.179 162.77 299.133 162.77H247.207C247.131 162.77 247.056 162.77 246.98 162.785C246.905 162.8 246.83 162.815 246.754 162.845C246.513 162.921 246.302 163.056 246.167 163.237C246.016 163.403 245.94 163.599 245.94 163.825Z" fill="#B5E1FF"/>
<path d="M271.447 167.608H299.272C299.875 167.608 300.357 167.156 300.388 166.614C300.388 166.599 300.388 166.584 300.388 166.553V163.825C300.388 163.81 300.388 163.795 300.388 163.765C300.357 163.252 299.935 162.83 299.393 162.77C299.348 162.77 299.302 162.77 299.257 162.77H274.854C274.477 164.202 273.573 166.161 271.447 167.608Z" fill="#7DC8FC"/>
<path d="M252.272 167.607H252.859V162.754H252.272V167.607Z" fill="url(#paint81_linear_352_65170)"/>
<path d="M254.267 167.607H254.854V162.754H254.267V167.607Z" fill="url(#paint82_linear_352_65170)"/>
<path d="M256.663 167.607H257.251V162.754H256.663V167.607Z" fill="url(#paint83_linear_352_65170)"/>
<path d="M260.33 167.607H260.918V162.754H260.33V167.607Z" fill="url(#paint84_linear_352_65170)"/>
<path d="M264.225 167.607H264.812V162.754H264.225V167.607Z" fill="url(#paint85_linear_352_65170)"/>
<path d="M270.181 167.607H270.769V162.754H270.181V167.607Z" fill="url(#paint86_linear_352_65170)"/>
<path d="M275.758 167.607H276.346V162.754H275.758V167.607Z" fill="url(#paint87_linear_352_65170)"/>
<path d="M280.724 167.607H281.312V162.754H280.724V167.607Z" fill="url(#paint88_linear_352_65170)"/>
<path d="M250.368 167.607H250.956V162.754H250.368V167.607Z" fill="url(#paint89_linear_352_65170)"/>
<path d="M249.106 167.607H249.693V162.754H249.106V167.607Z" fill="url(#paint90_linear_352_65170)"/>
<path d="M247.899 167.607H248.487V162.754H247.899V167.607Z" fill="url(#paint91_linear_352_65170)"/>
<path d="M246.984 162.785V167.593C247.06 167.608 247.135 167.608 247.21 167.608H247.572V162.77H247.21C247.12 162.77 247.06 162.77 246.984 162.785Z" fill="url(#paint92_linear_352_65170)"/>
<path d="M246.153 163.237V167.156C246.289 167.337 246.5 167.472 246.741 167.548V162.845C246.515 162.92 246.304 163.056 246.153 163.237Z" fill="url(#paint93_linear_352_65170)"/>
<path d="M252.772 158.972V161.715C252.772 161.926 252.848 162.137 252.983 162.303C253.119 162.484 253.33 162.619 253.571 162.695C253.647 162.725 253.722 162.74 253.797 162.755C253.828 162.755 253.843 162.755 253.873 162.77C253.888 162.77 253.918 162.77 253.933 162.77C253.948 162.77 253.948 162.77 253.963 162.77C253.978 162.77 254.008 162.77 254.024 162.77H305.965C306.629 162.77 307.186 162.318 307.216 161.775C307.216 161.76 307.216 161.745 307.216 161.715V158.972C307.216 158.957 307.216 158.941 307.216 158.911C307.186 158.354 306.629 157.917 305.965 157.917H254.024C254.008 157.917 253.978 157.917 253.963 157.917C253.903 157.917 253.858 157.917 253.813 157.932C253.737 157.947 253.662 157.962 253.586 157.992C253.556 158.007 253.511 158.022 253.481 158.037C253.466 158.052 253.436 158.052 253.421 158.067C253.406 158.082 253.375 158.082 253.36 158.097C253.36 158.097 253.36 158.097 253.345 158.097C253.33 158.112 253.3 158.112 253.285 158.128C253.24 158.158 253.195 158.188 253.164 158.218C253.149 158.233 253.134 158.233 253.134 158.248C253.119 158.248 253.119 158.263 253.119 158.263C253.104 158.278 253.089 158.293 253.089 158.308C253.074 158.323 253.059 158.339 253.044 158.369C252.848 158.565 252.772 158.761 252.772 158.972Z" fill="#B5E1FF"/>
<path d="M278.273 162.77H306.098C306.701 162.77 307.184 162.318 307.214 161.775C307.214 161.76 307.214 161.745 307.214 161.715V158.972C307.214 158.957 307.214 158.941 307.214 158.911C307.184 158.354 306.686 157.917 306.098 157.917H281.695C281.68 157.947 281.68 157.992 281.665 158.022C281.258 159.454 280.338 161.353 278.273 162.77Z" fill="#7DC8FC"/>
<path d="M259.08 162.778H259.668V157.924H259.08V162.778Z" fill="url(#paint94_linear_352_65170)"/>
<path d="M261.091 162.778H261.679V157.924H261.091V162.778Z" fill="url(#paint95_linear_352_65170)"/>
<path d="M263.487 162.778H264.075V157.924H263.487V162.778Z" fill="url(#paint96_linear_352_65170)"/>
<path d="M267.154 162.778H267.742V157.924H267.154V162.778Z" fill="url(#paint97_linear_352_65170)"/>
<path d="M271.033 162.778H271.621V157.924H271.033V162.778Z" fill="url(#paint98_linear_352_65170)"/>
<path d="M276.991 162.778H277.579V157.924H276.991V162.778Z" fill="url(#paint99_linear_352_65170)"/>
<path d="M282.562 162.778H283.149V157.924H282.562V162.778Z" fill="url(#paint100_linear_352_65170)"/>
<path d="M287.546 162.778H288.134V157.924H287.546V162.778Z" fill="url(#paint101_linear_352_65170)"/>
<path d="M257.176 162.778H257.764V157.924H257.176V162.778Z" fill="url(#paint102_linear_352_65170)"/>
<path d="M255.93 162.778H256.518V157.924H255.93V162.778Z" fill="url(#paint103_linear_352_65170)"/>
<path d="M254.707 162.778H255.295V157.924H254.707V162.778Z" fill="url(#paint104_linear_352_65170)"/>
<path d="M253.79 157.947V162.755C253.865 162.77 253.941 162.77 254.016 162.77H254.378V157.917H254.016C253.941 157.917 253.865 157.932 253.79 157.947Z" fill="url(#paint105_linear_352_65170)"/>
<path d="M252.978 158.384V162.303C253.113 162.483 253.324 162.619 253.565 162.694V157.992C253.324 158.067 253.113 158.218 252.978 158.384Z" fill="url(#paint106_linear_352_65170)"/>
<path d="M248.944 154.238V156.982C248.944 157.193 249.02 157.404 249.155 157.569C249.291 157.75 249.502 157.886 249.743 157.961C249.819 157.991 249.894 158.006 249.969 158.022C250.045 158.037 250.12 158.037 250.195 158.037H302.137C302.333 158.037 302.529 157.991 302.695 157.931C303.072 157.765 303.343 157.449 303.388 157.087C303.388 157.072 303.388 157.057 303.388 157.042C303.388 157.027 303.388 157.012 303.388 156.982V154.238C303.388 154.223 303.388 154.208 303.388 154.178C303.358 153.665 302.876 153.243 302.288 153.183C302.243 153.183 302.198 153.183 302.137 153.183H250.195C250.12 153.183 250.045 153.183 249.969 153.198C249.894 153.213 249.819 153.228 249.743 153.258C249.502 153.334 249.291 153.469 249.155 153.65C249.02 153.816 248.944 154.027 248.944 154.238Z" fill="#B5E1FF"/>
<path d="M274.447 158.037H302.272C302.453 158.037 302.619 157.991 302.77 157.931C303.101 157.765 303.342 157.449 303.388 157.087C303.388 157.072 303.388 157.057 303.388 157.042C303.388 157.027 303.388 157.012 303.388 156.982V154.238C303.388 154.223 303.388 154.208 303.388 154.178C303.357 153.665 302.935 153.243 302.393 153.183C302.348 153.183 302.302 153.183 302.257 153.183H277.854C277.477 154.57 276.603 156.484 274.598 157.916C274.568 157.961 274.508 157.991 274.447 158.037Z" fill="#7DC8FC"/>
<path d="M255.263 158.036H255.851V153.182H255.263V158.036Z" fill="url(#paint107_linear_352_65170)"/>
<path d="M257.268 158.036H257.855V153.182H257.268V158.036Z" fill="url(#paint108_linear_352_65170)"/>
<path d="M259.663 158.036H260.251V153.182H259.663V158.036Z" fill="url(#paint109_linear_352_65170)"/>
<path d="M263.33 158.036H263.918V153.182H263.33V158.036Z" fill="url(#paint110_linear_352_65170)"/>
<path d="M267.213 158.036H267.801V153.182H267.213V158.036Z" fill="url(#paint111_linear_352_65170)"/>
<path d="M273.167 158.036H273.755V153.182H273.167V158.036Z" fill="url(#paint112_linear_352_65170)"/>
<path d="M278.759 158.036H279.347V153.182H278.759V158.036Z" fill="url(#paint113_linear_352_65170)"/>
<path d="M283.725 158.036H284.312V153.182H283.725V158.036Z" fill="url(#paint114_linear_352_65170)"/>
<path d="M253.366 158.036H253.954V153.182H253.366V158.036Z" fill="url(#paint115_linear_352_65170)"/>
<path d="M252.106 158.036H252.693V153.182H252.106V158.036Z" fill="url(#paint116_linear_352_65170)"/>
<path d="M250.899 158.036H251.487V153.182H250.899V158.036Z" fill="url(#paint117_linear_352_65170)"/>
<path d="M249.979 153.198V158.006C250.054 158.021 250.129 158.021 250.205 158.021H250.566V153.168H250.205C250.129 153.183 250.054 153.183 249.979 153.198Z" fill="url(#paint118_linear_352_65170)"/>
<path d="M249.166 153.651V157.57C249.302 157.751 249.513 157.886 249.754 157.962V153.259C249.513 153.334 249.302 153.47 249.166 153.651Z" fill="url(#paint119_linear_352_65170)"/>
<path d="M247.312 149.4V152.143C247.312 152.354 247.388 152.565 247.524 152.731C247.659 152.912 247.87 153.048 248.111 153.123C248.187 153.153 248.262 153.168 248.337 153.183C248.368 153.183 248.383 153.183 248.413 153.198C248.428 153.198 248.443 153.198 248.458 153.198C248.473 153.198 248.488 153.198 248.503 153.198C248.518 153.198 248.549 153.198 248.564 153.198H300.505C301.169 153.198 301.726 152.746 301.756 152.203C301.756 152.188 301.756 152.173 301.756 152.143V149.4C301.756 149.385 301.756 149.37 301.756 149.34C301.726 148.782 301.169 148.345 300.505 148.345H248.564C248.488 148.345 248.413 148.345 248.337 148.36C248.262 148.375 248.187 148.39 248.111 148.42C247.87 148.495 247.659 148.631 247.524 148.812C247.403 148.978 247.312 149.174 247.312 149.4Z" fill="#B5E1FF"/>
<path d="M272.833 153.198H300.658C301.261 153.198 301.743 152.746 301.773 152.203C301.773 152.188 301.773 152.173 301.773 152.143V149.4C301.773 149.385 301.773 149.37 301.773 149.34C301.743 148.782 301.246 148.345 300.658 148.345H276.255C275.848 149.762 274.943 151.736 272.833 153.198C272.833 153.183 272.833 153.183 272.833 153.198Z" fill="#7DC8FC"/>
<path d="M253.641 153.191H254.229V148.337H253.641V153.191Z" fill="url(#paint120_linear_352_65170)"/>
<path d="M255.646 153.191H256.233V148.337H255.646V153.191Z" fill="url(#paint121_linear_352_65170)"/>
<path d="M258.044 153.191H258.632V148.337H258.044V153.191Z" fill="url(#paint122_linear_352_65170)"/>
<path d="M261.71 153.191H262.298V148.337H261.71V153.191Z" fill="url(#paint123_linear_352_65170)"/>
<path d="M265.593 153.191H266.181V148.337H265.593V153.191Z" fill="url(#paint124_linear_352_65170)"/>
<path d="M271.547 153.191H272.135V148.337H271.547V153.191Z" fill="url(#paint125_linear_352_65170)"/>
<path d="M277.12 153.191H277.708V148.337H277.12V153.191Z" fill="url(#paint126_linear_352_65170)"/>
<path d="M282.695 148.345H282.107V153.198H282.695V148.345Z" fill="url(#paint127_linear_352_65170)"/>
<path d="M251.751 153.191H252.339V148.337H251.751V153.191Z" fill="url(#paint128_linear_352_65170)"/>
<path d="M250.486 153.191H251.074V148.337H250.486V153.191Z" fill="url(#paint129_linear_352_65170)"/>
<path d="M249.268 153.191H249.855V148.337H249.268V153.191Z" fill="url(#paint130_linear_352_65170)"/>
<path d="M248.354 148.36V153.168C248.43 153.183 248.505 153.183 248.581 153.183H248.942V148.33H248.581C248.505 148.345 248.43 148.345 248.354 148.36Z" fill="url(#paint131_linear_352_65170)"/>
<path d="M247.542 148.812V152.731C247.678 152.912 247.889 153.048 248.13 153.123V148.42C247.889 148.496 247.678 148.631 247.542 148.812Z" fill="url(#paint132_linear_352_65170)"/>
<path d="M204.51 169.568C204.51 169.568 201.389 173.954 198.541 174.015C195.692 174.075 191.336 171.98 191.336 171.98C191.336 171.98 188.713 166.131 190.492 163.855C190.492 163.855 192.27 163.072 194.139 164.458C194.456 164.7 194.787 165.001 195.104 165.378C195.556 165.92 196.069 166.237 196.596 166.388C198.631 167.006 201.058 165.544 201.962 166.961C202.49 167.774 203.063 168.392 203.545 168.83C204.103 169.327 204.51 169.568 204.51 169.568Z" fill="#1C5483"/>
<path d="M163.9 201.207C163.9 201.207 174.919 174.528 194.74 174.015C194.74 174.015 213.039 176.05 214.049 201.207H163.9Z" fill="#1C5483"/>
<path d="M189.299 174.828C189.299 174.828 197.242 176.592 199.699 175.552C199.699 175.552 200.076 172.236 196.73 172.703C194.439 173.02 192.946 171.919 192.072 171.482C190.821 170.849 188.967 173.442 189.299 174.828Z" fill="#051029"/>
<path d="M196.216 169.825C195.704 170.201 194.151 164.458 194.151 164.458C194.468 164.7 194.8 165.001 195.116 165.378C195.568 165.921 196.081 166.237 196.608 166.388C196.608 166.569 196.699 169.463 196.216 169.825Z" fill="#98CDF9"/>
<path d="M203.544 168.829C203.438 168.89 199.761 171.09 199.263 171.09C198.751 171.09 201.976 166.96 201.976 166.96C202.504 167.789 203.077 168.392 203.544 168.829Z" fill="#98CDF9"/>
<path d="M174.649 193.76C174.438 193.579 182.441 181.988 184.642 181.898C186.843 181.807 191.787 184.445 195.374 184.777C198.962 185.108 202.428 184.098 203.107 186.224C203.785 188.349 205.654 195.855 204.508 197.046C203.363 198.252 179.05 197.513 174.649 193.76Z" fill="#4C99D7"/>
<path d="M252 197.099V199.916C252 200.133 252.069 200.35 252.194 200.52C252.318 200.706 252.512 200.845 252.733 200.923C252.803 200.953 252.872 200.969 252.941 200.984C253.01 201 253.079 201 253.149 201H300.836C301.445 201 301.957 200.536 301.985 199.978C301.985 199.963 301.985 199.947 301.985 199.916V197.099C301.985 197.084 301.985 197.068 301.985 197.037C301.957 196.465 301.445 196.016 300.836 196.016H253.149C253.079 196.016 253.01 196.016 252.941 196.031C252.872 196.047 252.803 196.062 252.733 196.093C252.512 196.17 252.318 196.31 252.194 196.495C252.083 196.666 252 196.867 252 197.099Z" fill="#B5E1FF"/>
<path d="M275.43 201H300.976C301.529 201 301.972 200.536 302 199.978C302 199.963 302 199.947 302 199.916V197.099C302 197.084 302 197.068 302 197.037C301.972 196.465 301.515 196.016 300.976 196.016H278.571C278.197 197.486 277.367 199.514 275.43 201Z" fill="#7DC8FC"/>
<path d="M257.806 200.994H258.346V196.01H257.806V200.994Z" fill="url(#paint133_linear_352_65170)"/>
<path d="M259.648 200.994H260.188V196.01H259.648V200.994Z" fill="url(#paint134_linear_352_65170)"/>
<path d="M261.85 200.994H262.39V196.01H261.85V200.994Z" fill="url(#paint135_linear_352_65170)"/>
<path d="M265.216 200.994H265.756V196.01H265.216V200.994Z" fill="url(#paint136_linear_352_65170)"/>
<path d="M268.779 200.994H269.318V196.01H268.779V200.994Z" fill="url(#paint137_linear_352_65170)"/>
<path d="M274.245 200.994H274.785V196.01H274.245V200.994Z" fill="url(#paint138_linear_352_65170)"/>
<path d="M279.365 200.994H279.904V196.01H279.365V200.994Z" fill="url(#paint139_linear_352_65170)"/>
<path d="M283.939 200.994H284.479V196.01H283.939V200.994Z" fill="url(#paint140_linear_352_65170)"/>
<path d="M256.071 200.994H256.61V196.01H256.071V200.994Z" fill="url(#paint141_linear_352_65170)"/>
<path d="M254.913 200.994H255.453V196.01H254.913V200.994Z" fill="url(#paint142_linear_352_65170)"/>
<path d="M253.79 200.994H254.33V196.01H253.79V200.994Z" fill="url(#paint143_linear_352_65170)"/>
<path d="M252.956 196.031V200.969C253.025 200.984 253.094 200.984 253.164 200.984H253.496V196H253.164C253.094 196.015 253.025 196.015 252.956 196.031Z" fill="url(#paint144_linear_352_65170)"/>
<path d="M252.208 196.496V200.52C252.333 200.706 252.526 200.845 252.748 200.923V196.093C252.526 196.171 252.333 196.31 252.208 196.496Z" fill="url(#paint145_linear_352_65170)"/>
<path d="M327.308 193.849C336.95 184.207 336.95 168.575 327.308 158.933C317.666 149.291 302.034 149.291 292.392 158.933C282.75 168.575 282.75 184.207 292.392 193.849C302.034 203.491 317.666 203.491 327.308 193.849Z" fill="#1C5482"/>
<path d="M329.454 193.859C339.096 184.217 339.096 168.585 329.454 158.943C319.813 149.301 304.18 149.301 294.538 158.943C284.896 168.585 284.896 184.217 294.538 193.859C304.18 203.501 319.813 203.501 329.454 193.859Z" fill="#B5E1FF"/>
<path d="M296.094 192.584C291.843 188.333 289.507 182.681 289.507 176.681C289.507 170.682 291.843 165.03 296.094 160.779C300.344 156.529 305.997 154.192 311.996 154.192C318.01 154.192 323.647 156.529 327.898 160.779C332.149 165.03 334.485 170.682 334.485 176.681C334.485 182.681 332.149 188.333 327.898 192.584C323.647 196.834 317.995 199.17 311.996 199.17C305.997 199.17 300.344 196.834 296.094 192.584ZM290.848 176.681C290.848 188.348 300.329 197.829 311.996 197.829C323.662 197.829 333.143 188.348 333.143 176.681C333.143 165.015 323.662 155.534 311.996 155.534C300.329 155.534 290.848 165.03 290.848 176.681Z" fill="url(#paint146_linear_352_65170)"/>
<path d="M315.101 183.208C315.161 182.726 315.146 182.288 315.04 181.897C314.95 181.505 314.769 181.143 314.483 180.811C314.211 180.48 313.835 180.148 313.382 179.832C312.915 179.515 312.357 179.198 311.664 178.867C310.503 178.294 309.448 177.721 308.499 177.133C307.564 176.546 306.765 175.913 306.132 175.204C305.499 174.511 305.032 173.727 304.73 172.868C304.429 172.009 304.354 170.999 304.489 169.868C304.61 168.888 304.881 168.014 305.333 167.246C305.771 166.477 306.358 165.829 307.082 165.316C307.805 164.789 308.634 164.397 309.584 164.125C310.534 163.854 311.574 163.733 312.704 163.764L313.141 160.056L316.126 160.402L315.674 164.156C316.729 164.427 317.663 164.819 318.477 165.346C319.291 165.874 319.969 166.522 320.497 167.276C321.024 168.029 321.401 168.888 321.612 169.853C321.838 170.818 321.869 171.888 321.733 173.034L316.337 172.401C316.503 171.014 316.322 169.944 315.779 169.175C315.251 168.421 314.468 167.969 313.428 167.848C312.87 167.788 312.373 167.803 311.95 167.909C311.528 168.014 311.167 168.195 310.88 168.436C310.594 168.677 310.353 168.979 310.187 169.326C310.021 169.672 309.916 170.064 309.855 170.501C309.81 170.923 309.825 171.33 309.901 171.677C309.991 172.039 310.157 172.385 310.428 172.717C310.699 173.049 311.076 173.365 311.543 173.697C312.011 174.013 312.614 174.36 313.322 174.722C314.468 175.31 315.523 175.913 316.442 176.5C317.377 177.088 318.161 177.736 318.794 178.445C319.427 179.153 319.894 179.937 320.195 180.796C320.497 181.67 320.572 182.65 320.437 183.781C320.316 184.791 320.03 185.695 319.577 186.449C319.125 187.217 318.537 187.85 317.829 188.363C317.105 188.875 316.276 189.252 315.327 189.508C314.377 189.765 313.322 189.87 312.192 189.84L311.785 193.292L308.815 192.945L309.222 189.508C308.197 189.282 307.233 188.936 306.313 188.484C305.394 188.016 304.595 187.428 303.932 186.675C303.268 185.936 302.771 185.047 302.439 183.992C302.108 182.952 302.032 181.731 302.198 180.344L307.594 180.977C307.504 181.791 307.534 182.499 307.7 183.072C307.866 183.645 308.122 184.127 308.469 184.504C308.815 184.881 309.222 185.167 309.705 185.348C310.187 185.544 310.669 185.665 311.182 185.725C311.77 185.801 312.282 185.785 312.749 185.68C313.202 185.589 313.608 185.424 313.94 185.182C314.272 184.956 314.528 184.67 314.724 184.323C314.935 184.022 315.055 183.645 315.101 183.208Z" fill="url(#paint147_linear_352_65170)"/>
<path d="M298.259 48.5812C300.343 40.8015 295.726 32.805 287.947 30.7204C280.167 28.6359 272.17 33.2527 270.086 41.0323C268.001 48.812 272.618 56.8085 280.398 58.8931C288.178 60.9776 296.174 56.3608 298.259 48.5812Z" fill="#1C5482"/>
<path d="M299.36 47.9523C301.445 40.1726 296.828 32.1761 289.048 30.0915C281.269 28.007 273.272 32.6238 271.188 40.4034C269.103 48.1831 273.72 56.1796 281.499 58.2642C289.279 60.3487 297.276 55.7319 299.36 47.9523Z" fill="#B5E1FF"/>
<path d="M281.918 57.1519C278.488 56.233 275.623 54.0316 273.852 50.9629C272.08 47.8941 271.606 44.3127 272.525 40.8831C273.444 37.4534 275.645 34.589 278.714 32.8172C281.79 31.041 285.364 30.5713 288.794 31.4902C292.223 32.4092 295.088 34.6106 296.859 37.6793C298.631 40.7481 299.105 44.3294 298.186 47.7591C297.267 51.1888 295.066 54.0532 291.997 55.825C288.929 57.5967 285.347 58.0709 281.918 57.1519ZM274.538 50.5667C277.983 56.5345 285.633 58.5843 291.601 55.1387C297.569 51.6932 299.619 44.0433 296.173 38.0755C292.728 32.1077 285.078 30.0579 279.11 33.5034C273.142 36.949 271.097 44.6066 274.538 50.5667Z" fill="url(#paint148_linear_352_65170)"/>
<path d="M288.874 46.7429C288.762 46.4783 288.625 46.2592 288.456 46.0899C288.294 45.9161 288.094 45.7845 287.85 45.6994C287.613 45.6099 287.322 45.5516 286.998 45.5232C286.665 45.4993 286.286 45.5021 285.834 45.5372C285.071 45.587 284.362 45.6056 283.703 45.5854C283.051 45.5607 282.455 45.4728 281.922 45.2973C281.394 45.1296 280.923 44.8667 280.515 44.5162C280.107 44.1658 279.77 43.6714 279.506 43.0531C279.278 42.5163 279.159 41.989 279.163 41.4622C279.16 40.9399 279.269 40.4347 279.488 39.9589C279.702 39.4754 280.01 39.03 280.416 38.6108C280.822 38.1916 281.318 37.8227 281.905 37.5043L281.034 35.4784L282.663 34.7744L283.54 36.8278C284.16 36.655 284.754 36.5794 285.326 36.6089C285.898 36.6384 286.436 36.7696 286.929 36.9993C287.421 37.229 287.868 37.5572 288.26 37.9884C288.661 38.4151 288.993 38.9536 289.261 39.5797L286.314 40.8495C285.989 40.0912 285.581 39.5972 285.076 39.3642C284.584 39.1345 284.049 39.1346 283.482 39.3801C283.179 39.514 282.929 39.6686 282.744 39.8472C282.559 40.0258 282.428 40.2252 282.352 40.4331C282.277 40.6411 282.243 40.8665 282.26 41.0928C282.278 41.3191 282.34 41.5508 282.438 41.7922C282.539 42.0214 282.667 42.2251 282.808 42.3802C282.961 42.5386 283.148 42.6669 283.385 42.7564C283.622 42.8459 283.908 42.8966 284.245 42.9282C284.578 42.9521 284.988 42.9514 285.458 42.9272C286.217 42.8896 286.935 42.8864 287.579 42.9155C288.231 42.9402 288.823 43.0403 289.356 43.2157C289.889 43.3912 290.36 43.6541 290.768 44.0046C291.18 44.3627 291.508 44.8416 291.772 45.46C292.009 46.0122 292.13 46.5594 292.121 47.0785C292.116 47.6052 292.003 48.1027 291.792 48.5741C291.573 49.0499 291.26 49.4875 290.85 49.899C290.44 50.3105 289.931 50.6761 289.344 50.9946L290.156 52.8804L288.534 53.5801L287.727 51.7019C287.136 51.889 286.541 51.9965 285.937 52.0367C285.328 52.0693 284.746 52.0045 284.184 51.8149C283.627 51.6329 283.11 51.3249 282.628 50.8831C282.152 50.449 281.753 49.8468 281.428 49.0884L284.375 47.8186C284.569 48.2617 284.794 48.6152 285.048 48.8592C285.302 49.1032 285.575 49.2743 285.864 49.3646C286.153 49.455 286.445 49.4813 286.746 49.4314C287.05 49.3892 287.332 49.3084 287.612 49.1879C287.935 49.0528 288.193 48.8938 288.401 48.7018C288.606 48.522 288.765 48.317 288.863 48.0957C288.966 47.8821 289.013 47.6599 289.01 47.4247C289.029 47.2082 288.98 46.9798 288.874 46.7429Z" fill="url(#paint149_linear_352_65170)"/>
<path d="M98.2455 169.682C105.367 167.774 109.593 160.455 107.685 153.333C105.777 146.212 98.4568 141.986 91.3356 143.894C84.2143 145.802 79.9883 153.122 81.8964 160.243C83.8045 167.365 91.1243 171.591 98.2455 169.682Z" fill="#1C5482"/>
<path d="M99.2475 170.268C106.369 168.36 110.595 161.04 108.687 153.919C106.779 146.798 99.4588 142.571 92.3375 144.48C85.2163 146.388 80.9902 153.707 82.8983 160.829C84.8065 167.95 92.1262 172.176 99.2475 170.268Z" fill="#B5E1FF"/>
<path d="M83.9723 160.651C83.1311 157.511 83.5652 154.233 85.187 151.424C86.8087 148.615 89.4308 146.6 92.5702 145.759C95.7096 144.917 98.9879 145.351 101.797 146.973C104.613 148.599 106.621 151.217 107.462 154.356C108.303 157.496 107.869 160.774 106.247 163.583C104.626 166.392 102.004 168.407 98.8643 169.248C95.7249 170.09 92.4466 169.656 89.6376 168.034C86.8286 166.412 84.8135 163.79 83.9723 160.651ZM85.8151 151.786C82.6612 157.249 84.5375 164.252 90.0002 167.406C95.463 170.559 102.465 168.683 105.619 163.22C108.773 157.758 106.897 150.755 101.434 147.601C95.9715 144.447 88.9649 146.331 85.8151 151.786Z" fill="url(#paint150_linear_352_65170)"/>
<path d="M95.4063 161.401C95.5649 161.192 95.676 160.983 95.7326 160.771C95.7962 160.563 95.8093 160.345 95.7648 160.112C95.7274 159.883 95.6406 159.626 95.5145 159.356C95.3812 159.081 95.2057 158.782 94.9707 158.439C94.582 157.857 94.2428 157.304 93.9571 156.772C93.6785 156.244 93.4755 155.732 93.3706 155.229C93.2616 154.733 93.2547 154.24 93.3458 153.756C93.437 153.272 93.6747 152.779 94.0438 152.286C94.3651 151.86 94.7285 151.524 95.1481 151.286C95.5606 151.045 96.011 150.9 96.4883 150.856C96.9697 150.804 97.4639 150.845 97.9819 150.975C98.4998 151.104 99.0194 151.329 99.5406 151.649L100.748 150.031L102.051 151L100.825 152.635C101.246 153.047 101.577 153.483 101.816 153.95C102.054 154.417 102.197 154.904 102.24 155.4C102.283 155.895 102.228 156.399 102.066 156.908C101.911 157.421 101.635 157.93 101.262 158.43L98.9067 156.675C99.3592 156.07 99.5638 155.52 99.5175 155.014C99.4743 154.518 99.2295 154.095 98.7751 153.757C98.5303 153.578 98.2933 153.45 98.0672 153.386C97.841 153.321 97.6227 153.308 97.4234 153.344C97.2241 153.379 97.0297 153.455 96.8584 153.572C96.687 153.69 96.5317 153.845 96.3852 154.033C96.25 154.219 96.147 154.413 96.0886 154.596C96.0331 154.79 96.017 154.997 96.0544 155.226C96.0918 155.454 96.1827 155.704 96.3119 155.986C96.4451 156.261 96.6337 156.586 96.8676 156.947C97.2451 157.532 97.5761 158.099 97.8477 158.623C98.1264 159.151 98.3182 159.666 98.4231 160.169C98.528 160.672 98.5349 161.165 98.4438 161.649C98.3486 162.14 98.119 162.619 97.7499 163.112C97.4204 163.552 97.0418 163.898 96.6264 164.129C96.2068 164.366 95.7604 164.504 95.2902 164.552C94.8128 164.597 94.3228 164.549 93.8089 164.412C93.2949 164.276 92.7724 164.04 92.2512 163.72L91.1275 165.226L89.8308 164.261L90.9504 162.762C90.5316 162.379 90.1737 161.956 89.8654 161.496C89.5612 161.028 89.346 160.537 89.2392 160.005C89.1284 159.48 89.1358 158.929 89.2658 158.345C89.3917 157.769 89.6865 157.177 90.139 156.572L92.4946 158.327C92.2322 158.684 92.0548 159.024 91.9776 159.337C91.9004 159.65 91.8899 159.945 91.9504 160.215C92.0109 160.485 92.124 160.729 92.301 160.945C92.4738 161.167 92.6671 161.354 92.8907 161.52C93.1456 161.715 93.3897 161.846 93.637 161.923C93.8732 162.003 94.1086 162.035 94.329 162.012C94.5454 161.996 94.7428 161.931 94.9283 161.822C95.1086 161.737 95.2669 161.594 95.4063 161.401Z" fill="url(#paint151_linear_352_65170)"/>
<path d="M50.0457 135.935C51.5771 130.22 48.1855 124.345 42.4702 122.814C36.755 121.283 30.8804 124.674 29.349 130.389C27.8176 136.105 31.2093 141.979 36.9245 143.511C42.6398 145.042 48.5143 141.65 50.0457 135.935Z" fill="#1C5482"/>
<path d="M50.8543 135.474C52.3857 129.758 48.9941 123.884 43.2788 122.352C37.5636 120.821 31.689 124.213 30.1576 129.928C28.6262 135.643 32.0179 141.518 37.7331 143.049C43.4484 144.581 49.3229 141.189 50.8543 135.474Z" fill="#B5E1FF"/>
<path d="M38.0401 142.232C35.5206 141.557 33.4162 139.939 32.1146 137.685C30.8131 135.431 30.4647 132.8 31.1398 130.28C31.8149 127.761 33.4321 125.656 35.6865 124.355C37.9466 123.05 40.572 122.705 43.0915 123.38C45.6111 124.055 47.7154 125.672 49.017 127.926C50.3186 130.181 50.667 132.812 49.9919 135.331C49.3168 137.851 47.6995 139.955 45.4451 141.257C43.1907 142.559 40.5597 142.907 38.0401 142.232ZM32.6188 137.394C35.15 141.778 40.7699 143.284 45.1541 140.753C49.5383 138.222 51.0441 132.602 48.5129 128.218C45.9817 123.833 40.3618 122.328 35.9776 124.859C31.5934 127.39 30.0908 133.015 32.6188 137.394Z" fill="url(#paint152_linear_352_65170)"/>
<path d="M43.1489 134.586C43.0669 134.391 42.9664 134.23 42.8417 134.106C42.7227 133.978 42.5762 133.882 42.3967 133.819C42.2228 133.753 42.0092 133.711 41.7706 133.69C41.5263 133.672 41.2481 133.674 40.9156 133.7C40.3551 133.737 39.8344 133.75 39.35 133.735C38.8712 133.717 38.4337 133.653 38.0421 133.524C37.6537 133.401 37.3081 133.207 37.0084 132.95C36.7087 132.693 36.4613 132.329 36.267 131.875C36.0997 131.481 36.012 131.093 36.0151 130.706C36.0126 130.323 36.0929 129.952 36.2536 129.602C36.411 129.247 36.6375 128.92 36.9355 128.612C37.2335 128.304 37.5982 128.033 38.0296 127.799L37.3893 126.31L38.5861 125.793L39.2305 127.302C39.6858 127.175 40.122 127.119 40.5424 127.141C40.9627 127.163 41.3582 127.259 41.72 127.428C42.0818 127.597 42.4098 127.838 42.6984 128.154C42.9926 128.468 43.2362 128.863 43.4337 129.323L41.2685 130.256C41.03 129.699 40.7298 129.336 40.3591 129.165C39.9973 128.996 39.6047 128.996 39.1877 129.177C38.965 129.275 38.7814 129.389 38.6457 129.52C38.51 129.651 38.4133 129.798 38.358 129.95C38.3027 130.103 38.2774 130.269 38.2904 130.435C38.3033 130.601 38.3486 130.771 38.4208 130.949C38.4954 131.117 38.5894 131.267 38.6929 131.381C38.8054 131.497 38.9429 131.591 39.1168 131.657C39.2907 131.723 39.501 131.76 39.7485 131.783C39.9928 131.801 40.2946 131.8 40.6393 131.783C41.1973 131.755 41.7247 131.753 42.1977 131.774C42.6764 131.792 43.1116 131.866 43.5032 131.995C43.8948 132.123 44.2405 132.317 44.5402 132.574C44.8431 132.837 45.084 133.189 45.2783 133.643C45.4521 134.049 45.5407 134.451 45.5343 134.832C45.5312 135.219 45.4476 135.585 45.2926 135.931C45.1319 136.281 44.9021 136.602 44.6008 136.904C44.2996 137.207 43.926 137.475 43.4946 137.709L44.0906 139.095L42.8995 139.609L42.3068 138.229C41.8725 138.366 41.4348 138.445 40.9912 138.475C40.5443 138.499 40.1165 138.451 39.7038 138.312C39.2943 138.178 38.9144 137.952 38.5609 137.627C38.2106 137.308 37.9174 136.866 37.6789 136.309L39.844 135.376C39.9867 135.702 40.1517 135.961 40.3383 136.14C40.5248 136.32 40.7258 136.445 40.9378 136.512C41.1498 136.578 41.3649 136.598 41.5854 136.561C41.8092 136.53 42.0166 136.471 42.2223 136.382C42.4595 136.283 42.6489 136.166 42.8016 136.025C42.9519 135.893 43.0688 135.742 43.1411 135.58C43.2167 135.423 43.2508 135.259 43.2493 135.087C43.2632 134.928 43.2267 134.76 43.1489 134.586Z" fill="url(#paint153_linear_352_65170)"/>
</g>
<defs>
<linearGradient id="paint0_linear_352_65170" x1="-10.03" y1="-14.0001" x2="51.7146" y2="-12.9537" gradientUnits="userSpaceOnUse">
<stop stop-color="#15466F"/>
<stop offset="1" stop-color="#3387CA"/>
</linearGradient>
<linearGradient id="paint1_linear_352_65170" x1="26.6507" y1="0.932538" x2="55.3159" y2="1.25563" gradientUnits="userSpaceOnUse">
<stop stop-color="#0C1923"/>
<stop offset="1" stop-color="#15466F"/>
</linearGradient>
<linearGradient id="paint2_linear_352_65170" x1="38.4" y1="11.1196" x2="41.2464" y2="11.1549" gradientUnits="userSpaceOnUse">
<stop stop-color="#15466F"/>
<stop offset="1" stop-color="#3387CA"/>
</linearGradient>
<linearGradient id="paint3_linear_352_65170" x1="259.743" y1="196.431" x2="259.206" y2="196.43" gradientUnits="userSpaceOnUse">
<stop stop-color="#15466F"/>
<stop offset="1" stop-color="#3387CA"/>
</linearGradient>
<linearGradient id="paint4_linear_352_65170" x1="261.734" y1="196.431" x2="261.197" y2="196.43" gradientUnits="userSpaceOnUse">
<stop stop-color="#15466F"/>
<stop offset="1" stop-color="#3387CA"/>
</linearGradient>
<linearGradient id="paint5_linear_352_65170" x1="264.131" y1="196.431" x2="263.593" y2="196.43" gradientUnits="userSpaceOnUse">
<stop stop-color="#15466F"/>
<stop offset="1" stop-color="#3387CA"/>
</linearGradient>
<linearGradient id="paint6_linear_352_65170" x1="267.813" y1="196.431" x2="267.276" y2="196.43" gradientUnits="userSpaceOnUse">
<stop stop-color="#15466F"/>
<stop offset="1" stop-color="#3387CA"/>
</linearGradient>
<linearGradient id="paint7_linear_352_65170" x1="271.696" y1="196.431" x2="271.159" y2="196.43" gradientUnits="userSpaceOnUse">
<stop stop-color="#15466F"/>
<stop offset="1" stop-color="#3387CA"/>
</linearGradient>
<linearGradient id="paint8_linear_352_65170" x1="277.648" y1="196.431" x2="277.111" y2="196.43" gradientUnits="userSpaceOnUse">
<stop stop-color="#15466F"/>
<stop offset="1" stop-color="#3387CA"/>
</linearGradient>
<linearGradient id="paint9_linear_352_65170" x1="283.225" y1="196.431" x2="282.688" y2="196.43" gradientUnits="userSpaceOnUse">
<stop stop-color="#15466F"/>
<stop offset="1" stop-color="#3387CA"/>
</linearGradient>
<linearGradient id="paint10_linear_352_65170" x1="288.205" y1="196.431" x2="287.667" y2="196.43" gradientUnits="userSpaceOnUse">
<stop stop-color="#15466F"/>
<stop offset="1" stop-color="#3387CA"/>
</linearGradient>
<linearGradient id="paint11_linear_352_65170" x1="257.835" y1="196.431" x2="257.297" y2="196.43" gradientUnits="userSpaceOnUse">
<stop stop-color="#15466F"/>
<stop offset="1" stop-color="#3387CA"/>
</linearGradient>
<linearGradient id="paint12_linear_352_65170" x1="256.575" y1="196.431" x2="256.038" y2="196.43" gradientUnits="userSpaceOnUse">
<stop stop-color="#15466F"/>
<stop offset="1" stop-color="#3387CA"/>
</linearGradient>
<linearGradient id="paint13_linear_352_65170" x1="255.368" y1="196.431" x2="254.831" y2="196.43" gradientUnits="userSpaceOnUse">
<stop stop-color="#15466F"/>
<stop offset="1" stop-color="#3387CA"/>
</linearGradient>
<linearGradient id="paint14_linear_352_65170" x1="253.942" y1="191.56" x2="254.479" y2="191.56" gradientUnits="userSpaceOnUse">
<stop stop-color="#15466F"/>
<stop offset="1" stop-color="#3387CA"/>
</linearGradient>
<linearGradient id="paint15_linear_352_65170" x1="253.129" y1="191.65" x2="253.667" y2="191.651" gradientUnits="userSpaceOnUse">
<stop stop-color="#15466F"/>
<stop offset="1" stop-color="#3387CA"/>
</linearGradient>
<linearGradient id="paint16_linear_352_65170" x1="257.055" y1="191.705" x2="256.518" y2="191.704" gradientUnits="userSpaceOnUse">
<stop stop-color="#15466F"/>
<stop offset="1" stop-color="#3387CA"/>
</linearGradient>
<linearGradient id="paint17_linear_352_65170" x1="259.047" y1="191.705" x2="258.509" y2="191.704" gradientUnits="userSpaceOnUse">
<stop stop-color="#15466F"/>
<stop offset="1" stop-color="#3387CA"/>
</linearGradient>
<linearGradient id="paint18_linear_352_65170" x1="261.442" y1="191.705" x2="260.905" y2="191.704" gradientUnits="userSpaceOnUse">
<stop stop-color="#15466F"/>
<stop offset="1" stop-color="#3387CA"/>
</linearGradient>
<linearGradient id="paint19_linear_352_65170" x1="265.128" y1="191.705" x2="264.59" y2="191.704" gradientUnits="userSpaceOnUse">
<stop stop-color="#15466F"/>
<stop offset="1" stop-color="#3387CA"/>
</linearGradient>
<linearGradient id="paint20_linear_352_65170" x1="269.009" y1="191.705" x2="268.471" y2="191.704" gradientUnits="userSpaceOnUse">
<stop stop-color="#15466F"/>
<stop offset="1" stop-color="#3387CA"/>
</linearGradient>
<linearGradient id="paint21_linear_352_65170" x1="274.963" y1="191.705" x2="274.425" y2="191.704" gradientUnits="userSpaceOnUse">
<stop stop-color="#15466F"/>
<stop offset="1" stop-color="#3387CA"/>
</linearGradient>
<linearGradient id="paint22_linear_352_65170" x1="280.538" y1="191.705" x2="280" y2="191.704" gradientUnits="userSpaceOnUse">
<stop stop-color="#15466F"/>
<stop offset="1" stop-color="#3387CA"/>
</linearGradient>
<linearGradient id="paint23_linear_352_65170" x1="285.517" y1="191.705" x2="284.98" y2="191.704" gradientUnits="userSpaceOnUse">
<stop stop-color="#15466F"/>
<stop offset="1" stop-color="#3387CA"/>
</linearGradient>
<linearGradient id="paint24_linear_352_65170" x1="255.151" y1="191.705" x2="254.614" y2="191.704" gradientUnits="userSpaceOnUse">
<stop stop-color="#15466F"/>
<stop offset="1" stop-color="#3387CA"/>
</linearGradient>
<linearGradient id="paint25_linear_352_65170" x1="253.884" y1="191.705" x2="253.347" y2="191.704" gradientUnits="userSpaceOnUse">
<stop stop-color="#15466F"/>
<stop offset="1" stop-color="#3387CA"/>
</linearGradient>
<linearGradient id="paint26_linear_352_65170" x1="252.678" y1="191.705" x2="252.141" y2="191.704" gradientUnits="userSpaceOnUse">
<stop stop-color="#15466F"/>
<stop offset="1" stop-color="#3387CA"/>
</linearGradient>
<linearGradient id="paint27_linear_352_65170" x1="251.256" y1="186.841" x2="251.793" y2="186.842" gradientUnits="userSpaceOnUse">
<stop stop-color="#15466F"/>
<stop offset="1" stop-color="#3387CA"/>
</linearGradient>
<linearGradient id="paint28_linear_352_65170" x1="250.444" y1="186.916" x2="250.981" y2="186.917" gradientUnits="userSpaceOnUse">
<stop stop-color="#15466F"/>
<stop offset="1" stop-color="#3387CA"/>
</linearGradient>
<linearGradient id="paint29_linear_352_65170" x1="255.807" y1="186.844" x2="255.27" y2="186.843" gradientUnits="userSpaceOnUse">
<stop stop-color="#15466F"/>
<stop offset="1" stop-color="#3387CA"/>
</linearGradient>
<linearGradient id="paint30_linear_352_65170" x1="257.812" y1="186.844" x2="257.275" y2="186.843" gradientUnits="userSpaceOnUse">
<stop stop-color="#15466F"/>
<stop offset="1" stop-color="#3387CA"/>
</linearGradient>
<linearGradient id="paint31_linear_352_65170" x1="260.208" y1="186.844" x2="259.67" y2="186.843" gradientUnits="userSpaceOnUse">
<stop stop-color="#15466F"/>
<stop offset="1" stop-color="#3387CA"/>
</linearGradient>
<linearGradient id="paint32_linear_352_65170" x1="263.875" y1="186.844" x2="263.337" y2="186.843" gradientUnits="userSpaceOnUse">
<stop stop-color="#15466F"/>
<stop offset="1" stop-color="#3387CA"/>
</linearGradient>
<linearGradient id="paint33_linear_352_65170" x1="267.758" y1="186.844" x2="267.22" y2="186.843" gradientUnits="userSpaceOnUse">
<stop stop-color="#15466F"/>
<stop offset="1" stop-color="#3387CA"/>
</linearGradient>
<linearGradient id="paint34_linear_352_65170" x1="273.712" y1="186.844" x2="273.174" y2="186.843" gradientUnits="userSpaceOnUse">
<stop stop-color="#15466F"/>
<stop offset="1" stop-color="#3387CA"/>
</linearGradient>
<linearGradient id="paint35_linear_352_65170" x1="279.303" y1="186.844" x2="278.766" y2="186.843" gradientUnits="userSpaceOnUse">
<stop stop-color="#15466F"/>
<stop offset="1" stop-color="#3387CA"/>
</linearGradient>
<linearGradient id="paint36_linear_352_65170" x1="284.269" y1="186.844" x2="283.732" y2="186.843" gradientUnits="userSpaceOnUse">
<stop stop-color="#15466F"/>
<stop offset="1" stop-color="#3387CA"/>
</linearGradient>
<linearGradient id="paint37_linear_352_65170" x1="253.911" y1="186.844" x2="253.374" y2="186.843" gradientUnits="userSpaceOnUse">
<stop stop-color="#15466F"/>
<stop offset="1" stop-color="#3387CA"/>
</linearGradient>
<linearGradient id="paint38_linear_352_65170" x1="252.65" y1="186.844" x2="252.113" y2="186.843" gradientUnits="userSpaceOnUse">
<stop stop-color="#15466F"/>
<stop offset="1" stop-color="#3387CA"/>
</linearGradient>
<linearGradient id="paint39_linear_352_65170" x1="251.444" y1="186.844" x2="250.907" y2="186.843" gradientUnits="userSpaceOnUse">
<stop stop-color="#15466F"/>
<stop offset="1" stop-color="#3387CA"/>
</linearGradient>
<linearGradient id="paint40_linear_352_65170" x1="250.022" y1="181.988" x2="250.559" y2="181.989" gradientUnits="userSpaceOnUse">
<stop stop-color="#15466F"/>
<stop offset="1" stop-color="#3387CA"/>
</linearGradient>
<linearGradient id="paint41_linear_352_65170" x1="249.209" y1="182.063" x2="249.747" y2="182.064" gradientUnits="userSpaceOnUse">
<stop stop-color="#15466F"/>
<stop offset="1" stop-color="#3387CA"/>
</linearGradient>
<linearGradient id="paint42_linear_352_65170" x1="259.625" y1="182" x2="259.087" y2="181.999" gradientUnits="userSpaceOnUse">
<stop stop-color="#15466F"/>
<stop offset="1" stop-color="#3387CA"/>
</linearGradient>
<linearGradient id="paint43_linear_352_65170" x1="261.635" y1="182" x2="261.098" y2="181.999" gradientUnits="userSpaceOnUse">
<stop stop-color="#15466F"/>
<stop offset="1" stop-color="#3387CA"/>
</linearGradient>
<linearGradient id="paint44_linear_352_65170" x1="264.032" y1="182" x2="263.495" y2="181.999" gradientUnits="userSpaceOnUse">
<stop stop-color="#15466F"/>
<stop offset="1" stop-color="#3387CA"/>
</linearGradient>
<linearGradient id="paint45_linear_352_65170" x1="267.699" y1="182" x2="267.162" y2="181.999" gradientUnits="userSpaceOnUse">
<stop stop-color="#15466F"/>
<stop offset="1" stop-color="#3387CA"/>
</linearGradient>
<linearGradient id="paint46_linear_352_65170" x1="271.578" y1="182" x2="271.041" y2="181.999" gradientUnits="userSpaceOnUse">
<stop stop-color="#15466F"/>
<stop offset="1" stop-color="#3387CA"/>
</linearGradient>
<linearGradient id="paint47_linear_352_65170" x1="277.536" y1="182" x2="276.999" y2="181.999" gradientUnits="userSpaceOnUse">
<stop stop-color="#15466F"/>
<stop offset="1" stop-color="#3387CA"/>
</linearGradient>
<linearGradient id="paint48_linear_352_65170" x1="283.106" y1="182" x2="282.569" y2="181.999" gradientUnits="userSpaceOnUse">
<stop stop-color="#15466F"/>
<stop offset="1" stop-color="#3387CA"/>
</linearGradient>
<linearGradient id="paint49_linear_352_65170" x1="288.091" y1="182" x2="287.553" y2="181.999" gradientUnits="userSpaceOnUse">
<stop stop-color="#15466F"/>
<stop offset="1" stop-color="#3387CA"/>
</linearGradient>
<linearGradient id="paint50_linear_352_65170" x1="257.72" y1="182" x2="257.183" y2="181.999" gradientUnits="userSpaceOnUse">
<stop stop-color="#15466F"/>
<stop offset="1" stop-color="#3387CA"/>
</linearGradient>
<linearGradient id="paint51_linear_352_65170" x1="256.474" y1="182" x2="255.937" y2="181.999" gradientUnits="userSpaceOnUse">
<stop stop-color="#15466F"/>
<stop offset="1" stop-color="#3387CA"/>
</linearGradient>
<linearGradient id="paint52_linear_352_65170" x1="255.252" y1="182" x2="254.714" y2="181.999" gradientUnits="userSpaceOnUse">
<stop stop-color="#15466F"/>
<stop offset="1" stop-color="#3387CA"/>
</linearGradient>
<linearGradient id="paint53_linear_352_65170" x1="253.833" y1="177.15" x2="254.371" y2="177.151" gradientUnits="userSpaceOnUse">
<stop stop-color="#15466F"/>
<stop offset="1" stop-color="#3387CA"/>
</linearGradient>
<linearGradient id="paint54_linear_352_65170" x1="253.021" y1="177.225" x2="253.558" y2="177.226" gradientUnits="userSpaceOnUse">
<stop stop-color="#15466F"/>
<stop offset="1" stop-color="#3387CA"/>
</linearGradient>
<linearGradient id="paint55_linear_352_65170" x1="259.743" y1="177.194" x2="259.206" y2="177.194" gradientUnits="userSpaceOnUse">
<stop stop-color="#15466F"/>
<stop offset="1" stop-color="#3387CA"/>
</linearGradient>
<linearGradient id="paint56_linear_352_65170" x1="261.734" y1="177.194" x2="261.197" y2="177.194" gradientUnits="userSpaceOnUse">
<stop stop-color="#15466F"/>
<stop offset="1" stop-color="#3387CA"/>
</linearGradient>
<linearGradient id="paint57_linear_352_65170" x1="264.131" y1="177.194" x2="263.593" y2="177.194" gradientUnits="userSpaceOnUse">
<stop stop-color="#15466F"/>
<stop offset="1" stop-color="#3387CA"/>
</linearGradient>
<linearGradient id="paint58_linear_352_65170" x1="267.813" y1="177.194" x2="267.276" y2="177.194" gradientUnits="userSpaceOnUse">
<stop stop-color="#15466F"/>
<stop offset="1" stop-color="#3387CA"/>
</linearGradient>
<linearGradient id="paint59_linear_352_65170" x1="271.696" y1="177.194" x2="271.159" y2="177.194" gradientUnits="userSpaceOnUse">
<stop stop-color="#15466F"/>
<stop offset="1" stop-color="#3387CA"/>
</linearGradient>
<linearGradient id="paint60_linear_352_65170" x1="277.648" y1="177.194" x2="277.111" y2="177.194" gradientUnits="userSpaceOnUse">
<stop stop-color="#15466F"/>
<stop offset="1" stop-color="#3387CA"/>
</linearGradient>
<linearGradient id="paint61_linear_352_65170" x1="283.225" y1="177.194" x2="282.688" y2="177.194" gradientUnits="userSpaceOnUse">
<stop stop-color="#15466F"/>
<stop offset="1" stop-color="#3387CA"/>
</linearGradient>
<linearGradient id="paint62_linear_352_65170" x1="288.205" y1="177.194" x2="287.667" y2="177.194" gradientUnits="userSpaceOnUse">
<stop stop-color="#15466F"/>
<stop offset="1" stop-color="#3387CA"/>
</linearGradient>
<linearGradient id="paint63_linear_352_65170" x1="257.835" y1="177.194" x2="257.297" y2="177.194" gradientUnits="userSpaceOnUse">
<stop stop-color="#15466F"/>
<stop offset="1" stop-color="#3387CA"/>
</linearGradient>
<linearGradient id="paint64_linear_352_65170" x1="256.575" y1="177.194" x2="256.038" y2="177.194" gradientUnits="userSpaceOnUse">
<stop stop-color="#15466F"/>
<stop offset="1" stop-color="#3387CA"/>
</linearGradient>
<linearGradient id="paint65_linear_352_65170" x1="255.368" y1="177.194" x2="254.831" y2="177.194" gradientUnits="userSpaceOnUse">
<stop stop-color="#15466F"/>
<stop offset="1" stop-color="#3387CA"/>
</linearGradient>
<linearGradient id="paint66_linear_352_65170" x1="253.942" y1="172.326" x2="254.479" y2="172.327" gradientUnits="userSpaceOnUse">
<stop stop-color="#15466F"/>
<stop offset="1" stop-color="#3387CA"/>
</linearGradient>
<linearGradient id="paint67_linear_352_65170" x1="253.129" y1="172.417" x2="253.667" y2="172.418" gradientUnits="userSpaceOnUse">
<stop stop-color="#15466F"/>
<stop offset="1" stop-color="#3387CA"/>
</linearGradient>
<linearGradient id="paint68_linear_352_65170" x1="257.055" y1="172.468" x2="256.518" y2="172.467" gradientUnits="userSpaceOnUse">
<stop stop-color="#15466F"/>
<stop offset="1" stop-color="#3387CA"/>
</linearGradient>
<linearGradient id="paint69_linear_352_65170" x1="259.047" y1="172.468" x2="258.509" y2="172.467" gradientUnits="userSpaceOnUse">
<stop stop-color="#15466F"/>
<stop offset="1" stop-color="#3387CA"/>
</linearGradient>
<linearGradient id="paint70_linear_352_65170" x1="261.442" y1="172.468" x2="260.905" y2="172.467" gradientUnits="userSpaceOnUse">
<stop stop-color="#15466F"/>
<stop offset="1" stop-color="#3387CA"/>
</linearGradient>
<linearGradient id="paint71_linear_352_65170" x1="265.128" y1="172.468" x2="264.59" y2="172.467" gradientUnits="userSpaceOnUse">
<stop stop-color="#15466F"/>
<stop offset="1" stop-color="#3387CA"/>
</linearGradient>
<linearGradient id="paint72_linear_352_65170" x1="269.009" y1="172.468" x2="268.471" y2="172.467" gradientUnits="userSpaceOnUse">
<stop stop-color="#15466F"/>
<stop offset="1" stop-color="#3387CA"/>
</linearGradient>
<linearGradient id="paint73_linear_352_65170" x1="274.963" y1="172.468" x2="274.425" y2="172.467" gradientUnits="userSpaceOnUse">
<stop stop-color="#15466F"/>
<stop offset="1" stop-color="#3387CA"/>
</linearGradient>
<linearGradient id="paint74_linear_352_65170" x1="280.538" y1="172.468" x2="280" y2="172.467" gradientUnits="userSpaceOnUse">
<stop stop-color="#15466F"/>
<stop offset="1" stop-color="#3387CA"/>
</linearGradient>
<linearGradient id="paint75_linear_352_65170" x1="285.517" y1="172.468" x2="284.98" y2="172.467" gradientUnits="userSpaceOnUse">
<stop stop-color="#15466F"/>
<stop offset="1" stop-color="#3387CA"/>
</linearGradient>
<linearGradient id="paint76_linear_352_65170" x1="255.151" y1="172.468" x2="254.614" y2="172.467" gradientUnits="userSpaceOnUse">
<stop stop-color="#15466F"/>
<stop offset="1" stop-color="#3387CA"/>
</linearGradient>
<linearGradient id="paint77_linear_352_65170" x1="253.884" y1="172.468" x2="253.347" y2="172.467" gradientUnits="userSpaceOnUse">
<stop stop-color="#15466F"/>
<stop offset="1" stop-color="#3387CA"/>
</linearGradient>
<linearGradient id="paint78_linear_352_65170" x1="252.678" y1="172.468" x2="252.141" y2="172.467" gradientUnits="userSpaceOnUse">
<stop stop-color="#15466F"/>
<stop offset="1" stop-color="#3387CA"/>
</linearGradient>
<linearGradient id="paint79_linear_352_65170" x1="251.256" y1="167.593" x2="251.793" y2="167.594" gradientUnits="userSpaceOnUse">
<stop stop-color="#15466F"/>
<stop offset="1" stop-color="#3387CA"/>
</linearGradient>
<linearGradient id="paint80_linear_352_65170" x1="250.444" y1="167.684" x2="250.981" y2="167.685" gradientUnits="userSpaceOnUse">
<stop stop-color="#15466F"/>
<stop offset="1" stop-color="#3387CA"/>
</linearGradient>
<linearGradient id="paint81_linear_352_65170" x1="252.816" y1="167.607" x2="252.279" y2="167.607" gradientUnits="userSpaceOnUse">
<stop stop-color="#15466F"/>
<stop offset="1" stop-color="#3387CA"/>
</linearGradient>
<linearGradient id="paint82_linear_352_65170" x1="254.811" y1="167.607" x2="254.274" y2="167.607" gradientUnits="userSpaceOnUse">
<stop stop-color="#15466F"/>
<stop offset="1" stop-color="#3387CA"/>
</linearGradient>
<linearGradient id="paint83_linear_352_65170" x1="257.208" y1="167.607" x2="256.67" y2="167.607" gradientUnits="userSpaceOnUse">
<stop stop-color="#15466F"/>
<stop offset="1" stop-color="#3387CA"/>
</linearGradient>
<linearGradient id="paint84_linear_352_65170" x1="260.875" y1="167.607" x2="260.337" y2="167.607" gradientUnits="userSpaceOnUse">
<stop stop-color="#15466F"/>
<stop offset="1" stop-color="#3387CA"/>
</linearGradient>
<linearGradient id="paint85_linear_352_65170" x1="264.769" y1="167.607" x2="264.232" y2="167.607" gradientUnits="userSpaceOnUse">
<stop stop-color="#15466F"/>
<stop offset="1" stop-color="#3387CA"/>
</linearGradient>
<linearGradient id="paint86_linear_352_65170" x1="270.725" y1="167.607" x2="270.188" y2="167.607" gradientUnits="userSpaceOnUse">
<stop stop-color="#15466F"/>
<stop offset="1" stop-color="#3387CA"/>
</linearGradient>
<linearGradient id="paint87_linear_352_65170" x1="276.302" y1="167.607" x2="275.765" y2="167.607" gradientUnits="userSpaceOnUse">
<stop stop-color="#15466F"/>
<stop offset="1" stop-color="#3387CA"/>
</linearGradient>
<linearGradient id="paint88_linear_352_65170" x1="281.268" y1="167.607" x2="280.731" y2="167.607" gradientUnits="userSpaceOnUse">
<stop stop-color="#15466F"/>
<stop offset="1" stop-color="#3387CA"/>
</linearGradient>
<linearGradient id="paint89_linear_352_65170" x1="250.913" y1="167.607" x2="250.375" y2="167.607" gradientUnits="userSpaceOnUse">
<stop stop-color="#15466F"/>
<stop offset="1" stop-color="#3387CA"/>
</linearGradient>
<linearGradient id="paint90_linear_352_65170" x1="249.65" y1="167.607" x2="249.113" y2="167.607" gradientUnits="userSpaceOnUse">
<stop stop-color="#15466F"/>
<stop offset="1" stop-color="#3387CA"/>
</linearGradient>
<linearGradient id="paint91_linear_352_65170" x1="248.444" y1="167.607" x2="247.907" y2="167.607" gradientUnits="userSpaceOnUse">
<stop stop-color="#15466F"/>
<stop offset="1" stop-color="#3387CA"/>
</linearGradient>
<linearGradient id="paint92_linear_352_65170" x1="247.028" y1="162.77" x2="247.565" y2="162.77" gradientUnits="userSpaceOnUse">
<stop stop-color="#15466F"/>
<stop offset="1" stop-color="#3387CA"/>
</linearGradient>
<linearGradient id="paint93_linear_352_65170" x1="246.197" y1="162.845" x2="246.734" y2="162.846" gradientUnits="userSpaceOnUse">
<stop stop-color="#15466F"/>
<stop offset="1" stop-color="#3387CA"/>
</linearGradient>
<linearGradient id="paint94_linear_352_65170" x1="259.625" y1="162.778" x2="259.087" y2="162.777" gradientUnits="userSpaceOnUse">
<stop stop-color="#15466F"/>
<stop offset="1" stop-color="#3387CA"/>
</linearGradient>
<linearGradient id="paint95_linear_352_65170" x1="261.635" y1="162.778" x2="261.098" y2="162.777" gradientUnits="userSpaceOnUse">
<stop stop-color="#15466F"/>
<stop offset="1" stop-color="#3387CA"/>
</linearGradient>
<linearGradient id="paint96_linear_352_65170" x1="264.032" y1="162.778" x2="263.495" y2="162.777" gradientUnits="userSpaceOnUse">
<stop stop-color="#15466F"/>
<stop offset="1" stop-color="#3387CA"/>
</linearGradient>
<linearGradient id="paint97_linear_352_65170" x1="267.699" y1="162.778" x2="267.162" y2="162.777" gradientUnits="userSpaceOnUse">
<stop stop-color="#15466F"/>
<stop offset="1" stop-color="#3387CA"/>
</linearGradient>
<linearGradient id="paint98_linear_352_65170" x1="271.578" y1="162.778" x2="271.041" y2="162.777" gradientUnits="userSpaceOnUse">
<stop stop-color="#15466F"/>
<stop offset="1" stop-color="#3387CA"/>
</linearGradient>
<linearGradient id="paint99_linear_352_65170" x1="277.536" y1="162.778" x2="276.999" y2="162.777" gradientUnits="userSpaceOnUse">
<stop stop-color="#15466F"/>
<stop offset="1" stop-color="#3387CA"/>
</linearGradient>
<linearGradient id="paint100_linear_352_65170" x1="283.106" y1="162.778" x2="282.569" y2="162.777" gradientUnits="userSpaceOnUse">
<stop stop-color="#15466F"/>
<stop offset="1" stop-color="#3387CA"/>
</linearGradient>
<linearGradient id="paint101_linear_352_65170" x1="288.091" y1="162.778" x2="287.553" y2="162.777" gradientUnits="userSpaceOnUse">
<stop stop-color="#15466F"/>
<stop offset="1" stop-color="#3387CA"/>
</linearGradient>
<linearGradient id="paint102_linear_352_65170" x1="257.72" y1="162.778" x2="257.183" y2="162.777" gradientUnits="userSpaceOnUse">
<stop stop-color="#15466F"/>
<stop offset="1" stop-color="#3387CA"/>
</linearGradient>
<linearGradient id="paint103_linear_352_65170" x1="256.474" y1="162.778" x2="255.937" y2="162.777" gradientUnits="userSpaceOnUse">
<stop stop-color="#15466F"/>
<stop offset="1" stop-color="#3387CA"/>
</linearGradient>
<linearGradient id="paint104_linear_352_65170" x1="255.252" y1="162.778" x2="254.714" y2="162.777" gradientUnits="userSpaceOnUse">
<stop stop-color="#15466F"/>
<stop offset="1" stop-color="#3387CA"/>
</linearGradient>
<linearGradient id="paint105_linear_352_65170" x1="253.833" y1="157.916" x2="254.371" y2="157.917" gradientUnits="userSpaceOnUse">
<stop stop-color="#15466F"/>
<stop offset="1" stop-color="#3387CA"/>
</linearGradient>
<linearGradient id="paint106_linear_352_65170" x1="253.021" y1="157.992" x2="253.558" y2="157.993" gradientUnits="userSpaceOnUse">
<stop stop-color="#15466F"/>
<stop offset="1" stop-color="#3387CA"/>
</linearGradient>
<linearGradient id="paint107_linear_352_65170" x1="255.807" y1="158.036" x2="255.27" y2="158.035" gradientUnits="userSpaceOnUse">
<stop stop-color="#15466F"/>
<stop offset="1" stop-color="#3387CA"/>
</linearGradient>
<linearGradient id="paint108_linear_352_65170" x1="257.812" y1="158.036" x2="257.275" y2="158.035" gradientUnits="userSpaceOnUse">
<stop stop-color="#15466F"/>
<stop offset="1" stop-color="#3387CA"/>
</linearGradient>
<linearGradient id="paint109_linear_352_65170" x1="260.208" y1="158.036" x2="259.67" y2="158.035" gradientUnits="userSpaceOnUse">
<stop stop-color="#15466F"/>
<stop offset="1" stop-color="#3387CA"/>
</linearGradient>
<linearGradient id="paint110_linear_352_65170" x1="263.875" y1="158.036" x2="263.337" y2="158.035" gradientUnits="userSpaceOnUse">
<stop stop-color="#15466F"/>
<stop offset="1" stop-color="#3387CA"/>
</linearGradient>
<linearGradient id="paint111_linear_352_65170" x1="267.758" y1="158.036" x2="267.22" y2="158.035" gradientUnits="userSpaceOnUse">
<stop stop-color="#15466F"/>
<stop offset="1" stop-color="#3387CA"/>
</linearGradient>
<linearGradient id="paint112_linear_352_65170" x1="273.712" y1="158.036" x2="273.174" y2="158.035" gradientUnits="userSpaceOnUse">
<stop stop-color="#15466F"/>
<stop offset="1" stop-color="#3387CA"/>
</linearGradient>
<linearGradient id="paint113_linear_352_65170" x1="279.303" y1="158.036" x2="278.766" y2="158.035" gradientUnits="userSpaceOnUse">
<stop stop-color="#15466F"/>
<stop offset="1" stop-color="#3387CA"/>
</linearGradient>
<linearGradient id="paint114_linear_352_65170" x1="284.269" y1="158.036" x2="283.732" y2="158.035" gradientUnits="userSpaceOnUse">
<stop stop-color="#15466F"/>
<stop offset="1" stop-color="#3387CA"/>
</linearGradient>
<linearGradient id="paint115_linear_352_65170" x1="253.911" y1="158.036" x2="253.374" y2="158.035" gradientUnits="userSpaceOnUse">
<stop stop-color="#15466F"/>
<stop offset="1" stop-color="#3387CA"/>
</linearGradient>
<linearGradient id="paint116_linear_352_65170" x1="252.65" y1="158.036" x2="252.113" y2="158.035" gradientUnits="userSpaceOnUse">
<stop stop-color="#15466F"/>
<stop offset="1" stop-color="#3387CA"/>
</linearGradient>
<linearGradient id="paint117_linear_352_65170" x1="251.444" y1="158.036" x2="250.907" y2="158.035" gradientUnits="userSpaceOnUse">
<stop stop-color="#15466F"/>
<stop offset="1" stop-color="#3387CA"/>
</linearGradient>
<linearGradient id="paint118_linear_352_65170" x1="250.022" y1="153.168" x2="250.559" y2="153.169" gradientUnits="userSpaceOnUse">
<stop stop-color="#15466F"/>
<stop offset="1" stop-color="#3387CA"/>
</linearGradient>
<linearGradient id="paint119_linear_352_65170" x1="249.209" y1="153.259" x2="249.747" y2="153.26" gradientUnits="userSpaceOnUse">
<stop stop-color="#15466F"/>
<stop offset="1" stop-color="#3387CA"/>
</linearGradient>
<linearGradient id="paint120_linear_352_65170" x1="254.185" y1="153.191" x2="253.648" y2="153.19" gradientUnits="userSpaceOnUse">
<stop stop-color="#15466F"/>
<stop offset="1" stop-color="#3387CA"/>
</linearGradient>
<linearGradient id="paint121_linear_352_65170" x1="256.19" y1="153.191" x2="255.653" y2="153.19" gradientUnits="userSpaceOnUse">
<stop stop-color="#15466F"/>
<stop offset="1" stop-color="#3387CA"/>
</linearGradient>
<linearGradient id="paint122_linear_352_65170" x1="258.589" y1="153.191" x2="258.051" y2="153.19" gradientUnits="userSpaceOnUse">
<stop stop-color="#15466F"/>
<stop offset="1" stop-color="#3387CA"/>
</linearGradient>
<linearGradient id="paint123_linear_352_65170" x1="262.255" y1="153.191" x2="261.717" y2="153.19" gradientUnits="userSpaceOnUse">
<stop stop-color="#15466F"/>
<stop offset="1" stop-color="#3387CA"/>
</linearGradient>
<linearGradient id="paint124_linear_352_65170" x1="266.137" y1="153.191" x2="265.6" y2="153.19" gradientUnits="userSpaceOnUse">
<stop stop-color="#15466F"/>
<stop offset="1" stop-color="#3387CA"/>
</linearGradient>
<linearGradient id="paint125_linear_352_65170" x1="272.092" y1="153.191" x2="271.554" y2="153.19" gradientUnits="userSpaceOnUse">
<stop stop-color="#15466F"/>
<stop offset="1" stop-color="#3387CA"/>
</linearGradient>
<linearGradient id="paint126_linear_352_65170" x1="277.665" y1="153.191" x2="277.127" y2="153.19" gradientUnits="userSpaceOnUse">
<stop stop-color="#15466F"/>
<stop offset="1" stop-color="#3387CA"/>
</linearGradient>
<linearGradient id="paint127_linear_352_65170" x1="282.151" y1="148.345" x2="282.688" y2="148.346" gradientUnits="userSpaceOnUse">
<stop stop-color="#15466F"/>
<stop offset="1" stop-color="#3387CA"/>
</linearGradient>
<linearGradient id="paint128_linear_352_65170" x1="252.296" y1="153.191" x2="251.758" y2="153.19" gradientUnits="userSpaceOnUse">
<stop stop-color="#15466F"/>
<stop offset="1" stop-color="#3387CA"/>
</linearGradient>
<linearGradient id="paint129_linear_352_65170" x1="251.031" y1="153.191" x2="250.494" y2="153.19" gradientUnits="userSpaceOnUse">
<stop stop-color="#15466F"/>
<stop offset="1" stop-color="#3387CA"/>
</linearGradient>
<linearGradient id="paint130_linear_352_65170" x1="249.812" y1="153.191" x2="249.275" y2="153.19" gradientUnits="userSpaceOnUse">
<stop stop-color="#15466F"/>
<stop offset="1" stop-color="#3387CA"/>
</linearGradient>
<linearGradient id="paint131_linear_352_65170" x1="248.398" y1="148.33" x2="248.935" y2="148.33" gradientUnits="userSpaceOnUse">
<stop stop-color="#15466F"/>
<stop offset="1" stop-color="#3387CA"/>
</linearGradient>
<linearGradient id="paint132_linear_352_65170" x1="247.585" y1="148.42" x2="248.123" y2="148.421" gradientUnits="userSpaceOnUse">
<stop stop-color="#15466F"/>
<stop offset="1" stop-color="#3387CA"/>
</linearGradient>
<linearGradient id="paint133_linear_352_65170" x1="258.306" y1="200.994" x2="257.813" y2="200.993" gradientUnits="userSpaceOnUse">
<stop stop-color="#15466F"/>
<stop offset="1" stop-color="#3387CA"/>
</linearGradient>
<linearGradient id="paint134_linear_352_65170" x1="260.148" y1="200.994" x2="259.654" y2="200.993" gradientUnits="userSpaceOnUse">
<stop stop-color="#15466F"/>
<stop offset="1" stop-color="#3387CA"/>
</linearGradient>
<linearGradient id="paint135_linear_352_65170" x1="262.35" y1="200.994" x2="261.857" y2="200.993" gradientUnits="userSpaceOnUse">
<stop stop-color="#15466F"/>
<stop offset="1" stop-color="#3387CA"/>
</linearGradient>
<linearGradient id="paint136_linear_352_65170" x1="265.716" y1="200.994" x2="265.223" y2="200.993" gradientUnits="userSpaceOnUse">
<stop stop-color="#15466F"/>
<stop offset="1" stop-color="#3387CA"/>
</linearGradient>
<linearGradient id="paint137_linear_352_65170" x1="269.279" y1="200.994" x2="268.785" y2="200.993" gradientUnits="userSpaceOnUse">
<stop stop-color="#15466F"/>
<stop offset="1" stop-color="#3387CA"/>
</linearGradient>
<linearGradient id="paint138_linear_352_65170" x1="274.745" y1="200.994" x2="274.252" y2="200.993" gradientUnits="userSpaceOnUse">
<stop stop-color="#15466F"/>
<stop offset="1" stop-color="#3387CA"/>
</linearGradient>
<linearGradient id="paint139_linear_352_65170" x1="279.865" y1="200.994" x2="279.371" y2="200.993" gradientUnits="userSpaceOnUse">
<stop stop-color="#15466F"/>
<stop offset="1" stop-color="#3387CA"/>
</linearGradient>
<linearGradient id="paint140_linear_352_65170" x1="284.439" y1="200.994" x2="283.945" y2="200.993" gradientUnits="userSpaceOnUse">
<stop stop-color="#15466F"/>
<stop offset="1" stop-color="#3387CA"/>
</linearGradient>
<linearGradient id="paint141_linear_352_65170" x1="256.571" y1="200.994" x2="256.077" y2="200.993" gradientUnits="userSpaceOnUse">
<stop stop-color="#15466F"/>
<stop offset="1" stop-color="#3387CA"/>
</linearGradient>
<linearGradient id="paint142_linear_352_65170" x1="255.413" y1="200.994" x2="254.92" y2="200.993" gradientUnits="userSpaceOnUse">
<stop stop-color="#15466F"/>
<stop offset="1" stop-color="#3387CA"/>
</linearGradient>
<linearGradient id="paint143_linear_352_65170" x1="254.29" y1="200.994" x2="253.797" y2="200.993" gradientUnits="userSpaceOnUse">
<stop stop-color="#15466F"/>
<stop offset="1" stop-color="#3387CA"/>
</linearGradient>
<linearGradient id="paint144_linear_352_65170" x1="252.996" y1="196" x2="253.489" y2="196.001" gradientUnits="userSpaceOnUse">
<stop stop-color="#15466F"/>
<stop offset="1" stop-color="#3387CA"/>
</linearGradient>
<linearGradient id="paint145_linear_352_65170" x1="252.248" y1="196.093" x2="252.741" y2="196.094" gradientUnits="userSpaceOnUse">
<stop stop-color="#15466F"/>
<stop offset="1" stop-color="#3387CA"/>
</linearGradient>
<linearGradient id="paint146_linear_352_65170" x1="292.815" y1="154.192" x2="333.922" y2="154.702" gradientUnits="userSpaceOnUse">
<stop stop-color="#15466F"/>
<stop offset="1" stop-color="#3387CA"/>
</linearGradient>
<linearGradient id="paint147_linear_352_65170" x1="303.562" y1="160.056" x2="321.569" y2="160.188" gradientUnits="userSpaceOnUse">
<stop stop-color="#15466F"/>
<stop offset="1" stop-color="#3387CA"/>
</linearGradient>
<linearGradient id="paint148_linear_352_65170" x1="268.902" y1="38.4819" x2="290.08" y2="26.6027" gradientUnits="userSpaceOnUse">
<stop stop-color="#15466F"/>
<stop offset="1" stop-color="#3387CA"/>
</linearGradient>
<linearGradient id="paint149_linear_352_65170" x1="276.134" y1="38.3074" x2="285.384" y2="33.0571" gradientUnits="userSpaceOnUse">
<stop stop-color="#15466F"/>
<stop offset="1" stop-color="#3387CA"/>
</linearGradient>
<linearGradient id="paint150_linear_352_65170" x1="92.8157" y1="141.788" x2="111.925" y2="153.139" gradientUnits="userSpaceOnUse">
<stop stop-color="#15466F"/>
<stop offset="1" stop-color="#3387CA"/>
</linearGradient>
<linearGradient id="paint151_linear_352_65170" x1="96.2625" y1="147.441" x2="104.658" y2="152.371" gradientUnits="userSpaceOnUse">
<stop stop-color="#15466F"/>
<stop offset="1" stop-color="#3387CA"/>
</linearGradient>
<linearGradient id="paint152_linear_352_65170" x1="28.4786" y1="128.516" x2="44.0367" y2="119.789" gradientUnits="userSpaceOnUse">
<stop stop-color="#15466F"/>
<stop offset="1" stop-color="#3387CA"/>
</linearGradient>
<linearGradient id="paint153_linear_352_65170" x1="33.7897" y1="128.389" x2="40.5852" y2="124.532" gradientUnits="userSpaceOnUse">
<stop stop-color="#15466F"/>
<stop offset="1" stop-color="#3387CA"/>
</linearGradient>
<clipPath id="clip0_352_65170">
<rect width="358" height="199" fill="white"/>
</clipPath>
</defs>
</svg>
