<svg width="358" height="199" viewBox="0 0 358 199" fill="none" xmlns="http://www.w3.org/2000/svg">
<rect width="358" height="199" fill="#F2F7FC"/>
<g clip-path="url(#clip0_352_65157)">
<rect width="358" height="199" fill="#F2F7FC"/>
<path d="M326.657 60.35C331.86 55.1473 331.86 46.7121 326.657 41.5093C321.455 36.3066 313.02 36.3066 307.817 41.5093C302.614 46.7121 302.614 55.1473 307.817 60.35C313.02 65.5527 321.455 65.5527 326.657 60.35Z" fill="#3387C9"/>
<path d="M318.601 56.8898V58.7393H316.265V56.9838C314.604 56.8898 312.989 56.4352 312.002 55.824L313.272 52.9714C314.369 53.614 315.826 54.0372 317.112 54.0372C318.224 54.0372 318.616 53.8021 318.616 53.4103C318.616 51.9526 312.19 53.1281 312.19 48.7866C312.19 46.9057 313.554 45.3384 316.281 44.9465V43.1284H318.616V44.8995C319.839 45.0092 321.046 45.3384 321.986 45.8713L320.81 48.7082C319.666 48.1283 318.585 47.8461 317.566 47.8461C316.422 47.8461 316.061 48.1753 316.061 48.5828C316.061 49.9778 322.488 48.8179 322.488 53.0968C322.472 54.8836 321.171 56.4352 318.601 56.8898Z" fill="white"/>
<path d="M294.072 77.1086C298.53 77.1086 302.144 73.4947 302.144 69.0367C302.144 64.5787 298.53 60.9648 294.072 60.9648C289.614 60.9648 286 64.5787 286 69.0367C286 73.4947 289.614 77.1086 294.072 77.1086Z" fill="#3387C9"/>
<path d="M294.903 72.642V73.7548H293.477V72.689C292.474 72.6263 291.502 72.3599 290.891 71.9837L291.659 70.2596C292.317 70.6514 293.21 70.9022 293.978 70.9022C294.652 70.9022 294.887 70.7612 294.887 70.5261C294.887 69.6327 291 70.3536 291 67.7362C291 66.592 291.831 65.6359 293.477 65.4165V64.3193H294.903V65.4008C295.64 65.4635 296.376 65.6673 296.941 65.9807L296.22 67.7048C295.53 67.36 294.872 67.1876 294.26 67.1876C293.571 67.1876 293.351 67.3913 293.351 67.6265C293.351 68.4728 297.238 67.7675 297.238 70.3693C297.238 71.4194 296.455 72.3755 294.903 72.642Z" fill="white"/>
<path d="M321.666 75.6236C322.442 72.2761 320.358 68.933 317.01 68.1567C313.663 67.3804 310.32 69.4648 309.543 72.8123C308.767 76.1598 310.851 79.5029 314.199 80.2792C317.546 81.0555 320.889 78.9711 321.666 75.6236Z" fill="#3387C9"/>
<path d="M316.247 76.9989V77.861H315.15V77.0303C314.366 76.9833 313.614 76.7795 313.159 76.4817L313.755 75.1495C314.272 75.4473 314.946 75.651 315.542 75.651C316.059 75.651 316.247 75.5413 316.247 75.3532C316.247 74.6636 313.238 75.2278 313.238 73.1903C313.238 72.3126 313.88 71.5759 315.15 71.4035V70.5571H316.247V71.3878C316.827 71.4348 317.375 71.5916 317.83 71.8424L317.281 73.1746C316.748 72.9082 316.247 72.7671 315.761 72.7671C315.228 72.7671 315.056 72.9238 315.056 73.1119C315.056 73.7702 318.065 73.2216 318.065 75.2278C318.049 76.0585 317.454 76.7795 316.247 76.9989Z" fill="white"/>
<path d="M290.526 47.062H289.617V53.5822H290.526V47.062Z" fill="url(#paint0_linear_352_65157)"/>
<path d="M293.332 49.8677H286.812V50.7767H293.332V49.8677Z" fill="url(#paint1_linear_352_65157)"/>
<path d="M298.665 29.5864H297.302V39.3981H298.665V29.5864Z" fill="url(#paint2_linear_352_65157)"/>
<path d="M302.881 33.8184H293.069V35.182H302.881V33.8184Z" fill="url(#paint3_linear_352_65157)"/>
<path d="M329.415 79.7261H328.381V87.1553H329.415V79.7261Z" fill="url(#paint4_linear_352_65157)"/>
<path d="M332.612 82.9233H325.183V83.9578H332.612V82.9233Z" fill="url(#paint5_linear_352_65157)"/>
<path opacity="0.4" d="M173.67 36.6801C178.389 31.9609 178.389 24.3096 173.67 19.5905C168.95 14.8713 161.299 14.8713 156.58 19.5904C151.861 24.3096 151.861 31.9609 156.58 36.6801C161.299 41.3992 168.95 41.3992 173.67 36.6801Z" fill="#B5E1FF"/>
<path opacity="0.4" d="M193.979 187.547C201.492 187.547 207.583 181.456 207.583 173.942C207.583 166.428 201.492 160.337 193.979 160.337C186.465 160.337 180.374 166.428 180.374 173.942C180.374 181.456 186.465 187.547 193.979 187.547Z" fill="#B5E1FF"/>
<path d="M168.791 193.894C168.65 193.894 168.509 193.894 168.368 193.894V193.502C169.01 193.518 169.668 193.502 170.311 193.455L170.327 193.847C169.825 193.878 169.292 193.894 168.791 193.894ZM166.393 193.784C165.734 193.722 165.076 193.643 164.434 193.534L164.496 193.142C165.123 193.252 165.781 193.33 166.424 193.393L166.393 193.784ZM172.286 193.659L172.239 193.267C172.882 193.189 173.524 193.063 174.151 192.938L174.229 193.314C173.603 193.455 172.944 193.565 172.286 193.659ZM162.506 193.126C161.863 192.969 161.236 192.781 160.609 192.578L160.735 192.201C161.346 192.405 161.973 192.578 162.6 192.734L162.506 193.126ZM176.157 192.844L176.048 192.468C176.675 192.28 177.286 192.076 177.897 191.857L178.038 192.217C177.411 192.452 176.784 192.656 176.157 192.844ZM158.76 191.904C158.148 191.653 157.553 191.371 156.973 191.073L157.145 190.728C157.725 191.026 158.321 191.292 158.916 191.543L158.76 191.904ZM179.841 191.449L179.668 191.089C180.248 190.822 180.828 190.509 181.392 190.195L181.58 190.54C181.016 190.869 180.436 191.167 179.841 191.449ZM155.233 190.101C154.669 189.756 154.12 189.396 153.587 189.02L153.823 188.706C154.355 189.082 154.888 189.443 155.437 189.772L155.233 190.101ZM183.273 189.506L183.054 189.176C183.587 188.816 184.119 188.44 184.621 188.032L184.856 188.346C184.355 188.753 183.822 189.145 183.273 189.506ZM152.036 187.813C151.534 187.39 151.048 186.951 150.578 186.496L150.845 186.214C151.299 186.669 151.785 187.107 152.287 187.515L152.036 187.813ZM186.376 187.076L186.11 186.794C186.58 186.355 187.05 185.901 187.489 185.43L187.771 185.697C187.333 186.167 186.862 186.637 186.376 187.076ZM149.199 185.054C148.76 184.568 148.352 184.051 147.945 183.534L148.258 183.299C148.65 183.816 149.058 184.318 149.481 184.803L149.199 185.054ZM189.072 184.208L188.775 183.957C189.182 183.456 189.574 182.938 189.934 182.405L190.263 182.625C189.887 183.173 189.495 183.706 189.072 184.208ZM146.832 181.92C146.472 181.371 146.143 180.791 145.829 180.227L146.174 180.039C146.487 180.603 146.816 181.167 147.161 181.716L146.832 181.92ZM191.329 180.963L190.984 180.76C191.314 180.195 191.627 179.631 191.909 179.051L192.254 179.224C191.972 179.819 191.658 180.399 191.329 180.963ZM144.951 178.456C144.685 177.86 144.434 177.249 144.215 176.622L144.591 176.496C144.81 177.108 145.045 177.703 145.312 178.299L144.951 178.456ZM193.053 177.421L192.693 177.28C192.928 176.685 193.147 176.058 193.335 175.446L193.712 175.556C193.524 176.183 193.304 176.81 193.053 177.421ZM143.619 174.741C143.447 174.114 143.29 173.456 143.165 172.813L143.556 172.735C143.682 173.362 143.823 174.004 143.995 174.631L143.619 174.741ZM194.229 173.66L193.853 173.566C193.994 172.939 194.119 172.296 194.213 171.653L194.605 171.716C194.495 172.359 194.37 173.017 194.229 173.66ZM142.851 170.87C142.773 170.227 142.726 169.553 142.694 168.911L143.086 168.895C143.118 169.537 143.165 170.196 143.243 170.838L142.851 170.87ZM194.824 169.757L194.433 169.726C194.48 169.083 194.511 168.425 194.511 167.782H194.903C194.887 168.44 194.872 169.099 194.824 169.757ZM194.495 167.531C194.495 166.889 194.464 166.23 194.401 165.588L194.793 165.556C194.856 166.215 194.887 166.873 194.887 167.531H194.495ZM143.086 166.951L142.694 166.936C142.71 166.277 142.757 165.619 142.835 164.961L143.227 165.008C143.149 165.65 143.102 166.293 143.086 166.951ZM194.166 163.66C194.056 163.017 193.931 162.375 193.79 161.748L194.166 161.654C194.323 162.296 194.448 162.939 194.558 163.582L194.166 163.66ZM143.494 163.08L143.102 163.002C143.227 162.359 143.368 161.716 143.541 161.074L143.917 161.168C143.76 161.81 143.619 162.453 143.494 163.08ZM193.257 159.883C193.053 159.271 192.834 158.66 192.583 158.064L192.944 157.923C193.194 158.535 193.414 159.146 193.618 159.773L193.257 159.883ZM144.497 159.334L144.121 159.209C144.34 158.582 144.575 157.97 144.842 157.375L145.202 157.532C144.936 158.111 144.701 158.723 144.497 159.334ZM191.8 156.293C191.517 155.713 191.204 155.149 190.859 154.585L191.188 154.381C191.533 154.945 191.847 155.525 192.144 156.105L191.8 156.293ZM146.048 155.76L145.704 155.572C146.017 154.992 146.346 154.413 146.691 153.864L147.02 154.068C146.675 154.632 146.346 155.196 146.048 155.76ZM189.793 152.955C189.417 152.422 189.025 151.905 188.618 151.419L188.916 151.168C189.339 151.67 189.731 152.203 190.107 152.735L189.793 152.955ZM148.117 152.485L147.804 152.25C148.196 151.717 148.603 151.199 149.042 150.714L149.34 150.964C148.917 151.45 148.509 151.967 148.117 152.485ZM187.317 149.961C186.862 149.491 186.392 149.036 185.922 148.613L186.188 148.315C186.674 148.754 187.16 149.209 187.615 149.679L187.317 149.961ZM150.656 149.538L150.374 149.256C150.845 148.801 151.33 148.347 151.832 147.924L152.083 148.221C151.597 148.645 151.127 149.083 150.656 149.538ZM184.433 147.375C183.916 146.983 183.383 146.607 182.85 146.247L183.069 145.917C183.618 146.278 184.166 146.654 184.684 147.062L184.433 147.375ZM153.619 147.015L153.384 146.701C153.917 146.309 154.465 145.949 155.014 145.604L155.217 145.933C154.685 146.278 154.136 146.638 153.619 147.015ZM181.173 145.243C180.609 144.93 180.029 144.632 179.433 144.366L179.59 144.005C180.185 144.272 180.781 144.57 181.361 144.899L181.173 145.243ZM156.91 144.961L156.722 144.617C157.302 144.319 157.898 144.037 158.509 143.77L158.666 144.131C158.07 144.397 157.49 144.664 156.91 144.961ZM177.631 143.629C177.019 143.41 176.408 143.206 175.781 143.034L175.891 142.657C176.518 142.83 177.145 143.034 177.772 143.269L177.631 143.629ZM160.484 143.441L160.358 143.065C160.985 142.861 161.612 142.657 162.255 142.501L162.349 142.877C161.722 143.049 161.095 143.237 160.484 143.441ZM173.9 142.579C173.273 142.454 172.631 142.344 171.988 142.266L172.035 141.874C172.693 141.952 173.336 142.062 173.979 142.187L173.9 142.579ZM164.245 142.469L164.183 142.077C164.825 141.968 165.484 141.874 166.142 141.811L166.189 142.203C165.515 142.266 164.872 142.36 164.245 142.469ZM170.045 142.093C169.402 142.062 168.744 142.062 168.101 142.077L168.085 141.686C168.744 141.67 169.402 141.67 170.06 141.701L170.045 142.093Z" fill="url(#paint6_linear_352_65157)"/>
<path d="M147.567 39.0084V38.6166C148.21 38.6166 148.868 38.5696 149.495 38.4912L149.542 38.8831C148.899 38.9458 148.225 38.9928 147.567 39.0084ZM145.592 38.8987C144.934 38.8204 144.276 38.7107 143.633 38.5696L143.727 38.1934C144.354 38.3345 144.997 38.4442 145.639 38.5226L145.592 38.8987ZM151.486 38.4912L151.391 38.1151C152.018 37.9583 152.63 37.7546 153.241 37.5195L153.382 37.88C152.771 38.1307 152.128 38.3345 151.486 38.4912ZM141.737 38.0053C141.125 37.7859 140.514 37.5195 139.918 37.206L140.091 36.8612C140.671 37.159 141.266 37.4098 141.862 37.6292L141.737 38.0053ZM155.184 37.0649L154.996 36.7201C155.561 36.4223 156.109 36.0775 156.642 35.7013L156.862 36.0148C156.329 36.4066 155.764 36.7671 155.184 37.0649ZM138.21 36.2029C137.661 35.8424 137.129 35.4349 136.643 34.996L136.893 34.6982C137.379 35.1214 137.897 35.5133 138.429 35.8737L138.21 36.2029ZM158.413 34.8079L158.147 34.5101C158.633 34.087 159.087 33.6168 159.51 33.1309L159.808 33.3973C159.385 33.8989 158.915 34.3691 158.413 34.8079ZM135.216 33.6168C134.778 33.1309 134.354 32.6136 133.978 32.0807L134.292 31.8456C134.668 32.3629 135.075 32.8801 135.514 33.3503L135.216 33.6168ZM161.031 31.83L160.702 31.6105C161.062 31.0776 161.407 30.5291 161.705 29.9492L162.049 30.1372C161.752 30.7172 161.407 31.2971 161.031 31.83ZM132.928 30.4037C132.615 29.8238 132.332 29.2282 132.082 28.6169L132.442 28.4758C132.677 29.0714 132.959 29.667 133.257 30.2313L132.928 30.4037ZM162.865 28.3191L162.504 28.178C162.723 27.5824 162.927 26.9555 163.068 26.3286L163.444 26.4226C163.288 27.0652 163.1 27.7078 162.865 28.3191ZM131.47 26.7204C131.298 26.0778 131.173 25.4352 131.079 24.7769L131.47 24.7299C131.564 25.3725 131.69 25.9994 131.847 26.6264L131.47 26.7204ZM163.805 24.4791L163.413 24.4321C163.491 23.7895 163.523 23.1468 163.523 22.5042C163.523 22.3161 163.523 22.1124 163.507 21.9243L163.899 21.9086C163.899 22.1124 163.915 22.3161 163.915 22.5042C163.915 23.1625 163.883 23.8365 163.805 24.4791ZM130.922 22.802C130.922 22.708 130.922 22.5983 130.922 22.5042C130.922 21.94 130.953 21.3757 131 20.8272L131.392 20.8742C131.345 21.4227 131.314 21.9713 131.314 22.5199C131.314 22.6139 131.314 22.708 131.314 22.8177L130.922 22.802ZM163.335 19.9965C163.241 19.3538 163.1 18.7269 162.927 18.1L163.303 17.9902C163.476 18.6172 163.633 19.2755 163.727 19.9181L163.335 19.9965ZM131.706 18.962L131.329 18.8836C131.47 18.241 131.659 17.5984 131.878 16.9871L132.254 17.1125C132.035 17.7081 131.847 18.3351 131.706 18.962ZM162.285 16.2818C162.034 15.6862 161.752 15.1063 161.438 14.5421L161.783 14.354C162.112 14.9339 162.41 15.5295 162.661 16.1251L162.285 16.2818ZM133.006 15.3257L132.662 15.1533C132.959 14.5577 133.289 13.9935 133.649 13.4293L133.978 13.6487C133.618 14.1816 133.289 14.7458 133.006 15.3257ZM160.372 12.9277C159.996 12.4105 159.573 11.9089 159.134 11.4387L159.416 11.1723C159.871 11.6581 160.294 12.1597 160.686 12.6926L160.372 12.9277ZM135.122 12.097L134.825 11.8462C135.248 11.3447 135.718 10.8588 136.188 10.4199L136.455 10.7021C136 11.1409 135.546 11.6111 135.122 12.097ZM157.724 10.1221C157.222 9.71463 156.705 9.32279 156.172 8.97797L156.391 8.64883C156.94 9.00932 157.489 9.40115 157.99 9.82434L157.724 10.1221ZM137.959 9.46385L137.724 9.15038C138.257 8.75854 138.821 8.39805 139.386 8.08458L139.574 8.4294C139.025 8.74287 138.477 9.08769 137.959 9.46385ZM154.479 8.02188C153.899 7.73976 153.304 7.48899 152.692 7.28523L152.818 6.90907C153.445 7.1285 154.056 7.37927 154.652 7.67707L154.479 8.02188ZM141.329 7.58303L141.188 7.22254C141.799 6.97176 142.426 6.75233 143.069 6.57992L143.179 6.95609C142.536 7.14417 141.925 7.34792 141.329 7.58303ZM150.827 6.768C150.2 6.62694 149.558 6.5329 148.915 6.47021L148.946 6.07837C149.605 6.14106 150.263 6.2351 150.906 6.37616L150.827 6.768ZM145.059 6.56425L144.997 6.17241C145.639 6.07837 146.313 6.01567 146.972 6L146.987 6.39184C146.329 6.42319 145.686 6.48588 145.059 6.56425Z" fill="url(#paint7_linear_352_65157)"/>
<path d="M81.6289 123.285C78.4942 123.285 75.9551 120.73 75.9551 117.611C75.9551 114.477 78.5099 111.938 81.6289 111.938C84.7479 111.938 87.3027 114.492 87.3027 117.611C87.3184 120.73 84.7636 123.285 81.6289 123.285ZM81.6289 112.706C78.9331 112.706 76.7388 114.9 76.7388 117.596C76.7388 120.291 78.9331 122.486 81.6289 122.486C84.3247 122.486 86.519 120.291 86.519 117.596C86.519 114.9 84.3247 112.706 81.6289 112.706Z" fill="url(#paint8_linear_352_65157)"/>
<path d="M271.667 50.2935H108.819V170.697H271.667V50.2935Z" fill="white"/>
<path d="M272.059 171.09H108.428V49.9019H272.059V171.09ZM109.211 170.306H271.276V50.6855H109.211V170.306Z" fill="url(#paint9_linear_352_65157)"/>
<path d="M133.429 131.592H120.106V157.375H133.429V131.592Z" fill="#3387C9"/>
<path d="M154.588 118.74H141.266V157.375H154.588V118.74Z" fill="#3387C9"/>
<path d="M175.747 92.2207H162.425V157.376H175.747V92.2207Z" fill="#3387C9"/>
<path d="M196.906 111.044H183.584V157.375H196.906V111.044Z" fill="#3387C9"/>
<path d="M218.066 90.6064H204.743V157.376H218.066V90.6064Z" fill="#3387C9"/>
<path d="M239.226 94.1016H225.903V157.376H239.226V94.1016Z" fill="#3387C9"/>
<path d="M260.385 70.9829H247.062V157.375H260.385V70.9829Z" fill="#3387C9"/>
<path d="M124.119 147.141L123.774 146.451L146.015 135.119L168.961 103.866L189.979 125.856L211.578 104.258L232.517 106.797L253.551 82.6597L254.131 83.1769L232.846 107.628L211.86 105.088L189.964 126.984L169.055 105.088L146.548 135.73L124.119 147.141Z" fill="url(#paint10_linear_352_65157)"/>
<path d="M223.017 65.168H157.455V65.9516H223.017V65.168Z" fill="url(#paint11_linear_352_65157)"/>
<path d="M200.886 73.7881H179.586V74.5718H200.886V73.7881Z" fill="url(#paint12_linear_352_65157)"/>
<path d="M44.7571 153.303C46.0424 146.564 45.196 139.401 42.4218 133.194C39.6476 126.987 34.9298 121.784 29.209 118.586C32.1086 122.27 32.8609 127.317 33.143 132.097C33.4408 136.893 33.4095 141.83 35.1493 146.266C36.889 150.701 40.9955 154.526 45.4781 153.977L44.7571 153.303Z" fill="url(#paint13_linear_352_65157)"/>
<path d="M44.8518 154.996C43.5666 148.257 44.413 141.094 47.1872 134.887C49.9614 128.68 54.6791 123.477 60.4 120.279C57.5004 123.963 56.7481 129.009 56.4659 133.79C56.1681 138.586 56.1995 143.523 54.4597 147.959C52.7199 152.394 48.6135 156.219 44.1309 155.67L44.8518 154.996Z" fill="url(#paint14_linear_352_65157)"/>
<path d="M39.711 151.799C36.8271 146.987 36.0277 140.811 37.6107 135.357C39.1938 129.903 43.1121 125.263 48.0336 123.006C46.9992 129.903 52.1244 136.564 51.1997 143.476C50.6041 147.959 47.25 151.877 43.0965 152.911L39.711 151.799Z" fill="#3387C9"/>
<path d="M41.8124 161.046C41.7968 154.181 44.1635 147.316 48.4423 141.815C52.7212 136.313 58.8966 132.175 65.7616 130.248C61.8589 133.257 60.0251 138.053 58.7242 142.677C57.4233 147.316 56.4358 152.159 53.6616 156.14C50.8717 160.121 45.6368 163.021 40.8877 161.548L41.8124 161.046Z" fill="url(#paint15_linear_352_65157)"/>
<path d="M43.9743 161.422C43.99 154.557 41.8113 147.692 37.893 142.191C33.9589 136.689 28.3008 132.551 22 130.624C25.5736 133.633 27.2663 138.429 28.4575 143.053C29.6487 147.692 30.5577 152.535 33.1125 156.516C35.6673 160.497 40.4791 163.397 44.8363 161.924L43.9743 161.422Z" fill="url(#paint16_linear_352_65157)"/>
<path d="M55.509 184.87H30.6821L26.4189 159.024H59.7722L55.509 184.87Z" fill="white"/>
<path d="M55.7599 185.167H30.4315L26.0742 158.726H60.1328L55.7599 185.167ZM30.933 184.572H55.2583L59.4275 159.306H26.7639L30.933 184.572Z" fill="url(#paint17_linear_352_65157)"/>
<path d="M121.032 27.978H45.3916V87.3964H121.032V27.978Z" fill="white"/>
<path d="M121.424 87.7884H45V27.5864H121.424V87.7884ZM45.7837 87.0048H120.64V28.3701H45.7837V87.0048Z" fill="url(#paint18_linear_352_65157)"/>
<path d="M72.7081 37.7271H55.6553V47.3819H72.7081V37.7271Z" fill="#3387C9"/>
<path d="M110.952 38.6519H79.918V39.0594H110.952V38.6519Z" fill="url(#paint19_linear_352_65157)"/>
<path d="M110.952 42.3506H79.918V42.7581H110.952V42.3506Z" fill="#3387C9"/>
<path d="M110.952 46.0342H79.918V46.4417H110.952V46.0342Z" fill="#3387C9"/>
<path d="M67.2386 66.645H63.6807V77.6792H67.2386V66.645Z" fill="#3387C9"/>
<path d="M70.7952 61.2847H67.2373V77.6949H70.7952V61.2847Z" fill="url(#paint20_linear_352_65157)"/>
<path d="M80.5315 59.4194H76.9736V77.6164H80.5315V59.4194Z" fill="#3387C9"/>
<path d="M84.0882 70.8926H80.5303V77.6322H84.0882V70.8926Z" fill="url(#paint21_linear_352_65157)"/>
<path d="M93.8225 65.0771H90.2646V77.6787H93.8225V65.0771Z" fill="#3387C9"/>
<path d="M97.3792 62.2871H93.8213V77.6785H97.3792V62.2871Z" fill="url(#paint22_linear_352_65157)"/>
<path d="M107.113 68.8076H103.555V77.6005H107.113V68.8076Z" fill="#3387C9"/>
<path d="M110.669 56.6294H107.111V77.6006H110.669V56.6294Z" fill="url(#paint23_linear_352_65157)"/>
<path d="M110.686 77.8044H55.8291V55.6733H56.2523V77.3812H110.686V77.8044Z" fill="url(#paint24_linear_352_65157)"/>
</g>
<defs>
<linearGradient id="paint0_linear_352_65157" x1="289.684" y1="47.062" x2="290.515" y2="47.0634" gradientUnits="userSpaceOnUse">
<stop stop-color="#15466F"/>
<stop offset="1" stop-color="#3387CA"/>
</linearGradient>
<linearGradient id="paint1_linear_352_65157" x1="287.291" y1="49.8677" x2="293.204" y2="50.394" gradientUnits="userSpaceOnUse">
<stop stop-color="#15466F"/>
<stop offset="1" stop-color="#3387CA"/>
</linearGradient>
<linearGradient id="paint2_linear_352_65157" x1="297.402" y1="29.5864" x2="298.648" y2="29.5886" gradientUnits="userSpaceOnUse">
<stop stop-color="#15466F"/>
<stop offset="1" stop-color="#3387CA"/>
</linearGradient>
<linearGradient id="paint3_linear_352_65157" x1="293.791" y1="33.8184" x2="302.689" y2="34.6129" gradientUnits="userSpaceOnUse">
<stop stop-color="#15466F"/>
<stop offset="1" stop-color="#3387CA"/>
</linearGradient>
<linearGradient id="paint4_linear_352_65157" x1="328.457" y1="79.7261" x2="329.403" y2="79.7277" gradientUnits="userSpaceOnUse">
<stop stop-color="#15466F"/>
<stop offset="1" stop-color="#3387CA"/>
</linearGradient>
<linearGradient id="paint5_linear_352_65157" x1="325.729" y1="82.9233" x2="332.466" y2="83.5239" gradientUnits="userSpaceOnUse">
<stop stop-color="#15466F"/>
<stop offset="1" stop-color="#3387CA"/>
</linearGradient>
<linearGradient id="paint6_linear_352_65157" x1="146.534" y1="141.675" x2="194.249" y2="142.267" gradientUnits="userSpaceOnUse">
<stop stop-color="#15466F"/>
<stop offset="1" stop-color="#3387CA"/>
</linearGradient>
<linearGradient id="paint7_linear_352_65157" x1="133.349" y1="5.99992" x2="163.501" y2="6.37398" gradientUnits="userSpaceOnUse">
<stop stop-color="#15466F"/>
<stop offset="1" stop-color="#3387CA"/>
</linearGradient>
<linearGradient id="paint8_linear_352_65157" x1="76.7897" y1="111.937" x2="87.1607" y2="112.066" gradientUnits="userSpaceOnUse">
<stop stop-color="#15466F"/>
<stop offset="1" stop-color="#3387CA"/>
</linearGradient>
<linearGradient id="paint9_linear_352_65157" x1="120.463" y1="49.9016" x2="269.991" y2="52.4073" gradientUnits="userSpaceOnUse">
<stop stop-color="#15466F"/>
<stop offset="1" stop-color="#3387CA"/>
</linearGradient>
<linearGradient id="paint10_linear_352_65157" x1="133.363" y1="82.6595" x2="252.442" y2="85.6473" gradientUnits="userSpaceOnUse">
<stop stop-color="#0C1923"/>
<stop offset="1" stop-color="#15466F"/>
</linearGradient>
<linearGradient id="paint11_linear_352_65157" x1="162.277" y1="65.168" x2="191.116" y2="95.1109" gradientUnits="userSpaceOnUse">
<stop stop-color="#0C1923"/>
<stop offset="1" stop-color="#15466F"/>
</linearGradient>
<linearGradient id="paint12_linear_352_65157" x1="181.153" y1="73.7881" x2="198.633" y2="79.6849" gradientUnits="userSpaceOnUse">
<stop stop-color="#0C1923"/>
<stop offset="1" stop-color="#15466F"/>
</linearGradient>
<linearGradient id="paint13_linear_352_65157" x1="30.4056" y1="118.586" x2="45.2762" y2="118.671" gradientUnits="userSpaceOnUse">
<stop stop-color="#0C1923"/>
<stop offset="1" stop-color="#15466F"/>
</linearGradient>
<linearGradient id="paint14_linear_352_65157" x1="45.3275" y1="120.279" x2="60.198" y2="120.364" gradientUnits="userSpaceOnUse">
<stop stop-color="#0C1923"/>
<stop offset="1" stop-color="#15466F"/>
</linearGradient>
<linearGradient id="paint15_linear_352_65157" x1="42.7173" y1="130.247" x2="65.4514" y2="130.469" gradientUnits="userSpaceOnUse">
<stop stop-color="#15466F"/>
<stop offset="1" stop-color="#3387CA"/>
</linearGradient>
<linearGradient id="paint16_linear_352_65157" x1="23.6797" y1="130.623" x2="44.5519" y2="130.81" gradientUnits="userSpaceOnUse">
<stop stop-color="#15466F"/>
<stop offset="1" stop-color="#3387CA"/>
</linearGradient>
<linearGradient id="paint17_linear_352_65157" x1="28.5794" y1="158.726" x2="59.7031" y2="159.224" gradientUnits="userSpaceOnUse">
<stop stop-color="#15466F"/>
<stop offset="1" stop-color="#3387CA"/>
</linearGradient>
<linearGradient id="paint18_linear_352_65157" x1="50.6213" y1="27.5863" x2="120.46" y2="28.6866" gradientUnits="userSpaceOnUse">
<stop stop-color="#15466F"/>
<stop offset="1" stop-color="#3387CA"/>
</linearGradient>
<linearGradient id="paint19_linear_352_65157" x1="82.2006" y1="38.6519" x2="97.1832" y2="52.8127" gradientUnits="userSpaceOnUse">
<stop stop-color="#15466F"/>
<stop offset="1" stop-color="#3387CA"/>
</linearGradient>
<linearGradient id="paint20_linear_352_65157" x1="67.499" y1="61.2846" x2="70.7511" y2="61.2934" gradientUnits="userSpaceOnUse">
<stop stop-color="#15466F"/>
<stop offset="1" stop-color="#3387CA"/>
</linearGradient>
<linearGradient id="paint21_linear_352_65157" x1="80.792" y1="70.8926" x2="84.044" y2="70.9139" gradientUnits="userSpaceOnUse">
<stop stop-color="#15466F"/>
<stop offset="1" stop-color="#3387CA"/>
</linearGradient>
<linearGradient id="paint22_linear_352_65157" x1="94.083" y1="62.2871" x2="97.3351" y2="62.2964" gradientUnits="userSpaceOnUse">
<stop stop-color="#15466F"/>
<stop offset="1" stop-color="#3387CA"/>
</linearGradient>
<linearGradient id="paint23_linear_352_65157" x1="107.373" y1="56.6293" x2="110.625" y2="56.6362" gradientUnits="userSpaceOnUse">
<stop stop-color="#15466F"/>
<stop offset="1" stop-color="#3387CA"/>
</linearGradient>
<linearGradient id="paint24_linear_352_65157" x1="59.8641" y1="55.6733" x2="109.96" y2="57.2144" gradientUnits="userSpaceOnUse">
<stop stop-color="#15466F"/>
<stop offset="1" stop-color="#3387CA"/>
</linearGradient>
<clipPath id="clip0_352_65157">
<rect width="358" height="199" fill="white"/>
</clipPath>
</defs>
</svg>
