<svg width="358" height="199" viewBox="0 0 358 199" fill="none" xmlns="http://www.w3.org/2000/svg">
<rect width="358" height="199" fill="#F2F7FC"/>
<path d="M295.539 53.5245L286.651 74.6515C286.324 75.4155 286.587 76.2346 287.259 76.5759L320.465 92.8106C321.138 93.1518 322.033 92.7832 322.399 92.0316L330.2 76.0227C330.579 75.2316 330.328 74.373 329.616 74.0194L309.127 64.2048C308.784 64.0539 308.531 63.7576 308.432 63.3801L306.778 57.7476C306.68 57.3702 306.427 57.0739 306.084 56.9229L297.51 52.6271C296.786 52.3129 295.89 52.6816 295.539 53.5245Z" fill="#D8EFFF"/>
<path d="M332.089 72.1302L295.795 54.4072L283.986 78.5906L320.279 96.3136L332.089 72.1302Z" fill="#F5F5F5"/>
<path d="M291.816 55.1719L282.264 81.7234C282.115 82.1967 282.267 82.6778 282.676 82.893L318.07 100.162C318.479 100.377 319.012 100.197 319.292 99.7219L333.393 75.3791C333.685 74.8641 333.53 74.2522 333.082 74.0247L293.126 54.5869C292.638 54.3469 292.028 54.6322 291.816 55.1719Z" fill="#D8EFFF"/>
<path d="M163.99 156.828L159.029 172.661C158.864 173.24 159.112 173.819 159.649 174.025L185.983 183.947C186.52 184.154 187.14 183.864 187.347 183.286L191.894 171.214C192.101 170.636 191.853 169.974 191.274 169.809L175.028 163.815C174.78 163.732 174.573 163.525 174.449 163.236L172.754 159.226C172.63 158.978 172.423 158.771 172.175 158.647L165.354 156.084C164.817 155.877 164.197 156.249 163.99 156.828Z" fill="#D8EFFF"/>
<path d="M193.019 168.333L164.237 157.488L157.372 175.709L186.154 186.554L193.019 168.333Z" fill="#F5F5F5"/>
<path d="M161.343 158.275L156.382 178.118C156.3 178.49 156.465 178.821 156.796 178.945L184.865 189.528C185.196 189.652 185.568 189.486 185.734 189.156L194.291 170.677C194.456 170.305 194.291 169.85 193.919 169.726L162.253 157.779C161.881 157.613 161.426 157.862 161.343 158.275Z" fill="#D8EFFF"/>
<path d="M35.722 34.501L45.4314 49.6783C45.7687 50.2003 46.4995 50.4091 47.0416 50.1079L75.3005 34.4073C75.8786 34.086 76.0874 33.3552 75.7662 32.777L68.9799 20.5628C68.6587 19.9847 67.9279 19.7759 67.3136 20.1172L49.9921 29.8829C49.703 30.0436 49.3898 30.0757 49.0726 30.0155L44.4028 28.5902C44.1217 28.5099 43.7724 28.5621 43.4833 28.7228L36.1476 32.7985C35.5332 33.1398 35.3446 33.9067 35.722 34.501Z" fill="#D8EFFF"/>
<path d="M67.3695 17.5798L36.4727 34.7461L46.7323 53.2119L77.6291 36.0456L67.3695 17.5798Z" fill="#F5F5F5"/>
<path d="M34.9381 37.7742L47.9883 55.73C48.2051 56.0352 48.6548 56.1637 49.0162 55.9629L79.118 39.2383C79.4794 39.0375 79.6079 38.5878 79.4633 38.2425L70.2797 18.1384C70.095 17.7208 69.5891 17.5763 69.1916 17.7971L35.2231 36.67C34.7493 36.8387 34.661 37.3607 34.9381 37.7742Z" fill="#D8EFFF"/>
<path d="M21.4762 104.242L15.2849 121.162C15.074 121.747 15.3507 122.455 15.9188 122.704L45.5313 135.672C46.1372 135.937 46.845 135.66 47.1104 135.054L52.7155 122.255C52.9808 121.649 52.7042 120.941 52.0604 120.66L33.7963 112.797C33.4934 112.664 33.278 112.434 33.1337 112.145L31.4382 107.567C31.3318 107.295 31.0786 107.048 30.7756 106.916L23.0885 103.549C22.4447 103.267 21.7203 103.582 21.4762 104.242Z" fill="#D8EFFF"/>
<path d="M54.1122 119.167L21.7354 104.988L13.2613 124.338L45.6381 138.517L54.1122 119.167Z" fill="#F5F5F5"/>
<path d="M18.3977 105.601L12.0202 126.863C11.9088 127.22 12.0791 127.656 12.4578 127.822L44.0016 141.636C44.3802 141.801 44.8159 141.631 45.003 141.307L55.4323 121.82C55.6526 121.42 55.4611 120.93 55.0445 120.748L19.4489 105.159C19.0276 104.884 18.5589 105.13 18.3977 105.601Z" fill="#D8EFFF"/>
<path d="M87.1487 126.313C87.1487 126.313 84.5443 126.106 84.751 132.018C84.9991 137.888 85.5778 141.03 85.5778 141.03C85.5778 141.03 85.4952 142.353 84.503 142.063C83.5108 141.815 81.6092 140.534 80.6584 141.485C79.6663 142.477 80.0383 143.965 81.3198 145.743C82.6014 147.52 85.2885 151.53 85.5365 151.861C85.7845 152.233 85.8672 152.894 85.1644 152.812C84.4617 152.729 79.6249 151.117 78.9635 153.432C78.3434 155.788 82.7254 160.129 83.2215 160.625C83.6762 161.121 83.7175 161.41 83.5108 161.7C83.3042 161.989 81.7332 161.286 80.369 160.873C78.9635 160.46 77.3099 160.253 77.0205 161.617C76.7725 162.981 78.7154 167.033 85.9912 171.291L89.5051 173.027L92.8123 170.919C99.6333 165.958 101.163 161.741 100.749 160.418C100.377 159.054 98.6825 159.467 97.3596 160.005C95.9954 160.542 94.5072 161.41 94.3005 161.121C94.0938 160.832 94.0938 160.542 94.5072 160.005C94.9206 159.467 98.8892 154.713 98.0211 152.44C97.1529 150.166 92.5229 152.274 91.8201 152.44C91.1173 152.564 91.1587 151.902 91.324 151.53C91.5307 151.158 93.8044 146.9 94.9206 144.999C96.0368 143.097 96.2021 141.567 95.1686 140.699C94.1351 139.831 92.3989 141.319 91.4067 141.65C90.4146 142.022 90.2079 140.699 90.2079 140.699C90.2079 140.699 90.4973 137.516 90.1252 131.646C89.7945 125.776 87.1074 126.23 87.1074 126.23" fill="#D8EFFF"/>
<path d="M87.3555 131.563C87.3555 131.563 87.3555 131.605 87.3555 131.688C87.3555 131.77 87.3555 131.894 87.3968 132.06C87.4381 132.39 87.4381 132.845 87.4795 133.465C87.5622 134.664 87.6448 136.4 87.7689 138.591C88.0169 142.891 88.3063 148.885 88.5957 155.458C88.885 162.031 89.1331 168.025 89.3811 172.324C89.5051 174.474 89.5878 176.21 89.6292 177.45C89.6705 178.029 89.6705 178.525 89.7118 178.856C89.7118 179.021 89.7118 179.145 89.7118 179.228C89.7118 179.311 89.7118 179.352 89.7118 179.352C89.7118 179.352 89.7118 179.311 89.7118 179.228C89.7118 179.145 89.7118 179.021 89.6705 178.856C89.6292 178.525 89.6292 178.071 89.5878 177.45C89.5051 176.252 89.4225 174.515 89.2984 172.324C89.0504 168.025 88.761 162.031 88.4716 155.458C88.1823 148.885 87.9342 142.891 87.6862 138.591C87.5622 136.442 87.4795 134.705 87.4381 133.465C87.3968 132.886 87.3968 132.39 87.3555 132.06C87.3555 131.894 87.3555 131.77 87.3555 131.688C87.3555 131.605 87.3555 131.563 87.3555 131.563Z" fill="#B5E1FF"/>
<path d="M83.2666 143.345C83.2666 143.345 83.3493 143.387 83.4733 143.511C83.5973 143.635 83.804 143.8 84.0107 144.048C84.4655 144.503 85.0855 145.164 85.747 145.867C86.4084 146.57 86.9872 147.231 87.4419 147.727C87.6486 147.934 87.814 148.141 87.9793 148.306C88.1033 148.43 88.186 148.513 88.1447 148.513C88.1447 148.513 88.062 148.471 87.938 148.347C87.814 148.223 87.6073 148.058 87.4006 147.81C86.9458 147.355 86.3257 146.694 85.6643 145.95C85.0029 145.247 84.4241 144.585 83.928 144.089C83.7213 143.883 83.556 143.676 83.3906 143.511C83.3493 143.428 83.2666 143.345 83.2666 143.345Z" fill="#B5E1FF"/>
<path d="M88.5566 148.43C88.5153 148.388 89.7968 147.066 91.4091 145.453C93.0213 143.841 94.3442 142.518 94.3442 142.56C94.3855 142.601 93.104 143.924 91.4918 145.536C89.9208 147.148 88.598 148.471 88.5566 148.43Z" fill="#B5E1FF"/>
<path d="M88.5537 158.558C88.5537 158.558 88.6364 158.476 88.8017 158.393C89.0084 158.269 89.2151 158.145 89.5045 158.021C90.0833 157.69 90.8687 157.235 91.7369 156.698C92.605 156.161 93.3491 155.665 93.9279 155.292C94.1759 155.127 94.3826 154.962 94.5893 154.838C94.7547 154.755 94.8373 154.672 94.8373 154.672C94.8373 154.672 94.7547 154.755 94.6306 154.879C94.4653 155.003 94.2586 155.168 94.0105 155.334C93.4731 155.706 92.729 156.243 91.8609 156.781C90.9927 157.318 90.2073 157.732 89.5872 158.062C89.2978 158.228 89.0498 158.352 88.8844 158.393C88.6364 158.517 88.5537 158.558 88.5537 158.558Z" fill="#B5E1FF"/>
<path d="M82.7662 155.003C82.7662 155.003 82.8489 155.044 83.0142 155.127C83.1796 155.21 83.3863 155.334 83.6343 155.499C84.1717 155.788 84.9159 156.243 85.7013 156.698C86.4868 157.194 87.2309 157.607 87.7683 157.938C88.0163 158.103 88.223 158.227 88.3884 158.31C88.5124 158.393 88.5951 158.475 88.5951 158.475C88.5951 158.475 88.5124 158.434 88.347 158.351C88.1817 158.269 87.975 158.145 87.727 157.979C87.1895 157.69 86.4454 157.235 85.66 156.781C84.8745 156.284 84.1304 155.871 83.6343 155.54C83.3863 155.375 83.1796 155.251 83.0142 155.168C82.8075 155.086 82.7249 155.044 82.7662 155.003Z" fill="#B5E1FF"/>
<path d="M81.6094 163.974C81.6094 163.974 81.7334 164.015 81.8988 164.139C82.1054 164.263 82.3948 164.428 82.7255 164.594C83.4283 164.966 84.3378 165.503 85.3713 166.123C86.4048 166.743 87.3556 167.281 88.017 167.694C88.3477 167.901 88.5958 168.066 88.8025 168.19C88.9678 168.314 89.0919 168.356 89.0919 168.397C89.0919 168.397 88.9678 168.356 88.8025 168.232C88.5958 168.108 88.3064 167.942 87.9757 167.777C87.2729 167.405 86.3634 166.867 85.3299 166.247C84.2965 165.627 83.3456 165.09 82.6842 164.676C82.3535 164.47 82.1054 164.304 81.8988 164.18C81.6921 164.056 81.6094 163.974 81.6094 163.974Z" fill="#B5E1FF"/>
<path d="M88.9277 168.149C88.9277 168.149 89.0518 168.067 89.2171 167.943C89.4238 167.819 89.7132 167.653 90.0852 167.405C90.788 166.95 91.7802 166.372 92.855 165.669C93.9298 164.966 94.8806 164.305 95.5834 163.85C95.9141 163.602 96.2035 163.437 96.4102 163.271C96.6169 163.147 96.6996 163.064 96.6996 163.064C96.6996 163.064 96.6169 163.147 96.4102 163.312C96.2449 163.478 95.9555 163.685 95.6248 163.933C94.9633 164.429 94.0125 165.09 92.9377 165.793C91.8629 166.496 90.8707 167.074 90.1266 167.488C89.7545 167.694 89.4652 167.86 89.2585 167.984C89.0518 168.108 88.9691 168.191 88.9277 168.149Z" fill="#B5E1FF"/>
<path d="M94.2184 174.184H84.5449L87.6867 198.12H91.0352L94.2184 174.184Z" fill="#B5E1FF"/>
<path d="M85.0381 177.16C85.0381 177.16 85.0381 177.201 85.0794 177.243C85.1208 177.284 85.2034 177.367 85.3275 177.408C85.5755 177.491 85.9476 177.532 86.361 177.284C86.733 177.077 87.1051 176.664 87.6011 176.457C88.1386 176.251 88.7587 176.292 89.3788 176.499C89.9988 176.705 90.5363 176.995 91.0323 177.284C91.5284 177.573 91.9831 177.822 92.3965 177.987C92.8099 178.152 93.1407 178.235 93.3887 178.276C93.5127 178.276 93.5954 178.318 93.6781 178.276C93.7608 178.276 93.7608 178.276 93.7608 178.276C93.7608 178.235 93.2233 178.235 92.4379 177.863C92.0658 177.698 91.6111 177.408 91.115 177.119C90.6189 176.829 90.0815 176.499 89.4201 176.292C88.8 176.085 88.0972 176.044 87.5598 176.292C87.2704 176.416 87.0637 176.581 86.857 176.747C86.6503 176.912 86.485 177.077 86.3196 177.16C85.9476 177.408 85.5755 177.408 85.3688 177.325C85.1208 177.243 85.0381 177.119 85.0381 177.16Z" fill="#F5F5F5"/>
<path d="M85.373 181.543C85.373 181.543 85.4557 181.46 85.6211 181.294C85.7864 181.129 86.0345 180.922 86.4065 180.798C86.7786 180.674 87.2333 180.592 87.7707 180.592C88.3082 180.592 88.8456 180.716 89.4657 180.84C90.0858 180.922 90.6645 181.005 91.2019 180.922C91.7394 180.84 92.1941 180.716 92.5661 180.55C92.9382 180.385 93.1862 180.22 93.3929 180.054C93.5583 179.93 93.641 179.848 93.641 179.806C93.641 179.765 93.2689 180.096 92.5248 180.426C92.1528 180.592 91.698 180.716 91.2019 180.757C90.7059 180.84 90.1271 180.757 89.507 180.674C88.9283 180.592 88.3495 180.468 87.8121 180.468C87.2747 180.468 86.7786 180.55 86.4065 180.716C86.0345 180.881 85.7864 181.088 85.6211 181.253C85.5384 181.336 85.4971 181.418 85.4557 181.46C85.373 181.501 85.373 181.543 85.373 181.543Z" fill="#F5F5F5"/>
<path d="M93.0971 183.899C93.0971 183.899 93.0144 183.816 92.849 183.775C92.6837 183.692 92.3943 183.651 92.0636 183.609C91.7329 183.568 91.3195 183.609 90.8647 183.692C90.41 183.775 89.9139 183.899 89.4178 183.981C88.9218 184.105 88.4257 184.147 87.971 184.147C87.5162 184.147 87.1442 184.023 86.8134 183.899C86.1933 183.609 85.9867 183.237 85.9453 183.237C85.9453 183.237 85.9867 183.32 86.1107 183.485C86.2347 183.651 86.4414 183.816 86.7721 183.981C87.1028 184.147 87.4749 184.229 87.971 184.271C88.4257 184.312 88.9218 184.229 89.4592 184.105C89.9553 183.981 90.4513 183.857 90.9061 183.775C91.3608 183.692 91.7329 183.651 92.1049 183.692C92.6837 183.733 93.0971 183.94 93.0971 183.899Z" fill="#F5F5F5"/>
<path d="M86.2412 187.206C86.2412 187.247 86.5719 186.999 87.192 187.123C87.4814 187.165 87.8121 187.33 88.1842 187.495C88.5562 187.661 88.9696 187.826 89.4657 187.867C90.4165 187.95 91.2433 187.661 91.7807 187.33C92.0288 187.165 92.2355 186.999 92.3595 186.875C92.4835 186.751 92.5248 186.669 92.5248 186.669C92.4835 186.627 92.2355 186.917 91.7394 187.206C91.202 187.495 90.4165 187.785 89.507 187.702C88.5976 187.661 87.8948 187.123 87.2334 187.041C86.944 186.999 86.6546 187.041 86.4892 187.123C86.2826 187.123 86.2412 187.206 86.2412 187.206Z" fill="#F5F5F5"/>
<path d="M86.7773 191.795C86.7773 191.795 87.1081 191.795 87.6041 191.63C88.1002 191.464 88.679 191.092 89.3817 190.803C89.7538 190.679 90.0845 190.596 90.4152 190.596C90.746 190.596 91.0353 190.679 91.242 190.803C91.6968 191.009 91.8208 191.34 91.8208 191.299C91.8208 191.299 91.8208 191.216 91.7381 191.092C91.6554 190.968 91.5314 190.803 91.2834 190.679C91.0767 190.555 90.746 190.472 90.4152 190.431C90.0845 190.431 89.7125 190.513 89.3404 190.637C88.5963 190.927 88.0175 191.299 87.5628 191.505C87.0667 191.754 86.7773 191.795 86.7773 191.795Z" fill="#F5F5F5"/>
<path d="M87.2344 193.945C87.2344 193.945 87.4411 194.028 87.8545 194.152C88.2265 194.234 88.7639 194.358 89.384 194.4C90.0041 194.441 90.5415 194.441 90.9549 194.441C91.3683 194.441 91.6164 194.4 91.575 194.358C91.575 194.317 90.5829 194.358 89.384 194.234C88.2265 194.11 87.2757 193.903 87.2344 193.945Z" fill="#F5F5F5"/>
<path d="M251.959 32.355H114.794V152.984H251.959V32.355Z" fill="white"/>
<path d="M252.001 152.984C252.001 152.199 251.959 104.947 251.918 32.355L252.001 32.4377C212.563 32.4377 165.394 32.4377 114.836 32.4377L114.96 32.3136C114.96 76.175 114.96 117.432 114.96 152.943L114.877 152.86C196.688 152.943 251.174 152.984 252.001 152.984C251.174 152.984 196.688 153.025 114.836 153.067H114.753V152.984C114.753 117.473 114.753 76.175 114.753 32.355V32.231H114.877C165.435 32.231 212.604 32.231 252.042 32.231H252.125V32.3136C252.042 104.989 252.001 152.24 252.001 152.984Z" fill="#0C1923"/>
<path d="M144.271 63.1938V84.8144H170.564V63.1938C170.564 62.1603 169.737 61.3335 168.703 61.3335H146.132C145.14 61.3335 144.271 62.2016 144.271 63.1938Z" fill="#3387CA"/>
<path d="M139.021 100.235L144.891 84.0708L170.604 84.8563L166.76 99.5732C166.594 100.152 166.057 100.565 165.478 100.565L158.822 100.441L157.748 102.012C157.458 102.426 157.003 102.674 156.466 102.632L140.385 101.971C139.517 101.93 138.897 101.144 139.021 100.235Z" fill="#3387CA"/>
<path d="M145.675 65.1367V67.3691V82.086L168.825 83.3675L168.701 65.1367H145.675Z" fill="#F5F5F5"/>
<path d="M145.674 65.1369C145.674 65.1369 145.716 65.1369 145.757 65.1369C145.84 65.1369 145.923 65.1369 146.088 65.1369C146.377 65.1369 146.791 65.1369 147.328 65.1369C148.444 65.1369 150.015 65.1369 152.041 65.0955C156.092 65.0955 161.88 65.0542 168.701 65.0542H168.783V65.1369C168.825 70.4284 168.866 76.4226 168.907 82.7889C168.907 82.9956 168.907 83.161 168.907 83.3677V83.4917H168.783C160.143 82.9956 152.123 82.5409 145.674 82.2102H145.592V82.1275C145.592 77.0014 145.633 72.7434 145.633 69.8083C145.633 68.32 145.633 67.2039 145.674 66.3771C145.674 66.005 145.674 65.7156 145.674 65.4676C145.674 65.2609 145.674 65.1369 145.674 65.1369C145.674 65.1369 145.674 65.2609 145.674 65.4676C145.674 65.6743 145.674 65.9637 145.674 66.3771C145.674 67.1625 145.674 68.32 145.716 69.7669C145.716 72.7434 145.757 76.96 145.757 82.0861L145.674 82.0035C152.165 82.3342 160.143 82.7889 168.783 83.2436L168.659 83.3677C168.659 83.161 168.659 82.9956 168.659 82.7889C168.618 76.4226 168.618 70.4284 168.577 65.1369L168.659 65.2196C161.838 65.2196 156.092 65.1782 152.082 65.1782C150.056 65.1782 148.444 65.1782 147.369 65.1369C146.832 65.1369 146.419 65.1369 146.129 65.1369C146.005 65.1369 145.881 65.1369 145.798 65.1369C145.716 65.1782 145.674 65.1369 145.674 65.1369Z" fill="#0C1923"/>
<path d="M146.915 69.3949C146.915 68.8162 146.915 66.4185 146.915 66.4185C153.364 66.4185 160.598 66.4598 167.089 66.4185C167.254 69.6016 167.295 73.9423 167.502 77.1254" fill="#D8EFFF"/>
<path d="M167.461 77.1258C167.461 77.1258 167.461 77.0431 167.419 76.9191C167.419 76.7537 167.378 76.5883 167.378 76.3403C167.337 75.8442 167.295 75.0588 167.254 74.1493C167.171 72.2477 167.13 69.5606 166.923 66.4601L167.006 66.5428C165.104 66.5428 162.996 66.5428 160.805 66.5428C155.017 66.5428 149.891 66.5015 146.873 66.5015L146.915 66.4601C146.915 67.3696 146.873 68.1137 146.873 68.6511C146.873 68.8992 146.873 69.0645 146.873 69.2299C146.873 69.3539 146.873 69.4366 146.873 69.4366C146.873 69.4366 146.873 69.3539 146.873 69.2299C146.873 69.0645 146.873 68.8992 146.873 68.6511C146.873 68.1137 146.873 67.3696 146.832 66.4601V66.4188H146.873C149.933 66.3774 155.017 66.3774 160.805 66.3774C162.996 66.3774 165.104 66.3774 167.006 66.3774H167.088V66.4601C167.254 69.6019 167.254 72.289 167.337 74.1906C167.378 75.1414 167.378 75.8856 167.378 76.3816C167.378 76.6297 167.378 76.8364 167.378 76.9604C167.461 77.0431 167.461 77.1258 167.461 77.1258Z" fill="#B5E1FF"/>
<path d="M142.164 69.4359L146.918 83.3673H168.828L165.521 69.3945L142.164 69.4359Z" fill="white"/>
<path d="M142.164 69.4359C142.164 69.4359 142.205 69.4359 142.288 69.4359C142.371 69.4359 142.495 69.4359 142.619 69.4359C142.908 69.4359 143.363 69.4359 143.9 69.4359C145.016 69.4359 146.67 69.3945 148.696 69.3945C152.83 69.3532 158.7 69.3118 165.562 69.2705H165.645V69.3532C166.596 73.4872 167.671 78.0345 168.787 82.7472C168.828 82.9539 168.869 83.1193 168.911 83.326L168.952 83.45H168.828C160.56 83.45 152.954 83.45 146.959 83.4087H146.918V83.3673C145.471 79.1093 144.314 75.6368 143.487 73.1978C143.074 71.9989 142.784 71.0481 142.536 70.428C142.453 70.0973 142.371 69.8906 142.288 69.6839C142.164 69.5185 142.164 69.4359 142.164 69.4359C142.164 69.4359 142.205 69.5185 142.247 69.6839C142.329 69.8493 142.412 70.0973 142.495 70.428C142.743 71.0894 143.074 72.0403 143.487 73.2391C144.314 75.6368 145.513 79.1093 147.001 83.326L146.918 83.2846C152.954 83.2846 160.519 83.2846 168.787 83.2433L168.663 83.3673C168.621 83.202 168.58 82.9953 168.539 82.7886C167.423 78.0345 166.389 73.4872 165.397 69.3532L165.48 69.4359C158.659 69.4359 152.83 69.4359 148.696 69.4359C146.629 69.4359 144.975 69.4359 143.859 69.4359C143.322 69.4359 142.867 69.4359 142.577 69.4359C142.453 69.4359 142.329 69.4359 142.247 69.4359C142.205 69.4359 142.164 69.4359 142.164 69.4359Z" fill="#0C1923"/>
<g opacity="0.3">
<path d="M168.786 83.6569C168.662 83.5329 168.414 83.5742 168.249 83.6156C159.692 85.8479 151.506 89.4445 144.024 94.1572L140.965 97.7124C141.337 98.3325 142.164 98.4152 142.908 98.4978C146.339 98.7045 149.77 98.9526 153.201 99.1593C155.599 99.3246 157.997 99.49 160.394 99.4487C161.8 99.4487 163.371 99.3246 164.404 98.3325C165.025 97.7537 165.355 96.9683 165.645 96.1828C167.174 92.2969 168.249 88.2869 168.828 84.153C168.91 83.9876 168.91 83.7809 168.786 83.6569Z" fill="#0C1923"/>
</g>
<path d="M146.919 84.4425L140.801 97.6712L163.786 98.1259L168.829 83.3677L146.919 84.4425Z" fill="#F5F5F5"/>
<path d="M146.917 84.4425C146.917 84.4425 146.958 84.4425 146.999 84.4425C147.082 84.4425 147.165 84.4425 147.289 84.4012C147.578 84.4012 147.95 84.3598 148.488 84.3185C149.521 84.2771 151.051 84.1945 152.952 84.0704C156.838 83.8637 162.295 83.5744 168.744 83.2437H168.868L168.827 83.3677C167.297 87.8324 165.602 92.8758 163.783 98.1673L163.742 98.25H163.659C154.978 98.0846 146.958 97.9192 140.716 97.7539H140.592L140.633 97.6299C142.535 93.5786 144.064 90.2714 145.139 87.9977C145.677 86.8815 146.09 85.9721 146.379 85.352C146.503 85.0626 146.627 84.8146 146.71 84.6492C146.875 84.5252 146.917 84.4425 146.917 84.4425C146.917 84.4425 146.875 84.5252 146.834 84.6905C146.751 84.8559 146.669 85.1039 146.503 85.3933C146.214 86.0134 145.801 86.9229 145.305 88.0391C144.23 90.3541 142.741 93.6613 140.881 97.6712L140.798 97.5472C147.082 97.6712 155.061 97.8366 163.742 98.0019L163.618 98.0846C165.437 92.7931 167.132 87.791 168.661 83.285L168.744 83.409C162.295 83.6984 156.838 83.9878 152.994 84.1531C151.051 84.2358 149.562 84.3185 148.488 84.3598C147.992 84.3598 147.578 84.4012 147.289 84.4012C147.165 84.4012 147.041 84.4012 146.958 84.4012C146.958 84.4425 146.917 84.4425 146.917 84.4425Z" fill="#0C1923"/>
<path d="M146.832 83.3677L140.177 90.6848L162.996 90.8502L168.701 83.3677H146.832Z" fill="#FAFAFA"/>
<path d="M146.829 83.3673C146.829 83.3673 146.87 83.3673 146.912 83.3673C146.994 83.3673 147.077 83.3673 147.201 83.3673C147.49 83.3673 147.904 83.3673 148.4 83.3673C149.475 83.3673 151.004 83.3673 152.947 83.326C156.833 83.326 162.331 83.2847 168.698 83.2847H168.904L168.78 83.45C167.003 85.765 165.101 88.2868 163.075 90.9325L163.034 90.9738H162.993C162.786 90.9738 162.538 90.9738 162.29 90.9738C153.691 90.8912 145.878 90.8085 140.173 90.7671H140.008L140.132 90.6431C142.199 88.4108 143.852 86.5918 145.01 85.3103C145.589 84.6902 146.043 84.1941 146.333 83.8634C146.498 83.6981 146.581 83.574 146.664 83.4914C146.788 83.4087 146.829 83.3673 146.829 83.3673C146.829 83.3673 146.788 83.4087 146.705 83.4914C146.622 83.574 146.498 83.6981 146.374 83.8634C146.085 84.1941 145.63 84.6902 145.051 85.3517C143.894 86.6332 142.281 88.4521 140.215 90.7258L140.173 90.6018C145.878 90.6431 153.691 90.6845 162.29 90.7258C162.538 90.7258 162.786 90.7258 162.993 90.7258L162.91 90.7671C164.936 88.1214 166.837 85.5997 168.615 83.2847L168.698 83.45C162.331 83.45 156.874 83.4087 152.988 83.4087C151.046 83.4087 149.516 83.3673 148.441 83.3673C147.904 83.3673 147.532 83.3673 147.242 83.3673C147.118 83.3673 146.994 83.3673 146.912 83.3673C146.87 83.3673 146.829 83.3673 146.829 83.3673Z" fill="#0C1923"/>
<path d="M146.09 77.0011L144.147 70.8828H164.487L167.339 82.0445" fill="#F5F5F5"/>
<path d="M167.337 82.0443C167.337 82.0443 167.296 81.9617 167.254 81.8377C167.213 81.6723 167.172 81.4656 167.089 81.2176C166.924 80.6801 166.717 79.8947 166.469 78.9439C165.973 76.9596 165.229 74.1898 164.361 70.924L164.443 71.0067C162.128 71.0067 159.524 71.0067 156.837 71.0067C151.917 71.0067 147.453 71.0067 144.104 70.9653L144.187 70.8413C144.766 72.7016 145.262 74.2312 145.592 75.306C145.758 75.8434 145.882 76.2155 145.964 76.5462C146.006 76.6702 146.047 76.7942 146.047 76.8769C146.047 76.9596 146.088 77.0009 146.088 77.0009C146.088 77.0009 146.088 76.9596 146.047 76.8769C146.006 76.7942 145.964 76.6702 145.923 76.5462C145.84 76.2568 145.675 75.8434 145.51 75.3473C145.138 74.2725 144.642 72.7429 144.063 70.8826L144.021 70.7586H144.145C147.494 70.7586 151.959 70.7586 156.878 70.7173C159.565 70.7173 162.17 70.7173 164.485 70.7173H164.567V70.8C165.394 74.0658 166.097 76.8769 166.593 78.8612C166.841 79.8533 167.006 80.5975 167.172 81.1762C167.213 81.4243 167.296 81.631 167.296 81.7963C167.337 81.9617 167.337 82.0443 167.337 82.0443Z" fill="#0C1923"/>
<path d="M158.158 75.844C157.827 75.5959 157.497 75.3066 157.125 75.1825C156.38 74.9345 155.554 75.3479 154.934 75.844C154.313 76.3401 153.817 77.0015 153.197 77.4562L160.308 77.5802C159.605 77.0015 158.902 76.4227 158.158 75.844Z" fill="white"/>
<path d="M161.923 73.6943C161.675 73.3222 160.807 72.8261 160.269 73.1982C159.897 73.3222 159.608 73.6529 159.567 74.025C159.484 74.6451 159.98 75.2652 160.6 75.3892C161.055 75.4719 161.551 75.3478 161.84 74.9758C162.13 74.6451 162.171 74.1076 161.923 73.6943Z" fill="white"/>
<path d="M146.832 83.3678L139.97 77.0015L162.376 77.1668L168.825 83.3678H146.832Z" fill="#FAFAFA"/>
<path d="M146.829 83.3681C146.829 83.3681 146.87 83.3681 146.953 83.3681C147.036 83.3681 147.118 83.3681 147.284 83.3681C147.573 83.3681 147.986 83.3681 148.524 83.3681C149.599 83.3681 151.17 83.3681 153.112 83.3268C156.998 83.3268 162.497 83.2854 168.863 83.2854L168.78 83.4508C166.755 81.5078 164.605 79.4408 162.331 77.2498L162.414 77.2912C162.29 77.2912 162.125 77.2912 162.001 77.2912C153.443 77.2085 145.671 77.1258 140.008 77.0845L140.049 76.9604C142.157 78.9448 143.852 80.5157 145.01 81.6318C145.589 82.1692 146.043 82.624 146.374 82.9134C146.539 83.0374 146.622 83.1614 146.705 83.2441C146.788 83.3268 146.829 83.3681 146.829 83.3681C146.829 83.3681 146.788 83.3268 146.705 83.2854C146.622 83.2027 146.498 83.1201 146.333 82.9547C146.002 82.6653 145.547 82.2519 144.969 81.7145C143.77 80.5983 142.033 79.0274 139.925 77.0845L139.76 76.9604H139.966C145.63 77.0018 153.361 77.0431 161.959 77.1258C162.083 77.1258 162.249 77.1258 162.373 77.1258H162.414L162.455 77.1671C164.688 79.3168 166.879 81.4251 168.863 83.3681L169.028 83.5335H168.78C162.414 83.5335 156.916 83.4921 152.988 83.4921C151.045 83.4921 149.516 83.4508 148.441 83.4508C147.904 83.4508 147.532 83.4508 147.242 83.4508C147.118 83.4508 146.994 83.4508 146.912 83.4508C146.87 83.3681 146.829 83.3681 146.829 83.3681Z" fill="#0C1923"/>
<path d="M160.513 79.4399C160.513 79.4813 157.247 79.564 153.154 79.564C149.103 79.564 145.796 79.5226 145.796 79.4399C145.796 79.3573 149.062 79.3159 153.154 79.3159C157.247 79.3159 160.513 79.3986 160.513 79.4399Z" fill="#0C1923"/>
<path d="M162.128 80.9697C162.128 81.0111 158.862 81.0937 154.77 81.0937C150.718 81.0937 147.411 81.0524 147.411 80.9697C147.411 80.9284 150.677 80.8457 154.77 80.8457C158.862 80.8457 162.128 80.887 162.128 80.9697Z" fill="#0C1923"/>
<path d="M163.616 82.416C163.616 82.4573 160.351 82.54 156.258 82.54C152.207 82.54 148.899 82.4987 148.899 82.416C148.899 82.3747 152.165 82.292 156.258 82.292C160.309 82.292 163.616 82.3333 163.616 82.416Z" fill="#0C1923"/>
<path d="M161.757 88.2456C161.757 88.2869 158.367 88.3696 154.192 88.3696C150.017 88.3696 146.627 88.3283 146.627 88.2456C146.627 88.1629 150.017 88.1216 154.192 88.1216C158.367 88.1629 161.757 88.2043 161.757 88.2456Z" fill="#0C1923"/>
<path d="M163.494 86.5508C163.494 86.5921 160.104 86.6748 155.928 86.6748C151.753 86.6748 148.363 86.6335 148.363 86.5508C148.363 86.5094 151.753 86.4268 155.928 86.4268C160.104 86.4268 163.494 86.4681 163.494 86.5508Z" fill="#0C1923"/>
<path d="M252.37 44.7153C252.37 44.7567 221.903 44.8393 184.366 44.8393C146.789 44.8393 116.321 44.798 116.321 44.7153C116.321 44.674 146.789 44.5913 184.366 44.5913C221.944 44.6326 252.37 44.674 252.37 44.7153Z" fill="#0C1923"/>
<path d="M124.137 39.0935C124.137 39.879 123.517 40.4991 122.732 40.4991C121.946 40.4991 121.326 39.879 121.326 39.0935C121.326 38.3081 121.946 37.688 122.732 37.688C123.517 37.688 124.137 38.3081 124.137 39.0935Z" fill="#3387CA"/>
<path d="M128.767 39.093C128.767 39.8785 128.147 40.4986 127.362 40.4986C126.576 40.4986 125.956 39.8785 125.956 39.093C125.956 38.3076 126.576 37.6875 127.362 37.6875C128.147 37.6875 128.767 38.3076 128.767 39.093Z" fill="#3387CA"/>
<path d="M133.396 39.093C133.396 39.8785 132.776 40.4986 131.991 40.4986C131.205 40.4986 130.585 39.8785 130.585 39.093C130.585 38.3076 131.205 37.6875 131.991 37.6875C132.776 37.6875 133.396 38.3076 133.396 39.093Z" fill="#3387CA"/>
<path d="M176.514 41.5738V39.4241L175.48 41.2017H175.108L174.075 39.4654V41.5738H173.289V38.0186H173.992L175.315 40.2509L176.638 38.0186H177.299V41.5738H176.514V41.5738Z" fill="#0C1923"/>
<path d="M180.813 38.804L179.573 41.6978C179.325 42.3592 178.911 42.5659 178.415 42.5659C178.126 42.5659 177.837 42.4833 177.63 42.3179L177.919 41.7391C178.043 41.8632 178.209 41.9045 178.374 41.9045C178.581 41.9045 178.705 41.8218 178.829 41.5738V41.5325L177.63 38.7627H178.457L179.242 40.623L180.028 38.7627H180.813V38.804Z" fill="#0C1923"/>
<path d="M184.904 38.639V39.5898H186.558V40.2512H184.904V41.5327H184.077V37.9775H186.764V38.639H184.904Z" fill="#0C1923"/>
<path d="M187.138 37.9772C187.138 37.7292 187.344 37.5225 187.634 37.5225C187.923 37.5225 188.13 37.6878 188.13 37.9359C188.13 38.1839 187.923 38.3906 187.634 38.3906C187.344 38.4319 187.138 38.2252 187.138 37.9772ZM187.22 38.804H188.006V41.5324H187.22V38.804Z" fill="#0C1923"/>
<path d="M188.79 37.7705H189.575V41.5738H188.79V37.7705Z" fill="#0C1923"/>
<path d="M193.007 40.4164H190.94C191.022 40.7472 191.312 40.9539 191.725 40.9539C192.015 40.9539 192.221 40.8712 192.428 40.7058L192.841 41.1606C192.593 41.4499 192.221 41.6153 191.725 41.6153C190.774 41.6153 190.154 41.0365 190.154 40.2097C190.154 39.383 190.774 38.8042 191.601 38.8042C192.428 38.8042 193.048 39.3416 193.048 40.2097C193.007 40.2511 193.007 40.3338 193.007 40.4164ZM190.898 39.9617H192.263C192.221 39.631 191.932 39.383 191.601 39.383C191.229 39.383 190.94 39.5897 190.898 39.9617Z" fill="#0C1923"/>
<path d="M193.256 41.3259L193.504 40.7472C193.752 40.9125 194.124 40.9952 194.455 40.9952C194.827 40.9952 194.951 40.9125 194.951 40.7472C194.951 40.2924 193.297 40.7472 193.297 39.6723C193.297 39.1349 193.752 38.8042 194.579 38.8042C194.951 38.8042 195.364 38.8869 195.654 39.0522L195.406 39.631C195.116 39.4656 194.868 39.4243 194.62 39.4243C194.248 39.4243 194.124 39.5483 194.124 39.6723C194.124 40.1271 195.778 39.6723 195.778 40.7885C195.778 41.2846 195.323 41.6566 194.496 41.6566C194 41.6153 193.504 41.4913 193.256 41.3259Z" fill="#0C1923"/>
<path d="M245.592 55.381C245.592 55.381 245.674 55.381 245.84 55.3396C245.964 55.2983 246.212 55.1743 246.336 54.8849C246.377 54.7609 246.377 54.5955 246.377 54.3888C246.377 54.1821 246.377 53.9754 246.377 53.7687C246.377 53.314 246.377 52.8179 246.377 52.2391C246.377 51.6604 246.377 50.9989 246.377 50.2962C246.377 50.1308 246.377 49.9241 246.377 49.7588C246.377 49.5934 246.294 49.428 246.17 49.304C246.046 49.18 245.881 49.0973 245.674 49.0973C245.468 49.0973 245.261 49.0973 245.054 49.0973C243.401 49.0973 241.54 49.0973 239.432 49.0973C231.123 49.0973 219.672 49.0973 206.98 49.1387C206.65 49.1387 206.319 49.428 206.278 49.7588C206.278 50.1308 206.278 50.5442 206.278 50.9163C206.278 51.7017 206.278 52.4872 206.278 53.2313C206.278 53.6033 206.278 54.0167 206.278 54.3888C206.278 54.5955 206.278 54.7609 206.36 54.8849C206.443 55.0089 206.567 55.1329 206.732 55.1743C206.815 55.2156 206.898 55.2156 206.98 55.2156H207.27H207.849C208.221 55.2156 208.593 55.2156 208.965 55.2156C211.941 55.2156 214.835 55.2156 217.563 55.2156C223.062 55.2156 227.981 55.2156 232.156 55.2569C236.29 55.2569 239.639 55.2983 241.995 55.2983C243.153 55.2983 244.062 55.2983 244.682 55.2983C244.972 55.2983 245.22 55.2983 245.385 55.2983C245.509 55.381 245.592 55.381 245.592 55.381C245.592 55.381 245.509 55.381 245.344 55.381C245.178 55.381 244.93 55.381 244.641 55.381C244.021 55.381 243.111 55.381 241.954 55.381C239.639 55.381 236.249 55.381 232.115 55.4223C227.981 55.4223 223.02 55.4223 217.522 55.4636C214.794 55.4636 211.9 55.4636 208.923 55.4636C208.551 55.4636 208.179 55.4636 207.807 55.4636H207.228H206.939C206.856 55.4636 206.732 55.4636 206.608 55.4223C206.402 55.3396 206.236 55.2156 206.112 55.0089C205.988 54.8435 205.988 54.5955 205.988 54.3888C205.988 54.0167 205.988 53.6033 205.988 53.2313C205.988 52.4458 205.988 51.7017 205.988 50.9163C205.988 50.5029 205.988 50.1308 205.988 49.7174C206.03 49.2627 206.443 48.8906 206.898 48.8906C219.548 48.8906 231.04 48.932 239.349 48.932C241.416 48.932 243.318 48.932 244.972 48.932C245.178 48.932 245.385 48.932 245.592 48.932C245.798 48.932 246.005 49.0146 246.17 49.18C246.336 49.304 246.418 49.5107 246.418 49.7174C246.418 49.9241 246.418 50.0895 246.418 50.2548C246.418 50.9576 246.418 51.619 246.418 52.1978C246.418 52.7766 246.418 53.2726 246.418 53.7274C246.418 53.9341 246.418 54.1408 246.418 54.3475C246.418 54.5128 246.418 54.7195 246.336 54.8435C246.212 55.1329 245.964 55.2569 245.84 55.2983C245.674 55.381 245.592 55.381 245.592 55.381Z" fill="#B5E1FF"/>
<path d="M208.674 53.0245L208.798 52.8178C208.963 52.9418 209.211 53.0659 209.459 53.0659C209.79 53.0659 209.955 52.9418 209.955 52.7351C209.955 52.2391 208.715 52.5698 208.715 51.7843C208.715 51.4536 208.963 51.2056 209.501 51.2056C209.749 51.2056 209.997 51.2882 210.162 51.3709L210.079 51.619C209.914 51.4949 209.707 51.4536 209.542 51.4536C209.211 51.4536 209.046 51.5776 209.046 51.7843C209.046 52.2804 210.286 51.9497 210.286 52.6938C210.286 52.9832 210.038 53.2725 209.501 53.2725C209.17 53.2725 208.839 53.1899 208.674 53.0245Z" fill="#B5E1FF"/>
<path d="M212.022 52.5698H210.782C210.823 52.8178 211.03 53.0245 211.319 53.0245C211.484 53.0245 211.65 52.9832 211.774 52.8592L211.939 53.0245C211.815 53.1899 211.608 53.2726 211.319 53.2726C210.823 53.2726 210.492 52.9419 210.492 52.4871C210.492 52.0324 210.823 51.7017 211.278 51.7017C211.732 51.7017 212.022 52.0324 212.022 52.4871C212.022 52.5285 212.022 52.5698 212.022 52.5698ZM210.782 52.3631H211.774C211.732 52.1151 211.567 51.9084 211.278 51.9084C210.988 51.9497 210.782 52.1151 210.782 52.3631Z" fill="#B5E1FF"/>
<path d="M213.551 52.3216V53.2311H213.303V53.0244C213.221 53.1484 213.055 53.2311 212.807 53.2311C212.477 53.2311 212.229 53.0657 212.229 52.7763C212.229 52.5283 212.394 52.3216 212.849 52.3216H213.303V52.2803C213.303 52.0322 213.179 51.9082 212.89 51.9082C212.725 51.9082 212.518 51.9909 212.394 52.0736L212.27 51.8669C212.435 51.7428 212.642 51.6602 212.89 51.6602C213.345 51.7015 213.551 51.9082 213.551 52.3216ZM213.303 52.7763V52.5696H212.89C212.601 52.5696 212.518 52.6936 212.518 52.8177C212.518 52.983 212.642 53.0657 212.849 53.0657C213.055 53.0657 213.221 52.9417 213.303 52.7763Z" fill="#B5E1FF"/>
<path d="M214.915 51.7017V51.9497C214.874 51.9497 214.874 51.9497 214.832 51.9497C214.543 51.9497 214.336 52.1151 214.336 52.4871V53.2312H214.047V51.7017H214.295V51.9497C214.46 51.7843 214.626 51.7017 214.915 51.7017Z" fill="#B5E1FF"/>
<path d="M215.081 52.4871C215.081 52.0324 215.412 51.7017 215.908 51.7017C216.197 51.7017 216.404 51.8257 216.528 52.0324L216.321 52.1564C216.239 51.991 216.073 51.9497 215.908 51.9497C215.618 51.9497 215.37 52.1564 215.37 52.4871C215.37 52.8178 215.577 53.0245 215.908 53.0245C216.073 53.0245 216.239 52.9419 216.321 52.8178L216.528 52.9418C216.404 53.1485 216.197 53.2726 215.908 53.2726C215.412 53.2726 215.081 52.9419 215.081 52.4871Z" fill="#B5E1FF"/>
<path d="M218.306 52.3629V53.231H218.016V52.3629C218.016 52.0735 217.851 51.9082 217.603 51.9082C217.313 51.9082 217.107 52.0735 217.107 52.4042V53.1897H216.817V51.04H217.107V51.8668C217.231 51.7015 217.396 51.6188 217.644 51.6188C218.058 51.7015 218.306 51.9082 218.306 52.3629Z" fill="#B5E1FF"/>
<path d="M218.678 53.0656C218.678 52.9416 218.76 52.8589 218.884 52.8589C219.008 52.8589 219.091 52.9416 219.091 53.0656C219.091 53.1896 219.008 53.2723 218.884 53.2723C218.802 53.2723 218.678 53.1896 218.678 53.0656Z" fill="#B5E1FF"/>
<path d="M219.34 53.0656C219.34 52.9416 219.423 52.8589 219.547 52.8589C219.671 52.8589 219.753 52.9416 219.753 53.0656C219.753 53.1896 219.671 53.2723 219.547 53.2723C219.464 53.2723 219.34 53.1896 219.34 53.0656Z" fill="#B5E1FF"/>
<path d="M220 53.0656C220 52.9416 220.083 52.8589 220.207 52.8589C220.331 52.8589 220.413 52.9416 220.413 53.0656C220.413 53.1896 220.331 53.2723 220.207 53.2723C220.083 53.2723 220 53.1896 220 53.0656Z" fill="#B5E1FF"/>
<path d="M136.126 93.7858C136.126 93.7858 136.085 93.7032 136.002 93.5378C135.919 93.3724 135.837 93.1244 135.713 92.7524C135.464 92.0909 135.134 91.0988 134.803 89.8586C134.1 87.4195 133.398 83.8643 133.687 79.9371C133.852 77.9941 134.266 76.1338 134.803 74.5629C135.382 72.9507 136.085 71.5865 136.787 70.5116C137.49 69.4368 138.193 68.6513 138.689 68.1553C138.937 67.9072 139.144 67.7419 139.309 67.5765C139.433 67.4525 139.516 67.3698 139.516 67.4111C139.516 67.4111 139.433 67.4938 139.309 67.6178C139.185 67.7419 138.978 67.9486 138.73 68.1966C138.234 68.6927 137.573 69.5195 136.87 70.553C136.167 71.6278 135.464 72.992 134.927 74.5629C134.39 76.1338 133.976 77.9528 133.811 79.8957C133.522 83.7816 134.224 87.2955 134.844 89.7346C135.175 90.9748 135.464 91.9669 135.713 92.6283C135.837 92.9591 135.919 93.2071 135.961 93.4138C136.085 93.6618 136.126 93.7858 136.126 93.7858Z" fill="#0C1923"/>
<path d="M199.787 65.6747V87.2954H226.079V65.6747C226.079 64.6412 225.252 63.8145 224.219 63.8145H201.647C200.614 63.8145 199.787 64.6412 199.787 65.6747Z" fill="#3387CA"/>
<g opacity="0.3">
<path d="M199.787 65.6747V87.2954H226.079V65.6747C226.079 64.6412 225.252 63.8145 224.219 63.8145H201.647C200.614 63.8145 199.787 64.6412 199.787 65.6747Z" fill="#0C1923"/>
</g>
<path d="M201.027 75.5544L201.193 67.6172H224.219V72.1646" fill="#F5F5F5"/>
<path d="M224.22 72.1647C224.22 72.1647 224.22 72.0407 224.22 71.8753C224.22 71.6686 224.22 71.3379 224.22 70.9659C224.22 70.1804 224.22 69.0229 224.178 67.6174L224.261 67.7C221.036 67.7 216.324 67.7414 211.032 67.7414C207.394 67.7414 204.046 67.7414 201.235 67.7414L201.317 67.6587C201.235 70.0564 201.193 71.9994 201.152 73.4462C201.111 74.1077 201.111 74.6451 201.111 75.0585C201.111 75.2238 201.111 75.3892 201.069 75.4719C201.069 75.5546 201.069 75.5959 201.069 75.5959C201.069 75.5959 201.069 75.5546 201.069 75.4305C201.069 75.3065 201.069 75.1825 201.069 75.0171C201.069 74.6451 201.069 74.1077 201.069 73.4049C201.111 71.9994 201.111 70.0151 201.152 67.6174V67.5347H201.235C204.046 67.5347 207.394 67.5347 211.032 67.5347C216.282 67.5347 221.036 67.576 224.261 67.576H224.344V67.6587C224.344 69.0642 224.302 70.1804 224.302 71.0072C224.302 71.3793 224.302 71.6686 224.302 71.9167C224.22 72.0407 224.22 72.1647 224.22 72.1647Z" fill="#0C1923"/>
<path d="M222.771 65.4683H202.68V67.6179H222.771V65.4683Z" fill="#F5F5F5"/>
<path d="M202.68 65.4679C202.68 65.4679 202.721 65.4679 202.762 65.4679C202.845 65.4679 202.928 65.4679 203.052 65.4679C203.341 65.4679 203.713 65.4679 204.209 65.4679C205.243 65.4679 206.69 65.4679 208.467 65.4266C212.105 65.4266 217.149 65.3853 222.812 65.3853H222.936V65.5093C222.936 66.212 222.936 66.9148 222.936 67.6589C222.729 67.8656 222.853 67.7003 222.812 67.783H222.771H222.729H222.605H222.399H221.985C221.696 67.783 221.448 67.783 221.159 67.783C220.621 67.783 220.084 67.783 219.546 67.783C218.471 67.783 217.438 67.783 216.404 67.783C214.379 67.783 212.477 67.783 210.741 67.783C207.268 67.783 204.499 67.7416 202.721 67.7416H202.68V67.7003C202.68 66.9975 202.68 66.4601 202.721 66.088C202.721 65.9227 202.721 65.7986 202.721 65.6746C202.68 65.5093 202.68 65.4679 202.68 65.4679C202.68 65.4679 202.68 65.5093 202.68 65.6333C202.68 65.7573 202.68 65.8813 202.68 66.0467C202.68 66.4187 202.68 66.9562 202.721 67.6176L202.68 67.5763C204.457 67.5763 207.227 67.5349 210.7 67.5349C212.436 67.5349 214.337 67.5349 216.363 67.5349C217.397 67.5349 218.43 67.5349 219.505 67.5349C220.042 67.5349 220.58 67.5349 221.117 67.5349C221.407 67.5349 221.655 67.5349 221.944 67.5349H222.357H222.564H222.688H222.729H222.771C222.729 67.5763 222.895 67.4109 222.688 67.6589C222.688 66.9148 222.688 66.212 222.688 65.5093L222.812 65.6333C217.19 65.6333 212.188 65.592 208.55 65.592C206.731 65.592 205.284 65.5506 204.292 65.5506C203.796 65.5506 203.424 65.5506 203.134 65.5506C203.01 65.5506 202.928 65.5506 202.845 65.5506C202.721 65.4679 202.721 65.4679 202.68 65.4679Z" fill="#0C1923"/>
<path d="M225.129 92.7109C225.129 92.7523 220.085 92.835 213.926 92.835C207.725 92.835 202.723 92.7936 202.723 92.7109C202.723 92.6696 207.766 92.5869 213.926 92.5869C220.127 92.6283 225.129 92.6696 225.129 92.7109Z" fill="#0C1923"/>
<path d="M197.762 71.6689L199.788 87.3366H226.08V72.165H214.133L211.818 70.1393H199.126C198.3 70.098 197.68 70.8421 197.762 71.6689Z" fill="#3387CA"/>
<path d="M218.845 78.2832C218.845 78.3245 215.951 78.4072 212.396 78.4072C208.841 78.4072 205.947 78.3659 205.947 78.2832C205.947 78.2005 208.841 78.1592 212.396 78.1592C215.993 78.1592 218.845 78.2005 218.845 78.2832Z" fill="#0C1923"/>
<path d="M218.845 79.813C218.845 79.8543 215.951 79.937 212.396 79.937C208.841 79.937 205.947 79.8957 205.947 79.813C205.947 79.7716 208.841 79.689 212.396 79.689C215.993 79.7303 218.845 79.7716 218.845 79.813Z" fill="#0C1923"/>
<path d="M140.177 112.678V134.298H166.51V112.678C166.51 111.644 165.683 110.817 164.65 110.817H142.078C141.045 110.817 140.177 111.644 140.177 112.678Z" fill="#3387CA"/>
<g opacity="0.3">
<path d="M140.177 112.678V134.298H166.51V112.678C166.51 111.644 165.683 110.817 164.65 110.817H142.078C141.045 110.817 140.177 111.644 140.177 112.678Z" fill="#0C1923"/>
</g>
<path d="M141.418 122.558L141.583 114.621H164.61V119.127" fill="#F5F5F5"/>
<path d="M164.609 119.127C164.609 119.127 164.609 119.003 164.609 118.837C164.609 118.631 164.609 118.3 164.609 117.928C164.609 117.142 164.609 115.985 164.568 114.579L164.651 114.662C161.426 114.662 156.713 114.703 151.422 114.703C147.784 114.703 144.435 114.703 141.624 114.703L141.707 114.621C141.624 117.018 141.583 118.961 141.542 120.408C141.5 121.07 141.5 121.607 141.5 122.02C141.5 122.186 141.5 122.351 141.459 122.434C141.459 122.516 141.459 122.558 141.459 122.558C141.459 122.558 141.459 122.516 141.459 122.392C141.459 122.268 141.459 122.144 141.459 121.979C141.459 121.607 141.459 121.07 141.459 120.367C141.5 118.961 141.5 116.977 141.542 114.579V114.497H141.624C144.435 114.497 147.784 114.497 151.422 114.497C156.672 114.497 161.426 114.538 164.651 114.538H164.733V114.621C164.733 116.026 164.692 117.142 164.692 117.969C164.692 118.341 164.692 118.631 164.692 118.879C164.609 119.044 164.609 119.127 164.609 119.127Z" fill="#0C1923"/>
<path d="M163.207 112.471H143.116V114.621H163.207V112.471Z" fill="#F5F5F5"/>
<path d="M143.117 112.471C143.117 112.471 143.159 112.471 143.2 112.471C143.283 112.471 143.365 112.471 143.489 112.471C143.779 112.471 144.151 112.471 144.647 112.471C145.68 112.471 147.127 112.471 148.905 112.43C152.543 112.43 157.586 112.388 163.25 112.388H163.374V112.512C163.374 113.215 163.374 113.918 163.374 114.662C163.167 114.869 163.291 114.703 163.25 114.786H163.208H163.167H163.043H162.836H162.423C162.133 114.786 161.885 114.786 161.596 114.786C161.059 114.786 160.521 114.786 159.984 114.786C158.909 114.786 157.875 114.786 156.842 114.786C154.816 114.786 152.915 114.786 151.178 114.786C147.706 114.786 144.936 114.745 143.159 114.745H143.117V114.703C143.117 114 143.117 113.463 143.159 113.091C143.159 112.926 143.159 112.802 143.159 112.678C143.117 112.512 143.117 112.471 143.117 112.471C143.117 112.471 143.117 112.512 143.117 112.636C143.117 112.76 143.117 112.884 143.117 113.05C143.117 113.422 143.117 113.959 143.159 114.621L143.117 114.579C144.895 114.579 147.665 114.538 151.137 114.538C152.873 114.538 154.775 114.538 156.801 114.538C157.834 114.538 158.868 114.538 159.942 114.538C160.48 114.538 161.017 114.538 161.555 114.538C161.844 114.538 162.092 114.538 162.381 114.538H162.795H163.002H163.126H163.167H163.208C163.167 114.579 163.332 114.414 163.126 114.662C163.126 113.918 163.126 113.215 163.126 112.512L163.25 112.636C157.627 112.636 152.625 112.595 148.987 112.595C147.168 112.595 145.722 112.554 144.729 112.554C144.233 112.554 143.861 112.554 143.572 112.554C143.448 112.554 143.365 112.554 143.283 112.554C143.159 112.471 143.117 112.471 143.117 112.471Z" fill="#0C1923"/>
<path d="M165.56 139.714C165.56 139.755 160.517 139.838 154.357 139.838C148.156 139.838 143.154 139.797 143.154 139.714C143.154 139.673 148.198 139.59 154.357 139.59C160.517 139.59 165.56 139.673 165.56 139.714Z" fill="#0C1923"/>
<path d="M138.152 118.631L140.178 134.298H166.511V119.127H154.564L152.249 117.101H139.557C138.689 117.101 138.069 117.845 138.152 118.631Z" fill="#3387CA"/>
<path d="M159.235 125.286C159.235 125.327 156.341 125.41 152.786 125.41C149.231 125.41 146.337 125.369 146.337 125.286C146.337 125.203 149.231 125.162 152.786 125.162C156.382 125.162 159.235 125.203 159.235 125.286Z" fill="#0C1923"/>
<path d="M159.235 126.816C159.235 126.857 156.341 126.94 152.786 126.94C149.231 126.94 146.337 126.899 146.337 126.816C146.337 126.733 149.231 126.692 152.786 126.692C156.382 126.692 159.235 126.775 159.235 126.816Z" fill="#0C1923"/>
<path d="M203.052 112.678V134.299H229.344V112.678C229.344 111.645 228.517 110.818 227.483 110.818H204.912C203.879 110.818 203.052 111.645 203.052 112.678Z" fill="#3387CA"/>
<g opacity="0.3">
<path d="M203.052 112.678V134.299H229.344V112.678C229.344 111.645 228.517 110.818 227.483 110.818H204.912C203.879 110.818 203.052 111.645 203.052 112.678Z" fill="#0C1923"/>
</g>
<path d="M204.293 122.558L204.458 114.621H227.485V119.168" fill="#F5F5F5"/>
<path d="M227.486 119.169C227.486 119.169 227.486 119.045 227.486 118.879C227.486 118.673 227.486 118.342 227.486 117.97C227.486 117.184 227.486 116.027 227.445 114.621L227.527 114.704C224.303 114.704 219.59 114.745 214.299 114.745C210.661 114.745 207.312 114.745 204.501 114.745L204.584 114.663C204.501 117.06 204.46 119.003 204.419 120.45C204.377 121.112 204.377 121.649 204.377 122.062C204.377 122.228 204.377 122.393 204.336 122.476C204.336 122.558 204.336 122.6 204.336 122.6C204.336 122.6 204.336 122.558 204.336 122.434C204.336 122.31 204.336 122.186 204.336 122.021C204.336 121.649 204.336 121.112 204.336 120.409C204.377 119.003 204.377 117.019 204.419 114.621V114.539H204.501C207.312 114.539 210.661 114.539 214.299 114.539C219.549 114.539 224.303 114.58 227.527 114.58H227.61V114.663C227.61 116.068 227.569 117.184 227.569 118.011C227.569 118.383 227.569 118.673 227.569 118.921C227.486 119.045 227.486 119.169 227.486 119.169Z" fill="#0C1923"/>
<path d="M226.077 112.471H205.986V114.621H226.077V112.471Z" fill="#F5F5F5"/>
<path d="M205.987 112.471C205.987 112.471 206.028 112.471 206.069 112.471C206.152 112.471 206.235 112.471 206.359 112.471C206.648 112.471 207.02 112.471 207.516 112.471C208.55 112.471 209.997 112.471 211.774 112.43C215.412 112.43 220.456 112.389 226.119 112.389H226.243V112.513C226.243 113.215 226.243 113.918 226.243 114.662C226.036 114.869 226.16 114.704 226.119 114.786H226.036H225.995H225.871H225.664H225.251C224.962 114.786 224.714 114.786 224.424 114.786C223.887 114.786 223.349 114.786 222.812 114.786C221.737 114.786 220.704 114.786 219.67 114.786C217.644 114.786 215.743 114.786 214.007 114.786C210.534 114.786 207.764 114.745 205.987 114.745H205.945V114.704C205.945 114.001 205.945 113.464 205.987 113.091C205.987 112.926 205.987 112.802 205.987 112.678C205.945 112.513 205.945 112.471 205.987 112.471C205.987 112.471 205.987 112.513 205.987 112.637C205.987 112.761 205.987 112.885 205.987 113.05C205.987 113.422 205.987 113.96 206.028 114.621L205.987 114.58C207.764 114.58 210.534 114.538 214.007 114.538C215.743 114.538 217.644 114.538 219.67 114.538C220.704 114.538 221.737 114.538 222.812 114.538C223.349 114.538 223.887 114.538 224.424 114.538C224.714 114.538 224.962 114.538 225.251 114.538H225.664H225.871H225.995H226.036H226.078C226.036 114.58 226.202 114.414 225.995 114.662C225.995 113.918 225.995 113.215 225.995 112.513L226.119 112.637C220.497 112.637 215.495 112.595 211.857 112.595C210.038 112.595 208.591 112.554 207.599 112.554C207.103 112.554 206.731 112.554 206.441 112.554C206.317 112.554 206.235 112.554 206.152 112.554C205.987 112.471 205.987 112.471 205.987 112.471Z" fill="#0C1923"/>
<path d="M228.394 139.714C228.394 139.756 223.351 139.838 217.191 139.838C210.99 139.838 205.988 139.797 205.988 139.714C205.988 139.673 211.032 139.59 217.191 139.59C223.392 139.632 228.394 139.673 228.394 139.714Z" fill="#0C1923"/>
<path d="M201.025 118.672L203.051 134.34H229.343V119.168H217.395L215.08 117.143H202.389C201.562 117.101 200.942 117.846 201.025 118.672Z" fill="#3387CA"/>
<path d="M222.111 125.287C222.111 125.328 219.217 125.411 215.662 125.411C212.107 125.411 209.213 125.369 209.213 125.287C209.213 125.204 212.107 125.163 215.662 125.163C219.258 125.163 222.111 125.245 222.111 125.287Z" fill="#0C1923"/>
<path d="M222.111 126.816C222.111 126.857 219.217 126.94 215.662 126.94C212.107 126.94 209.213 126.899 209.213 126.816C209.213 126.775 212.107 126.692 215.662 126.692C219.258 126.733 222.111 126.775 222.111 126.816Z" fill="#0C1923"/>
<path d="M131.991 77.9526C131.991 77.9526 131.95 77.7872 131.991 77.4979C131.991 77.2085 132.032 76.7951 132.074 76.299C132.198 75.2655 132.487 73.9013 133.066 72.4131C133.645 70.9662 134.389 69.726 135.009 68.8992C135.298 68.4858 135.588 68.1551 135.794 67.9484C136.001 67.7417 136.084 67.6177 136.125 67.6177C136.166 67.659 135.753 68.1138 135.174 68.9405C134.595 69.7673 133.893 71.0075 133.314 72.4131C132.735 73.86 132.446 75.2242 132.28 76.2163C132.074 77.3325 132.032 77.9526 131.991 77.9526Z" fill="#0C1923"/>
<path d="M133.314 76.3403C133.356 76.3403 133.232 76.547 132.984 76.8777L132.612 77.4152C132.529 77.4978 132.446 77.6219 132.364 77.7045L132.24 77.8699L132.157 77.9526L132.116 77.9939V78.0353C132.157 78.0353 131.826 78.0353 131.95 78.0353C131.537 77.6219 131.33 77.1258 131.206 76.7537C131.082 76.3817 131.082 76.175 131.123 76.1336C131.206 76.0923 131.371 77.0431 132.157 77.8699C132.322 77.8699 131.95 77.8699 131.991 77.8699V77.8286L132.033 77.7872L132.116 77.7045L132.24 77.5392C132.322 77.4565 132.405 77.3325 132.488 77.2498L132.901 76.7537C133.149 76.5057 133.314 76.3403 133.314 76.3403Z" fill="#0C1923"/>
<path d="M219.632 95.6455C219.632 95.6868 216.49 95.7695 212.604 95.7695C208.718 95.7695 205.576 95.7282 205.576 95.6455C205.576 95.6042 208.718 95.5215 212.604 95.5215C216.49 95.5628 219.632 95.6042 219.632 95.6455Z" fill="#B5E1FF"/>
<path d="M223.269 142.235C223.269 142.277 220.128 142.359 216.242 142.359C212.356 142.359 209.214 142.318 209.214 142.235C209.214 142.153 212.356 142.111 216.242 142.111C220.086 142.111 223.269 142.153 223.269 142.235Z" fill="#B5E1FF"/>
<path d="M157.458 142.979C157.458 143.021 154.316 143.104 150.43 143.104C146.544 143.104 143.402 143.062 143.402 142.979C143.402 142.897 146.544 142.855 150.43 142.855C154.275 142.855 157.458 142.897 157.458 142.979Z" fill="#B5E1FF"/>
<path d="M93.1022 110.108C92.6888 111.927 90.6218 112.878 89.3403 114.242C88.0588 115.606 86.1985 116.722 84.3796 116.185C83.1807 115.854 82.3126 114.82 81.8165 113.704C80.6176 111.1 81.1964 108.041 82.0645 105.312C82.974 102.584 84.1729 99.8969 84.2142 97.0444L90.2085 99.0701L91.6967 97.2511C91.738 97.2511 93.4329 108.785 93.1022 110.108Z" fill="#F7C5A8"/>
<path d="M116.501 94.6053C116.501 94.6053 120.139 109.157 123.611 111.265C127.993 113.952 130.556 110.769 130.556 110.769L137.419 98.2018L132.747 97.0443L128.2 102.791L125.017 94.0679L116.501 94.6053Z" fill="#F7C5A8"/>
<path d="M111.212 155.003C111.212 155.499 111.791 162.692 111.791 162.692C111.791 162.692 110.716 165.999 110.634 169.637C110.468 176.334 110.551 190.761 110.551 190.761H117.703V189.935C117.703 189.935 121.465 164.759 121.341 162.278L120.845 152.936L111.212 155.003Z" fill="#F7C5A8"/>
<path d="M105.382 143.841L93.4766 145.866C93.4766 145.866 94.6754 149.132 94.7581 149.463C95.0888 150.621 95.7502 153.638 95.3368 156.449C94.8408 160.046 94.386 164.428 94.5927 166.495C94.7994 168.562 97.0731 190.183 97.0731 190.183L104.184 190.389L105.92 150.538L105.382 143.841Z" fill="#F7C5A8"/>
<path d="M100.41 57.9369L100.327 79.3922L109.546 79.8469L109.794 74.6381C109.794 74.6381 113.06 75.2996 113.887 72.2404C114.424 70.2975 114.3 55.3325 114.3 55.3325L100.41 57.9369Z" fill="#F7C5A8"/>
<path d="M115.534 56.8229C114.088 57.2363 113.757 59.5927 113.757 59.5927L111.483 64.5948C110.326 63.6853 108.755 63.7266 108.465 65.7936C108.259 67.2819 110.078 67.5712 110.078 67.5712C109.003 69.3902 108.3 70.8371 106.729 72.5733C105.034 74.4336 104.125 74.6403 102.306 74.6403H100.28C100.28 74.6403 99.288 71.4572 97.469 63.4786C95.4434 54.6319 105.902 55.7894 107.845 53.5157C111.07 49.8779 120.082 55.5001 115.534 56.8229Z" fill="#0C1923"/>
<path d="M97.7293 64.3449C96.0344 63.1874 95.869 60.0042 96.8612 58.1026C97.8533 56.2009 99.9203 54.8781 102.07 54.8367C102.359 54.8367 102.649 54.8367 102.938 54.7541C103.352 54.5887 103.6 54.2166 103.848 53.8859C105.377 51.9016 106.865 50 109.676 50C110.131 50 110.627 50 111.454 50.4547C111.867 50.6614 112.405 51.4055 112.529 51.8603C113.066 51.6122 113.604 51.3642 114.183 51.2815C114.761 51.1988 115.381 51.2815 115.836 51.6949C116.291 52.067 116.456 52.8111 116.084 53.2658C117.035 53.2245 117.944 54.0099 118.068 54.9194C118.234 55.8702 116.87 56.5317 116.746 56.6143C116.746 56.6143 117.49 58.1853 115.712 59.0947C115.009 59.4668 114.058 59.012 113.976 58.9707" fill="#0C1923"/>
<path d="M104.433 66.4116C104.475 66.4116 104.599 67.1557 104.392 68.0239C104.185 68.9333 103.813 69.5534 103.731 69.5121C103.689 69.4708 103.979 68.8093 104.144 67.9825C104.351 67.1144 104.392 66.4116 104.433 66.4116Z" fill="url(#paint0_linear_349_58772)"/>
<path d="M105.543 65.3364C105.626 65.3364 105.626 66.0392 105.46 66.9073C105.295 67.7755 105.047 68.4369 104.964 68.3956C104.882 68.3956 105.047 67.6928 105.212 66.866C105.378 66.0392 105.502 65.3364 105.543 65.3364Z" fill="url(#paint1_linear_349_58772)"/>
<path d="M108.724 61.7808C108.765 61.8221 108.476 61.9875 108.145 62.4009C107.815 62.7729 107.443 63.393 107.153 64.0958C106.864 64.8399 106.74 65.5013 106.616 66.0387C106.492 66.5348 106.409 66.8655 106.368 66.8655C106.326 66.8655 106.368 66.5348 106.45 66.0387C106.533 65.5427 106.657 64.7986 106.947 64.0544C107.236 63.3103 107.649 62.6902 108.021 62.3182C108.435 61.9048 108.724 61.7808 108.724 61.7808Z" fill="url(#paint2_linear_349_58772)"/>
<path d="M110.011 59.3843C110.053 59.3843 110.135 59.591 110.177 59.963C110.218 60.3351 110.218 60.8725 110.094 61.4099C109.97 61.9887 109.681 62.4434 109.474 62.7328C109.267 63.0222 109.061 63.1875 109.061 63.1462C109.019 63.1048 109.639 62.4021 109.887 61.3272C110.177 60.2937 109.97 59.3843 110.011 59.3843Z" fill="url(#paint3_linear_349_58772)"/>
<path d="M99.0462 64.7586C99.0049 64.7999 98.7155 64.7172 98.4261 64.5519C98.0954 64.3865 97.8887 64.1798 97.93 64.1385C97.9714 64.0971 98.2608 64.1798 98.5501 64.3452C98.8395 64.5105 99.0876 64.6759 99.0462 64.7586Z" fill="url(#paint4_linear_349_58772)"/>
<path d="M103.469 62.4429C103.511 62.4429 103.511 62.8976 103.221 63.3937C102.932 63.8484 102.56 64.0965 102.519 64.0551C102.477 64.0138 102.767 63.6831 103.015 63.2697C103.304 62.8563 103.428 62.4429 103.469 62.4429Z" fill="url(#paint5_linear_349_58772)"/>
<path d="M104.839 61.7407C104.881 61.7407 104.798 62.2781 104.426 62.8569C104.054 63.4356 103.599 63.725 103.558 63.6837C103.517 63.6423 103.889 63.2703 104.219 62.7328C104.591 62.1954 104.798 61.6994 104.839 61.7407Z" fill="url(#paint6_linear_349_58772)"/>
<path d="M111.665 52.7294C111.665 52.7294 111.499 52.6053 111.169 52.3986C110.838 52.2333 110.3 52.0266 109.639 51.9852C108.978 51.9439 108.151 52.1093 107.365 52.6053C106.621 53.0601 105.918 53.8455 105.422 54.755C105.05 55.4164 104.802 56.1192 104.637 56.7806L104.596 56.9047L104.471 56.822C103.769 56.4499 103.066 56.3259 102.405 56.2846C101.743 56.2846 101.206 56.3672 100.751 56.5326C99.8415 56.8633 99.4281 57.2354 99.3867 57.2354C99.3867 57.2354 99.4694 57.1114 99.6761 56.946C99.8828 56.7806 100.214 56.574 100.668 56.4086C101.123 56.2432 101.702 56.0779 102.405 56.0779C103.066 56.0779 103.851 56.2432 104.554 56.6153L104.389 56.698C104.554 56.0365 104.802 55.3338 105.174 54.631C105.67 53.6802 106.373 52.8947 107.2 52.3986C108.027 51.9026 108.895 51.7785 109.598 51.8199C110.3 51.8612 110.838 52.1093 111.169 52.316C111.334 52.44 111.458 52.5227 111.541 52.6053C111.623 52.688 111.665 52.7294 111.665 52.7294Z" fill="url(#paint7_linear_349_58772)"/>
<path d="M116.51 53.9269C116.51 53.9269 116.758 53.8442 117.048 54.1749C117.172 54.3402 117.296 54.5469 117.254 54.8363C117.213 55.1257 117.048 55.4151 116.717 55.5804C116.428 55.7458 116.014 55.8285 115.601 55.7458C115.187 55.6631 114.815 55.4564 114.443 55.167C114.071 54.919 113.741 54.6296 113.327 54.3816C112.914 54.1749 112.459 54.0095 111.963 53.8855C110.971 53.7202 110.02 53.8028 109.193 54.0922C108.366 54.3402 107.664 54.7536 107.126 55.1257C106.051 55.9112 105.514 56.5312 105.473 56.5312C105.473 56.5312 105.597 56.3659 105.845 56.0765C106.093 55.7871 106.465 55.4151 107.002 55.0017C107.54 54.5883 108.242 54.1749 109.069 53.8855C109.937 53.5961 110.929 53.4721 111.963 53.6788C112.459 53.7615 112.955 53.9682 113.369 54.1749C113.823 54.4229 114.154 54.7123 114.526 54.9603C114.857 55.2084 115.229 55.4151 115.601 55.4978C115.973 55.5804 116.304 55.5391 116.593 55.3737C116.882 55.2084 117.048 54.9603 117.089 54.7536C117.13 54.5056 117.048 54.2989 116.924 54.1749C116.758 53.9268 116.51 53.9269 116.51 53.9269Z" fill="url(#paint8_linear_349_58772)"/>
<path d="M92.4349 126.271C92.4349 126.271 92.1042 135.118 92.4349 137.805C92.7656 140.492 92.2695 156.739 92.2695 156.739C92.2695 156.739 104.754 160.377 108.103 156.077C108.103 156.077 106.738 136.358 106.614 135.821C106.49 135.284 105.374 121.848 105.374 121.848L92.4349 126.271Z" fill="#0C1923"/>
<path d="M120.876 121.807C121.62 124.08 123.15 132.72 123.15 132.72V155.54C123.15 155.54 112.36 159.426 108.019 157.524L105.415 134.581V122.716L114.303 119.244L120.876 121.807Z" fill="#0C1923"/>
<path d="M114.057 137.681C114.057 137.681 113.891 137.681 113.561 137.681C113.23 137.681 112.775 137.64 112.197 137.598C110.998 137.474 109.427 137.35 107.691 137.185C105.954 137.02 104.383 136.896 103.185 136.772C102.647 136.73 102.192 136.689 101.82 136.648C101.49 136.606 101.324 136.606 101.324 136.565C101.324 136.565 101.49 136.565 101.82 136.565C102.151 136.565 102.606 136.606 103.185 136.606C104.342 136.689 105.913 136.772 107.691 136.937C109.427 137.102 111.039 137.268 112.197 137.392C112.734 137.474 113.189 137.516 113.561 137.557C113.85 137.64 114.057 137.64 114.057 137.681Z" fill="url(#paint9_linear_349_58772)"/>
<path d="M105.95 136.938C105.992 136.938 106.529 141.526 107.108 147.19C107.686 152.853 108.141 157.483 108.058 157.483C108.017 157.483 107.48 152.895 106.901 147.231C106.322 141.568 105.867 136.938 105.95 136.938Z" fill="url(#paint10_linear_349_58772)"/>
<path d="M106.08 136.813C106.121 136.855 105.542 137.351 104.798 137.929C104.054 138.508 103.434 138.921 103.393 138.88C103.351 138.839 103.93 138.343 104.674 137.764C105.46 137.227 106.08 136.772 106.08 136.813Z" fill="url(#paint11_linear_349_58772)"/>
<path d="M122.864 131.19C122.864 131.232 122.492 131.066 121.996 130.736C121.5 130.405 120.797 129.909 120.136 129.289C119.475 128.627 118.937 128.007 118.606 127.47C118.276 126.974 118.11 126.643 118.11 126.643C118.152 126.643 118.358 126.932 118.73 127.387C119.103 127.842 119.64 128.503 120.301 129.123C120.963 129.744 121.624 130.281 122.079 130.612C122.575 130.984 122.864 131.19 122.864 131.19Z" fill="url(#paint12_linear_349_58772)"/>
<path d="M105.541 134.787C105.541 134.787 105.458 134.704 105.376 134.498C105.252 134.291 105.128 134.002 104.962 133.629C104.632 132.885 104.301 131.852 104.094 130.653C103.887 129.454 103.846 128.338 103.887 127.553C103.929 127.139 103.929 126.85 103.97 126.602C104.011 126.395 104.011 126.271 104.053 126.271C104.094 126.271 104.053 126.767 104.011 127.553C104.011 128.338 104.053 129.413 104.26 130.612C104.466 131.811 104.797 132.844 105.045 133.588C105.334 134.291 105.541 134.746 105.541 134.787Z" fill="url(#paint13_linear_349_58772)"/>
<path d="M118.684 103.121C118.56 102.791 117.361 95.9282 117.361 95.9282L126.208 95.7215C126.208 95.7215 122.322 80.5499 120.214 79.4337C116.948 77.6974 109.714 77.4907 109.714 77.4907H100.412C100.412 77.4907 90.1599 80.3432 88.2996 83.4023L81.7266 96.0109L90.2425 99.1527L91.7308 97.3338L93.219 110.19C93.219 110.19 92.3509 121.765 92.3509 123.502C92.3509 125.238 92.4749 126.354 92.4749 126.354C92.4749 126.354 111.78 121.104 116.493 122.634C121.206 124.163 121.909 125.61 121.909 125.61C121.909 125.61 122.322 120.443 121.247 118.5L118.684 103.121Z" fill="url(#paint14_linear_349_58772)"/>
<path d="M91.9374 99.0703C91.896 99.0703 91.8134 98.4502 91.6067 97.458C91.4 96.4659 91.0692 95.143 90.5732 93.6961C90.0771 92.2492 89.4983 91.009 89.0436 90.0996C88.8369 89.6862 88.6715 89.3141 88.5062 89.0247C88.3822 88.7767 88.2995 88.6527 88.3408 88.6113C88.3408 88.6113 88.4235 88.7353 88.5889 88.9834C88.7542 89.2314 88.9609 89.5621 89.1676 90.0169C89.6637 90.885 90.2425 92.1665 90.7799 93.6134C91.2759 95.0603 91.6067 96.4245 91.772 97.4167C91.8547 97.9128 91.896 98.3261 91.9374 98.6155C91.9374 98.9049 91.9787 99.0703 91.9374 99.0703Z" fill="#0C1923"/>
<path d="M110.212 103.907C110.212 103.907 110.212 103.989 110.17 104.113C110.129 104.237 110.046 104.444 110.005 104.651C109.922 104.899 109.839 105.147 109.715 105.478C109.591 105.808 109.467 106.18 109.261 106.552C108.93 107.338 108.475 108.289 107.897 109.322C107.318 110.356 106.656 111.431 105.912 112.505C105.127 113.58 104.341 114.614 103.597 115.482C102.812 116.35 102.109 117.094 101.448 117.714C101.117 118.004 100.827 118.293 100.579 118.5C100.331 118.748 100.083 118.913 99.9179 119.078C99.7526 119.202 99.5872 119.326 99.4632 119.409C99.3805 119.492 99.2979 119.533 99.2979 119.533C99.2979 119.533 99.3392 119.492 99.4219 119.409C99.5459 119.326 99.6699 119.161 99.8353 119.037C100.001 118.872 100.249 118.665 100.497 118.417C100.745 118.169 101.034 117.921 101.365 117.59C101.985 116.97 102.688 116.226 103.473 115.358C104.217 114.49 105.003 113.498 105.788 112.381C106.532 111.307 107.194 110.19 107.772 109.198C108.31 108.206 108.806 107.255 109.137 106.47C109.343 106.056 109.467 105.726 109.591 105.395C109.715 105.064 109.839 104.816 109.922 104.568C110.005 104.361 110.088 104.196 110.129 104.031C110.17 103.989 110.212 103.907 110.212 103.907Z" fill="#0C1923"/>
<path d="M117.447 85.3867C117.488 85.3867 117.364 86.0068 117.24 86.999C117.158 87.9911 117.075 89.3553 117.116 90.8849C117.158 92.4145 117.24 93.7787 117.323 94.7708C117.364 95.2256 117.406 95.639 117.406 95.9283C117.447 96.2177 117.447 96.3417 117.406 96.3417C117.406 96.3417 117.364 96.1764 117.323 95.9283C117.282 95.639 117.24 95.2669 117.158 94.7708C117.034 93.7787 116.91 92.4145 116.868 90.8849C116.827 89.3553 116.91 87.9911 117.034 86.999C117.116 86.5029 117.158 86.0895 117.24 85.8415C117.364 85.5107 117.406 85.3867 117.447 85.3867Z" fill="#0C1923"/>
<g opacity="0.3">
<path d="M89.5439 91.1748C89.5439 91.1748 90.0814 96.4663 90.2467 99.112L91.7349 97.2931C91.7349 97.2517 90.2881 91.8362 89.5439 91.1748Z" fill="#0C1923"/>
</g>
<g opacity="0.3">
<path d="M103.185 109.818C102.151 111.43 101.2 113.415 100.539 115.192C103.516 112.753 105.872 109.612 107.401 106.098C105.624 106.759 104.177 108.206 103.185 109.818Z" fill="#0C1923"/>
</g>
<path d="M83.6762 120.608C83.2628 120.732 82.8494 120.443 82.808 119.988L80.9478 102.542C80.8237 101.468 81.5265 100.517 82.56 100.227L91.7788 97.7471L93.3083 111.182L92.6055 118.252L83.6762 120.608Z" fill="#3387CA"/>
<g opacity="0.3">
<path d="M92.6473 118.252C92.0685 117.135 92.3166 115.854 92.4406 114.614C93.0193 108.909 90.5803 103.328 91.8205 97.7471C91.8205 97.7471 93.102 108.454 93.35 111.182L92.6473 118.252Z" fill="#0C1923"/>
</g>
<path d="M91.8572 99.3179C91.8572 99.3179 91.7745 99.3592 91.5678 99.4006C91.3611 99.4419 91.1131 99.5246 90.7824 99.6073C90.0796 99.814 89.0875 100.062 87.8886 100.393C87.2685 100.558 86.6071 100.723 85.9043 100.93C85.5323 101.013 85.1602 101.137 84.7881 101.219C84.4161 101.302 84.0027 101.385 83.672 101.633C83.3413 101.84 83.0519 102.17 82.8038 102.501C82.5971 102.873 82.4318 103.286 82.4731 103.7C82.5145 104.609 82.5971 105.56 82.6385 106.511C82.8452 110.356 83.0105 113.787 83.1346 116.35C83.1759 117.59 83.2172 118.582 83.2586 119.326C83.2586 119.657 83.2586 119.946 83.2999 120.153C83.2999 120.318 83.2999 120.442 83.2999 120.442C83.2999 120.442 83.2999 120.36 83.2586 120.153C83.2586 119.946 83.2172 119.698 83.1759 119.326C83.1346 118.582 83.0519 117.59 82.9692 116.35C82.8038 113.828 82.5971 110.356 82.3904 106.511C82.3491 105.56 82.2664 104.609 82.2251 103.7C82.1837 103.204 82.3491 102.749 82.5971 102.377C82.8452 102.005 83.1759 101.674 83.5066 101.426C83.672 101.302 83.8787 101.219 84.0854 101.137C84.2921 101.054 84.4988 101.013 84.6641 100.971C85.0362 100.889 85.4082 100.765 85.7803 100.682C86.4831 100.517 87.1858 100.351 87.7646 100.186C88.9634 99.8966 89.9556 99.6486 90.6584 99.4832C90.9891 99.4006 91.2371 99.3592 91.4438 99.3179C91.7745 99.3179 91.8572 99.3179 91.8572 99.3179Z" fill="#0C1923"/>
<path d="M92.8146 106.553C92.8146 106.594 92.4838 106.718 91.9051 106.884C91.3263 107.049 90.5409 107.297 89.6727 107.504C88.8046 107.71 87.9778 107.876 87.3991 108C86.8203 108.124 86.4482 108.165 86.4482 108.124C86.4482 108.083 86.779 108 87.3577 107.835C88.0191 107.669 88.7633 107.504 89.6314 107.256C90.4582 107.049 91.2436 106.842 91.8637 106.677C92.4425 106.594 92.8146 106.512 92.8146 106.553Z" fill="#0C1923"/>
<path d="M92.9787 108.041C92.9787 108.082 92.1519 108.454 91.0771 108.702C90.0022 108.991 89.0928 109.074 89.0928 109.033C89.0928 108.991 89.9609 108.785 91.0357 108.495C92.1106 108.247 92.9787 107.999 92.9787 108.041Z" fill="#0C1923"/>
<path d="M129.811 108.413C129.728 108.413 129.728 107.091 129.191 105.561C128.653 104.031 128.033 102.833 128.116 102.833C128.157 102.833 128.323 103.122 128.571 103.577C128.819 104.073 129.149 104.734 129.397 105.52C129.645 106.305 129.811 107.049 129.852 107.587C129.852 108.083 129.811 108.413 129.811 108.413Z" fill="#F4A695"/>
<path d="M132.704 97.0029C132.704 97.0029 131.795 91.4633 132.291 90.5952L135.929 86.0479C135.929 86.0479 136.549 86.916 136.301 87.6601C136.053 88.4042 135.226 89.479 135.226 89.479C135.226 89.479 137.293 89.4377 137.913 90.1818C138.12 90.4299 138.244 91.2153 138.326 91.7114C138.368 91.9594 138.285 92.1661 138.12 92.3315L137.582 92.9929C138.616 97.2922 137.293 98.3257 137.293 98.3257L132.704 97.0029Z" fill="#F7C5A8"/>
<path d="M136.836 89.6853C136.836 89.7267 136.754 89.8093 136.588 89.9747C136.423 90.1401 136.175 90.3468 136.092 90.6775C135.968 91.0082 135.886 91.3389 135.844 91.5456C135.803 91.7523 135.803 91.9177 135.803 91.9177C135.762 91.9177 135.679 91.7936 135.72 91.5456C135.72 91.2976 135.803 90.9668 135.927 90.5948C136.051 90.2227 136.34 89.9747 136.547 89.8507C136.671 89.6853 136.795 89.644 136.836 89.6853Z" fill="#F4A695"/>
<path d="M132.124 91.6289C132.124 91.4635 132 91.5875 131.876 91.6702C131.752 91.7529 131.587 92.0009 131.504 92.1249C131.256 92.7037 131.339 93.4065 131.463 94.0266C131.628 94.8947 132.166 95.3494 132.579 96.1349" fill="#F7C5A8"/>
<path d="M135.349 89.438C135.39 89.4793 134.977 89.8514 134.605 90.4301C134.439 90.7195 134.357 90.9676 134.315 91.2156C134.274 91.4223 134.315 91.5463 134.274 91.5876C134.233 91.5876 134.191 91.4636 134.191 91.2156C134.191 90.9676 134.274 90.6368 134.481 90.3475C134.687 90.0581 134.894 89.81 135.101 89.686C135.225 89.4793 135.349 89.438 135.349 89.438Z" fill="#F4A695"/>
<path d="M132.62 95.3076C132.578 95.3076 132.537 95.0596 132.454 94.6462C132.372 94.2328 132.248 93.654 132.165 93.0339C131.999 91.7524 132.165 90.6776 132.206 90.7189C132.248 90.7189 132.165 91.7524 132.372 93.0339C132.537 94.2741 132.661 95.3076 132.62 95.3076Z" fill="#F4A695"/>
<path d="M137.912 90.3062C137.953 90.3062 138.036 90.5128 138.16 90.8849C138.201 91.0916 138.284 91.2983 138.325 91.5877C138.367 91.8357 138.367 92.1664 138.243 92.4971C138.16 92.6625 138.077 92.7865 137.953 92.8692C137.87 92.9105 137.829 92.9519 137.746 92.9932C137.705 92.9932 137.664 93.0346 137.581 92.9932C137.54 92.9932 137.457 92.9519 137.457 92.8692C137.333 92.5798 137.292 92.3731 137.292 92.1664C137.25 91.753 137.25 91.505 137.292 91.505C137.333 91.505 137.333 91.753 137.457 92.1251C137.498 92.2905 137.581 92.5385 137.664 92.7452C137.664 92.7452 137.664 92.7452 137.746 92.7452C137.788 92.7452 137.871 92.7039 137.912 92.6625C137.995 92.5798 138.077 92.4972 138.16 92.3731C138.284 92.1251 138.284 91.8357 138.243 91.5877C138.201 91.3396 138.16 91.0916 138.119 90.9262C137.912 90.5542 137.871 90.3062 137.912 90.3062Z" fill="#F4A695"/>
<path d="M110.497 190.099V198.284L126.95 198.036C126.826 196.382 117.814 193.24 117.814 193.24L117.98 190.099H110.497V190.099Z" fill="#3387CA"/>
<g opacity="0.6">
<path d="M113.185 192.498C112.854 192.581 112.647 192.994 112.73 193.325C112.813 193.656 113.185 193.904 113.474 193.821C113.805 193.738 114.053 193.284 113.97 192.953C113.846 192.622 113.433 192.374 113.144 192.539" fill="white"/>
</g>
<path d="M110.497 198.325L110.538 196.919L126.33 197.209C126.33 197.209 127.074 197.54 126.992 198.077L110.497 198.325Z" fill="#0C1923"/>
<path d="M117.879 193.406C117.879 193.489 117.465 193.53 117.093 193.82C116.68 194.109 116.515 194.44 116.432 194.44C116.349 194.44 116.473 193.903 116.969 193.572C117.383 193.241 117.879 193.324 117.879 193.406Z" fill="#0C1923"/>
<path d="M120.018 194.149C120.018 194.232 119.687 194.397 119.439 194.728C119.15 195.1 119.109 195.472 119.026 195.472C118.943 195.472 118.902 194.976 119.233 194.563C119.563 194.149 120.018 194.067 120.018 194.149Z" fill="#0C1923"/>
<path d="M121.013 196.259C120.93 196.259 120.806 195.845 121.013 195.391C121.219 194.936 121.591 194.729 121.633 194.812C121.674 194.894 121.426 195.143 121.261 195.515C121.095 195.887 121.095 196.259 121.013 196.259Z" fill="#0C1923"/>
<path d="M117.696 191.091C117.654 191.174 117.282 191.05 116.828 191.091C116.373 191.132 116.042 191.298 115.96 191.215C115.918 191.174 116.249 190.843 116.786 190.801C117.365 190.76 117.737 191.008 117.696 191.091Z" fill="#0C1923"/>
<path d="M117.777 193.407C117.777 193.407 117.819 193.242 117.819 192.911C117.777 192.58 117.695 192.126 117.364 191.63C117.199 191.382 116.992 191.134 116.702 190.968C116.578 190.885 116.372 190.761 116.124 190.885C115.917 190.968 115.793 191.216 115.793 191.423C115.834 192.25 116.413 193.035 117.24 193.325C118.108 193.614 118.976 193.242 119.472 192.663C119.596 192.498 119.72 192.374 119.762 192.167C119.803 192.084 119.803 191.96 119.762 191.836C119.72 191.712 119.638 191.63 119.555 191.588C119.348 191.506 119.183 191.588 119.059 191.63C118.935 191.712 118.811 191.754 118.687 191.836C118.232 192.167 117.901 192.498 117.736 192.787C117.571 193.035 117.488 193.2 117.488 193.242C117.529 193.283 117.819 192.58 118.728 192.002C118.935 191.878 119.224 191.712 119.472 191.754C119.555 191.795 119.596 191.919 119.555 192.043C119.514 192.167 119.39 192.332 119.307 192.456C118.852 192.994 118.067 193.283 117.323 193.035C116.578 192.787 116.041 192.043 116 191.382C116 191.216 116.082 191.092 116.206 191.01C116.33 190.968 116.454 191.009 116.578 191.092C116.826 191.258 117.033 191.464 117.199 191.712C117.529 192.167 117.612 192.622 117.695 192.911C117.777 193.2 117.777 193.407 117.777 193.407Z" fill="#0C1923"/>
<path d="M104.138 189.977L104.469 192.499L104.262 198.286L96.7383 198.452L96.4902 192.499L96.7796 189.977H104.138Z" fill="#3387CA"/>
<path d="M100.541 197.832C100.5 197.832 100.624 196.054 100.789 193.904C100.955 191.713 101.161 189.977 101.203 189.977C101.244 189.977 101.12 191.755 100.955 193.904C100.789 196.095 100.583 197.832 100.541 197.832Z" fill="#0C1923"/>
<path d="M104.259 197.334L96.7354 197.458V198.451L104.259 198.285V197.334Z" fill="#0C1923"/>
<path d="M96.7344 194.027C96.7344 194.027 96.7757 193.903 96.9411 193.738C97.0651 193.573 97.3131 193.283 97.6025 193.035C97.8919 192.746 98.3053 192.456 98.8014 192.208C99.2974 191.96 99.9175 191.795 100.538 191.795C101.819 191.795 102.935 192.415 103.473 193.076C103.762 193.407 103.927 193.697 104.01 193.903C104.093 194.11 104.134 194.234 104.134 194.234C104.093 194.275 103.927 193.779 103.349 193.2C102.811 192.622 101.778 192.043 100.538 192.043C99.2974 192.043 98.3053 192.663 97.6852 193.159C97.0651 193.614 96.7344 194.027 96.7344 194.027Z" fill="#0C1923"/>
<path d="M293.654 187.826C292.662 187.785 292.373 186.379 292.745 185.469C293.117 184.56 293.82 183.733 293.861 182.782C293.861 181.914 293.324 181.17 293.282 180.302C293.2 178.772 294.688 177.532 294.729 175.961C294.771 174.763 293.944 173.605 294.15 172.447C294.357 171.166 295.68 170.339 296.011 169.099C296.341 167.776 295.391 166.371 295.763 165.048C296.135 163.725 297.664 162.774 297.458 161.41C297.375 160.955 297.127 160.583 297.003 160.128C296.714 159.136 297.292 158.061 297.954 157.276C298.615 156.49 299.442 155.746 299.855 154.795C300.475 153.307 300.062 151.53 300.806 150.124C301.426 148.925 302.79 148.14 302.997 146.817C303.7 148.016 302.997 149.504 303.163 150.91C303.287 151.819 303.741 152.604 304.031 153.473C304.609 155.209 304.403 157.193 303.493 158.805C302.873 159.88 301.964 160.872 302.005 162.071C302.046 163.518 303.535 164.593 303.783 166.04C304.155 168.107 301.964 169.967 302.253 172.034C302.336 172.572 302.584 173.068 302.625 173.605C302.79 175.424 300.682 176.747 300.393 178.566C300.145 179.889 300.93 181.294 300.599 182.617C300.351 183.651 299.483 184.56 299.69 185.552C299.773 186.007 300.062 186.379 300.269 186.792C300.599 187.578 300.475 188.57 299.897 189.231C299.318 189.893 298.284 190.1 297.54 189.727" fill="#3387CA"/>
<g opacity="0.5">
<path d="M300.182 186.792C300.016 186.379 299.727 186.007 299.603 185.552C299.396 184.519 300.265 183.609 300.513 182.617C300.843 181.294 300.058 179.93 300.306 178.566C300.637 176.747 302.704 175.465 302.538 173.605C302.497 173.068 302.249 172.572 302.166 172.034C301.877 169.967 304.068 168.107 303.696 166.04C303.448 164.593 301.959 163.518 301.918 162.071C301.877 160.872 302.786 159.88 303.406 158.805C304.316 157.193 304.522 155.209 303.944 153.473C303.654 152.604 303.2 151.819 303.076 150.91C302.91 149.545 303.613 148.016 302.91 146.817C302.745 148.14 301.339 148.925 300.719 150.124C299.975 151.53 300.43 153.349 299.768 154.795C299.355 155.746 298.528 156.449 297.867 157.276C297.205 158.061 296.668 159.136 296.916 160.128C297.04 160.583 297.288 160.955 297.371 161.41C297.577 162.774 296.048 163.725 295.676 165.048C295.304 166.371 296.255 167.776 295.924 169.099C295.634 170.339 294.312 171.166 294.064 172.447C293.857 173.646 294.684 174.763 294.642 175.961C294.56 177.491 293.113 178.731 293.195 180.302C293.237 181.17 293.774 181.914 293.774 182.782C293.774 183.775 293.03 184.56 292.658 185.469C292.286 186.379 292.575 187.785 293.567 187.826L297.329 189.727C298.115 190.1 299.107 189.893 299.686 189.231C300.389 188.57 300.513 187.578 300.182 186.792Z" fill="white"/>
</g>
<path d="M298.907 185.883C298.7 185.552 298.452 184.85 298.535 184.436C298.617 183.857 299.568 183.361 299.816 182.411C300.106 181.17 299.568 178.979 299.816 177.739C300.147 176.044 301.883 174.928 301.801 173.233C301.759 172.737 301.842 171.414 301.801 170.918C301.594 169.016 303.289 167.735 303.041 165.875C302.875 164.552 301.511 163.022 301.511 161.658C301.511 160.542 302.297 159.55 302.834 158.558C303.62 157.028 303.868 155.209 303.454 153.638C303.248 152.853 302.875 152.15 302.834 151.323C302.751 150.083 303.372 148.636 302.834 147.603C302.669 148.843 301.47 149.67 300.932 150.786C300.271 152.15 300.56 153.762 300.023 155.168C299.651 156.077 298.948 156.78 298.369 157.565C297.791 158.351 297.295 159.343 297.501 160.252C297.584 160.625 297.791 160.997 297.832 161.41C297.956 162.65 296.675 163.642 296.302 164.883C295.972 166.123 296.675 167.363 296.385 168.603C296.096 169.761 294.938 171.373 294.732 172.53C294.525 173.647 295.517 174.349 295.434 175.465C295.352 176.871 293.905 178.607 293.946 180.013C293.946 180.798 294.608 181.046 294.566 181.832C294.525 182.741 293.781 184.519 293.45 185.387C293.119 186.255 293.119 186.917 293.698 187.826L297.915 189.934C299.775 189.025 299.692 187.206 298.907 185.883Z" fill="#3387CA"/>
<path d="M301.717 154.051C301.717 154.051 301.717 154.093 301.717 154.134C301.717 154.217 301.717 154.299 301.717 154.423C301.717 154.671 301.717 155.002 301.675 155.457C301.634 155.912 301.551 156.49 301.303 157.069C301.055 157.689 300.518 158.227 300.022 158.888C299.774 159.219 299.526 159.549 299.401 160.004C299.277 160.418 299.236 160.872 299.236 161.368C299.277 162.319 299.567 163.311 299.732 164.386C299.815 164.924 299.815 165.502 299.691 166.081C299.608 166.37 299.484 166.619 299.36 166.908C299.195 167.156 299.029 167.404 298.905 167.652C298.657 168.189 298.74 168.768 298.864 169.347C298.905 169.636 298.988 169.926 299.029 170.256C299.071 170.587 299.029 170.877 298.988 171.207C298.905 171.827 298.657 172.406 298.409 172.985C298.161 173.564 297.913 174.101 297.748 174.638C297.583 175.176 297.541 175.755 297.583 176.333C297.624 176.912 297.707 177.45 297.624 177.987C297.541 178.524 297.293 179.02 297.086 179.475C296.88 179.93 296.632 180.385 296.549 180.839C296.384 181.79 296.632 182.658 296.632 183.485C296.632 184.312 296.342 185.015 296.136 185.635C295.929 186.255 295.764 186.792 295.722 187.247C295.681 187.702 295.722 188.032 295.846 188.281C295.929 188.487 296.012 188.611 295.97 188.611C295.97 188.611 295.888 188.529 295.805 188.281C295.722 188.074 295.64 187.702 295.681 187.247C295.722 186.792 295.888 186.255 296.053 185.635C296.26 185.015 296.508 184.312 296.508 183.485C296.508 183.072 296.466 182.658 296.425 182.204C296.384 181.749 296.342 181.294 296.425 180.798C296.59 179.806 297.335 178.979 297.459 177.946C297.541 177.408 297.459 176.871 297.376 176.292C297.293 175.713 297.335 175.135 297.541 174.556C297.872 173.398 298.575 172.365 298.781 171.166C298.823 170.877 298.823 170.546 298.823 170.256C298.781 169.967 298.74 169.678 298.657 169.347C298.533 168.768 298.409 168.107 298.699 167.528C298.823 167.239 298.988 167.032 299.153 166.784C299.277 166.536 299.401 166.288 299.484 165.998C299.608 165.461 299.608 164.924 299.526 164.386C299.401 163.311 299.112 162.319 299.071 161.368C299.029 160.872 299.112 160.418 299.236 159.963C299.36 159.508 299.608 159.136 299.856 158.847C300.352 158.185 300.89 157.689 301.138 157.069C301.386 156.49 301.468 155.912 301.551 155.457C301.592 155.002 301.592 154.63 301.634 154.423C301.634 154.299 301.634 154.217 301.634 154.134C301.717 154.093 301.717 154.051 301.717 154.051Z" fill="#0C1923"/>
<path d="M287.659 188.322C286.294 188.529 285.509 186.669 285.757 185.304C286.005 183.94 286.79 182.617 286.542 181.253C286.336 180.054 285.344 179.145 285.054 177.987C284.517 175.879 286.212 173.729 285.881 171.621C285.633 169.967 284.145 168.603 284.103 166.908C284.062 165.089 285.674 163.56 285.757 161.782C285.84 159.839 284.186 158.144 284.31 156.243C284.434 154.341 286.336 152.563 285.633 150.745C285.426 150.166 284.93 149.67 284.641 149.132C283.979 147.809 284.434 146.197 285.137 144.916C285.84 143.634 286.79 142.394 287.08 140.988C287.535 138.756 286.46 136.4 287.08 134.25C287.617 132.431 289.312 130.984 289.188 129.083C290.47 130.529 289.932 132.844 290.552 134.663C290.924 135.862 291.793 136.854 292.413 137.971C293.694 140.244 293.983 143.014 293.157 145.494C292.619 147.107 291.586 148.76 291.999 150.414C292.495 152.439 294.81 153.514 295.554 155.416C296.629 158.186 294.108 161.369 295.1 164.139C295.348 164.841 295.844 165.503 296.05 166.247C296.753 168.769 294.232 171.125 294.314 173.729C294.356 175.631 295.802 177.367 295.72 179.269C295.637 180.757 294.686 182.245 295.265 183.61C295.513 184.188 296.009 184.643 296.381 185.18C297.084 186.214 297.167 187.619 296.547 188.653C295.926 189.686 294.562 190.307 293.405 189.976" fill="#3387CA"/>
<g opacity="0.5">
<path d="M296.38 185.098C296.008 184.561 295.512 184.147 295.264 183.527C294.685 182.163 295.636 180.675 295.719 179.186C295.801 177.285 294.355 175.548 294.313 173.647C294.272 171.042 296.794 168.686 296.05 166.164C295.843 165.42 295.347 164.8 295.099 164.056C294.107 161.245 296.67 158.062 295.553 155.333C294.809 153.39 292.453 152.316 291.998 150.331C291.585 148.678 292.618 147.024 293.156 145.412C293.983 142.973 293.693 140.162 292.412 137.888C291.792 136.772 290.923 135.78 290.551 134.581C289.973 132.721 290.469 130.447 289.187 129C289.311 130.86 287.616 132.349 287.079 134.167C286.417 136.317 287.534 138.715 287.079 140.906C286.789 142.353 285.839 143.552 285.136 144.833C284.433 146.115 283.978 147.727 284.64 149.05C284.929 149.628 285.384 150.083 285.632 150.662C286.293 152.481 284.433 154.217 284.309 156.16C284.185 158.103 285.839 159.798 285.756 161.7C285.673 163.519 284.061 165.048 284.102 166.826C284.144 168.521 285.591 169.885 285.88 171.539C286.211 173.688 284.516 175.838 285.053 177.905C285.343 179.062 286.335 180.013 286.541 181.171C286.789 182.535 286.004 183.858 285.756 185.222C285.508 186.586 286.293 188.405 287.658 188.24L293.404 189.852C294.603 190.183 295.925 189.563 296.546 188.529C297.166 187.537 297.083 186.131 296.38 185.098Z" fill="white"/>
</g>
<path d="M294.357 184.189C293.985 183.775 293.448 182.866 293.448 182.287C293.448 181.502 294.605 180.551 294.688 179.145C294.771 177.368 293.406 174.474 293.406 172.696C293.365 170.257 295.515 168.232 294.936 165.917C294.771 165.255 294.523 163.395 294.316 162.733C293.53 160.17 295.515 157.938 294.647 155.416C294.068 153.639 291.753 151.861 291.381 150.001C291.091 148.471 291.918 146.9 292.373 145.329C293.076 142.973 292.869 140.369 291.835 138.343C291.339 137.351 290.637 136.441 290.347 135.325C289.893 133.63 290.347 131.439 289.314 130.158C289.396 131.894 287.991 133.382 287.536 135.077C286.999 137.144 287.867 139.294 287.453 141.402C287.205 142.766 286.42 143.924 285.841 145.164C285.262 146.404 284.849 147.934 285.386 149.133C285.593 149.67 286.007 150.083 286.172 150.621C286.709 152.274 285.138 154.011 285.014 155.83C284.89 157.649 286.213 159.137 286.131 160.956C286.048 162.651 284.89 165.172 284.932 166.867C284.932 168.438 286.544 169.182 286.709 170.712C286.957 172.696 285.469 175.466 285.883 177.409C286.131 178.484 287.081 178.649 287.247 179.765C287.453 181.047 286.875 183.734 286.668 185.015C286.461 186.297 286.668 187.206 287.66 188.323L294.068 190.059C296.424 188.281 295.804 185.76 294.357 184.189Z" fill="#3387CA"/>
<path d="M289.557 139.335C289.557 139.335 289.723 140.038 289.888 141.319C289.93 141.981 290.012 142.766 289.806 143.676C289.723 144.13 289.516 144.585 289.309 145.081C289.061 145.536 288.813 146.032 288.565 146.528C288.317 147.024 288.069 147.603 288.028 148.223C287.945 148.843 288.028 149.505 288.193 150.125C288.524 151.447 289.185 152.729 289.682 154.176C289.93 154.92 290.095 155.705 290.054 156.491C290.054 156.904 289.93 157.318 289.806 157.69C289.682 158.062 289.475 158.434 289.392 158.847C289.185 159.633 289.516 160.46 289.847 161.245C290.012 161.658 290.178 162.03 290.302 162.444C290.426 162.857 290.508 163.312 290.508 163.767C290.55 164.676 290.384 165.544 290.178 166.371C290.012 167.198 289.806 168.025 289.723 168.851C289.682 169.265 289.682 169.678 289.723 170.05C289.764 170.464 289.847 170.836 289.971 171.208C290.178 171.952 290.467 172.737 290.508 173.482C290.55 174.267 290.384 175.011 290.178 175.714C290.012 176.417 289.806 177.078 289.806 177.781C289.806 178.442 289.971 179.104 290.136 179.682C290.302 180.303 290.508 180.881 290.632 181.419C290.756 181.997 290.756 182.535 290.715 183.072C290.674 183.61 290.632 184.064 290.55 184.519C290.426 185.429 290.343 186.214 290.426 186.834C290.508 187.454 290.674 187.95 290.88 188.24C291.046 188.529 291.17 188.653 291.17 188.653C291.17 188.653 291.046 188.529 290.839 188.24C290.632 187.95 290.426 187.496 290.384 186.834C290.302 186.173 290.384 185.387 290.467 184.478C290.508 184.023 290.591 183.527 290.591 183.031C290.632 182.535 290.632 181.956 290.508 181.419C290.384 180.84 290.219 180.303 290.012 179.682C289.847 179.062 289.64 178.442 289.64 177.74C289.64 177.037 289.806 176.334 290.012 175.673C290.178 174.97 290.384 174.267 290.343 173.482C290.302 172.737 290.012 171.993 289.806 171.208C289.682 170.836 289.599 170.422 289.557 170.009C289.516 169.596 289.516 169.182 289.557 168.769C289.64 167.942 289.847 167.115 290.012 166.247C290.178 165.42 290.343 164.552 290.343 163.684C290.302 163.271 290.26 162.816 290.136 162.402C290.012 161.989 289.847 161.617 289.682 161.204C289.516 160.79 289.351 160.418 289.268 160.005C289.185 159.591 289.144 159.137 289.268 158.723C289.351 158.31 289.557 157.938 289.682 157.566C289.806 157.194 289.888 156.78 289.888 156.408C289.93 155.623 289.764 154.837 289.516 154.135C289.061 152.688 288.359 151.406 288.028 150.042C287.863 149.381 287.821 148.719 287.863 148.058C287.904 147.396 288.152 146.859 288.4 146.321C288.648 145.784 288.937 145.329 289.185 144.874C289.433 144.42 289.599 143.965 289.682 143.51C289.888 142.601 289.847 141.815 289.806 141.195C289.764 140.534 289.682 140.079 289.599 139.707C289.557 139.542 289.557 139.418 289.557 139.335C289.557 139.376 289.557 139.335 289.557 139.335Z" fill="#0C1923"/>
<path d="M286.792 189.191C286.007 189.563 285.18 188.612 285.097 187.744C284.973 186.876 285.18 185.925 284.766 185.181C284.394 184.519 283.65 184.147 283.237 183.527C282.493 182.37 283.113 180.757 282.493 179.559C281.997 178.608 280.88 178.07 280.508 177.078C280.136 176.003 280.798 174.763 280.508 173.688C280.178 172.531 278.855 171.828 278.565 170.629C278.276 169.472 279.061 168.025 278.317 167.074C278.069 166.743 277.697 166.578 277.408 166.289C276.746 165.627 276.746 164.594 276.912 163.684C277.077 162.775 277.408 161.865 277.325 160.956C277.16 159.55 276.085 158.351 276.044 156.904C276.002 155.706 276.746 154.507 276.292 153.391C277.367 154.011 277.491 155.499 278.193 156.491C278.648 157.153 279.351 157.566 279.971 158.103C281.17 159.22 281.873 160.832 281.873 162.444C281.873 163.519 281.583 164.676 282.121 165.627C282.782 166.743 284.394 166.95 285.221 167.942C286.42 169.389 285.51 171.787 286.627 173.275C286.916 173.647 287.329 173.936 287.577 174.35C288.487 175.714 287.453 177.616 287.991 179.145C288.404 180.303 289.603 181.006 289.892 182.204C290.14 183.114 289.851 184.189 290.471 184.891C290.719 185.181 291.133 185.346 291.422 185.594C292.042 186.049 292.373 186.876 292.207 187.661C292.042 188.405 291.339 189.025 290.595 189.067" fill="#3387CA"/>
<g opacity="0.5">
<path d="M291.379 185.594C291.048 185.346 290.676 185.181 290.428 184.891C289.808 184.189 290.098 183.114 289.849 182.204C289.519 181.047 288.32 180.303 287.948 179.145C287.41 177.616 288.485 175.673 287.534 174.35C287.245 173.936 286.873 173.647 286.584 173.275C285.467 171.787 286.377 169.389 285.178 167.942C284.351 166.95 282.739 166.743 282.078 165.627C281.499 164.718 281.788 163.519 281.83 162.444C281.83 160.832 281.127 159.178 279.928 158.103C279.349 157.566 278.646 157.153 278.15 156.491C277.448 155.499 277.324 154.011 276.249 153.391C276.703 154.507 275.959 155.706 276.001 156.904C276.042 158.31 277.158 159.509 277.282 160.956C277.365 161.865 277.034 162.775 276.869 163.684C276.703 164.594 276.745 165.627 277.365 166.289C277.654 166.578 278.026 166.743 278.274 167.074C279.018 168.025 278.233 169.43 278.522 170.629C278.812 171.828 280.135 172.49 280.465 173.688C280.755 174.805 280.093 176.003 280.465 177.078C280.837 178.07 281.954 178.608 282.45 179.559C283.07 180.799 282.45 182.37 283.194 183.527C283.607 184.147 284.351 184.519 284.723 185.181C285.137 185.966 284.93 186.876 285.054 187.744C285.178 188.612 286.005 189.563 286.749 189.191L290.511 189.025C291.296 188.984 291.958 188.364 292.123 187.62C292.33 186.917 291.999 186.09 291.379 185.594Z" fill="white"/>
</g>
<path d="M290.017 185.47C289.728 185.304 289.232 184.849 289.108 184.519C288.942 184.023 289.48 183.237 289.232 182.41C288.942 181.336 287.578 179.847 287.206 178.773C286.71 177.326 287.619 175.713 286.834 174.432C286.586 174.06 286.09 172.985 285.842 172.654C284.891 171.249 285.635 169.554 284.602 168.19C283.899 167.239 282.163 166.619 281.584 165.585C281.088 164.717 281.294 163.601 281.294 162.609C281.253 161.079 280.633 159.55 279.641 158.516C279.145 158.02 278.566 157.607 278.153 156.987C277.533 156.036 277.409 154.672 276.54 154.093C276.912 155.126 276.375 156.284 276.416 157.4C276.499 158.723 277.409 159.88 277.574 161.203C277.698 162.071 277.45 162.939 277.326 163.766C277.202 164.634 277.284 165.627 277.822 166.247C278.07 166.495 278.359 166.701 278.566 166.991C279.186 167.9 278.607 169.223 278.897 170.339C279.186 171.455 280.261 172.076 280.55 173.192C280.84 174.225 280.633 175.961 280.964 176.954C281.294 177.904 282.369 178.028 282.783 178.897C283.32 180.054 282.948 181.997 283.568 183.072C283.899 183.651 284.519 183.568 284.85 184.188C285.222 184.891 285.387 186.627 285.511 187.454C285.635 188.281 285.924 188.777 286.751 189.231L290.927 189.025C292.043 187.495 291.175 186.131 290.017 185.47Z" fill="#3387CA"/>
<path d="M278.479 159.508C278.479 159.508 278.479 159.55 278.521 159.591C278.562 159.632 278.604 159.715 278.645 159.798C278.728 160.004 278.893 160.252 279.058 160.624C279.224 160.997 279.389 161.451 279.472 162.071C279.554 162.65 279.389 163.312 279.265 164.014C279.224 164.386 279.182 164.758 279.265 165.13C279.348 165.503 279.513 165.875 279.72 166.247C280.174 166.949 280.836 167.611 281.415 168.396C281.704 168.768 281.952 169.223 282.117 169.719C282.2 169.967 282.2 170.215 282.2 170.505C282.2 170.753 282.159 171.042 282.159 171.29C282.2 171.786 282.531 172.241 282.861 172.613C283.027 172.82 283.234 173.026 283.399 173.233C283.564 173.44 283.688 173.729 283.771 173.977C283.978 174.515 284.019 175.052 284.102 175.589C284.143 176.127 284.184 176.664 284.308 177.16C284.432 177.656 284.639 178.111 284.928 178.525C285.218 178.938 285.507 179.351 285.714 179.806C285.879 180.261 285.921 180.757 285.962 181.212C286.003 181.666 286.003 182.121 286.127 182.493C286.375 183.279 286.995 183.857 287.326 184.519C287.698 185.18 287.781 185.842 287.864 186.42C287.988 186.999 288.07 187.454 288.236 187.826C288.401 188.198 288.608 188.446 288.773 188.57C288.938 188.694 289.021 188.777 289.021 188.777C289.021 188.777 288.897 188.735 288.732 188.611C288.566 188.487 288.36 188.239 288.153 187.867C287.988 187.495 287.864 186.999 287.74 186.42C287.616 185.842 287.533 185.18 287.161 184.56C286.83 183.94 286.21 183.361 285.921 182.534C285.631 181.708 285.838 180.716 285.507 179.847C285.342 179.393 285.053 179.021 284.763 178.607C284.474 178.194 284.226 177.698 284.143 177.202C283.895 176.168 283.978 175.052 283.606 174.019C283.523 173.77 283.399 173.522 283.234 173.316C283.068 173.109 282.903 172.902 282.737 172.696C282.407 172.282 282.035 171.828 281.993 171.249C281.952 170.959 281.993 170.711 282.035 170.463C282.035 170.215 282.035 169.967 281.952 169.719C281.828 169.264 281.58 168.81 281.291 168.438C280.712 167.652 280.092 167.032 279.637 166.288C279.389 165.916 279.265 165.544 279.182 165.13C279.1 164.717 279.141 164.345 279.182 163.973C279.306 163.27 279.472 162.609 279.389 162.03C279.348 161.451 279.182 160.997 279.017 160.624C278.852 160.252 278.728 159.963 278.604 159.798C278.562 159.715 278.521 159.632 278.479 159.591C278.479 159.55 278.479 159.508 278.479 159.508Z" fill="#0C1923"/>
<path d="M280.795 185.924L282.407 189.19H302.209L304.441 185.924H280.795Z" fill="url(#paint15_linear_349_58772)"/>
<path d="M282.906 188.075L285.841 198.286L299.194 198.327L301.84 188.075H282.906Z" fill="url(#paint16_linear_349_58772)"/>
<path d="M302.129 189.191C302.129 189.232 297.706 189.273 292.29 189.273C286.834 189.273 282.41 189.232 282.41 189.191C282.41 189.149 286.834 189.108 292.29 189.108C297.706 189.108 302.129 189.149 302.129 189.191Z" fill="#0C1923"/>
<path d="M257.166 198.416C257.166 198.457 220.539 198.54 175.355 198.54C130.171 198.54 93.5439 198.499 93.5439 198.416C93.5439 198.333 130.171 198.292 175.355 198.292C220.539 198.292 257.166 198.333 257.166 198.416Z" fill="#0C1923"/>
<defs>
<linearGradient id="paint0_linear_349_58772" x1="103.784" y1="66.4116" x2="104.498" y2="66.4138" gradientUnits="userSpaceOnUse">
<stop stop-color="#15466F"/>
<stop offset="1" stop-color="#3387CA"/>
</linearGradient>
<linearGradient id="paint1_linear_349_58772" x1="104.991" y1="65.3364" x2="105.589" y2="65.338" gradientUnits="userSpaceOnUse">
<stop stop-color="#15466F"/>
<stop offset="1" stop-color="#3387CA"/>
</linearGradient>
<linearGradient id="paint2_linear_349_58772" x1="106.526" y1="61.7808" x2="108.699" y2="61.7934" gradientUnits="userSpaceOnUse">
<stop stop-color="#15466F"/>
<stop offset="1" stop-color="#3387CA"/>
</linearGradient>
<linearGradient id="paint3_linear_349_58772" x1="109.143" y1="59.3843" x2="110.187" y2="59.3882" gradientUnits="userSpaceOnUse">
<stop stop-color="#15466F"/>
<stop offset="1" stop-color="#3387CA"/>
</linearGradient>
<linearGradient id="paint4_linear_349_58772" x1="98.0076" y1="64.1279" x2="99.0363" y2="64.1503" gradientUnits="userSpaceOnUse">
<stop stop-color="#15466F"/>
<stop offset="1" stop-color="#3387CA"/>
</linearGradient>
<linearGradient id="paint5_linear_349_58772" x1="102.586" y1="62.4429" x2="103.477" y2="62.4495" gradientUnits="userSpaceOnUse">
<stop stop-color="#15466F"/>
<stop offset="1" stop-color="#3387CA"/>
</linearGradient>
<linearGradient id="paint6_linear_349_58772" x1="103.65" y1="61.7383" x2="104.833" y2="61.748" gradientUnits="userSpaceOnUse">
<stop stop-color="#15466F"/>
<stop offset="1" stop-color="#3387CA"/>
</linearGradient>
<linearGradient id="paint7_linear_349_58772" x1="100.29" y1="51.8125" x2="111.504" y2="52.1276" gradientUnits="userSpaceOnUse">
<stop stop-color="#15466F"/>
<stop offset="1" stop-color="#3387CA"/>
</linearGradient>
<linearGradient id="paint8_linear_349_58772" x1="106.34" y1="53.5762" x2="117.09" y2="54.1085" gradientUnits="userSpaceOnUse">
<stop stop-color="#15466F"/>
<stop offset="1" stop-color="#3387CA"/>
</linearGradient>
<linearGradient id="paint9_linear_349_58772" x1="102.261" y1="136.565" x2="113.67" y2="138.18" gradientUnits="userSpaceOnUse">
<stop stop-color="#15466F"/>
<stop offset="1" stop-color="#3387CA"/>
</linearGradient>
<linearGradient id="paint10_linear_349_58772" x1="106.097" y1="136.937" x2="108.042" y2="136.94" gradientUnits="userSpaceOnUse">
<stop stop-color="#15466F"/>
<stop offset="1" stop-color="#3387CA"/>
</linearGradient>
<linearGradient id="paint11_linear_349_58772" x1="103.589" y1="136.811" x2="106.048" y2="136.85" gradientUnits="userSpaceOnUse">
<stop stop-color="#15466F"/>
<stop offset="1" stop-color="#3387CA"/>
</linearGradient>
<linearGradient id="paint12_linear_349_58772" x1="118.46" y1="126.643" x2="122.805" y2="126.699" gradientUnits="userSpaceOnUse">
<stop stop-color="#15466F"/>
<stop offset="1" stop-color="#3387CA"/>
</linearGradient>
<linearGradient id="paint13_linear_349_58772" x1="103.996" y1="126.271" x2="105.52" y2="126.275" gradientUnits="userSpaceOnUse">
<stop stop-color="#15466F"/>
<stop offset="1" stop-color="#3387CA"/>
</linearGradient>
<linearGradient id="paint14_linear_349_58772" x1="84.9983" y1="77.4906" x2="125.652" y2="77.9499" gradientUnits="userSpaceOnUse">
<stop stop-color="#15466F"/>
<stop offset="1" stop-color="#3387CA"/>
</linearGradient>
<linearGradient id="paint15_linear_349_58772" x1="282.534" y1="185.924" x2="303.975" y2="187.851" gradientUnits="userSpaceOnUse">
<stop stop-color="#15466F"/>
<stop offset="1" stop-color="#3387CA"/>
</linearGradient>
<linearGradient id="paint16_linear_349_58772" x1="284.299" y1="188.075" x2="301.596" y2="188.471" gradientUnits="userSpaceOnUse">
<stop stop-color="#15466F"/>
<stop offset="1" stop-color="#3387CA"/>
</linearGradient>
</defs>
</svg>
