<svg width="480" height="131" viewBox="0 0 480 131" fill="none" xmlns="http://www.w3.org/2000/svg">
<rect x="0.5" y="34.5" width="279" height="50" rx="4.5" fill="white" fill-opacity="0.1" stroke="white"/>
<rect x="310" y="34" width="170" height="51" rx="5" fill="white"/>
<path d="M341.003 64V54.1357H332.978V64H334.509V55.4551H339.472V64H341.003ZM345.863 64.1436C347.921 64.1436 349.274 62.7217 349.274 60.4043V60.3906C349.274 58.0869 347.907 56.6719 345.863 56.6719C343.819 56.6719 342.452 58.0938 342.452 60.3906V60.4043C342.452 62.7148 343.799 64.1436 345.863 64.1436ZM345.87 62.9062C344.715 62.9062 343.963 61.9971 343.963 60.4043V60.3906C343.963 58.8184 344.722 57.9092 345.863 57.9092C347.012 57.9092 347.771 58.8184 347.771 60.3906V60.4043C347.771 61.9902 347.025 62.9062 345.87 62.9062ZM352.515 60.7734L352.713 57.9844H355.194V64H356.671V56.8086H351.414L351.154 60.6982C351.065 62.0039 350.812 62.749 350.067 62.749C349.883 62.749 349.753 62.7217 349.685 62.7012V63.9932C349.787 64.0273 349.992 64.0684 350.272 64.0684C351.886 64.0684 352.371 62.79 352.515 60.7734ZM359.111 66.3994C360.52 66.3994 361.271 65.8252 361.805 64.335L364.484 56.8086H362.926L361.114 62.6602H361.066L359.255 56.8086H357.655L360.273 64.0068L360.15 64.3486C359.904 65.0459 359.521 65.2305 358.824 65.2305C358.626 65.2305 358.455 65.2031 358.339 65.1758V66.3311C358.517 66.3652 358.824 66.3994 359.111 66.3994ZM371.272 64V56.8086H369.796V59.7549C369.495 60.0693 368.914 60.2881 368.319 60.2881C367.308 60.2881 366.781 59.8027 366.781 58.8389V56.8086H365.305V59.0098C365.305 60.5684 366.234 61.5527 367.93 61.5527C368.647 61.5527 369.324 61.3271 369.762 60.9033H369.796V64H371.272ZM372.865 64H374.321L377.623 58.9482H377.685V64H379.154V56.8086H377.698L374.396 61.8398H374.328V56.8086H372.865V64ZM386.209 56.8086H380.228V57.9844H382.477V64H383.96V57.9844H386.209V56.8086ZM387.289 64H390.133C391.794 64 392.867 63.0361 392.867 61.5186V61.5049C392.867 59.9941 391.794 59.0303 390.133 59.0303H388.766V56.8086H387.289V64ZM389.989 60.1992C390.823 60.1992 391.356 60.7119 391.356 61.5049V61.5186C391.356 62.3115 390.83 62.8311 389.989 62.8311H388.766V60.1992H389.989ZM397.058 64H398.589V60.6299H400.729C402.663 60.6299 404.003 59.3105 404.003 57.3828V57.3691C404.003 55.4346 402.663 54.1357 400.729 54.1357H397.058V64ZM400.346 55.4277C401.679 55.4277 402.444 56.1455 402.444 57.376V57.3896C402.444 58.627 401.679 59.3447 400.346 59.3447H398.589V55.4277H400.346ZM405.343 64H408.822C411.762 64 413.491 62.168 413.491 59.0508V59.0371C413.491 55.9336 411.748 54.1357 408.822 54.1357H405.343V64ZM406.874 62.6738V55.4551H408.679C410.757 55.4551 411.926 56.7334 411.926 59.0508V59.0645C411.926 61.3955 410.771 62.6738 408.679 62.6738H406.874ZM414.954 64H416.485V59.8711H420.724V58.5791H416.485V55.4551H421.113V54.1357H414.954V64ZM428.64 66.3789H430.075V64.0957C432.345 64.0547 433.855 62.6328 433.855 60.4111V60.3975C433.855 58.1689 432.352 56.7607 430.075 56.7197V54.4775H428.64V56.7197C426.356 56.7539 424.853 58.1758 424.853 60.3975V60.4111C424.853 62.6465 426.35 64.0479 428.64 64.0957V66.3789ZM428.646 62.8994C427.238 62.8584 426.35 61.9355 426.35 60.4111V60.3975C426.35 58.8799 427.245 57.9434 428.646 57.9092V62.8994ZM430.068 62.8994V57.9092C431.47 57.9502 432.358 58.873 432.358 60.3975V60.4111C432.358 61.9355 431.463 62.8652 430.068 62.8994ZM437.239 64.1299C438.196 64.1299 439.023 63.6377 439.44 62.8652H439.475V64H440.951V59.0439C440.951 57.6016 439.837 56.6719 438.08 56.6719C436.31 56.6719 435.236 57.6221 435.134 58.8594L435.127 58.9346H436.521L436.535 58.873C436.658 58.2988 437.185 57.8955 438.039 57.8955C438.955 57.8955 439.475 58.374 439.475 59.167V59.707L437.513 59.8232C435.811 59.9258 434.84 60.6914 434.84 61.9424V61.9561C434.84 63.248 435.804 64.1299 437.239 64.1299ZM436.33 61.9219V61.9082C436.33 61.2998 436.822 60.9102 437.711 60.8555L439.475 60.7461V61.3066C439.475 62.2432 438.682 62.9473 437.643 62.9473C436.85 62.9473 436.33 62.5508 436.33 61.9219ZM445.723 56.0225C447.145 56.0225 447.999 55.168 447.999 53.9854V53.9443H446.83V53.9922C446.83 54.5869 446.427 55.0928 445.729 55.0928C445.005 55.0928 444.622 54.5869 444.622 53.9922V53.9443H443.46V53.9854C443.46 55.168 444.314 56.0225 445.723 56.0225ZM442.51 64H443.966L447.268 58.9482H447.329V64H448.799V56.8086H447.343L444.041 61.8398H443.973V56.8086H442.51V64ZM452.62 60.7734L452.818 57.9844H455.3V64H456.776V56.8086H451.52L451.26 60.6982C451.171 62.0039 450.918 62.749 450.173 62.749C449.988 62.749 449.858 62.7217 449.79 62.7012V63.9932C449.893 64.0273 450.098 64.0684 450.378 64.0684C451.991 64.0684 452.477 62.79 452.62 60.7734Z" fill="#0C1923"/>
<path d="M0.878906 108H1.93359V104.15H6.57422V108H7.62891V99.5449H6.57422V103.201H1.93359V99.5449H0.878906V108ZM11.0098 108.117C11.8242 108.117 12.5566 107.678 12.9141 107.01H12.9375V108H13.957V103.787C13.957 102.568 13.0547 101.789 11.6133 101.789C10.1777 101.789 9.30469 102.598 9.2168 103.6L9.21094 103.664H10.1953L10.207 103.611C10.3242 103.066 10.8164 102.691 11.6016 102.691C12.4512 102.691 12.9375 103.143 12.9375 103.887V104.396L11.1914 104.496C9.79102 104.578 8.98242 105.229 8.98242 106.266V106.277C8.98242 107.385 9.79688 108.117 11.0098 108.117ZM10.0254 106.277V106.266C10.0254 105.697 10.4941 105.334 11.3086 105.287L12.9375 105.188V105.686C12.9375 106.57 12.1992 107.232 11.2383 107.232C10.5059 107.232 10.0254 106.863 10.0254 106.277ZM16.0898 108L18.4688 105.164H18.6445V108H19.6289V105.164H19.8047L22.1836 108H23.4902L20.7363 104.789L23.3965 101.906H22.1543L19.8047 104.508H19.6289V101.906H18.6445V104.508H18.4688L16.1191 101.906H14.877L17.5371 104.789L14.7832 108H16.0898ZM24.3398 108H25.3477L28.3828 103.471H28.4297V108H29.4492V101.906H28.4414L25.4062 106.436H25.3594V101.906H24.3398V108ZM31.8984 108V103.676H31.9395L33.8965 107.824H34.6758L36.6387 103.676H36.6797V108H37.6992V101.906H36.5039L34.3301 106.652H34.2832L32.127 101.906H30.8789V108H31.8984ZM40.916 108.117C41.7305 108.117 42.4629 107.678 42.8203 107.01H42.8438V108H43.8633V103.787C43.8633 102.568 42.9609 101.789 41.5195 101.789C40.084 101.789 39.2109 102.598 39.123 103.6L39.1172 103.664H40.1016L40.1133 103.611C40.2305 103.066 40.7227 102.691 41.5078 102.691C42.3574 102.691 42.8438 103.143 42.8438 103.887V104.396L41.0977 104.496C39.6973 104.578 38.8887 105.229 38.8887 106.266V106.277C38.8887 107.385 39.7031 108.117 40.916 108.117ZM39.9316 106.277V106.266C39.9316 105.697 40.4004 105.334 41.2148 105.287L42.8438 105.188V105.686C42.8438 106.57 42.1055 107.232 41.1445 107.232C40.4121 107.232 39.9316 106.863 39.9316 106.277ZM48.7031 108H49.7227V101.906H47.4551C46.0547 101.906 45.1523 102.674 45.1523 103.922V103.934C45.1523 104.766 45.6738 105.398 46.5352 105.645L44.8359 108H46.0137L47.5605 105.832H48.7031V108ZM47.4609 104.988C46.6758 104.988 46.1953 104.543 46.1953 103.916V103.904C46.1953 103.178 46.6699 102.75 47.4609 102.75H48.7031V104.988H47.4609ZM57.6152 108H58.6348V101.906H57.6152V104.42H54.6328V101.906H53.6133V108H54.6328V105.264H57.6152V108ZM61.8574 108.117C62.6719 108.117 63.4043 107.678 63.7617 107.01H63.7852V108H64.8047V103.787C64.8047 102.568 63.9023 101.789 62.4609 101.789C61.0254 101.789 60.1523 102.598 60.0645 103.6L60.0586 103.664H61.043L61.0547 103.611C61.1719 103.066 61.6641 102.691 62.4492 102.691C63.2988 102.691 63.7852 103.143 63.7852 103.887V104.396L62.0391 104.496C60.6387 104.578 59.8301 105.229 59.8301 106.266V106.277C59.8301 107.385 60.6445 108.117 61.8574 108.117ZM60.873 106.277V106.266C60.873 105.697 61.3418 105.334 62.1562 105.287L63.7852 105.188V105.686C63.7852 106.57 63.0469 107.232 62.0859 107.232C61.3535 107.232 60.873 106.863 60.873 106.277ZM69.9258 105.188L72.3574 108H73.6465L70.8457 104.789L73.5645 101.906H72.3281L69.9258 104.484H69.6914V101.906H68.6719V108H69.6914V105.188H69.9258ZM78.498 108H79.5176V101.906H78.498V104.42H75.5156V101.906H74.4961V108H75.5156V105.264H78.498V108ZM83.4844 108.117C85.166 108.117 86.3027 106.898 86.3027 104.953V104.941C86.3027 102.996 85.1602 101.789 83.4785 101.789C81.7969 101.789 80.6602 103.002 80.6602 104.941V104.953C80.6602 106.893 81.791 108.117 83.4844 108.117ZM83.4902 107.215C82.4121 107.215 81.7031 106.389 81.7031 104.953V104.941C81.7031 103.518 82.418 102.691 83.4785 102.691C84.5566 102.691 85.2598 103.512 85.2598 104.941V104.953C85.2598 106.383 84.5625 107.215 83.4902 107.215ZM87.4453 108H88.4648V102.75H91.3887V108H92.4141V101.906H87.4453V108ZM95.0977 105.188L97.5293 108H98.8184L96.0176 104.789L98.7363 101.906H97.5L95.0977 104.484H94.8633V101.906H93.8438V108H94.8633V105.188H95.0977ZM100.143 110.051C101.244 110.051 101.777 109.547 102.211 108.381L104.59 101.906H103.518L101.83 106.98H101.807L100.125 101.906H99.0352L101.297 108.006L101.174 108.352C100.928 109.043 100.57 109.207 99.9258 109.207C99.8027 109.207 99.6855 109.189 99.5977 109.172V110.004C99.7266 110.027 99.9434 110.051 100.143 110.051ZM104.162 109.658H104.889L105.744 106.793H104.678L104.162 109.658ZM109.078 108H111.703C112.998 108 113.795 107.326 113.795 106.254V106.242C113.795 105.498 113.291 104.959 112.523 104.854V104.807C113.086 104.689 113.525 104.115 113.525 103.488V103.477C113.525 102.51 112.828 101.906 111.686 101.906H109.078V108ZM110.098 104.455V102.75H111.533C112.172 102.75 112.512 103.037 112.512 103.582V103.594C112.512 104.18 112.148 104.455 111.381 104.455H110.098ZM110.098 107.156V105.299H111.434C112.324 105.299 112.752 105.592 112.752 106.219V106.23C112.752 106.84 112.354 107.156 111.615 107.156H110.098ZM114.961 108H117.123C118.518 108 119.414 107.197 119.414 105.932V105.92C119.414 104.654 118.518 103.852 117.123 103.852H115.98V101.906H114.961V108ZM120.188 108H121.207V101.906H120.188V108ZM117.105 104.695C117.879 104.695 118.371 105.176 118.371 105.92V105.932C118.371 106.67 117.885 107.156 117.105 107.156H115.98V104.695H117.105ZM125.443 109.67V108H130.172V109.67H131.121V107.156H130.154V101.906H125.959L125.725 105.287C125.666 106.107 125.449 106.863 125.004 107.156H124.494V109.67H125.443ZM129.135 107.156H126.152V107.133C126.457 106.74 126.615 106.078 126.668 105.311L126.855 102.75H129.135V107.156ZM133.822 108.117C134.637 108.117 135.369 107.678 135.727 107.01H135.75V108H136.77V103.787C136.77 102.568 135.867 101.789 134.426 101.789C132.99 101.789 132.117 102.598 132.029 103.6L132.023 103.664H133.008L133.02 103.611C133.137 103.066 133.629 102.691 134.414 102.691C135.264 102.691 135.75 103.143 135.75 103.887V104.396L134.004 104.496C132.604 104.578 131.795 105.229 131.795 106.266V106.277C131.795 107.385 132.609 108.117 133.822 108.117ZM132.838 106.277V106.266C132.838 105.697 133.307 105.334 134.121 105.287L135.75 105.188V105.686C135.75 106.57 135.012 107.232 134.051 107.232C133.318 107.232 132.838 106.863 132.838 106.277ZM140.689 108.117C142.02 108.117 143.016 107.32 143.215 106.312L143.227 106.254H142.225L142.207 106.307C142.031 106.828 141.486 107.215 140.713 107.215C139.629 107.215 138.938 106.482 138.914 105.229H143.303V104.854C143.303 103.025 142.289 101.789 140.625 101.789C138.961 101.789 137.883 103.084 137.883 104.971V104.977C137.883 106.893 138.938 108.117 140.689 108.117ZM140.619 102.691C141.51 102.691 142.166 103.248 142.266 104.432H138.932C139.043 103.295 139.734 102.691 140.619 102.691ZM148.67 101.906H143.725V102.75H145.688V108H146.707V102.75H148.67V101.906ZM152.01 108.117C153.34 108.117 154.336 107.32 154.535 106.312L154.547 106.254H153.545L153.527 106.307C153.352 106.828 152.807 107.215 152.033 107.215C150.949 107.215 150.258 106.482 150.234 105.229H154.623V104.854C154.623 103.025 153.609 101.789 151.945 101.789C150.281 101.789 149.203 103.084 149.203 104.971V104.977C149.203 106.893 150.258 108.117 152.01 108.117ZM151.939 102.691C152.83 102.691 153.486 103.248 153.586 104.432H150.252C150.363 103.295 151.055 102.691 151.939 102.691ZM160.758 108.117C162.135 108.117 163.137 107.221 163.301 106.061L163.307 106.02H162.305L162.293 106.066C162.123 106.746 161.59 107.215 160.758 107.215C159.703 107.215 158.977 106.377 158.977 104.959V104.953C158.977 103.57 159.686 102.691 160.746 102.691C161.643 102.691 162.135 103.23 162.287 103.84L162.299 103.887H163.295L163.289 103.84C163.16 102.797 162.264 101.789 160.746 101.789C159.053 101.789 157.934 103.02 157.934 104.941V104.947C157.934 106.887 159.029 108.117 160.758 108.117ZM166.887 108.117C168.568 108.117 169.705 106.898 169.705 104.953V104.941C169.705 102.996 168.562 101.789 166.881 101.789C165.199 101.789 164.062 103.002 164.062 104.941V104.953C164.062 106.893 165.193 108.117 166.887 108.117ZM166.893 107.215C165.814 107.215 165.105 106.389 165.105 104.953V104.941C165.105 103.518 165.82 102.691 166.881 102.691C167.959 102.691 168.662 103.512 168.662 104.941V104.953C168.662 106.383 167.965 107.215 166.893 107.215ZM174.768 102.75V101.906H170.848V108H171.867V102.75H174.768ZM176.982 105.316L177.176 102.75H179.52V108H180.539V101.906H176.256L176.016 105.293C175.934 106.412 175.711 107.121 175.061 107.121C174.902 107.121 174.791 107.098 174.738 107.08V108C174.82 108.029 174.973 108.059 175.166 108.059C176.461 108.059 176.854 106.998 176.982 105.316ZM183.768 108.117C184.582 108.117 185.314 107.678 185.672 107.01H185.695V108H186.715V103.787C186.715 102.568 185.812 101.789 184.371 101.789C182.936 101.789 182.062 102.598 181.975 103.6L181.969 103.664H182.953L182.965 103.611C183.082 103.066 183.574 102.691 184.359 102.691C185.209 102.691 185.695 103.143 185.695 103.887V104.396L183.949 104.496C182.549 104.578 181.74 105.229 181.74 106.266V106.277C181.74 107.385 182.555 108.117 183.768 108.117ZM182.783 106.277V106.266C182.783 105.697 183.252 105.334 184.066 105.287L185.695 105.188V105.686C185.695 106.57 184.957 107.232 183.996 107.232C183.264 107.232 182.783 106.863 182.783 106.277ZM190.652 108.117C192.029 108.117 193.031 107.221 193.195 106.061L193.201 106.02H192.199L192.188 106.066C192.018 106.746 191.484 107.215 190.652 107.215C189.598 107.215 188.871 106.377 188.871 104.959V104.953C188.871 103.57 189.58 102.691 190.641 102.691C191.537 102.691 192.029 103.23 192.182 103.84L192.193 103.887H193.189L193.184 103.84C193.055 102.797 192.158 101.789 190.641 101.789C188.947 101.789 187.828 103.02 187.828 104.941V104.947C187.828 106.887 188.924 108.117 190.652 108.117ZM194.25 108H195.258L198.293 103.471H198.34V108H199.359V101.906H198.352L195.316 106.436H195.27V101.906H194.25V108ZM203.303 108.117C204.633 108.117 205.629 107.32 205.828 106.312L205.84 106.254H204.838L204.82 106.307C204.645 106.828 204.1 107.215 203.326 107.215C202.242 107.215 201.551 106.482 201.527 105.229H205.916V104.854C205.916 103.025 204.902 101.789 203.238 101.789C201.574 101.789 200.496 103.084 200.496 104.971V104.977C200.496 106.893 201.551 108.117 203.303 108.117ZM203.232 102.691C204.123 102.691 204.779 103.248 204.879 104.432H201.545C201.656 103.295 202.348 102.691 203.232 102.691ZM213.521 108H214.541V101.906H213.521V104.42H210.539V101.906H209.52V108H210.539V105.264H213.521V108ZM217.764 108.117C218.578 108.117 219.311 107.678 219.668 107.01H219.691V108H220.711V103.787C220.711 102.568 219.809 101.789 218.367 101.789C216.932 101.789 216.059 102.598 215.971 103.6L215.965 103.664H216.949L216.961 103.611C217.078 103.066 217.57 102.691 218.355 102.691C219.205 102.691 219.691 103.143 219.691 103.887V104.396L217.945 104.496C216.545 104.578 215.736 105.229 215.736 106.266V106.277C215.736 107.385 216.551 108.117 217.764 108.117ZM216.779 106.277V106.266C216.779 105.697 217.248 105.334 218.062 105.287L219.691 105.188V105.686C219.691 106.57 218.953 107.232 217.992 107.232C217.26 107.232 216.779 106.863 216.779 106.277ZM227.109 108.117C228.791 108.117 229.928 106.898 229.928 104.953V104.941C229.928 102.996 228.785 101.789 227.104 101.789C225.422 101.789 224.285 103.002 224.285 104.941V104.953C224.285 106.893 225.416 108.117 227.109 108.117ZM227.115 107.215C226.037 107.215 225.328 106.389 225.328 104.953V104.941C225.328 103.518 226.043 102.691 227.104 102.691C228.182 102.691 228.885 103.512 228.885 104.941V104.953C228.885 106.383 228.188 107.215 227.115 107.215ZM233.684 108.117C235.447 108.117 236.531 106.934 236.531 105.018V105.006C236.531 103.195 235.482 102.035 233.836 102.035C232.887 102.035 232.119 102.41 231.715 103.131H231.691L231.703 103.049C231.955 101.285 232.465 100.564 234.135 100.5L234.586 100.482C235.289 100.453 235.934 100.301 236.127 100.125V99.2344C235.781 99.416 235.125 99.5391 234.539 99.5625L234.088 99.5801C231.721 99.6738 230.83 101.068 230.83 104.426V104.438C230.83 106.857 231.814 108.117 233.684 108.117ZM233.684 107.215C232.535 107.215 231.873 106.418 231.873 105.018V105.006C231.873 103.682 232.535 102.938 233.684 102.938C234.826 102.938 235.488 103.682 235.488 105.006V105.018C235.488 106.418 234.826 107.215 233.684 107.215ZM237.674 110.051H238.693V106.98H238.717C239.098 107.684 239.807 108.117 240.668 108.117C242.197 108.117 243.24 106.881 243.24 104.959V104.953C243.24 103.031 242.209 101.789 240.65 101.789C239.777 101.789 239.098 102.229 238.717 102.938H238.693V101.906H237.674V110.051ZM240.451 107.215C239.426 107.215 238.688 106.318 238.688 104.959V104.953C238.688 103.588 239.42 102.691 240.451 102.691C241.529 102.691 242.197 103.553 242.197 104.953V104.959C242.197 106.348 241.529 107.215 240.451 107.215ZM246.17 108.117C246.984 108.117 247.717 107.678 248.074 107.01H248.098V108H249.117V103.787C249.117 102.568 248.215 101.789 246.773 101.789C245.338 101.789 244.465 102.598 244.377 103.6L244.371 103.664H245.355L245.367 103.611C245.484 103.066 245.977 102.691 246.762 102.691C247.611 102.691 248.098 103.143 248.098 103.887V104.396L246.352 104.496C244.951 104.578 244.143 105.229 244.143 106.266V106.277C244.143 107.385 244.957 108.117 246.17 108.117ZM245.186 106.277V106.266C245.186 105.697 245.654 105.334 246.469 105.287L248.098 105.188V105.686C248.098 106.57 247.359 107.232 246.398 107.232C245.666 107.232 245.186 106.863 245.186 106.277ZM253.137 108.117C254.9 108.117 255.984 106.934 255.984 105.018V105.006C255.984 103.195 254.936 102.035 253.289 102.035C252.34 102.035 251.572 102.41 251.168 103.131H251.145L251.156 103.049C251.408 101.285 251.918 100.564 253.588 100.5L254.039 100.482C254.742 100.453 255.387 100.301 255.58 100.125V99.2344C255.234 99.416 254.578 99.5391 253.992 99.5625L253.541 99.5801C251.174 99.6738 250.283 101.068 250.283 104.426V104.438C250.283 106.857 251.268 108.117 253.137 108.117ZM253.137 107.215C251.988 107.215 251.326 106.418 251.326 105.018V105.006C251.326 103.682 251.988 102.938 253.137 102.938C254.279 102.938 254.941 103.682 254.941 105.006V105.018C254.941 106.418 254.279 107.215 253.137 107.215ZM259.652 108.117C261.334 108.117 262.471 106.898 262.471 104.953V104.941C262.471 102.996 261.328 101.789 259.646 101.789C257.965 101.789 256.828 103.002 256.828 104.941V104.953C256.828 106.893 257.959 108.117 259.652 108.117ZM259.658 107.215C258.58 107.215 257.871 106.389 257.871 104.953V104.941C257.871 103.518 258.586 102.691 259.646 102.691C260.725 102.691 261.428 103.512 261.428 104.941V104.953C261.428 106.383 260.73 107.215 259.658 107.215ZM267.838 101.906H262.893V102.75H264.855V108H265.875V102.75H267.838V101.906ZM270.035 105.188L272.467 108H273.756L270.955 104.789L273.674 101.906H272.438L270.035 104.484H269.801V101.906H268.781V108H269.801V105.188H270.035ZM275.08 110.051C276.182 110.051 276.715 109.547 277.148 108.381L279.527 101.906H278.455L276.768 106.98H276.744L275.062 101.906H273.973L276.234 108.006L276.111 108.352C275.865 109.043 275.508 109.207 274.863 109.207C274.74 109.207 274.623 109.189 274.535 109.172V110.004C274.664 110.027 274.881 110.051 275.08 110.051ZM285.434 108.117C286.811 108.117 287.812 107.221 287.977 106.061L287.982 106.02H286.98L286.969 106.066C286.799 106.746 286.266 107.215 285.434 107.215C284.379 107.215 283.652 106.377 283.652 104.959V104.953C283.652 103.57 284.361 102.691 285.422 102.691C286.318 102.691 286.811 103.23 286.963 103.84L286.975 103.887H287.971L287.965 103.84C287.836 102.797 286.939 101.789 285.422 101.789C283.729 101.789 282.609 103.02 282.609 104.941V104.947C282.609 106.887 283.705 108.117 285.434 108.117ZM289.031 108H291.656C292.951 108 293.748 107.326 293.748 106.254V106.242C293.748 105.498 293.244 104.959 292.477 104.854V104.807C293.039 104.689 293.479 104.115 293.479 103.488V103.477C293.479 102.51 292.781 101.906 291.639 101.906H289.031V108ZM290.051 104.455V102.75H291.486C292.125 102.75 292.465 103.037 292.465 103.582V103.594C292.465 104.18 292.102 104.455 291.334 104.455H290.051ZM290.051 107.156V105.299H291.387C292.277 105.299 292.705 105.592 292.705 106.219V106.23C292.705 106.84 292.307 107.156 291.568 107.156H290.051ZM297.445 108.117C299.127 108.117 300.264 106.898 300.264 104.953V104.941C300.264 102.996 299.121 101.789 297.439 101.789C295.758 101.789 294.621 103.002 294.621 104.941V104.953C294.621 106.893 295.752 108.117 297.445 108.117ZM297.451 107.215C296.373 107.215 295.664 106.389 295.664 104.953V104.941C295.664 103.518 296.379 102.691 297.439 102.691C298.518 102.691 299.221 103.512 299.221 104.941V104.953C299.221 106.383 298.523 107.215 297.451 107.215ZM301.406 108H302.414L305.449 103.471H305.496V108H306.516V101.906H305.508L302.473 106.436H302.426V101.906H301.406V108ZM307.477 108H308.607L310.078 105.68H310.102L311.561 108H312.691L310.664 104.912L312.721 101.906H311.584L310.137 104.191H310.113L308.648 101.906H307.512L309.551 104.953L307.477 108ZM316.148 108H317.168V102.75H320.092V108H321.117V101.906H316.148V108ZM325.061 108.117C326.391 108.117 327.387 107.32 327.586 106.312L327.598 106.254H326.596L326.578 106.307C326.402 106.828 325.857 107.215 325.084 107.215C324 107.215 323.309 106.482 323.285 105.229H327.674V104.854C327.674 103.025 326.66 101.789 324.996 101.789C323.332 101.789 322.254 103.084 322.254 104.971V104.977C322.254 106.893 323.309 108.117 325.061 108.117ZM324.99 102.691C325.881 102.691 326.537 103.248 326.637 104.432H323.303C323.414 103.295 324.105 102.691 324.99 102.691ZM328.822 110.051H329.842V106.98H329.865C330.246 107.684 330.955 108.117 331.816 108.117C333.346 108.117 334.389 106.881 334.389 104.959V104.953C334.389 103.031 333.357 101.789 331.799 101.789C330.926 101.789 330.246 102.229 329.865 102.938H329.842V101.906H328.822V110.051ZM331.6 107.215C330.574 107.215 329.836 106.318 329.836 104.959V104.953C329.836 103.588 330.568 102.691 331.6 102.691C332.678 102.691 333.346 103.553 333.346 104.953V104.959C333.346 106.348 332.678 107.215 331.6 107.215ZM338.062 108.117C339.439 108.117 340.441 107.221 340.605 106.061L340.611 106.02H339.609L339.598 106.066C339.428 106.746 338.895 107.215 338.062 107.215C337.008 107.215 336.281 106.377 336.281 104.959V104.953C336.281 103.57 336.99 102.691 338.051 102.691C338.947 102.691 339.439 103.23 339.592 103.84L339.604 103.887H340.6L340.594 103.84C340.465 102.797 339.568 101.789 338.051 101.789C336.357 101.789 335.238 103.02 335.238 104.941V104.947C335.238 106.887 336.334 108.117 338.062 108.117ZM344.191 108.117C345.873 108.117 347.01 106.898 347.01 104.953V104.941C347.01 102.996 345.867 101.789 344.186 101.789C342.504 101.789 341.367 103.002 341.367 104.941V104.953C341.367 106.893 342.498 108.117 344.191 108.117ZM344.197 107.215C343.119 107.215 342.41 106.389 342.41 104.953V104.941C342.41 103.518 343.125 102.691 344.186 102.691C345.264 102.691 345.967 103.512 345.967 104.941V104.953C345.967 106.383 345.27 107.215 344.197 107.215ZM352.154 108H353.174V101.906H352.154V104.42H349.172V101.906H348.152V108H349.172V105.264H352.154V108ZM356.396 108.117C357.211 108.117 357.943 107.678 358.301 107.01H358.324V108H359.344V103.787C359.344 102.568 358.441 101.789 357 101.789C355.564 101.789 354.691 102.598 354.604 103.6L354.598 103.664H355.582L355.594 103.611C355.711 103.066 356.203 102.691 356.988 102.691C357.838 102.691 358.324 103.143 358.324 103.887V104.396L356.578 104.496C355.178 104.578 354.369 105.229 354.369 106.266V106.277C354.369 107.385 355.184 108.117 356.396 108.117ZM355.412 106.277V106.266C355.412 105.697 355.881 105.334 356.695 105.287L358.324 105.188V105.686C358.324 106.57 357.586 107.232 356.625 107.232C355.893 107.232 355.412 106.863 355.412 106.277ZM362.443 105.316L362.637 102.75H364.98V108H366V101.906H361.717L361.477 105.293C361.395 106.412 361.172 107.121 360.521 107.121C360.363 107.121 360.252 107.098 360.199 107.08V108C360.281 108.029 360.434 108.059 360.627 108.059C361.922 108.059 362.314 106.998 362.443 105.316ZM367.441 108H369.604C370.998 108 371.895 107.197 371.895 105.932V105.92C371.895 104.654 370.998 103.852 369.604 103.852H368.461V101.906H367.441V108ZM369.586 104.695C370.359 104.695 370.852 105.176 370.852 105.92V105.932C370.852 106.67 370.365 107.156 369.586 107.156H368.461V104.695H369.586ZM377.01 108H378.029V101.906H377.01V104.42H374.027V101.906H373.008V108H374.027V105.264H377.01V108ZM379.465 108H381.627C383.021 108 383.918 107.197 383.918 105.932V105.92C383.918 104.654 383.021 103.852 381.627 103.852H380.484V101.906H379.465V108ZM384.691 108H385.711V101.906H384.691V108ZM381.609 104.695C382.383 104.695 382.875 105.176 382.875 105.92V105.932C382.875 106.67 382.389 107.156 381.609 107.156H380.484V104.695H381.609ZM386.672 108H387.803L389.273 105.68H389.297L390.756 108H391.887L389.859 104.912L391.916 101.906H390.779L389.332 104.191H389.309L387.844 101.906H386.707L388.746 104.953L386.672 108ZM395.689 109.67V108H400.418V109.67H401.367V107.156H400.4V101.906H396.205L395.971 105.287C395.912 106.107 395.695 106.863 395.25 107.156H394.74V109.67H395.689ZM399.381 107.156H396.398V107.133C396.703 106.74 396.861 106.078 396.914 105.311L397.102 102.75H399.381V107.156ZM404.068 108.117C404.883 108.117 405.615 107.678 405.973 107.01H405.996V108H407.016V103.787C407.016 102.568 406.113 101.789 404.672 101.789C403.236 101.789 402.363 102.598 402.275 103.6L402.27 103.664H403.254L403.266 103.611C403.383 103.066 403.875 102.691 404.66 102.691C405.51 102.691 405.996 103.143 405.996 103.887V104.396L404.25 104.496C402.85 104.578 402.041 105.229 402.041 106.266V106.277C402.041 107.385 402.855 108.117 404.068 108.117ZM403.084 106.277V106.266C403.084 105.697 403.553 105.334 404.367 105.287L405.996 105.188V105.686C405.996 106.57 405.258 107.232 404.297 107.232C403.564 107.232 403.084 106.863 403.084 106.277ZM412.424 108H413.443V101.906H412.424V104.42H409.441V101.906H408.422V108H409.441V105.264H412.424V108ZM418.881 108H419.9V101.906H418.881V104.42H415.898V101.906H414.879V108H415.898V105.264H418.881V108ZM421.336 108H423.498C424.893 108 425.789 107.197 425.789 105.932V105.92C425.789 104.654 424.893 103.852 423.498 103.852H422.355V101.906H421.336V108ZM426.562 108H427.582V101.906H426.562V108ZM423.48 104.695C424.254 104.695 424.746 105.176 424.746 105.92V105.932C424.746 106.67 424.26 107.156 423.48 107.156H422.355V104.695H423.48ZM428.543 108H429.674L431.145 105.68H431.168L432.627 108H433.758L431.73 104.912L433.787 101.906H432.65L431.203 104.191H431.18L429.715 101.906H428.578L430.617 104.953L428.543 108ZM0.714844 126H1.72266L4.75781 121.471H4.80469V126H5.82422V119.906H4.81641L1.78125 124.436H1.73438V119.906H0.714844V126ZM12.2461 126.117C13.623 126.117 14.625 125.221 14.7891 124.061L14.7949 124.02H13.793L13.7812 124.066C13.6113 124.746 13.0781 125.215 12.2461 125.215C11.1914 125.215 10.4648 124.377 10.4648 122.959V122.953C10.4648 121.57 11.1738 120.691 12.2344 120.691C13.1309 120.691 13.623 121.23 13.7754 121.84L13.7871 121.887H14.7832L14.7773 121.84C14.6484 120.797 13.752 119.789 12.2344 119.789C10.541 119.789 9.42188 121.02 9.42188 122.941V122.947C9.42188 124.887 10.5176 126.117 12.2461 126.117ZM18.375 126.117C20.0566 126.117 21.1934 124.898 21.1934 122.953V122.941C21.1934 120.996 20.0508 119.789 18.3691 119.789C16.6875 119.789 15.5508 121.002 15.5508 122.941V122.953C15.5508 124.893 16.6816 126.117 18.375 126.117ZM18.3809 125.215C17.3027 125.215 16.5938 124.389 16.5938 122.953V122.941C16.5938 121.518 17.3086 120.691 18.3691 120.691C19.4473 120.691 20.1504 121.512 20.1504 122.941V122.953C20.1504 124.383 19.4531 125.215 18.3809 125.215ZM26.2559 120.75V119.906H22.3359V126H23.3555V120.75H26.2559ZM28.4707 123.316L28.6641 120.75H31.0078V126H32.0273V119.906H27.7441L27.5039 123.293C27.4219 124.412 27.1992 125.121 26.5488 125.121C26.3906 125.121 26.2793 125.098 26.2266 125.08V126C26.3086 126.029 26.4609 126.059 26.6543 126.059C27.9492 126.059 28.3418 124.998 28.4707 123.316ZM35.2559 126.117C36.0703 126.117 36.8027 125.678 37.1602 125.01H37.1836V126H38.2031V121.787C38.2031 120.568 37.3008 119.789 35.8594 119.789C34.4238 119.789 33.5508 120.598 33.4629 121.6L33.457 121.664H34.4414L34.4531 121.611C34.5703 121.066 35.0625 120.691 35.8477 120.691C36.6973 120.691 37.1836 121.143 37.1836 121.887V122.396L35.4375 122.496C34.0371 122.578 33.2285 123.229 33.2285 124.266V124.277C33.2285 125.385 34.043 126.117 35.2559 126.117ZM34.2715 124.277V124.266C34.2715 123.697 34.7402 123.334 35.5547 123.287L37.1836 123.188V123.686C37.1836 124.57 36.4453 125.232 35.4844 125.232C34.752 125.232 34.2715 124.863 34.2715 124.277ZM39.6094 126H47.1328V119.906H46.1133V125.156H43.8809V119.906H42.8613V125.156H40.6289V119.906H39.6094V126ZM50.3496 126.117C51.1641 126.117 51.8965 125.678 52.2539 125.01H52.2773V126H53.2969V121.787C53.2969 120.568 52.3945 119.789 50.9531 119.789C49.5176 119.789 48.6445 120.598 48.5566 121.6L48.5508 121.664H49.5352L49.5469 121.611C49.6641 121.066 50.1562 120.691 50.9414 120.691C51.791 120.691 52.2773 121.143 52.2773 121.887V122.396L50.5312 122.496C49.1309 122.578 48.3223 123.229 48.3223 124.266V124.277C48.3223 125.385 49.1367 126.117 50.3496 126.117ZM49.3652 124.277V124.266C49.3652 123.697 49.834 123.334 50.6484 123.287L52.2773 123.188V123.686C52.2773 124.57 51.5391 125.232 50.5781 125.232C49.8457 125.232 49.3652 124.863 49.3652 124.277ZM57.2168 126.117C58.5469 126.117 59.543 125.32 59.7422 124.312L59.7539 124.254H58.752L58.7344 124.307C58.5586 124.828 58.0137 125.215 57.2402 125.215C56.1562 125.215 55.4648 124.482 55.4414 123.229H59.8301V122.854C59.8301 121.025 58.8164 119.789 57.1523 119.789C55.4883 119.789 54.4102 121.084 54.4102 122.971V122.977C54.4102 124.893 55.4648 126.117 57.2168 126.117ZM57.1465 120.691C58.0371 120.691 58.6934 121.248 58.793 122.432H55.459C55.5703 121.295 56.2617 120.691 57.1465 120.691ZM65.1973 119.906H60.252V120.75H62.2148V126H63.2344V120.75H65.1973V119.906ZM68.5371 126.117C69.8672 126.117 70.8633 125.32 71.0625 124.312L71.0742 124.254H70.0723L70.0547 124.307C69.8789 124.828 69.334 125.215 68.5605 125.215C67.4766 125.215 66.7852 124.482 66.7617 123.229H71.1504V122.854C71.1504 121.025 70.1367 119.789 68.4727 119.789C66.8086 119.789 65.7305 121.084 65.7305 122.971V122.977C65.7305 124.893 66.7852 126.117 68.5371 126.117ZM68.4668 120.691C69.3574 120.691 70.0137 121.248 70.1133 122.432H66.7793C66.8906 121.295 67.582 120.691 68.4668 120.691ZM74.8242 126.117C76.2012 126.117 77.2031 125.221 77.3672 124.061L77.373 124.02H76.3711L76.3594 124.066C76.1895 124.746 75.6562 125.215 74.8242 125.215C73.7695 125.215 73.043 124.377 73.043 122.959V122.953C73.043 121.57 73.752 120.691 74.8125 120.691C75.709 120.691 76.2012 121.23 76.3535 121.84L76.3652 121.887H77.3613L77.3555 121.84C77.2266 120.797 76.3301 119.789 74.8125 119.789C73.1191 119.789 72 121.02 72 122.941V122.947C72 124.887 73.0957 126.117 74.8242 126.117ZM78.4219 126H80.584C81.9785 126 82.875 125.197 82.875 123.932V123.92C82.875 122.654 81.9785 121.852 80.584 121.852H79.4414V119.906H78.4219V126ZM80.5664 122.695C81.3398 122.695 81.832 123.176 81.832 123.92V123.932C81.832 124.67 81.3457 125.156 80.5664 125.156H79.4414V122.695H80.5664ZM88.9805 126.117C90.3574 126.117 91.3594 125.221 91.5234 124.061L91.5293 124.02H90.5273L90.5156 124.066C90.3457 124.746 89.8125 125.215 88.9805 125.215C87.9258 125.215 87.1992 124.377 87.1992 122.959V122.953C87.1992 121.57 87.9082 120.691 88.9688 120.691C89.8652 120.691 90.3574 121.23 90.5098 121.84L90.5215 121.887H91.5176L91.5117 121.84C91.3828 120.797 90.4863 119.789 88.9688 119.789C87.2754 119.789 86.1562 121.02 86.1562 122.941V122.947C86.1562 124.887 87.252 126.117 88.9805 126.117ZM101.836 126V117.545H95.2031V126H96.2578V118.494H100.781V126H101.836ZM105.961 126.117C107.643 126.117 108.779 124.898 108.779 122.953V122.941C108.779 120.996 107.637 119.789 105.955 119.789C104.273 119.789 103.137 121.002 103.137 122.941V122.953C103.137 124.893 104.268 126.117 105.961 126.117ZM105.967 125.215C104.889 125.215 104.18 124.389 104.18 122.953V122.941C104.18 121.518 104.895 120.691 105.955 120.691C107.033 120.691 107.736 121.512 107.736 122.941V122.953C107.736 124.383 107.039 125.215 105.967 125.215ZM111.381 123.316L111.574 120.75H113.918V126H114.938V119.906H110.654L110.414 123.293C110.332 124.412 110.109 125.121 109.459 125.121C109.301 125.121 109.189 125.098 109.137 125.08V126C109.219 126.029 109.371 126.059 109.564 126.059C110.859 126.059 111.252 124.998 111.381 123.316ZM116.379 126H118.541C119.936 126 120.832 125.197 120.832 123.932V123.92C120.832 122.654 119.936 121.852 118.541 121.852H117.398V119.906H116.379V126ZM118.523 122.695C119.297 122.695 119.789 123.176 119.789 123.92V123.932C119.789 124.67 119.303 125.156 118.523 125.156H117.398V122.695H118.523ZM123.979 126.117C125.402 126.117 126.357 125.355 126.357 124.225V124.213C126.357 123.51 125.924 123.023 125.139 122.854V122.807C125.76 122.666 126.188 122.121 126.188 121.471V121.459C126.188 120.428 125.373 119.789 124.043 119.789C122.777 119.789 121.893 120.422 121.752 121.406L121.746 121.447H122.736L122.742 121.418C122.836 120.943 123.346 120.633 124.043 120.633C124.764 120.633 125.191 120.973 125.191 121.541V121.553C125.191 122.156 124.787 122.461 123.979 122.461H123.064V123.305H123.979C124.91 123.305 125.355 123.609 125.355 124.26V124.271C125.355 124.887 124.822 125.273 123.979 125.273C123.252 125.273 122.766 124.986 122.619 124.477L122.602 124.418H121.57L121.576 124.465C121.699 125.461 122.654 126.117 123.979 126.117ZM130.055 126.117C131.736 126.117 132.873 124.898 132.873 122.953V122.941C132.873 120.996 131.73 119.789 130.049 119.789C128.367 119.789 127.23 121.002 127.23 122.941V122.953C127.23 124.893 128.361 126.117 130.055 126.117ZM130.061 125.215C128.982 125.215 128.273 124.389 128.273 122.953V122.941C128.273 121.518 128.988 120.691 130.049 120.691C131.127 120.691 131.83 121.512 131.83 122.941V122.953C131.83 124.383 131.133 125.215 130.061 125.215ZM134.016 126H136.641C137.936 126 138.732 125.326 138.732 124.254V124.242C138.732 123.498 138.229 122.959 137.461 122.854V122.807C138.023 122.689 138.463 122.115 138.463 121.488V121.477C138.463 120.51 137.766 119.906 136.623 119.906H134.016V126ZM135.035 122.455V120.75H136.471C137.109 120.75 137.449 121.037 137.449 121.582V121.594C137.449 122.18 137.086 122.455 136.318 122.455H135.035ZM135.035 125.156V123.299H136.371C137.262 123.299 137.689 123.592 137.689 124.219V124.23C137.689 124.84 137.291 125.156 136.553 125.156H135.035ZM141.686 126.117C142.5 126.117 143.232 125.678 143.59 125.01H143.613V126H144.633V121.787C144.633 120.568 143.73 119.789 142.289 119.789C140.854 119.789 139.98 120.598 139.893 121.6L139.887 121.664H140.871L140.883 121.611C141 121.066 141.492 120.691 142.277 120.691C143.127 120.691 143.613 121.143 143.613 121.887V122.396L141.867 122.496C140.467 122.578 139.658 123.229 139.658 124.266V124.277C139.658 125.385 140.473 126.117 141.686 126.117ZM140.701 124.277V124.266C140.701 123.697 141.17 123.334 141.984 123.287L143.613 123.188V123.686C143.613 124.57 142.875 125.232 141.914 125.232C141.182 125.232 140.701 124.863 140.701 124.277ZM150.381 119.906H145.436V120.75H147.398V126H148.418V120.75H150.381V119.906ZM153.721 126.117C155.051 126.117 156.047 125.32 156.246 124.312L156.258 124.254H155.256L155.238 124.307C155.062 124.828 154.518 125.215 153.744 125.215C152.66 125.215 151.969 124.482 151.945 123.229H156.334V122.854C156.334 121.025 155.32 119.789 153.656 119.789C151.992 119.789 150.914 121.084 150.914 122.971V122.977C150.914 124.893 151.969 126.117 153.721 126.117ZM153.65 120.691C154.541 120.691 155.197 121.248 155.297 122.432H151.963C152.074 121.295 152.766 120.691 153.65 120.691ZM158.936 123.316L159.129 120.75H161.473V126H162.492V119.906H158.209L157.969 123.293C157.887 124.412 157.664 125.121 157.014 125.121C156.855 125.121 156.744 125.098 156.691 125.08V126C156.773 126.029 156.926 126.059 157.119 126.059C158.414 126.059 158.807 124.998 158.936 123.316ZM163.934 126H166.096C167.49 126 168.387 125.197 168.387 123.932V123.92C168.387 122.654 167.49 121.852 166.096 121.852H164.953V119.906H163.934V126ZM166.078 122.695C166.852 122.695 167.344 123.176 167.344 123.92V123.932C167.344 124.67 166.857 125.156 166.078 125.156H164.953V122.695H166.078ZM172.031 126.117C173.408 126.117 174.41 125.221 174.574 124.061L174.58 124.02H173.578L173.566 124.066C173.396 124.746 172.863 125.215 172.031 125.215C170.977 125.215 170.25 124.377 170.25 122.959V122.953C170.25 121.57 170.959 120.691 172.02 120.691C172.916 120.691 173.408 121.23 173.561 121.84L173.572 121.887H174.568L174.562 121.84C174.434 120.797 173.537 119.789 172.02 119.789C170.326 119.789 169.207 121.02 169.207 122.941V122.947C169.207 124.887 170.303 126.117 172.031 126.117ZM176.883 123.188L179.314 126H180.604L177.803 122.789L180.521 119.906H179.285L176.883 122.484H176.648V119.906H175.629V126H176.648V123.188H176.883ZM181.453 126H182.461L185.496 121.471H185.543V126H186.562V119.906H185.555L182.52 124.436H182.473V119.906H181.453V126ZM189.012 126V121.676H189.053L191.01 125.824H191.789L193.752 121.676H193.793V126H194.812V119.906H193.617L191.443 124.652H191.396L189.24 119.906H187.992V126H189.012ZM201.234 126.117C202.611 126.117 203.613 125.221 203.777 124.061L203.783 124.02H202.781L202.77 124.066C202.6 124.746 202.066 125.215 201.234 125.215C200.18 125.215 199.453 124.377 199.453 122.959V122.953C199.453 121.57 200.162 120.691 201.223 120.691C202.119 120.691 202.611 121.23 202.764 121.84L202.775 121.887H203.771L203.766 121.84C203.637 120.797 202.74 119.789 201.223 119.789C199.529 119.789 198.41 121.02 198.41 122.941V122.947C198.41 124.887 199.506 126.117 201.234 126.117ZM207.363 126.117C209.045 126.117 210.182 124.898 210.182 122.953V122.941C210.182 120.996 209.039 119.789 207.357 119.789C205.676 119.789 204.539 121.002 204.539 122.941V122.953C204.539 124.893 205.67 126.117 207.363 126.117ZM207.369 125.215C206.291 125.215 205.582 124.389 205.582 122.953V122.941C205.582 121.518 206.297 120.691 207.357 120.691C208.436 120.691 209.139 121.512 209.139 122.941V122.953C209.139 124.383 208.441 125.215 207.369 125.215ZM215.244 120.75V119.906H211.324V126H212.344V120.75H215.244ZM217.459 123.316L217.652 120.75H219.996V126H221.016V119.906H216.732L216.492 123.293C216.41 124.412 216.188 125.121 215.537 125.121C215.379 125.121 215.268 125.098 215.215 125.08V126C215.297 126.029 215.449 126.059 215.643 126.059C216.938 126.059 217.33 124.998 217.459 123.316ZM224.244 126.117C225.059 126.117 225.791 125.678 226.148 125.01H226.172V126H227.191V121.787C227.191 120.568 226.289 119.789 224.848 119.789C223.412 119.789 222.539 120.598 222.451 121.6L222.445 121.664H223.43L223.441 121.611C223.559 121.066 224.051 120.691 224.836 120.691C225.686 120.691 226.172 121.143 226.172 121.887V122.396L224.426 122.496C223.025 122.578 222.217 123.229 222.217 124.266V124.277C222.217 125.385 223.031 126.117 224.244 126.117ZM223.26 124.277V124.266C223.26 123.697 223.729 123.334 224.543 123.287L226.172 123.188V123.686C226.172 124.57 225.434 125.232 224.473 125.232C223.74 125.232 223.26 124.863 223.26 124.277ZM228.598 126H236.121V119.906H235.102V125.156H232.869V119.906H231.85V125.156H229.617V119.906H228.598V126ZM240.064 126.117C241.395 126.117 242.391 125.32 242.59 124.312L242.602 124.254H241.6L241.582 124.307C241.406 124.828 240.861 125.215 240.088 125.215C239.004 125.215 238.312 124.482 238.289 123.229H242.678V122.854C242.678 121.025 241.664 119.789 240 119.789C238.336 119.789 237.258 121.084 237.258 122.971V122.977C237.258 124.893 238.312 126.117 240.064 126.117ZM239.994 120.691C240.885 120.691 241.541 121.248 241.641 122.432H238.307C238.418 121.295 239.109 120.691 239.994 120.691ZM247.822 126H248.842V119.906H247.822V122.42H244.84V119.906H243.82V126H244.84V123.264H247.822V126ZM250.277 126H251.285L254.32 121.471H254.367V126H255.387V119.906H254.379L251.344 124.436H251.297V119.906H250.277V126ZM259.33 126.117C260.66 126.117 261.656 125.32 261.855 124.312L261.867 124.254H260.865L260.848 124.307C260.672 124.828 260.127 125.215 259.354 125.215C258.27 125.215 257.578 124.482 257.555 123.229H261.943V122.854C261.943 121.025 260.93 119.789 259.266 119.789C257.602 119.789 256.523 121.084 256.523 122.971V122.977C256.523 124.893 257.578 126.117 259.33 126.117ZM259.26 120.691C260.15 120.691 260.807 121.248 260.906 122.432H257.572C257.684 121.295 258.375 120.691 259.26 120.691ZM264.105 126V121.676H264.146L266.104 125.824H266.883L268.846 121.676H268.887V126H269.906V119.906H268.711L266.537 124.652H266.49L264.334 119.906H263.086V126H264.105Z" fill="#B7BCBF"/>
<path d="M5.98438 18.1875C9.24219 18.1875 11.2656 15.9453 11.2656 12.3672V12.3516C11.2656 8.78125 9.23438 6.53906 5.98438 6.53906C2.74219 6.53906 0.703125 8.77344 0.703125 12.3516V12.3672C0.703125 15.9531 2.73438 18.1875 5.98438 18.1875ZM5.98438 16.6406C3.84375 16.6406 2.48438 14.9922 2.48438 12.3672V12.3516C2.48438 9.72656 3.85156 8.08594 5.98438 8.08594C8.125 8.08594 9.47656 9.73438 9.47656 12.3516V12.3672C9.47656 14.9688 8.14844 16.6406 5.98438 16.6406ZM16.4062 18.1641C18.3828 18.1641 19.7578 16.8984 19.9375 15.25L19.9453 15.1953H18.3281L18.3125 15.2578C18.1094 16.1484 17.4531 16.75 16.4141 16.75C15.1016 16.75 14.2344 15.6953 14.2344 13.8984V13.8906C14.2344 12.1328 15.0859 11.0391 16.3984 11.0391C17.5 11.0391 18.125 11.7188 18.3047 12.5234L18.3203 12.5859H19.9297L19.9219 12.5312C19.7812 10.9844 18.5 9.625 16.3906 9.625C14.0391 9.625 12.5078 11.2734 12.5078 13.875V13.8828C12.5078 16.5156 14.0078 18.1641 16.4062 18.1641ZM27.3594 9.78125H20.5234V11.125H23.0938V18H24.7891V11.125H27.3594V9.78125ZM30.7422 18.1484C31.8359 18.1484 32.7812 17.5859 33.2578 16.7031H33.2969V18H34.9844V12.3359C34.9844 10.6875 33.7109 9.625 31.7031 9.625C29.6797 9.625 28.4531 10.7109 28.3359 12.125L28.3281 12.2109H29.9219L29.9375 12.1406C30.0781 11.4844 30.6797 11.0234 31.6562 11.0234C32.7031 11.0234 33.2969 11.5703 33.2969 12.4766V13.0938L31.0547 13.2266C29.1094 13.3438 28 14.2188 28 15.6484V15.6641C28 17.1406 29.1016 18.1484 30.7422 18.1484ZM29.7031 15.625V15.6094C29.7031 14.9141 30.2656 14.4688 31.2812 14.4062L33.2969 14.2812V14.9219C33.2969 15.9922 32.3906 16.7969 31.2031 16.7969C30.2969 16.7969 29.7031 16.3438 29.7031 15.625ZM36.7656 18H40.5469C42.3281 18 43.4375 17.0781 43.4375 15.6406V15.625C43.4375 14.6172 42.7344 13.8828 41.6719 13.7422V13.6797C42.4609 13.5312 43.0703 12.7578 43.0703 11.9062V11.8906C43.0703 10.5859 42.1016 9.78125 40.5 9.78125H36.7656V18ZM38.4375 13.1719V11.0312H40.1484C40.9609 11.0312 41.3984 11.3984 41.3984 12.0781V12.0938C41.3984 12.8203 40.9297 13.1719 39.9766 13.1719H38.4375ZM38.4375 16.75V14.3984H40.0391C41.1484 14.3984 41.7031 14.7656 41.7031 15.5547V15.5703C41.7031 16.3516 41.1875 16.75 40.2344 16.75H38.4375ZM44.9375 18H48.1875C50.0859 18 51.3125 16.8984 51.3125 15.1641V15.1484C51.3125 13.4219 50.0859 12.3203 48.1875 12.3203H46.625V9.78125H44.9375V18ZM48.0234 13.6562C48.9766 13.6562 49.5859 14.2422 49.5859 15.1484V15.1641C49.5859 16.0703 48.9844 16.6641 48.0234 16.6641H46.625V13.6562H48.0234ZM58.1875 9.78125H51.3516V11.125H53.9219V18H55.6172V11.125H58.1875V9.78125ZM62.7734 18.1641C64.7656 18.1641 66.0391 16.9766 66.2969 15.6719L66.3203 15.5859H64.7109L64.6875 15.6484C64.4766 16.2656 63.8125 16.7812 62.8125 16.7812C61.4688 16.7812 60.6172 15.875 60.5859 14.3203H66.4062V13.75C66.4062 11.2812 64.9922 9.625 62.6875 9.625C60.3828 9.625 58.8984 11.3438 58.8984 13.9141V13.9219C58.8984 16.5156 60.3594 18.1641 62.7734 18.1641ZM62.6953 11.0078C63.7969 11.0078 64.6016 11.7031 64.7344 13.125H60.6094C60.7656 11.75 61.6016 11.0078 62.6953 11.0078ZM74.6406 18.1641C76.6172 18.1641 77.9922 16.8984 78.1719 15.25L78.1797 15.1953H76.5625L76.5469 15.2578C76.3438 16.1484 75.6875 16.75 74.6484 16.75C73.3359 16.75 72.4688 15.6953 72.4688 13.8984V13.8906C72.4688 12.1328 73.3203 11.0391 74.6328 11.0391C75.7344 11.0391 76.3594 11.7188 76.5391 12.5234L76.5547 12.5859H78.1641L78.1562 12.5312C78.0156 10.9844 76.7344 9.625 74.625 9.625C72.2734 9.625 70.7422 11.2734 70.7422 13.875V13.8828C70.7422 16.5156 72.2422 18.1641 74.6406 18.1641ZM79.5156 18H83.2969C85.0781 18 86.1875 17.0781 86.1875 15.6406V15.625C86.1875 14.6172 85.4844 13.8828 84.4219 13.7422V13.6797C85.2109 13.5312 85.8203 12.7578 85.8203 11.9062V11.8906C85.8203 10.5859 84.8516 9.78125 83.25 9.78125H79.5156V18ZM81.1875 13.1719V11.0312H82.8984C83.7109 11.0312 84.1484 11.3984 84.1484 12.0781V12.0938C84.1484 12.8203 83.6797 13.1719 82.7266 13.1719H81.1875ZM81.1875 16.75V14.3984H82.7891C83.8984 14.3984 84.4531 14.7656 84.4531 15.5547V15.5703C84.4531 16.3516 83.9375 16.75 82.9844 16.75H81.1875ZM91.2188 18.1641C93.5703 18.1641 95.1172 16.5391 95.1172 13.8906V13.875C95.1172 11.2422 93.5547 9.625 91.2188 9.625C88.8828 9.625 87.3203 11.25 87.3203 13.875V13.8906C87.3203 16.5312 88.8594 18.1641 91.2188 18.1641ZM91.2266 16.75C89.9062 16.75 89.0469 15.7109 89.0469 13.8906V13.875C89.0469 12.0781 89.9141 11.0391 91.2188 11.0391C92.5312 11.0391 93.3984 12.0781 93.3984 13.875V13.8906C93.3984 15.7031 92.5469 16.75 91.2266 16.75ZM100.234 8.88281C101.859 8.88281 102.836 7.90625 102.836 6.55469V6.50781H101.5V6.5625C101.5 7.24219 101.039 7.82031 100.242 7.82031C99.4141 7.82031 98.9766 7.24219 98.9766 6.5625V6.50781H97.6484V6.55469C97.6484 7.90625 98.625 8.88281 100.234 8.88281ZM96.5625 18H98.2266L102 12.2266H102.07V18H103.75V9.78125H102.086L98.3125 15.5312H98.2344V9.78125H96.5625V18ZM108.945 18H116.102V16.4922H110.695V12.9922H115.812V11.5234H110.695V8.23438H116.102V6.72656H108.945V18ZM117.695 18H119.383V12.9219C119.383 11.8594 120.094 11.0703 121.094 11.0703C122.047 11.0703 122.648 11.6797 122.648 12.6328V18H124.305V12.8594C124.305 11.8203 125 11.0703 126 11.0703C127 11.0703 127.57 11.6875 127.57 12.7578V18H129.266V12.3516C129.266 10.7031 128.203 9.625 126.578 9.625C125.406 9.625 124.438 10.2422 124.016 11.2422H123.977C123.648 10.2109 122.82 9.625 121.688 9.625C120.609 9.625 119.773 10.1953 119.422 11.0547H119.383V9.78125H117.695V18ZM133.312 18.1484C134.398 18.1484 135.352 17.5859 135.828 16.7031H135.859V18H137.555V12.3359C137.555 10.6875 136.281 9.625 134.273 9.625C132.25 9.625 131.023 10.7109 130.906 12.125L130.898 12.2109H132.492L132.508 12.1406C132.648 11.4844 133.25 11.0234 134.227 11.0234C135.273 11.0234 135.859 11.5703 135.859 12.4766V13.0938L133.625 13.2266C131.68 13.3438 130.57 14.2188 130.57 15.6484V15.6641C130.57 17.1406 131.672 18.1484 133.312 18.1484ZM132.273 15.625V15.6094C132.273 14.9141 132.836 14.4688 133.852 14.4062L135.859 14.2812V14.9219C135.859 15.9922 134.961 16.7969 133.773 16.7969C132.867 16.7969 132.273 16.3438 132.273 15.625ZM140.109 8.51562C140.664 8.51562 141.094 8.07812 141.094 7.54688C141.094 7.00781 140.664 6.57031 140.109 6.57031C139.562 6.57031 139.125 7.00781 139.125 7.54688C139.125 8.07812 139.562 8.51562 140.109 8.51562ZM139.266 18H140.953V9.78125H139.266V18ZM142.758 18H144.445V6.72656H142.758V18Z" fill="white"/>
</svg>
