<svg width="27" height="26" viewBox="0 0 27 26" fill="none" xmlns="http://www.w3.org/2000/svg">
<path d="M25.5178 14.579C25.5868 14.061 25.6338 13.536 25.6338 13C25.6338 6.373 20.2608 1 13.6338 1C13.0978 1 12.5728 1.047 12.0548 1.116C10.9128 0.413 9.57279 0 8.13379 0C3.99179 0 0.633789 3.358 0.633789 7.5C0.633789 8.939 1.04679 10.279 1.74979 11.421C1.68079 11.939 1.63379 12.464 1.63379 13C1.63379 19.627 7.00679 25 13.6338 25C14.1698 25 14.6948 24.953 15.2128 24.884C16.3548 25.587 17.6948 26 19.1338 26C23.2758 26 26.6338 22.642 26.6338 18.5C26.6338 17.061 26.2208 15.721 25.5178 14.579ZM13.7828 20C9.88679 20 7.64979 17.958 7.64979 15.954C7.64979 14.932 8.71979 14.605 9.14779 14.605C10.1368 14.605 10.4658 15.412 10.6458 15.782C11.6508 17.848 12.6168 17.576 13.5688 17.666C14.4098 17.745 16.3838 17.374 16.3838 15.932C16.3838 15.794 16.6008 14.856 14.8968 14.391C13.8078 14.093 11.8878 13.728 10.3078 13.12C8.82179 12.548 7.94979 11.37 7.94979 9.852C7.94979 9.093 8.33879 6 13.6008 6C17.1128 6 18.9848 7.799 18.9848 9.382C18.9848 9.746 18.8458 10.067 18.5668 10.356C18.2878 10.645 17.5018 11.068 16.6408 10.517C16.4238 10.378 16.2448 10.089 16.0308 9.714C15.7728 9.243 15.3508 8.333 13.4078 8.333C11.5228 8.333 10.9998 9.232 10.9998 9.607C10.9998 10.867 13.4048 11.132 14.0508 11.299C16.4088 11.907 19.6168 12.466 19.6168 15.645C19.6168 19.295 15.8188 20 13.7828 20Z" fill="#0C1923"/>
</svg>
