<svg width="31" height="26" viewBox="0 0 31 26" fill="none" xmlns="http://www.w3.org/2000/svg">
<path d="M11.3141 0C5.07469 0 0 4.32857 0 9.65023C0 12.4917 1.37006 15.0473 3.87101 16.8983L2.11619 22.1654L7.60424 18.7675C9.12769 19.2459 10.9865 19.4149 12.7803 19.2173C14.2362 22.0354 17.5248 23.9592 21.2971 23.9592C22.4436 23.9592 23.5042 23.7434 24.4895 23.4497L29.0469 26L27.7756 21.6402C29.4914 20.2156 30.6145 18.232 30.6145 15.9728C30.6145 11.8392 27.0191 8.54275 22.4618 8.05659C21.5674 3.42906 16.8827 0 11.3141 0ZM7.32087 5.32427C8.05399 5.32427 8.65193 5.92221 8.65193 6.65533C8.65193 7.38846 8.05399 7.9864 7.32087 7.9864C6.58774 7.9864 5.9898 7.38846 5.9898 6.65533C5.9898 5.92221 6.58774 5.32427 7.32087 5.32427ZM15.3073 5.32427C16.0404 5.32427 16.6383 5.92221 16.6383 6.65533C16.6383 7.38846 16.0404 7.9864 15.3073 7.9864C14.5741 7.9864 13.9762 7.38846 13.9762 6.65533C13.9762 5.92221 14.5741 5.32427 15.3073 5.32427ZM21.2971 9.31747C25.7868 9.31747 29.2835 12.3358 29.2835 15.9728C29.2835 17.9408 28.28 19.667 26.6239 20.8941L26.2522 21.1723L26.8579 23.2495L24.6949 22.0354L24.4142 22.129C23.4834 22.441 22.4202 22.6281 21.2971 22.6281C16.8073 22.6281 13.3107 19.6098 13.3107 15.9728C13.3107 12.3358 16.8073 9.31747 21.2971 9.31747ZM18.3022 13.3107C17.7692 13.3107 17.3039 13.776 17.3039 14.309C17.3039 14.8419 17.7692 15.3073 18.3022 15.3073C18.8351 15.3073 19.3005 14.8419 19.3005 14.309C19.3005 13.776 18.8351 13.3107 18.3022 13.3107ZM24.292 13.3107C23.759 13.3107 23.2937 13.776 23.2937 14.309C23.2937 14.8419 23.759 15.3073 24.292 15.3073C24.8249 15.3073 25.2903 14.8419 25.2903 14.309C25.2903 13.776 24.8249 13.3107 24.292 13.3107Z" fill="#0C1923"/>
</svg>
