<svg width="26" height="26" viewBox="0 0 26 26" fill="none" xmlns="http://www.w3.org/2000/svg">
<path d="M13 0C5.82075 0 0 5.82075 0 13C0 15.4388 0.685037 17.7126 1.85352 19.6629L0.116374 26L6.58887 24.3009C8.4818 25.3772 10.667 26 13 26C20.1793 26 26 20.1793 26 13C26 5.82075 20.1793 0 13 0ZM8.55029 6.93587C8.76154 6.93587 8.9786 6.93459 9.16602 6.94434C9.39785 6.94975 9.65018 6.96673 9.89176 7.50081C10.1788 8.13565 10.8039 9.72823 10.8841 9.88965C10.9643 10.0511 11.0211 10.2412 10.9095 10.4525C10.8033 10.6691 10.7481 10.8003 10.5921 10.992C10.4307 11.1784 10.2538 11.4098 10.1076 11.5506C9.94617 11.712 9.77949 11.889 9.96582 12.2108C10.1522 12.5325 10.7993 13.5873 11.7559 14.4388C12.9854 15.5373 14.0229 15.8749 14.3457 16.0363C14.6685 16.1977 14.8555 16.1726 15.0418 15.9559C15.2336 15.7446 15.8471 15.0198 16.0638 14.6969C16.2751 14.3741 16.4907 14.43 16.7832 14.5361C17.08 14.6423 18.663 15.4221 18.9858 15.5835C19.3087 15.7449 19.5203 15.8248 19.6016 15.9559C19.685 16.0913 19.6851 16.736 19.4175 17.4878C19.1499 18.2385 17.8359 18.9645 17.2466 19.0155C16.6518 19.0707 16.0968 19.2828 13.3809 18.2135C10.1049 16.9233 8.03886 13.5679 7.87744 13.3512C7.71602 13.14 6.56559 11.6067 6.56559 10.0251C6.56559 8.43798 7.39771 7.66072 7.68913 7.33789C7.98596 7.01506 8.33363 6.93587 8.55029 6.93587Z" fill="#0C1923"/>
</svg>
