<svg width="36" height="26" viewBox="0 0 36 26" fill="none" xmlns="http://www.w3.org/2000/svg">
<path d="M34.6567 4.46875C34.333 2.68188 32.7905 1.38062 31.0005 0.974365C28.3218 0.40625 23.3643 0 18.0005 0C12.6399 0 7.60303 0.40625 4.92114 0.974365C3.13428 1.38062 1.58862 2.59937 1.26489 4.46875C0.937989 6.5 0.614258 9.34375 0.614258 13C0.614258 16.6562 0.937989 19.5 1.34424 21.5312C1.67114 23.3181 3.21362 24.6194 5.00049 25.0256C7.84424 25.5938 12.7192 26 18.083 26C23.4468 26 28.3218 25.5938 31.1655 25.0256C32.9524 24.6194 34.4949 23.4006 34.8218 21.5312C35.1455 19.5 35.5518 16.5737 35.6343 13C35.4692 9.34375 35.063 6.5 34.6567 4.46875ZM13.6143 18.6875V7.3125L23.5261 13L13.6143 18.6875Z" fill="#0C1923"/>
</svg>
