<svg width="560" height="215" viewBox="0 0 560 215" fill="none" xmlns="http://www.w3.org/2000/svg">
<path d="M1.17188 18H5.42969C7.82812 18 9.25 16.8203 9.25 14.8359V14.8203C9.25 13.3281 8.26562 12.2344 6.64062 12.0469V12.0156C7.80469 11.8516 8.67969 10.7188 8.67969 9.55469V9.53906C8.67969 7.85156 7.375 6.72656 5.44531 6.72656H1.17188V18ZM5.125 7.96875C6.48438 7.96875 7.25781 8.57812 7.25781 9.6875V9.70312C7.25781 10.9219 6.35156 11.5859 4.6875 11.5859H2.57812V7.96875H5.125ZM5.08594 12.7969C6.88281 12.7969 7.80469 13.4609 7.80469 14.7656V14.7812C7.80469 16.0781 6.90625 16.7578 5.21875 16.7578H2.57812V12.7969H5.08594ZM13.1641 18.1562C14.25 18.1562 15.2266 17.5703 15.7031 16.6797H15.7344V18H17.0938V12.3828C17.0938 10.7578 15.8906 9.71875 13.9688 9.71875C12.0547 9.71875 10.8906 10.7969 10.7734 12.1328L10.7656 12.2188H12.0781L12.0938 12.1484C12.25 11.4219 12.9062 10.9219 13.9531 10.9219C15.0859 10.9219 15.7344 11.5234 15.7344 12.5156V13.1953L13.4062 13.3281C11.5391 13.4375 10.4609 14.3047 10.4609 15.6875V15.7031C10.4609 17.1797 11.5469 18.1562 13.1641 18.1562ZM11.8516 15.7031V15.6875C11.8516 14.9297 12.4766 14.4453 13.5625 14.3828L15.7344 14.25V14.9141C15.7344 16.0938 14.75 16.9766 13.4688 16.9766C12.4922 16.9766 11.8516 16.4844 11.8516 15.7031ZM18.9688 18H29V9.875H27.6406V16.875H24.6641V9.875H23.3047V16.875H20.3281V9.875H18.9688V18ZM34.2578 18.1562C36.0312 18.1562 37.3594 17.0938 37.625 15.75L37.6406 15.6719H36.3047L36.2812 15.7422C36.0469 16.4375 35.3203 16.9531 34.2891 16.9531C32.8438 16.9531 31.9219 15.9766 31.8906 14.3047H37.7422V13.8047C37.7422 11.3672 36.3906 9.71875 34.1719 9.71875C31.9531 9.71875 30.5156 11.4453 30.5156 13.9609V13.9688C30.5156 16.5234 31.9219 18.1562 34.2578 18.1562ZM34.1641 10.9219C35.3516 10.9219 36.2266 11.6641 36.3594 13.2422H31.9141C32.0625 11.7266 32.9844 10.9219 34.1641 10.9219ZM42.5469 18H43.8906L47.9375 11.9609H48V18H49.3594V9.875H48.0156L43.9688 15.9141H43.9062V9.875H42.5469V18ZM52.625 18V12.2344H52.6797L55.2891 17.7656H56.3281L58.9453 12.2344H59V18H60.3594V9.875H58.7656L55.8672 16.2031H55.8047L52.9297 9.875H51.2656V18H52.625ZM66.8438 18H68.2031V9.875H65.1797C63.3125 9.875 62.1094 10.8984 62.1094 12.5625V12.5781C62.1094 13.6875 62.8047 14.5312 63.9531 14.8594L61.6875 18H63.2578L65.3203 15.1094H66.8438V18ZM65.1875 13.9844C64.1406 13.9844 63.5 13.3906 63.5 12.5547V12.5391C63.5 11.5703 64.1328 11 65.1875 11H66.8438V13.9844H65.1875Z" fill="#B7BCBF"/>
<line y1="33.5" x2="260" y2="33.5" stroke="#BFC7CE"/>
<path d="M1.09375 68H8.07812V66.7344H2.5V62.8594H7.78906V61.6094H2.5V57.9922H8.07812V56.7266H1.09375V68ZM9.72656 68H11.0859V62.9062C11.0859 61.7734 11.8672 60.9219 12.9453 60.9219C13.9531 60.9219 14.6094 61.5703 14.6094 62.5547V68H15.9688V62.8359C15.9688 61.7266 16.7266 60.9219 17.8047 60.9219C18.875 60.9219 19.4922 61.5859 19.4922 62.7031V68H20.8516V62.3906C20.8516 60.7734 19.8125 59.7188 18.2031 59.7188C17.0625 59.7188 16.1094 60.3047 15.6562 61.2812H15.625C15.2734 60.2891 14.4531 59.7188 13.3438 59.7188C12.2969 59.7188 11.4844 60.2578 11.1172 61.0625H11.0859V59.875H9.72656V68ZM24.9609 68.1562C26.0469 68.1562 27.0234 67.5703 27.5 66.6797H27.5312V68H28.8906V62.3828C28.8906 60.7578 27.6875 59.7188 25.7656 59.7188C23.8516 59.7188 22.6875 60.7969 22.5703 62.1328L22.5625 62.2188H23.875L23.8906 62.1484C24.0469 61.4219 24.7031 60.9219 25.75 60.9219C26.8828 60.9219 27.5312 61.5234 27.5312 62.5156V63.1953L25.2031 63.3281C23.3359 63.4375 22.2578 64.3047 22.2578 65.6875V65.7031C22.2578 67.1797 23.3438 68.1562 24.9609 68.1562ZM23.6484 65.7031V65.6875C23.6484 64.9297 24.2734 64.4453 25.3594 64.3828L27.5312 64.25V64.9141C27.5312 66.0938 26.5469 66.9766 25.2656 66.9766C24.2891 66.9766 23.6484 66.4844 23.6484 65.7031ZM31.3828 58.5C31.8594 58.5 32.2344 58.1172 32.2344 57.6484C32.2344 57.1719 31.8594 56.7969 31.3828 56.7969C30.9141 56.7969 30.5312 57.1719 30.5312 57.6484C30.5312 58.1172 30.9141 58.5 31.3828 58.5ZM30.7031 68H32.0625V59.875H30.7031V68ZM33.9844 68H35.3438V56.7266H33.9844V68Z" fill="#B7BCBF"/>
<line y1="83.5" x2="260" y2="83.5" stroke="#BFC7CE"/>
<path d="M4.02344 118H5.42969V107.992H8.98438V106.727H0.46875V107.992H4.02344V118ZM12.4297 118.156C14.2031 118.156 15.5312 117.094 15.7969 115.75L15.8125 115.672H14.4766L14.4531 115.742C14.2188 116.438 13.4922 116.953 12.4609 116.953C11.0156 116.953 10.0938 115.977 10.0625 114.305H15.9141V113.805C15.9141 111.367 14.5625 109.719 12.3438 109.719C10.125 109.719 8.6875 111.445 8.6875 113.961V113.969C8.6875 116.523 10.0938 118.156 12.4297 118.156ZM12.3359 110.922C13.5234 110.922 14.3984 111.664 14.5312 113.242H10.0859C10.2344 111.727 11.1562 110.922 12.3359 110.922ZM19.3828 114.422L19.6406 111H22.7656V118H24.125V109.875H18.4141L18.0938 114.391C17.9844 115.883 17.6875 116.828 16.8203 116.828C16.6094 116.828 16.4609 116.797 16.3906 116.773V118C16.5 118.039 16.7031 118.078 16.9609 118.078C18.6875 118.078 19.2109 116.664 19.3828 114.422ZM29.3984 118.156C31.1719 118.156 32.5 117.094 32.7656 115.75L32.7812 115.672H31.4453L31.4219 115.742C31.1875 116.438 30.4609 116.953 29.4297 116.953C27.9844 116.953 27.0625 115.977 27.0312 114.305H32.8828V113.805C32.8828 111.367 31.5312 109.719 29.3125 109.719C27.0938 109.719 25.6562 111.445 25.6562 113.961V113.969C25.6562 116.523 27.0625 118.156 29.3984 118.156ZM29.3047 110.922C30.4922 110.922 31.3672 111.664 31.5 113.242H27.0547C27.2031 111.727 28.125 110.922 29.3047 110.922ZM38.2188 120.711H39.5312V118.102C42.0469 118.062 43.7266 116.445 43.7266 113.945V113.93C43.7266 111.43 42.0469 109.82 39.5312 109.773V107.203H38.2188V109.773C35.6875 109.812 34.0156 111.43 34.0156 113.93V113.945C34.0156 116.445 35.6875 118.055 38.2188 118.102V120.711ZM38.2188 116.938C36.4844 116.891 35.3828 115.766 35.3828 113.945V113.93C35.3828 112.102 36.4844 110.977 38.2188 110.938V116.938ZM39.5312 116.938V110.938C41.2578 110.984 42.3594 112.109 42.3594 113.93V113.945C42.3594 115.773 41.2578 116.898 39.5312 116.938ZM48.625 118.156C50.8672 118.156 52.3828 116.531 52.3828 113.938V113.922C52.3828 111.328 50.8594 109.719 48.6172 109.719C46.375 109.719 44.8594 111.336 44.8594 113.922V113.938C44.8594 116.523 46.3672 118.156 48.625 118.156ZM48.6328 116.953C47.1953 116.953 46.25 115.852 46.25 113.938V113.922C46.25 112.023 47.2031 110.922 48.6172 110.922C50.0547 110.922 50.9922 112.016 50.9922 113.922V113.938C50.9922 115.844 50.0625 116.953 48.6328 116.953ZM59.2422 118H60.6016V109.875H59.2422V113.227H55.2656V109.875H53.9062V118H55.2656V114.352H59.2422V118ZM67.8516 118H69.2109V109.875H67.8516V113.227H63.875V109.875H62.5156V118H63.875V114.352H67.8516V118ZM71.125 118H74.0078C75.8672 118 77.0625 116.93 77.0625 115.242V115.227C77.0625 113.539 75.8672 112.469 74.0078 112.469H72.4844V109.875H71.125V118ZM78.0938 118H79.4531V109.875H78.0938V118ZM73.9844 113.594C75.0156 113.594 75.6719 114.234 75.6719 115.227V115.242C75.6719 116.227 75.0234 116.875 73.9844 116.875H72.4844V113.594H73.9844ZM84.8594 108.953C86.3672 108.953 87.25 107.977 87.25 106.742V106.719H86.1328V106.758C86.1328 107.453 85.6797 108.047 84.8672 108.047C84.0234 108.047 83.6016 107.453 83.6016 106.758V106.719H82.4844V106.742C82.4844 107.977 83.3672 108.953 84.8594 108.953ZM81.3594 118H82.7031L86.75 111.961H86.8125V118H88.1719V109.875H86.8281L82.7812 115.914H82.7188V109.875H81.3594V118ZM98.6953 118H100.055V109.875H98.6953V113.227H94.7188V109.875H93.3594V118H94.7188V114.352H98.6953V118ZM105.344 118.156C107.586 118.156 109.102 116.531 109.102 113.938V113.922C109.102 111.328 107.578 109.719 105.336 109.719C103.094 109.719 101.578 111.336 101.578 113.922V113.938C101.578 116.523 103.086 118.156 105.344 118.156ZM105.352 116.953C103.914 116.953 102.969 115.852 102.969 113.938V113.922C102.969 112.023 103.922 110.922 105.336 110.922C106.773 110.922 107.711 112.016 107.711 113.922V113.938C107.711 115.844 106.781 116.953 105.352 116.953ZM111.984 118V112.234H112.039L114.648 117.766H115.688L118.305 112.234H118.359V118H119.719V109.875H118.125L115.227 116.203H115.164L112.289 109.875H110.625V118H111.984ZM124.977 118.156C126.75 118.156 128.078 117.094 128.344 115.75L128.359 115.672H127.023L127 115.742C126.766 116.438 126.039 116.953 125.008 116.953C123.562 116.953 122.641 115.977 122.609 114.305H128.461V113.805C128.461 111.367 127.109 109.719 124.891 109.719C122.672 109.719 121.234 111.445 121.234 113.961V113.969C121.234 116.523 122.641 118.156 124.977 118.156ZM124.883 110.922C126.07 110.922 126.945 111.664 127.078 113.242H122.633C122.781 111.727 123.703 110.922 124.883 110.922ZM129.992 120.734H131.352V116.641H131.383C131.891 117.578 132.836 118.156 133.984 118.156C136.023 118.156 137.414 116.508 137.414 113.945V113.938C137.414 111.375 136.039 109.719 133.961 109.719C132.797 109.719 131.891 110.305 131.383 111.25H131.352V109.875H129.992V120.734ZM133.695 116.953C132.328 116.953 131.344 115.758 131.344 113.945V113.938C131.344 112.117 132.32 110.922 133.695 110.922C135.133 110.922 136.023 112.07 136.023 113.938V113.945C136.023 115.797 135.133 116.953 133.695 116.953Z" fill="#B7BCBF"/>
<line y1="133.5" x2="260" y2="133.5" stroke="#BFC7CE"/>
<rect y="164" width="113" height="51" rx="5" fill="white"/>
<path d="M27.2363 194.164C30.0869 194.164 31.8574 192.202 31.8574 189.071V189.058C31.8574 185.934 30.0801 183.972 27.2363 183.972C24.3994 183.972 22.6152 185.927 22.6152 189.058V189.071C22.6152 192.209 24.3926 194.164 27.2363 194.164ZM27.2363 192.811C25.3633 192.811 24.1738 191.368 24.1738 189.071V189.058C24.1738 186.761 25.3701 185.325 27.2363 185.325C29.1094 185.325 30.292 186.768 30.292 189.058V189.071C30.292 191.348 29.1299 192.811 27.2363 192.811ZM38.7344 186.809H32.7529V187.984H35.002V194H36.4854V187.984H38.7344V186.809ZM39.8145 194H41.291V187.984H44.4629V194H45.9463V186.809H39.8145V194ZM47.5391 196.393H49.0156V192.79H49.0498C49.4736 193.624 50.3008 194.144 51.3193 194.144C53.124 194.144 54.3066 192.701 54.3066 190.411V190.404C54.3066 188.107 53.1309 186.672 51.2988 186.672C50.2734 186.672 49.4805 187.191 49.0498 188.046H49.0156V186.809H47.5391V196.393ZM50.916 192.872C49.8018 192.872 49.0088 191.901 49.0088 190.411V190.404C49.0088 188.907 49.7949 187.937 50.916 187.937C52.0781 187.937 52.8027 188.873 52.8027 190.404V190.411C52.8027 191.929 52.0781 192.872 50.916 192.872ZM57.6904 194.13C58.6475 194.13 59.4746 193.638 59.8916 192.865H59.9258V194H61.4023V189.044C61.4023 187.602 60.2881 186.672 58.5312 186.672C56.7607 186.672 55.6875 187.622 55.585 188.859L55.5781 188.935H56.9727L56.9863 188.873C57.1094 188.299 57.6357 187.896 58.4902 187.896C59.4062 187.896 59.9258 188.374 59.9258 189.167V189.707L57.9639 189.823C56.2617 189.926 55.291 190.691 55.291 191.942V191.956C55.291 193.248 56.2549 194.13 57.6904 194.13ZM56.7812 191.922V191.908C56.7812 191.3 57.2734 190.91 58.1621 190.855L59.9258 190.746V191.307C59.9258 192.243 59.1328 192.947 58.0938 192.947C57.3008 192.947 56.7812 192.551 56.7812 191.922ZM62.9609 194H66.2695C67.8281 194 68.7988 193.193 68.7988 191.936V191.922C68.7988 191.04 68.1836 190.397 67.2539 190.274V190.22C67.9443 190.09 68.4775 189.413 68.4775 188.668V188.654C68.4775 187.513 67.6299 186.809 66.2285 186.809H62.9609V194ZM64.4238 189.775V187.902H65.9209C66.6318 187.902 67.0146 188.224 67.0146 188.818V188.832C67.0146 189.468 66.6045 189.775 65.7705 189.775H64.4238ZM64.4238 192.906V190.849H65.8252C66.7959 190.849 67.2812 191.17 67.2812 191.86V191.874C67.2812 192.558 66.8301 192.906 65.9961 192.906H64.4238ZM70.1113 194H71.5674L74.8691 188.948H74.9307V194H76.4004V186.809H74.9443L71.6426 191.84H71.5742V186.809H70.1113V194ZM83.4551 186.809H77.4736V187.984H79.7227V194H81.2061V187.984H83.4551V186.809ZM84.5352 194H87.3789C89.04 194 90.1133 193.036 90.1133 191.519V191.505C90.1133 189.994 89.04 189.03 87.3789 189.03H86.0117V186.809H84.5352V194ZM87.2354 190.199C88.0693 190.199 88.6025 190.712 88.6025 191.505V191.519C88.6025 192.312 88.0762 192.831 87.2354 192.831H86.0117V190.199H87.2354Z" fill="#0C1923"/>
<path d="M304.023 18H305.43V7.99219H308.984V6.72656H300.469V7.99219H304.023V18ZM312.43 18.1562C314.203 18.1562 315.531 17.0938 315.797 15.75L315.812 15.6719H314.477L314.453 15.7422C314.219 16.4375 313.492 16.9531 312.461 16.9531C311.016 16.9531 310.094 15.9766 310.062 14.3047H315.914V13.8047C315.914 11.3672 314.562 9.71875 312.344 9.71875C310.125 9.71875 308.688 11.4453 308.688 13.9609V13.9688C308.688 16.5234 310.094 18.1562 312.43 18.1562ZM312.336 10.9219C313.523 10.9219 314.398 11.6641 314.531 13.2422H310.086C310.234 11.7266 311.156 10.9219 312.336 10.9219ZM318.797 18V12.2344H318.852L321.461 17.7656H322.5L325.117 12.2344H325.172V18H326.531V9.875H324.938L322.039 16.2031H321.977L319.102 9.875H317.438V18H318.797ZM330.82 18.1562C331.906 18.1562 332.883 17.5703 333.359 16.6797H333.391V18H334.75V12.3828C334.75 10.7578 333.547 9.71875 331.625 9.71875C329.711 9.71875 328.547 10.7969 328.43 12.1328L328.422 12.2188H329.734L329.75 12.1484C329.906 11.4219 330.562 10.9219 331.609 10.9219C332.742 10.9219 333.391 11.5234 333.391 12.5156V13.1953L331.062 13.3281C329.195 13.4375 328.117 14.3047 328.117 15.6875V15.7031C328.117 17.1797 329.203 18.1562 330.82 18.1562ZM329.508 15.7031V15.6875C329.508 14.9297 330.133 14.4453 331.219 14.3828L333.391 14.25V14.9141C333.391 16.0938 332.406 16.9766 331.125 16.9766C330.148 16.9766 329.508 16.4844 329.508 15.7031Z" fill="#B7BCBF"/>
<line x1="300" y1="33.5" x2="560" y2="33.5" stroke="#BFC7CE"/>
<path d="M305.883 68.1875C308.242 68.1875 310.047 66.7891 310.477 64.6328L310.492 64.5547H309.07L309.047 64.625C308.555 66.1094 307.461 66.8906 305.883 66.8906C303.641 66.8906 302.18 65.1016 302.18 62.3594V62.3516C302.18 59.6094 303.633 57.8359 305.883 57.8359C307.469 57.8359 308.578 58.6328 309.016 60L309.07 60.1719H310.492L310.477 60.0938C310.047 57.9609 308.227 56.5391 305.883 56.5391C302.742 56.5391 300.734 58.8047 300.734 62.3516V62.3594C300.734 65.9062 302.75 68.1875 305.883 68.1875ZM315.469 68.1562C317.711 68.1562 319.227 66.5312 319.227 63.9375V63.9219C319.227 61.3281 317.703 59.7188 315.461 59.7188C313.219 59.7188 311.703 61.3359 311.703 63.9219V63.9375C311.703 66.5234 313.211 68.1562 315.469 68.1562ZM315.477 66.9531C314.039 66.9531 313.094 65.8516 313.094 63.9375V63.9219C313.094 62.0234 314.047 60.9219 315.461 60.9219C316.898 60.9219 317.836 62.0156 317.836 63.9219V63.9375C317.836 65.8438 316.906 66.9531 315.477 66.9531ZM324.125 68.1562C326.367 68.1562 327.883 66.5312 327.883 63.9375V63.9219C327.883 61.3281 326.359 59.7188 324.117 59.7188C321.875 59.7188 320.359 61.3359 320.359 63.9219V63.9375C320.359 66.5234 321.867 68.1562 324.125 68.1562ZM324.133 66.9531C322.695 66.9531 321.75 65.8516 321.75 63.9375V63.9219C321.75 62.0234 322.703 60.9219 324.117 60.9219C325.555 60.9219 326.492 62.0156 326.492 63.9219V63.9375C326.492 65.8438 325.562 66.9531 324.133 66.9531ZM332.891 68.1562C335.242 68.1562 336.688 66.5781 336.688 64.0234V64.0078C336.688 61.5938 335.289 60.0469 333.094 60.0469C331.828 60.0469 330.805 60.5469 330.266 61.5078H330.234L330.25 61.3984C330.586 59.0469 331.266 58.0859 333.492 58L334.094 57.9766C335.031 57.9375 335.891 57.7344 336.148 57.5V56.3125C335.688 56.5547 334.812 56.7188 334.031 56.75L333.43 56.7734C330.273 56.8984 329.086 58.7578 329.086 63.2344V63.25C329.086 66.4766 330.398 68.1562 332.891 68.1562ZM332.891 66.9531C331.359 66.9531 330.477 65.8906 330.477 64.0234V64.0078C330.477 62.2422 331.359 61.25 332.891 61.25C334.414 61.25 335.297 62.2422 335.297 64.0078V64.0234C335.297 65.8906 334.414 66.9531 332.891 66.9531ZM338.203 68H348.266V70.2266H349.5V66.875H348.234V59.875H346.875V66.875H343.898V59.875H342.539V66.875H339.562V59.875H338.203V68ZM354.07 68.1562C355.844 68.1562 357.172 67.0938 357.438 65.75L357.453 65.6719H356.117L356.094 65.7422C355.859 66.4375 355.133 66.9531 354.102 66.9531C352.656 66.9531 351.734 65.9766 351.703 64.3047H357.555V63.8047C357.555 61.3672 356.203 59.7188 353.984 59.7188C351.766 59.7188 350.328 61.4453 350.328 63.9609V63.9688C350.328 66.5234 351.734 68.1562 354.07 68.1562ZM353.977 60.9219C355.164 60.9219 356.039 61.6641 356.172 63.2422H351.727C351.875 61.7266 352.797 60.9219 353.977 60.9219ZM364.414 68H365.773V59.875H364.414V63.2266H360.438V59.875H359.078V68H360.438V64.3516H364.414V68ZM367.688 68H369.031L373.078 61.9609H373.141V68H374.5V59.875H373.156L369.109 65.9141H369.047V59.875H367.688V68ZM379.758 68.1562C381.531 68.1562 382.859 67.0938 383.125 65.75L383.141 65.6719H381.805L381.781 65.7422C381.547 66.4375 380.82 66.9531 379.789 66.9531C378.344 66.9531 377.422 65.9766 377.391 64.3047H383.242V63.8047C383.242 61.3672 381.891 59.7188 379.672 59.7188C377.453 59.7188 376.016 61.4453 376.016 63.9609V63.9688C376.016 66.5234 377.422 68.1562 379.758 68.1562ZM379.664 60.9219C380.852 60.9219 381.727 61.6641 381.859 63.2422H377.414C377.562 61.7266 378.484 60.9219 379.664 60.9219Z" fill="#B7BCBF"/>
<line x1="300" y1="133.5" x2="560" y2="133.5" stroke="#BFC7CE"/>
</svg>
