<svg width="360" height="361" viewBox="0 0 360 361" fill="none" xmlns="http://www.w3.org/2000/svg">
<rect x="0.5" y="0.5" width="359" height="360" fill="white"/>
<path d="M38.9766 67.2812C43.8633 67.2812 46.8984 63.918 46.8984 58.5508V58.5273C46.8984 53.1719 43.8516 49.8086 38.9766 49.8086C34.1133 49.8086 31.0547 53.1602 31.0547 58.5273V58.5508C31.0547 63.9297 34.1016 67.2812 38.9766 67.2812ZM38.9766 64.9609C35.7656 64.9609 33.7266 62.4883 33.7266 58.5508V58.5273C33.7266 54.5898 35.7773 52.1289 38.9766 52.1289C42.1875 52.1289 44.2148 54.6016 44.2148 58.5273V58.5508C44.2148 62.4531 42.2227 64.9609 38.9766 64.9609ZM54.6094 67.2461C57.5742 67.2461 59.6367 65.3477 59.9062 62.875L59.918 62.793H57.4922L57.4688 62.8867C57.1641 64.2227 56.1797 65.125 54.6211 65.125C52.6523 65.125 51.3516 63.543 51.3516 60.8477V60.8359C51.3516 58.1992 52.6289 56.5586 54.5977 56.5586C56.25 56.5586 57.1875 57.5781 57.457 58.7852L57.4805 58.8789H59.8945L59.8828 58.7969C59.6719 56.4766 57.75 54.4375 54.5859 54.4375C51.0586 54.4375 48.7617 56.9102 48.7617 60.8125V60.8242C48.7617 64.7734 51.0117 67.2461 54.6094 67.2461ZM71.0391 54.6719H60.7852V56.6875H64.6406V67H67.1836V56.6875H71.0391V54.6719ZM76.1133 67.2227C77.7539 67.2227 79.1719 66.3789 79.8867 65.0547H79.9453V67H82.4766V58.5039C82.4766 56.0312 80.5664 54.4375 77.5547 54.4375C74.5195 54.4375 72.6797 56.0664 72.5039 58.1875L72.4922 58.3164H74.8828L74.9062 58.2109C75.1172 57.2266 76.0195 56.5352 77.4844 56.5352C79.0547 56.5352 79.9453 57.3555 79.9453 58.7148V59.6406L76.582 59.8398C73.6641 60.0156 72 61.3281 72 63.4727V63.4961C72 65.7109 73.6523 67.2227 76.1133 67.2227ZM74.5547 63.4375V63.4141C74.5547 62.3711 75.3984 61.7031 76.9219 61.6094L79.9453 61.4219V62.3828C79.9453 63.9883 78.5859 65.1953 76.8047 65.1953C75.4453 65.1953 74.5547 64.5156 74.5547 63.4375ZM85.1484 67H90.8203C93.4922 67 95.1562 65.6172 95.1562 63.4609V63.4375C95.1562 61.9258 94.1016 60.8242 92.5078 60.6133V60.5195C93.6914 60.2969 94.6055 59.1367 94.6055 57.8594V57.8359C94.6055 55.8789 93.1523 54.6719 90.75 54.6719H85.1484V67ZM87.6562 59.7578V56.5469H90.2227C91.4414 56.5469 92.0977 57.0977 92.0977 58.1172V58.1406C92.0977 59.2305 91.3945 59.7578 89.9648 59.7578H87.6562ZM87.6562 65.125V61.5977H90.0586C91.7227 61.5977 92.5547 62.1484 92.5547 63.332V63.3555C92.5547 64.5273 91.7812 65.125 90.3516 65.125H87.6562ZM97.4062 67H102.281C105.129 67 106.969 65.3477 106.969 62.7461V62.7227C106.969 60.1328 105.129 58.4805 102.281 58.4805H99.9375V54.6719H97.4062V67ZM102.035 60.4844C103.465 60.4844 104.379 61.3633 104.379 62.7227V62.7461C104.379 64.1055 103.477 64.9961 102.035 64.9961H99.9375V60.4844H102.035ZM117.281 54.6719H107.027V56.6875H110.883V67H113.426V56.6875H117.281V54.6719ZM124.16 67.2461C127.148 67.2461 129.059 65.4648 129.445 63.5078L129.48 63.3789H127.066L127.031 63.4727C126.715 64.3984 125.719 65.1719 124.219 65.1719C122.203 65.1719 120.926 63.8125 120.879 61.4805H129.609V60.625C129.609 56.9219 127.488 54.4375 124.031 54.4375C120.574 54.4375 118.348 57.0156 118.348 60.8711V60.8828C118.348 64.7734 120.539 67.2461 124.16 67.2461ZM124.043 56.5117C125.695 56.5117 126.902 57.5547 127.102 59.6875H120.914C121.148 57.625 122.402 56.5117 124.043 56.5117ZM141.105 67.2461C144.129 67.2461 146.133 65.7109 146.133 63.4141V63.3906C146.133 61.9492 145.242 60.9648 143.613 60.6367V60.543C144.938 60.2383 145.793 59.1953 145.793 57.8711V57.8477C145.793 55.7383 144.059 54.4375 141.223 54.4375C138.445 54.4375 136.629 55.75 136.336 57.9414L136.324 58.0352H138.738L138.75 57.9531C138.938 57.0156 139.863 56.4414 141.188 56.4414C142.523 56.4414 143.32 57.0625 143.32 58.1172V58.1406C143.32 59.2422 142.559 59.8047 141.07 59.8047H139.301V61.6445H141.082C142.793 61.6445 143.613 62.207 143.613 63.3906V63.4141C143.613 64.5391 142.652 65.2305 141.094 65.2305C139.699 65.2305 138.785 64.6914 138.504 63.6953L138.469 63.5781H135.984L135.996 63.6836C136.242 65.8633 138.223 67.2461 141.105 67.2461ZM151.98 67.2227C153.621 67.2227 155.039 66.3789 155.754 65.0547H155.812V67H158.344V58.5039C158.344 56.0312 156.434 54.4375 153.422 54.4375C150.387 54.4375 148.547 56.0664 148.371 58.1875L148.359 58.3164H150.75L150.773 58.2109C150.984 57.2266 151.887 56.5352 153.352 56.5352C154.922 56.5352 155.812 57.3555 155.812 58.7148V59.6406L152.449 59.8398C149.531 60.0156 147.867 61.3281 147.867 63.4727V63.4961C147.867 65.7109 149.52 67.2227 151.98 67.2227ZM150.422 63.4375V63.4141C150.422 62.3711 151.266 61.7031 152.789 61.6094L155.812 61.4219V62.3828C155.812 63.9883 154.453 65.1953 152.672 65.1953C151.312 65.1953 150.422 64.5156 150.422 63.4375ZM168.047 67H170.566V54.6719H165.562C162.68 54.6719 160.805 56.2656 160.805 58.8203V58.8438C160.805 60.5547 161.859 61.832 163.57 62.3359L160.207 67H163.09L166.066 62.7695H168.047V67ZM165.691 60.8125C164.262 60.8125 163.371 59.9922 163.371 58.832V58.8086C163.371 57.4727 164.25 56.6758 165.691 56.6758H168.047V60.8125H165.691ZM173.273 67H178.945C181.617 67 183.281 65.6172 183.281 63.4609V63.4375C183.281 61.9258 182.227 60.8242 180.633 60.6133V60.5195C181.816 60.2969 182.73 59.1367 182.73 57.8594V57.8359C182.73 55.8789 181.277 54.6719 178.875 54.6719H173.273V67ZM175.781 59.7578V56.5469H178.348C179.566 56.5469 180.223 57.0977 180.223 58.1172V58.1406C180.223 59.2305 179.52 59.7578 178.09 59.7578H175.781ZM175.781 65.125V61.5977H178.184C179.848 61.5977 180.68 62.1484 180.68 63.332V63.3555C180.68 64.5273 179.906 65.125 178.477 65.125H175.781ZM188.508 61.5039L193.043 67H196.172L190.77 60.4609L195.961 54.6719H192.973L188.508 59.7578H188.062V54.6719H185.531V67H188.062V61.5039H188.508ZM199.031 71.1133C201.445 71.1133 202.734 70.1289 203.648 67.5742L208.242 54.6719H205.57L202.465 64.7031H202.383L199.277 54.6719H196.535L201.023 67.0117L200.812 67.5977C200.391 68.793 199.734 69.1094 198.539 69.1094C198.199 69.1094 197.906 69.0625 197.707 69.0156V70.9961C198.012 71.0547 198.539 71.1133 199.031 71.1133Z" fill="#0C1923"/>
<path d="M31.1719 124H35.4297C37.8281 124 39.25 122.82 39.25 120.836V120.82C39.25 119.328 38.2656 118.234 36.6406 118.047V118.016C37.8047 117.852 38.6797 116.719 38.6797 115.555V115.539C38.6797 113.852 37.375 112.727 35.4453 112.727H31.1719V124ZM35.125 113.969C36.4844 113.969 37.2578 114.578 37.2578 115.688V115.703C37.2578 116.922 36.3516 117.586 34.6875 117.586H32.5781V113.969H35.125ZM35.0859 118.797C36.8828 118.797 37.8047 119.461 37.8047 120.766V120.781C37.8047 122.078 36.9062 122.758 35.2188 122.758H32.5781V118.797H35.0859ZM43.1641 124.156C44.25 124.156 45.2266 123.57 45.7031 122.68H45.7344V124H47.0938V118.383C47.0938 116.758 45.8906 115.719 43.9688 115.719C42.0547 115.719 40.8906 116.797 40.7734 118.133L40.7656 118.219H42.0781L42.0938 118.148C42.25 117.422 42.9062 116.922 43.9531 116.922C45.0859 116.922 45.7344 117.523 45.7344 118.516V119.195L43.4062 119.328C41.5391 119.438 40.4609 120.305 40.4609 121.688V121.703C40.4609 123.18 41.5469 124.156 43.1641 124.156ZM41.8516 121.703V121.688C41.8516 120.93 42.4766 120.445 43.5625 120.383L45.7344 120.25V120.914C45.7344 122.094 44.75 122.977 43.4688 122.977C42.4922 122.977 41.8516 122.484 41.8516 121.703ZM48.9688 124H59V115.875H57.6406V122.875H54.6641V115.875H53.3047V122.875H50.3281V115.875H48.9688V124ZM64.2578 124.156C66.0312 124.156 67.3594 123.094 67.625 121.75L67.6406 121.672H66.3047L66.2812 121.742C66.0469 122.438 65.3203 122.953 64.2891 122.953C62.8438 122.953 61.9219 121.977 61.8906 120.305H67.7422V119.805C67.7422 117.367 66.3906 115.719 64.1719 115.719C61.9531 115.719 60.5156 117.445 60.5156 119.961V119.969C60.5156 122.523 61.9219 124.156 64.2578 124.156ZM64.1641 116.922C65.3516 116.922 66.2266 117.664 66.3594 119.242H61.9141C62.0625 117.727 62.9844 116.922 64.1641 116.922ZM72.5469 124H73.8906L77.9375 117.961H78V124H79.3594V115.875H78.0156L73.9688 121.914H73.9062V115.875H72.5469V124ZM82.625 124V118.234H82.6797L85.2891 123.766H86.3281L88.9453 118.234H89V124H90.3594V115.875H88.7656L85.8672 122.203H85.8047L82.9297 115.875H81.2656V124H82.625ZM96.8438 124H98.2031V115.875H95.1797C93.3125 115.875 92.1094 116.898 92.1094 118.562V118.578C92.1094 119.688 92.8047 120.531 93.9531 120.859L91.6875 124H93.2578L95.3203 121.109H96.8438V124ZM95.1875 119.984C94.1406 119.984 93.5 119.391 93.5 118.555V118.539C93.5 117.57 94.1328 117 95.1875 117H96.8438V119.984H95.1875Z" fill="#64717B"/>
<line x1="30" y1="139.5" x2="330" y2="139.5" stroke="#BFC7CE"/>
<path d="M31.0938 174H38.0781V172.734H32.5V168.859H37.7891V167.609H32.5V163.992H38.0781V162.727H31.0938V174ZM39.7266 174H41.0859V168.906C41.0859 167.773 41.8672 166.922 42.9453 166.922C43.9531 166.922 44.6094 167.57 44.6094 168.555V174H45.9688V168.836C45.9688 167.727 46.7266 166.922 47.8047 166.922C48.875 166.922 49.4922 167.586 49.4922 168.703V174H50.8516V168.391C50.8516 166.773 49.8125 165.719 48.2031 165.719C47.0625 165.719 46.1094 166.305 45.6562 167.281H45.625C45.2734 166.289 44.4531 165.719 43.3438 165.719C42.2969 165.719 41.4844 166.258 41.1172 167.062H41.0859V165.875H39.7266V174ZM54.9609 174.156C56.0469 174.156 57.0234 173.57 57.5 172.68H57.5312V174H58.8906V168.383C58.8906 166.758 57.6875 165.719 55.7656 165.719C53.8516 165.719 52.6875 166.797 52.5703 168.133L52.5625 168.219H53.875L53.8906 168.148C54.0469 167.422 54.7031 166.922 55.75 166.922C56.8828 166.922 57.5312 167.523 57.5312 168.516V169.195L55.2031 169.328C53.3359 169.438 52.2578 170.305 52.2578 171.688V171.703C52.2578 173.18 53.3438 174.156 54.9609 174.156ZM53.6484 171.703V171.688C53.6484 170.93 54.2734 170.445 55.3594 170.383L57.5312 170.25V170.914C57.5312 172.094 56.5469 172.977 55.2656 172.977C54.2891 172.977 53.6484 172.484 53.6484 171.703ZM61.3828 164.5C61.8594 164.5 62.2344 164.117 62.2344 163.648C62.2344 163.172 61.8594 162.797 61.3828 162.797C60.9141 162.797 60.5312 163.172 60.5312 163.648C60.5312 164.117 60.9141 164.5 61.3828 164.5ZM60.7031 174H62.0625V165.875H60.7031V174ZM63.9844 174H65.3438V162.727H63.9844V174Z" fill="#64717B"/>
<line x1="30" y1="189.5" x2="330" y2="189.5" stroke="#BFC7CE"/>
<path d="M34.0234 224H35.4297V213.992H38.9844V212.727H30.4688V213.992H34.0234V224ZM42.4297 224.156C44.2031 224.156 45.5312 223.094 45.7969 221.75L45.8125 221.672H44.4766L44.4531 221.742C44.2188 222.438 43.4922 222.953 42.4609 222.953C41.0156 222.953 40.0938 221.977 40.0625 220.305H45.9141V219.805C45.9141 217.367 44.5625 215.719 42.3438 215.719C40.125 215.719 38.6875 217.445 38.6875 219.961V219.969C38.6875 222.523 40.0938 224.156 42.4297 224.156ZM42.3359 216.922C43.5234 216.922 44.3984 217.664 44.5312 219.242H40.0859C40.2344 217.727 41.1562 216.922 42.3359 216.922ZM49.3828 220.422L49.6406 217H52.7656V224H54.125V215.875H48.4141L48.0938 220.391C47.9844 221.883 47.6875 222.828 46.8203 222.828C46.6094 222.828 46.4609 222.797 46.3906 222.773V224C46.5 224.039 46.7031 224.078 46.9609 224.078C48.6875 224.078 49.2109 222.664 49.3828 220.422ZM59.3984 224.156C61.1719 224.156 62.5 223.094 62.7656 221.75L62.7812 221.672H61.4453L61.4219 221.742C61.1875 222.438 60.4609 222.953 59.4297 222.953C57.9844 222.953 57.0625 221.977 57.0312 220.305H62.8828V219.805C62.8828 217.367 61.5312 215.719 59.3125 215.719C57.0938 215.719 55.6562 217.445 55.6562 219.961V219.969C55.6562 222.523 57.0625 224.156 59.3984 224.156ZM59.3047 216.922C60.4922 216.922 61.3672 217.664 61.5 219.242H57.0547C57.2031 217.727 58.125 216.922 59.3047 216.922ZM68.2188 226.711H69.5312V224.102C72.0469 224.062 73.7266 222.445 73.7266 219.945V219.93C73.7266 217.43 72.0469 215.82 69.5312 215.773V213.203H68.2188V215.773C65.6875 215.812 64.0156 217.43 64.0156 219.93V219.945C64.0156 222.445 65.6875 224.055 68.2188 224.102V226.711ZM68.2188 222.938C66.4844 222.891 65.3828 221.766 65.3828 219.945V219.93C65.3828 218.102 66.4844 216.977 68.2188 216.938V222.938ZM69.5312 222.938V216.938C71.2578 216.984 72.3594 218.109 72.3594 219.93V219.945C72.3594 221.773 71.2578 222.898 69.5312 222.938ZM78.625 224.156C80.8672 224.156 82.3828 222.531 82.3828 219.938V219.922C82.3828 217.328 80.8594 215.719 78.6172 215.719C76.375 215.719 74.8594 217.336 74.8594 219.922V219.938C74.8594 222.523 76.3672 224.156 78.625 224.156ZM78.6328 222.953C77.1953 222.953 76.25 221.852 76.25 219.938V219.922C76.25 218.023 77.2031 216.922 78.6172 216.922C80.0547 216.922 80.9922 218.016 80.9922 219.922V219.938C80.9922 221.844 80.0625 222.953 78.6328 222.953ZM89.2422 224H90.6016V215.875H89.2422V219.227H85.2656V215.875H83.9062V224H85.2656V220.352H89.2422V224ZM97.8516 224H99.2109V215.875H97.8516V219.227H93.875V215.875H92.5156V224H93.875V220.352H97.8516V224ZM101.125 224H104.008C105.867 224 107.062 222.93 107.062 221.242V221.227C107.062 219.539 105.867 218.469 104.008 218.469H102.484V215.875H101.125V224ZM108.094 224H109.453V215.875H108.094V224ZM103.984 219.594C105.016 219.594 105.672 220.234 105.672 221.227V221.242C105.672 222.227 105.023 222.875 103.984 222.875H102.484V219.594H103.984ZM114.859 214.953C116.367 214.953 117.25 213.977 117.25 212.742V212.719H116.133V212.758C116.133 213.453 115.68 214.047 114.867 214.047C114.023 214.047 113.602 213.453 113.602 212.758V212.719H112.484V212.742C112.484 213.977 113.367 214.953 114.859 214.953ZM111.359 224H112.703L116.75 217.961H116.812V224H118.172V215.875H116.828L112.781 221.914H112.719V215.875H111.359V224ZM128.695 224H130.055V215.875H128.695V219.227H124.719V215.875H123.359V224H124.719V220.352H128.695V224ZM135.344 224.156C137.586 224.156 139.102 222.531 139.102 219.938V219.922C139.102 217.328 137.578 215.719 135.336 215.719C133.094 215.719 131.578 217.336 131.578 219.922V219.938C131.578 222.523 133.086 224.156 135.344 224.156ZM135.352 222.953C133.914 222.953 132.969 221.852 132.969 219.938V219.922C132.969 218.023 133.922 216.922 135.336 216.922C136.773 216.922 137.711 218.016 137.711 219.922V219.938C137.711 221.844 136.781 222.953 135.352 222.953ZM141.984 224V218.234H142.039L144.648 223.766H145.688L148.305 218.234H148.359V224H149.719V215.875H148.125L145.227 222.203H145.164L142.289 215.875H140.625V224H141.984ZM154.977 224.156C156.75 224.156 158.078 223.094 158.344 221.75L158.359 221.672H157.023L157 221.742C156.766 222.438 156.039 222.953 155.008 222.953C153.562 222.953 152.641 221.977 152.609 220.305H158.461V219.805C158.461 217.367 157.109 215.719 154.891 215.719C152.672 215.719 151.234 217.445 151.234 219.961V219.969C151.234 222.523 152.641 224.156 154.977 224.156ZM154.883 216.922C156.07 216.922 156.945 217.664 157.078 219.242H152.633C152.781 217.727 153.703 216.922 154.883 216.922ZM159.992 226.734H161.352V222.641H161.383C161.891 223.578 162.836 224.156 163.984 224.156C166.023 224.156 167.414 222.508 167.414 219.945V219.938C167.414 217.375 166.039 215.719 163.961 215.719C162.797 215.719 161.891 216.305 161.383 217.25H161.352V215.875H159.992V226.734ZM163.695 222.953C162.328 222.953 161.344 221.758 161.344 219.945V219.938C161.344 218.117 162.32 216.922 163.695 216.922C165.133 216.922 166.023 218.07 166.023 219.938V219.945C166.023 221.797 165.133 222.953 163.695 222.953Z" fill="#64717B"/>
<line x1="30" y1="239.5" x2="330" y2="239.5" stroke="#BFC7CE"/>
<rect x="30" y="270" width="113" height="51" rx="5" fill="#0C1923"/>
<path d="M57.2432 289.972C54.3994 289.972 52.6221 291.934 52.6221 295.071C52.6221 298.209 54.3994 300.164 57.2432 300.164C60.0801 300.164 61.8643 298.209 61.8643 295.071C61.8643 291.934 60.0801 289.972 57.2432 289.972ZM57.2432 291.318C59.1162 291.318 60.292 292.768 60.292 295.071C60.292 297.368 59.1162 298.817 57.2432 298.817C55.3701 298.817 54.1875 297.368 54.1875 295.071C54.1875 292.768 55.3701 291.318 57.2432 291.318ZM68.748 292.809H62.7666V293.978H65.0225V300H66.4922V293.978H68.748V292.809ZM74.4834 300H75.96V292.809H69.8281V300H71.2979V293.978H74.4834V300ZM81.3057 292.692C80.2666 292.692 79.4395 293.219 79.0156 294.046H78.9883V292.809H77.5596V302.379H79.0361V298.817H79.0703C79.4805 299.617 80.3008 300.123 81.333 300.123C83.1377 300.123 84.334 298.681 84.334 296.404C84.334 294.128 83.1309 292.692 81.3057 292.692ZM80.916 298.872C79.7812 298.872 79.0293 297.901 79.0293 296.404C79.0293 294.921 79.7881 293.937 80.916 293.937C82.085 293.937 82.8164 294.9 82.8164 296.404C82.8164 297.915 82.085 298.872 80.916 298.872ZM88.1279 298.954C87.335 298.954 86.8154 298.544 86.8154 297.915C86.8154 297.3 87.3145 296.91 88.1963 296.849L89.9668 296.739V297.307C89.9668 298.243 89.1602 298.954 88.1279 298.954ZM87.7178 300.123C88.6611 300.123 89.5703 299.617 89.9873 298.817H90.0215V300H91.4365V295.044C91.4365 293.602 90.3223 292.679 88.5791 292.679C86.8018 292.679 85.6943 293.636 85.6123 294.935H87.0068C87.1367 294.292 87.6699 293.882 88.5244 293.882C89.4268 293.882 89.9668 294.36 89.9668 295.16V295.714L87.998 295.83C86.2891 295.926 85.3252 296.698 85.3252 297.956C85.3252 299.248 86.3096 300.123 87.7178 300.123ZM95.9551 293.882C96.6729 293.882 97.0625 294.217 97.0625 294.812C97.0625 295.447 96.6455 295.769 95.8115 295.769H94.4443V293.882H95.9551ZM95.9072 296.801C96.8779 296.801 97.3564 297.156 97.3564 297.867C97.3564 298.558 96.9053 298.927 96.0713 298.927H94.4443V296.801H95.9072ZM92.9883 300H96.2969C97.8555 300 98.8262 299.193 98.8262 297.929C98.8262 297.026 98.2109 296.37 97.2812 296.247V296.192C97.9717 296.062 98.5049 295.386 98.5049 294.641C98.5049 293.506 97.6572 292.809 96.2559 292.809H92.9883V300ZM101.595 300L104.917 294.948H104.972V300H106.428V292.809H104.972L101.649 297.847H101.595V292.809H100.139V300H101.595ZM113.482 292.809H107.501V293.978H109.757V300H111.227V293.978H113.482V292.809ZM117.276 296.186C118.117 296.186 118.671 296.712 118.671 297.512C118.671 298.305 118.124 298.838 117.276 298.838H116.032V296.186H117.276ZM114.562 300H117.406C119.067 300 120.141 299.036 120.141 297.512C120.141 295.994 119.067 295.03 117.406 295.03H116.032V292.809H114.562V300Z" fill="white"/>
<rect x="0.5" y="0.5" width="359" height="360" stroke="#BFC7CE"/>
</svg>
